M48
INCH,LZ
;FILE_FORMAT=2:4
;TYPE=NON_PLATED
;Layer: NPTH_Through
;EasyEDA v6.5.48, 2025-01-23 00:24:19
;679677d7e51945128001c62092012e12,98668e1c1e3843b3a942620e40044077,10
;Gerber Generator version 0.2
;Holesize 1 = 0.0710 inch
T01C0.0710
;Holesize 2 = 0.1200 inch
T02C0.1200
;Holesize 3 = 0.1570 inch
T03C0.1570
;Holesize 4 = 0.1580 inch
T04C0.1580
%
G05
G90
T01
X007625Y020635
X003625Y020635
X015125Y020635
X011125Y020635
X022625Y020635
X018625Y020635
X030126Y020635
X026126Y020635
X007625Y013135
X003625Y013135
X015125Y013135
X011125Y013135
X022625Y013135
X018625Y013135
X028135Y007375
X028135Y011375
X011391Y005621
X007391Y005621
X022625Y005635
X018625Y005635
X007625Y035636
X003625Y035636
X007625Y028136
X003625Y028136
X015126Y028136
X011126Y028136
X022626Y028136
X018626Y028136
X030126Y028136
X026126Y028136
T02
X014062Y008365
X004689Y008365
X025385Y014062
X025385Y004689
T03
X014062Y002365
X004689Y002365
X031385Y014062
X031385Y004689
T04
X005625Y020625
X013125Y020625
X020625Y020625
X028126Y020625
X005625Y013125
X013125Y013125
X020625Y013125
X028125Y009375
X009391Y005611
X020625Y005625
X005625Y035626
X005625Y028126
X013125Y028126
X020626Y028126
X028126Y028126
M30
