M48
INCH,LZ
;FILE_FORMAT=2:4
;TYPE=PLATED
;Layer: PTH_Through
;EasyEDA v6.5.48, 2025-01-23 00:24:19
;679677d7e51945128001c62092012e12,98668e1c1e3843b3a942620e40044077,10
;Gerber Generator version 0.2
;Holesize 1 = 0.0120 inch
T01C0.0120
;Holesize 2 = 0.0340 inch
T02C0.0340
;Holesize 3 = 0.0350 inch
T03C0.0350
;Holesize 4 = 0.0360 inch
T04C0.0360
;Holesize 5 = 0.0510 inch
T05C0.0510
;Holesize 6 = 0.0590 inch
T06C0.0590
;Holesize 7 = 0.1180 inch
T07C0.1180
%
G05
G90
T01
X030285Y008235
X023550Y007710
X003190Y031690
X006765Y037786
X020250Y033880
X020250Y032850
X022050Y032850
X010626Y026126
X010626Y018625
X003126Y018625
X003125Y026126
X018126Y026126
X018126Y018625
X025626Y018625
X025626Y026220
X003126Y011125
X010626Y011125
X018126Y011125
X006891Y003611
X018126Y003625
X026125Y011875
X025170Y030200
X006880Y038610
X008300Y035580
X005930Y033780
X008906Y024703
X008906Y017203
X001406Y032420
X012820Y031850
X015480Y031150
X021684Y035690
X008906Y009703
X009690Y010850
X014970Y009960
X016064Y003347
X021765Y007785
X002720Y030330
X019445Y015285
X019445Y007785
X019445Y022785
X019446Y030286
X011945Y015285
X011940Y016610
X011945Y022785
X011940Y024160
T02
X016180Y039351
X016180Y038351
X016180Y037351
X016180Y036351
X016180Y035351
X016180Y034351
X016180Y033351
X016180Y032351
X016180Y031351
X016180Y030351
X016180Y029351
X016180Y028351
X010180Y039351
X010180Y038351
X010180Y037351
X010180Y036351
X010180Y035351
X010180Y034351
X010180Y033351
X010180Y032351
X010180Y031351
X010180Y030351
X010180Y029351
X010180Y028351
T03
X025050Y037071G85X025050Y037069
X025050Y036071G85X025050Y036069
X025050Y035071G85X025050Y035069
X025050Y034071G85X025050Y034069
T04
X029594Y002344
X028594Y002344
X027594Y002344
T05
X027290Y032877
X028290Y032877
X029290Y032877
X027290Y038586
X029290Y038586
T06
X030455Y035534G85X030455Y036125
X026124Y035534G85X026124Y036125
T07
X004615Y018625
X007115Y019625
X012115Y018625
X014615Y019625
X019615Y018625
X022115Y019625
X027116Y018625
X029616Y019625
X004615Y011125
X007115Y012125
X012115Y011125
X014615Y012125
X019615Y011125
X022115Y012125
X026125Y010385
X027125Y007885
X008381Y003611
X010881Y004611
X019615Y003625
X022115Y004625
X004615Y033626
X007115Y034626
X004615Y026126
X007115Y027126
X012116Y026126
X014616Y027126
X019616Y026126
X022116Y027126
X027116Y026126
X029616Y027126
M30
