M48
INCH,LZ
;FILE_FORMAT=2:4
;TYPE=PLATED
;Layer: PTH_Through_Via
;EasyEDA v6.5.48, 2025-01-23 00:24:19
;679677d7e51945128001c62092012e12,98668e1c1e3843b3a942620e40044077,10
;Gerber Generator version 0.2
;Holesize 1 = 0.0120 inch
T01C0.0120
%
G05
G90
T01
X030285Y008235
X023550Y007710
X003190Y031690
X006765Y037786
X020250Y033880
X020250Y032850
X022050Y032850
X010626Y026126
X010626Y018625
X003126Y018625
X003125Y026126
X018126Y026126
X018126Y018625
X025626Y018625
X025626Y026220
X003126Y011125
X010626Y011125
X018126Y011125
X006891Y003611
X018126Y003625
X026125Y011875
X025170Y030200
X006880Y038610
X008300Y035580
X005930Y033780
X008906Y024703
X008906Y017203
X001406Y032420
X012820Y031850
X015480Y031150
X021684Y035690
X008906Y009703
X009690Y010850
X014970Y009960
X016064Y003347
X021765Y007785
X002720Y030330
X019445Y015285
X019445Y007785
X019445Y022785
X019446Y030286
X011945Y015285
X011940Y016610
X011945Y022785
X011940Y024160
M30
