G04 Layer: BottomSolderMaskLayer*
G04 EasyEDA v6.5.48, 2025-01-23 00:24:19*
G04 679677d7e51945128001c62092012e12,98668e1c1e3843b3a942620e40044077,10*
G04 Gerber Generator version 0.2*
G04 Scale: 100 percent, Rotated: No, Reflected: No *
G04 Dimensions in inches *
G04 leading zeros omitted , absolute positions ,3 integer and 6 decimal *
%FSLAX36Y36*%
%MOIN*%

%AMMACRO1*4,1,8,-0.0402,-0.0296,-0.0414,-0.0284,-0.0414,0.0284,-0.0402,0.0296,0.0402,0.0296,0.0414,0.0284,0.0414,-0.0284,0.0402,-0.0296,-0.0402,-0.0296,0*%
%AMMACRO2*4,1,8,-0.0231,-0.0291,-0.0243,-0.0279,-0.0243,0.0279,-0.0231,0.0291,0.0231,0.0291,0.0243,0.0279,0.0243,-0.0279,0.0231,-0.0291,-0.0231,-0.0291,0*%
%AMMACRO3*4,1,8,-0.0279,-0.0243,-0.0291,-0.0231,-0.0291,0.0231,-0.0279,0.0243,0.0279,0.0243,0.0291,0.0231,0.0291,-0.0231,0.0279,-0.0243,-0.0279,-0.0243,0*%
%AMMACRO4*4,1,8,-0.0245,-0.0217,-0.0256,-0.0205,-0.0256,0.0205,-0.0245,0.0217,0.0245,0.0217,0.0256,0.0205,0.0256,-0.0205,0.0245,-0.0217,-0.0245,-0.0217,0*%
%AMMACRO5*4,1,8,-0.0245,-0.0217,-0.0256,-0.0205,-0.0256,0.0205,-0.0245,0.0217,0.0244,0.0217,0.0256,0.0205,0.0256,-0.0205,0.0244,-0.0217,-0.0245,-0.0217,0*%
%AMMACRO6*4,1,8,-0.0303,-0.0315,-0.0315,-0.0303,-0.0315,0.0303,-0.0303,0.0315,0.0303,0.0315,0.0315,0.0303,0.0315,-0.0303,0.0303,-0.0315,-0.0303,-0.0315,0*%
%AMMACRO7*4,1,8,-0.0519,-0.0532,-0.0542,-0.0509,-0.0542,0.0509,-0.0519,0.0532,0.0519,0.0532,0.0542,0.0509,0.0542,-0.0509,0.0519,-0.0532,-0.0519,-0.0532,0*%
%AMMACRO8*4,1,8,-0.0371,-0.0188,-0.0394,-0.0164,-0.0394,0.0164,-0.0371,0.0188,0.0371,0.0188,0.0394,0.0164,0.0394,-0.0164,0.0371,-0.0188,-0.0371,-0.0188,0*%
%AMMACRO9*4,1,8,-0.0371,-0.0201,-0.0394,-0.0178,-0.0394,0.0178,-0.0371,0.0201,0.0371,0.0201,0.0394,0.0178,0.0394,-0.0178,0.0371,-0.0201,-0.0371,-0.0201,0*%
%AMMACRO10*4,1,8,-0.0509,-0.0542,-0.0532,-0.0519,-0.0532,0.0519,-0.0509,0.0542,0.0509,0.0542,0.0532,0.0519,0.0532,-0.0519,0.0509,-0.0542,-0.0509,-0.0542,0*%
%AMMACRO11*4,1,8,-0.0164,-0.0394,-0.0188,-0.0371,-0.0188,0.0371,-0.0164,0.0394,0.0164,0.0394,0.0188,0.0371,0.0188,-0.0371,0.0164,-0.0394,-0.0164,-0.0394,0*%
%AMMACRO12*4,1,8,-0.0178,-0.0394,-0.0201,-0.0371,-0.0201,0.0371,-0.0178,0.0394,0.0178,0.0394,0.0201,0.0371,0.0201,-0.0371,0.0178,-0.0394,-0.0178,-0.0394,0*%
%AMMACRO13*4,1,8,-0.0304,-0.0315,-0.0315,-0.0304,-0.0315,0.0304,-0.0304,0.0315,0.0304,0.0315,0.0315,0.0304,0.0315,-0.0304,0.0304,-0.0315,-0.0304,-0.0315,0*%
%AMMACRO14*4,1,8,-0.0343,-0.032,-0.0355,-0.0308,-0.0355,0.0308,-0.0343,0.032,0.0343,0.032,0.0355,0.0308,0.0355,-0.0308,0.0343,-0.032,-0.0343,-0.032,0*%
%ADD10MACRO1*%
%ADD11MACRO2*%
%ADD12MACRO3*%
%ADD13MACRO4*%
%ADD14MACRO5*%
%ADD15MACRO6*%
%ADD16C,0.0630*%
%ADD17MACRO7*%
%ADD18C,0.1419*%
%ADD19C,0.1780*%
%ADD20C,0.0787*%
%ADD21MACRO8*%
%ADD22MACRO9*%
%ADD23MACRO10*%
%ADD24MACRO11*%
%ADD25MACRO12*%
%ADD26MACRO13*%
%ADD27C,0.0631*%
%ADD28MACRO14*%
%ADD29C,0.0709*%
%ADD30C,0.0749*%
%ADD31O,0.094551X0.16147999999999998*%
%ADD32O,0.0171X0.16147999999999998*%

%LPD*%
D10*
G01*
X2366640Y3179929D03*
G01*
X2583315Y3180009D03*
D11*
G01*
X2168371Y3178999D03*
G01*
X2089628Y3178999D03*
D12*
G01*
X140599Y3241927D03*
G01*
X140599Y3320671D03*
D13*
G01*
X890643Y3342340D03*
G01*
X890643Y3220299D03*
D14*
G01*
X3140691Y3342340D03*
G01*
X3140691Y3220299D03*
D13*
G01*
X890643Y2592324D03*
G01*
X890643Y2470283D03*
G01*
X1640660Y2592324D03*
G01*
X1640660Y2470283D03*
G01*
X2390675Y2592324D03*
G01*
X2390675Y2470283D03*
D14*
G01*
X3140691Y2592324D03*
G01*
X3140691Y2470283D03*
D13*
G01*
X890643Y1842308D03*
G01*
X890643Y1720267D03*
G01*
X1640660Y1842308D03*
G01*
X1640660Y1720267D03*
G01*
X2390675Y1842308D03*
G01*
X2390675Y1720267D03*
D14*
G01*
X3140691Y1842308D03*
G01*
X3140691Y1720267D03*
D13*
G01*
X890643Y1092292D03*
G01*
X890643Y970251D03*
G01*
X1640660Y1092292D03*
G01*
X1640660Y970251D03*
G01*
X2390675Y1092292D03*
G01*
X2390675Y970251D03*
G01*
X2484428Y642120D03*
G01*
X2484428Y764159D03*
G01*
X1606431Y456722D03*
G01*
X1606431Y334682D03*
G01*
X2390675Y342275D03*
G01*
X2390675Y220236D03*
D15*
G01*
X2959436Y234380D03*
D16*
G01*
X2859440Y234380D03*
G01*
X2759440Y234380D03*
D17*
G01*
X312516Y1862495D03*
G01*
X851516Y1961495D03*
D18*
G01*
X461509Y1862489D03*
G01*
X711509Y1962489D03*
D19*
G01*
X562489Y2062500D03*
D20*
G01*
X762510Y2063490D03*
G01*
X362510Y2063490D03*
D21*
G01*
X676514Y2278497D03*
D22*
G01*
X676516Y2213495D03*
G01*
X444516Y2213495D03*
G01*
X444516Y2278488D03*
D17*
G01*
X1062516Y1862495D03*
G01*
X1601516Y1961495D03*
D18*
G01*
X1211509Y1862489D03*
G01*
X1461509Y1962489D03*
D19*
G01*
X1312489Y2062500D03*
D20*
G01*
X1512510Y2063490D03*
G01*
X1112510Y2063490D03*
D21*
G01*
X1426514Y2278497D03*
D22*
G01*
X1426516Y2213495D03*
G01*
X1194516Y2213495D03*
G01*
X1194516Y2278488D03*
D17*
G01*
X1812516Y1862495D03*
G01*
X2351516Y1961495D03*
D18*
G01*
X1961509Y1862489D03*
G01*
X2211509Y1962489D03*
D19*
G01*
X2062489Y2062500D03*
D20*
G01*
X2262510Y2063490D03*
G01*
X1862510Y2063490D03*
D21*
G01*
X2176514Y2278497D03*
D22*
G01*
X2176516Y2213495D03*
G01*
X1944516Y2213495D03*
G01*
X1944516Y2278488D03*
D17*
G01*
X2562615Y1862495D03*
G01*
X3101616Y1961495D03*
D18*
G01*
X2711610Y1862489D03*
G01*
X2961610Y1962489D03*
D19*
G01*
X2812590Y2062500D03*
D20*
G01*
X3012610Y2063490D03*
G01*
X2612610Y2063490D03*
D21*
G01*
X2926615Y2278497D03*
D22*
G01*
X2926616Y2213495D03*
G01*
X2694616Y2213495D03*
G01*
X2694616Y2278488D03*
D17*
G01*
X312516Y1112495D03*
G01*
X851516Y1211495D03*
D18*
G01*
X461509Y1112489D03*
G01*
X711509Y1212489D03*
D19*
G01*
X562489Y1312500D03*
D20*
G01*
X762510Y1313490D03*
G01*
X362510Y1313490D03*
D21*
G01*
X676514Y1528497D03*
D22*
G01*
X676516Y1463495D03*
G01*
X444516Y1463495D03*
G01*
X444516Y1528488D03*
D17*
G01*
X1062516Y1112495D03*
G01*
X1601516Y1211495D03*
D18*
G01*
X1211509Y1112489D03*
G01*
X1461509Y1212489D03*
D19*
G01*
X1312489Y1312500D03*
D20*
G01*
X1512510Y1313490D03*
G01*
X1112510Y1313490D03*
D21*
G01*
X1426514Y1528497D03*
D22*
G01*
X1426516Y1463495D03*
G01*
X1194516Y1463495D03*
G01*
X1194516Y1528488D03*
D17*
G01*
X1812516Y1112495D03*
G01*
X2351516Y1211495D03*
D18*
G01*
X1961509Y1112489D03*
G01*
X2211509Y1212489D03*
D19*
G01*
X2062489Y1312500D03*
D20*
G01*
X2262510Y1313490D03*
G01*
X1862510Y1313490D03*
D21*
G01*
X2176514Y1528497D03*
D22*
G01*
X2176516Y1463495D03*
G01*
X1944516Y1463495D03*
G01*
X1944516Y1528488D03*
D23*
G01*
X2612485Y1187473D03*
G01*
X2711484Y648474D03*
D18*
G01*
X2612479Y1038479D03*
G01*
X2712479Y788479D03*
D19*
G01*
X2812489Y937500D03*
D20*
G01*
X2813479Y737480D03*
G01*
X2813479Y1137480D03*
D24*
G01*
X3028487Y823475D03*
D25*
G01*
X2963485Y823474D03*
G01*
X2963485Y1055473D03*
G01*
X3028479Y1055473D03*
D17*
G01*
X689116Y361095D03*
G01*
X1228116Y460094D03*
D18*
G01*
X838109Y361089D03*
G01*
X1088109Y461089D03*
D19*
G01*
X939089Y561100D03*
D20*
G01*
X1139110Y562089D03*
G01*
X739110Y562089D03*
D21*
G01*
X1053114Y777098D03*
D22*
G01*
X1053116Y712094D03*
G01*
X821116Y712094D03*
G01*
X821116Y777089D03*
D17*
G01*
X1812516Y362495D03*
G01*
X2351516Y461494D03*
D18*
G01*
X1961509Y362489D03*
G01*
X2211509Y462489D03*
D19*
G01*
X2062489Y562500D03*
D20*
G01*
X2262510Y563490D03*
G01*
X1862510Y563490D03*
D21*
G01*
X2176514Y778497D03*
D22*
G01*
X2176516Y713495D03*
G01*
X1944516Y713495D03*
G01*
X1944516Y778488D03*
D26*
G01*
X2505000Y3707000D03*
D27*
G01*
X2505000Y3606999D03*
G01*
X2505000Y3506999D03*
G01*
X2505000Y3406999D03*
D28*
G01*
X1617999Y3935049D03*
D29*
G01*
X1618000Y3835050D03*
G01*
X1618000Y3735050D03*
G01*
X1618000Y3635050D03*
G01*
X1618000Y3535050D03*
G01*
X1618000Y3435050D03*
G01*
X1618000Y3335050D03*
G01*
X1618000Y3235050D03*
G01*
X1618000Y3135050D03*
G01*
X1618000Y3035050D03*
G01*
X1618000Y2935050D03*
G01*
X1618000Y2835050D03*
D28*
G01*
X1017999Y3935049D03*
D29*
G01*
X1018000Y3835050D03*
G01*
X1018000Y3735050D03*
G01*
X1018000Y3635050D03*
G01*
X1018000Y3535050D03*
G01*
X1018000Y3435050D03*
G01*
X1018000Y3335050D03*
G01*
X1018000Y3235050D03*
G01*
X1018000Y3135050D03*
G01*
X1018000Y3035050D03*
G01*
X1018000Y2935050D03*
G01*
X1018000Y2835050D03*
D17*
G01*
X312537Y3362571D03*
G01*
X851538Y3461571D03*
D21*
G01*
X676536Y3778574D03*
D22*
G01*
X676538Y3713570D03*
G01*
X444538Y3713570D03*
G01*
X444538Y3778564D03*
D18*
G01*
X461530Y3362570D03*
G01*
X711530Y3462570D03*
D19*
G01*
X562510Y3562579D03*
D20*
G01*
X762529Y3563569D03*
G01*
X362530Y3563569D03*
D17*
G01*
X312537Y2612555D03*
G01*
X851538Y2711555D03*
D21*
G01*
X676536Y3028558D03*
D22*
G01*
X676538Y2963555D03*
G01*
X444538Y2963555D03*
G01*
X444538Y3028549D03*
D18*
G01*
X461530Y2612550D03*
G01*
X711530Y2712550D03*
D19*
G01*
X562510Y2812559D03*
D20*
G01*
X762529Y2813550D03*
G01*
X362530Y2813550D03*
D17*
G01*
X1062554Y2612555D03*
G01*
X1601553Y2711555D03*
D21*
G01*
X1426553Y3028558D03*
D22*
G01*
X1426553Y2963555D03*
G01*
X1194553Y2963555D03*
G01*
X1194553Y3028549D03*
D18*
G01*
X1211549Y2612550D03*
G01*
X1461549Y2712550D03*
D19*
G01*
X1312529Y2812559D03*
D20*
G01*
X1512550Y2813550D03*
G01*
X1112550Y2813550D03*
D17*
G01*
X1812570Y2612555D03*
G01*
X2351570Y2711555D03*
D21*
G01*
X2176568Y3028558D03*
D22*
G01*
X2176570Y2963555D03*
G01*
X1944570Y2963555D03*
G01*
X1944570Y3028549D03*
D18*
G01*
X1961559Y2612550D03*
G01*
X2211559Y2712550D03*
D19*
G01*
X2062539Y2812559D03*
D20*
G01*
X2262560Y2813550D03*
G01*
X1862560Y2813550D03*
D17*
G01*
X2562586Y2612555D03*
G01*
X3101585Y2711555D03*
D21*
G01*
X2926585Y3028558D03*
D22*
G01*
X2926585Y2963555D03*
G01*
X2694585Y2963555D03*
G01*
X2694585Y3028549D03*
D18*
G01*
X2711580Y2612550D03*
G01*
X2961580Y2712550D03*
D19*
G01*
X2812560Y2812559D03*
D20*
G01*
X3012579Y2813550D03*
G01*
X2612579Y2813550D03*
G36*
X93384Y3640185D02*
G01*
X93121Y3640194D01*
X92467Y3640237D01*
X91954Y3640304D01*
X91313Y3640432D01*
X90799Y3640569D01*
X90180Y3640781D01*
X89704Y3640978D01*
X89117Y3641266D01*
X88663Y3641529D01*
X88119Y3641891D01*
X87703Y3642210D01*
X87211Y3642640D01*
X86838Y3643013D01*
X86408Y3643506D01*
X86089Y3643921D01*
X85727Y3644466D01*
X85464Y3644919D01*
X85176Y3645506D01*
X84978Y3645981D01*
X84767Y3646601D01*
X84630Y3647114D01*
X84502Y3647755D01*
X84436Y3648270D01*
X84393Y3648923D01*
X84384Y3649185D01*
X84384Y3704304D01*
X84393Y3704567D01*
X84436Y3705219D01*
X84502Y3705734D01*
X84630Y3706374D01*
X84767Y3706889D01*
X84978Y3707507D01*
X85176Y3707984D01*
X85464Y3708571D01*
X85727Y3709023D01*
X86089Y3709567D01*
X86408Y3709983D01*
X86838Y3710475D01*
X87211Y3710848D01*
X87703Y3711280D01*
X88119Y3711597D01*
X88663Y3711961D01*
X89117Y3712222D01*
X89704Y3712512D01*
X90180Y3712709D01*
X90799Y3712919D01*
X91313Y3713058D01*
X91954Y3713184D01*
X92467Y3713252D01*
X93121Y3713294D01*
X93384Y3713303D01*
X187872Y3713303D01*
X188135Y3713294D01*
X188787Y3713252D01*
X189301Y3713184D01*
X189942Y3713058D01*
X190457Y3712919D01*
X191075Y3712709D01*
X191552Y3712512D01*
X192139Y3712222D01*
X192591Y3711961D01*
X193135Y3711597D01*
X193551Y3711280D01*
X194043Y3710848D01*
X194416Y3710475D01*
X194848Y3709983D01*
X195165Y3709567D01*
X195529Y3709023D01*
X195790Y3708571D01*
X196080Y3707984D01*
X196277Y3707507D01*
X196487Y3706889D01*
X196626Y3706374D01*
X196752Y3705734D01*
X196819Y3705219D01*
X196862Y3704567D01*
X196871Y3704304D01*
X196871Y3649185D01*
X196862Y3648923D01*
X196819Y3648270D01*
X196752Y3647755D01*
X196626Y3647114D01*
X196487Y3646601D01*
X196277Y3645981D01*
X196080Y3645506D01*
X195790Y3644919D01*
X195529Y3644466D01*
X195165Y3643921D01*
X194848Y3643506D01*
X194416Y3643013D01*
X194043Y3642640D01*
X193551Y3642210D01*
X193135Y3641891D01*
X192591Y3641529D01*
X192139Y3641266D01*
X191552Y3640978D01*
X191075Y3640781D01*
X190457Y3640569D01*
X189942Y3640432D01*
X189301Y3640304D01*
X188787Y3640237D01*
X188135Y3640194D01*
X187872Y3640185D01*
G37*
G36*
X93384Y3411848D02*
G01*
X93121Y3411857D01*
X92467Y3411900D01*
X91954Y3411966D01*
X91313Y3412094D01*
X90799Y3412231D01*
X90180Y3412442D01*
X89704Y3412640D01*
X89117Y3412928D01*
X88663Y3413191D01*
X88119Y3413553D01*
X87703Y3413872D01*
X87211Y3414303D01*
X86838Y3414675D01*
X86408Y3415167D01*
X86089Y3415583D01*
X85727Y3416127D01*
X85464Y3416581D01*
X85176Y3417168D01*
X84978Y3417644D01*
X84767Y3418263D01*
X84630Y3418777D01*
X84502Y3419418D01*
X84436Y3419931D01*
X84393Y3420585D01*
X84384Y3420848D01*
X84384Y3475965D01*
X84393Y3476228D01*
X84436Y3476882D01*
X84502Y3477395D01*
X84630Y3478036D01*
X84767Y3478551D01*
X84978Y3479169D01*
X85176Y3479645D01*
X85464Y3480232D01*
X85727Y3480686D01*
X86089Y3481230D01*
X86408Y3481646D01*
X86838Y3482138D01*
X87211Y3482510D01*
X87703Y3482941D01*
X88119Y3483260D01*
X88663Y3483622D01*
X89117Y3483885D01*
X89704Y3484173D01*
X90180Y3484371D01*
X90799Y3484582D01*
X91313Y3484720D01*
X91954Y3484846D01*
X92467Y3484913D01*
X93121Y3484956D01*
X93384Y3484965D01*
X187872Y3484965D01*
X188135Y3484956D01*
X188787Y3484913D01*
X189301Y3484846D01*
X189942Y3484720D01*
X190457Y3484582D01*
X191075Y3484371D01*
X191552Y3484173D01*
X192139Y3483885D01*
X192591Y3483622D01*
X193135Y3483260D01*
X193551Y3482941D01*
X194043Y3482510D01*
X194416Y3482138D01*
X194848Y3481646D01*
X195165Y3481230D01*
X195529Y3480686D01*
X195790Y3480232D01*
X196080Y3479645D01*
X196277Y3479169D01*
X196487Y3478551D01*
X196626Y3478036D01*
X196752Y3477395D01*
X196819Y3476882D01*
X196862Y3476228D01*
X196871Y3475965D01*
X196871Y3420848D01*
X196862Y3420585D01*
X196819Y3419931D01*
X196752Y3419418D01*
X196626Y3418777D01*
X196487Y3418263D01*
X196277Y3417644D01*
X196080Y3417168D01*
X195790Y3416581D01*
X195529Y3416127D01*
X195165Y3415583D01*
X194848Y3415167D01*
X194416Y3414675D01*
X194043Y3414303D01*
X193551Y3413872D01*
X193135Y3413553D01*
X192591Y3413191D01*
X192139Y3412928D01*
X191552Y3412640D01*
X191075Y3412442D01*
X190457Y3412231D01*
X189942Y3412094D01*
X189301Y3411966D01*
X188787Y3411900D01*
X188135Y3411857D01*
X187872Y3411848D01*
G37*
D30*
G01*
X2728969Y3287689D03*
G01*
X2828969Y3287689D03*
G01*
X2928969Y3287689D03*
G01*
X2728969Y3858560D03*
G01*
X2928969Y3858560D03*
D31*
G01*
X3045510Y3582970D03*
G01*
X2612439Y3582970D03*
M02*
