G04 Layer: TopLayer*
G04 EasyEDA v6.5.48, 2025-01-23 00:24:19*
G04 679677d7e51945128001c62092012e12,98668e1c1e3843b3a942620e40044077,10*
G04 Gerber Generator version 0.2*
G04 Scale: 100 percent, Rotated: No, Reflected: No *
G04 Dimensions in inches *
G04 leading zeros omitted , absolute positions ,3 integer and 6 decimal *
%FSLAX36Y36*%
%MOIN*%

%AMMACRO1*21,1,$1,$2,0,0,$3*%
%ADD10C,0.0100*%
%ADD11MACRO1,0.059X0.059X0.0000*%
%ADD12C,0.0590*%
%ADD13C,0.1339*%
%ADD14C,0.1700*%
%ADD15C,0.0787*%
%ADD16R,0.0591X0.0591*%
%ADD17C,0.0591*%
%ADD18R,0.0669X0.0600*%
%ADD19C,0.0669*%
%ADD20C,0.0709*%
%ADD21O,0.09055099999999999X0.15747999999999998*%
%ADD22C,0.0244*%
%ADD23C,0.0196*%

%LPD*%
G36*
X109560Y140620D02*
G01*
X101400Y140980D01*
X93780Y142000D01*
X86260Y143680D01*
X78920Y146020D01*
X71820Y148980D01*
X65000Y152540D01*
X58520Y156680D01*
X52420Y161380D01*
X46760Y166600D01*
X41580Y172280D01*
X36900Y178380D01*
X32780Y184880D01*
X29240Y191720D01*
X26320Y198840D01*
X24020Y206180D01*
X22360Y213700D01*
X21380Y221320D01*
X21040Y229140D01*
X21040Y3956860D01*
X21400Y3965020D01*
X22420Y3972640D01*
X24100Y3980160D01*
X26440Y3987500D01*
X29400Y3994600D01*
X32960Y4001420D01*
X37100Y4007900D01*
X41800Y4014000D01*
X47020Y4019660D01*
X52699Y4024840D01*
X58800Y4029520D01*
X65300Y4033639D01*
X72140Y4037180D01*
X79260Y4040100D01*
X86600Y4042400D01*
X94120Y4044060D01*
X101740Y4045040D01*
X109560Y4045380D01*
X3264440Y4045380D01*
X3272600Y4045020D01*
X3280220Y4044000D01*
X3287740Y4042320D01*
X3295080Y4039980D01*
X3302180Y4037020D01*
X3309000Y4033460D01*
X3315480Y4029320D01*
X3321580Y4024620D01*
X3327240Y4019400D01*
X3332420Y4013720D01*
X3337100Y4007620D01*
X3341220Y4001120D01*
X3344760Y3994280D01*
X3347679Y3987160D01*
X3349980Y3979820D01*
X3351640Y3972300D01*
X3352620Y3964680D01*
X3352960Y3956860D01*
X3352960Y229140D01*
X3352600Y220980D01*
X3351580Y213359D01*
X3349900Y205840D01*
X3347559Y198500D01*
X3344620Y191400D01*
X3341040Y184579D01*
X3336900Y178100D01*
X3332200Y172000D01*
X3326980Y166340D01*
X3321300Y161160D01*
X3315200Y156480D01*
X3308700Y152360D01*
X3301860Y148820D01*
X3294740Y145900D01*
X3287400Y143600D01*
X3279880Y141940D01*
X3272260Y140960D01*
X3264440Y140620D01*
X1416440Y140620D01*
X1414780Y140980D01*
X1413420Y142000D01*
X1412600Y143500D01*
X1412500Y145200D01*
X1413100Y146780D01*
X1414300Y147980D01*
X1415900Y148580D01*
X1422460Y149500D01*
X1430420Y151360D01*
X1438160Y153960D01*
X1445640Y157260D01*
X1452800Y161240D01*
X1459540Y165859D01*
X1465840Y171100D01*
X1471620Y176880D01*
X1476840Y183160D01*
X1481459Y189920D01*
X1485440Y197060D01*
X1488740Y204540D01*
X1491339Y212300D01*
X1493220Y220260D01*
X1494340Y228359D01*
X1494720Y236520D01*
X1494340Y244700D01*
X1493220Y252800D01*
X1491339Y260760D01*
X1488740Y268520D01*
X1485440Y276000D01*
X1481459Y283140D01*
X1476840Y289900D01*
X1471620Y296180D01*
X1465840Y301960D01*
X1459540Y307200D01*
X1452800Y311820D01*
X1445640Y315800D01*
X1438160Y319100D01*
X1430420Y321700D01*
X1422460Y323560D01*
X1414360Y324700D01*
X1406180Y325080D01*
X1398020Y324700D01*
X1389900Y323560D01*
X1381940Y321700D01*
X1374199Y319100D01*
X1366720Y315800D01*
X1359560Y311820D01*
X1352820Y307200D01*
X1346519Y301960D01*
X1340740Y296180D01*
X1335520Y289900D01*
X1330900Y283140D01*
X1326920Y276000D01*
X1323620Y268520D01*
X1321020Y260760D01*
X1319139Y252800D01*
X1318020Y244700D01*
X1317640Y236520D01*
X1318020Y228359D01*
X1319139Y220260D01*
X1321020Y212300D01*
X1323620Y204540D01*
X1326920Y197060D01*
X1330900Y189920D01*
X1335520Y183160D01*
X1340740Y176880D01*
X1346519Y171100D01*
X1352820Y165859D01*
X1359560Y161240D01*
X1366720Y157260D01*
X1374199Y153960D01*
X1381940Y151360D01*
X1389900Y149500D01*
X1396459Y148580D01*
X1398060Y147980D01*
X1399259Y146780D01*
X1399860Y145200D01*
X1399760Y143500D01*
X1398940Y142000D01*
X1397580Y140980D01*
X1395920Y140620D01*
X479120Y140620D01*
X477460Y140980D01*
X476100Y142000D01*
X475280Y143500D01*
X475180Y145200D01*
X475780Y146780D01*
X476980Y147980D01*
X478579Y148580D01*
X485140Y149500D01*
X493100Y151360D01*
X500840Y153960D01*
X508320Y157260D01*
X515480Y161240D01*
X522220Y165859D01*
X528520Y171100D01*
X534300Y176880D01*
X539520Y183160D01*
X544140Y189920D01*
X548120Y197060D01*
X551420Y204540D01*
X554020Y212300D01*
X555900Y220260D01*
X557020Y228359D01*
X557400Y236520D01*
X557020Y244700D01*
X555900Y252800D01*
X554020Y260760D01*
X551420Y268520D01*
X548120Y276000D01*
X544140Y283140D01*
X539520Y289900D01*
X534300Y296180D01*
X528520Y301960D01*
X522220Y307200D01*
X515480Y311820D01*
X508320Y315800D01*
X500840Y319100D01*
X493100Y321700D01*
X485140Y323560D01*
X477040Y324700D01*
X468860Y325080D01*
X460700Y324700D01*
X452580Y323560D01*
X444620Y321700D01*
X436880Y319100D01*
X429400Y315800D01*
X422239Y311820D01*
X415500Y307200D01*
X409200Y301960D01*
X403420Y296180D01*
X398200Y289900D01*
X393579Y283140D01*
X389600Y276000D01*
X386300Y268520D01*
X383700Y260760D01*
X381820Y252800D01*
X380700Y244700D01*
X380319Y236520D01*
X380700Y228359D01*
X381820Y220260D01*
X383700Y212300D01*
X386300Y204540D01*
X389600Y197060D01*
X393579Y189920D01*
X398200Y183160D01*
X403420Y176880D01*
X409200Y171100D01*
X415500Y165859D01*
X422239Y161240D01*
X429400Y157260D01*
X436880Y153960D01*
X444620Y151360D01*
X452580Y149500D01*
X459140Y148580D01*
X460740Y147980D01*
X461940Y146780D01*
X462540Y145200D01*
X462440Y143500D01*
X461620Y142000D01*
X460260Y140980D01*
X458600Y140620D01*
G37*

%LPC*%
G36*
X2930160Y194680D02*
G01*
X2988720Y194680D01*
X2991200Y194960D01*
X2993360Y195720D01*
X2995280Y196920D01*
X2996900Y198540D01*
X2998100Y200460D01*
X2998860Y202620D01*
X2999140Y205100D01*
X2999140Y263660D01*
X2998860Y266140D01*
X2998100Y268300D01*
X2996900Y270220D01*
X2995280Y271840D01*
X2993360Y273040D01*
X2991200Y273800D01*
X2988720Y274080D01*
X2930160Y274080D01*
X2927679Y273800D01*
X2925520Y273040D01*
X2923600Y271840D01*
X2921980Y270220D01*
X2920760Y268300D01*
X2920020Y266140D01*
X2919740Y263660D01*
X2919740Y205100D01*
X2920020Y202620D01*
X2920760Y200460D01*
X2921980Y198540D01*
X2923600Y196920D01*
X2925520Y195720D01*
X2927679Y194960D01*
G37*
G36*
X2858100Y194720D02*
G01*
X2863399Y194880D01*
X2868639Y195780D01*
X2873700Y197340D01*
X2878519Y199579D01*
X2882980Y202420D01*
X2887020Y205840D01*
X2890580Y209780D01*
X2893580Y214160D01*
X2895980Y218880D01*
X2897720Y223900D01*
X2898780Y229080D01*
X2899120Y234380D01*
X2898780Y239680D01*
X2897720Y244860D01*
X2895980Y249880D01*
X2893580Y254600D01*
X2890580Y258980D01*
X2887020Y262920D01*
X2882980Y266340D01*
X2878519Y269180D01*
X2873700Y271420D01*
X2868639Y272980D01*
X2863399Y273880D01*
X2858100Y274040D01*
X2852840Y273520D01*
X2847679Y272280D01*
X2846740Y271940D01*
X2845240Y271660D01*
X2843740Y271980D01*
X2842480Y272840D01*
X2791700Y323600D01*
X2789260Y325620D01*
X2786620Y327020D01*
X2783780Y327879D01*
X2780620Y328200D01*
X2566960Y328200D01*
X2565419Y328500D01*
X2564120Y329380D01*
X2388380Y505120D01*
X2387500Y506420D01*
X2387200Y507960D01*
X2387200Y604800D01*
X2386880Y607960D01*
X2386020Y610800D01*
X2384620Y613440D01*
X2382600Y615880D01*
X2209340Y789140D01*
X2206900Y791160D01*
X2204260Y792560D01*
X2201420Y793420D01*
X2198260Y793740D01*
X2194600Y793740D01*
X2193020Y794060D01*
X2188280Y797600D01*
X2184900Y799320D01*
X2181260Y800420D01*
X2177500Y800920D01*
X2173700Y800740D01*
X2170000Y799940D01*
X2166460Y798540D01*
X2163240Y796540D01*
X2160380Y794040D01*
X2158000Y791080D01*
X2156140Y787760D01*
X2154880Y784180D01*
X2154240Y780440D01*
X2154240Y776640D01*
X2154880Y772900D01*
X2156140Y769320D01*
X2158000Y766000D01*
X2160380Y763040D01*
X2163240Y760540D01*
X2166460Y758540D01*
X2170000Y757140D01*
X2173700Y756340D01*
X2177500Y756160D01*
X2181260Y756660D01*
X2184900Y757760D01*
X2188280Y759479D01*
X2189960Y760720D01*
X2191240Y761340D01*
X2192640Y761480D01*
X2194020Y761140D01*
X2195180Y760320D01*
X2355620Y599880D01*
X2356500Y598580D01*
X2356800Y597040D01*
X2356800Y500200D01*
X2357120Y497040D01*
X2357980Y494200D01*
X2359380Y491560D01*
X2361400Y489120D01*
X2548120Y302400D01*
X2550560Y300380D01*
X2553200Y298980D01*
X2556040Y298120D01*
X2559200Y297800D01*
X2772860Y297800D01*
X2774400Y297500D01*
X2775700Y296620D01*
X2820940Y251380D01*
X2821740Y250240D01*
X2822100Y248900D01*
X2821960Y247500D01*
X2820539Y242280D01*
X2819840Y237040D01*
X2819840Y231720D01*
X2820539Y226480D01*
X2821940Y221360D01*
X2824020Y216480D01*
X2826720Y211920D01*
X2830000Y207760D01*
X2833820Y204060D01*
X2838080Y200920D01*
X2842720Y198380D01*
X2847679Y196480D01*
X2852840Y195240D01*
G37*
G36*
X2742180Y198680D02*
G01*
X2742180Y217120D01*
X2723740Y217120D01*
X2724020Y216480D01*
X2726720Y211920D01*
X2730000Y207760D01*
X2733820Y204060D01*
X2738080Y200920D01*
G37*
G36*
X2776680Y198720D02*
G01*
X2778519Y199579D01*
X2782980Y202420D01*
X2787020Y205840D01*
X2790580Y209780D01*
X2793580Y214160D01*
X2795100Y217120D01*
X2776680Y217120D01*
G37*
G36*
X2776680Y251620D02*
G01*
X2795100Y251620D01*
X2793580Y254600D01*
X2790580Y258980D01*
X2787020Y262920D01*
X2782980Y266340D01*
X2778519Y269180D01*
X2776680Y270040D01*
G37*
G36*
X2723740Y251620D02*
G01*
X2742180Y251620D01*
X2742180Y270080D01*
X2738080Y267840D01*
X2733820Y264700D01*
X2730000Y261000D01*
X2726720Y256840D01*
X2724020Y252280D01*
G37*
G36*
X838120Y283980D02*
G01*
X845680Y284340D01*
X853160Y285460D01*
X860500Y287300D01*
X867640Y289840D01*
X874479Y293080D01*
X880960Y296960D01*
X887039Y301480D01*
X892660Y306560D01*
X897740Y312160D01*
X902240Y318240D01*
X906140Y324739D01*
X909360Y331580D01*
X911919Y338700D01*
X913760Y346040D01*
X914860Y353540D01*
X915240Y361100D01*
X914860Y368660D01*
X913760Y376140D01*
X911919Y383480D01*
X909360Y390600D01*
X906140Y397460D01*
X902240Y403940D01*
X897740Y410020D01*
X892660Y415620D01*
X887039Y420720D01*
X880960Y425220D01*
X874479Y429120D01*
X867640Y432340D01*
X860500Y434900D01*
X853160Y436740D01*
X845680Y437840D01*
X838120Y438220D01*
X830560Y437840D01*
X823060Y436740D01*
X815720Y434900D01*
X808600Y432340D01*
X801760Y429120D01*
X795260Y425220D01*
X789180Y420720D01*
X783580Y415620D01*
X778500Y410020D01*
X773980Y403940D01*
X770100Y397460D01*
X766860Y390600D01*
X764320Y383480D01*
X762480Y376140D01*
X761360Y368660D01*
X761000Y361100D01*
X761360Y353540D01*
X762480Y346040D01*
X764320Y338700D01*
X766860Y331580D01*
X770100Y324739D01*
X773980Y318240D01*
X778500Y312160D01*
X783580Y306560D01*
X789180Y301480D01*
X795260Y296960D01*
X801760Y293080D01*
X808600Y289840D01*
X815720Y287300D01*
X823060Y285460D01*
X830560Y284340D01*
G37*
G36*
X1961519Y285380D02*
G01*
X1969079Y285740D01*
X1976560Y286860D01*
X1983899Y288700D01*
X1991040Y291240D01*
X1997880Y294480D01*
X2004360Y298360D01*
X2010440Y302880D01*
X2016060Y307960D01*
X2021140Y313560D01*
X2025640Y319640D01*
X2029540Y326140D01*
X2032760Y332980D01*
X2035320Y340100D01*
X2037160Y347440D01*
X2038260Y354940D01*
X2038640Y362500D01*
X2038260Y370060D01*
X2037160Y377540D01*
X2035320Y384880D01*
X2032760Y392000D01*
X2029540Y398860D01*
X2025640Y405340D01*
X2021140Y411420D01*
X2016060Y417020D01*
X2010440Y422120D01*
X2004360Y426620D01*
X1997880Y430520D01*
X1991040Y433740D01*
X1983899Y436300D01*
X1976560Y438140D01*
X1969079Y439240D01*
X1961519Y439620D01*
X1953959Y439240D01*
X1946459Y438140D01*
X1939120Y436300D01*
X1932000Y433740D01*
X1925160Y430520D01*
X1918660Y426620D01*
X1912580Y422120D01*
X1906980Y417020D01*
X1901900Y411420D01*
X1897380Y405340D01*
X1893500Y398860D01*
X1890260Y392000D01*
X1887720Y384880D01*
X1885880Y377540D01*
X1884760Y370060D01*
X1884400Y362500D01*
X1884760Y354940D01*
X1885880Y347440D01*
X1887720Y340100D01*
X1890260Y332980D01*
X1893500Y326140D01*
X1897380Y319640D01*
X1901900Y313560D01*
X1906980Y307960D01*
X1912580Y302880D01*
X1918660Y298360D01*
X1925160Y294480D01*
X1932000Y291240D01*
X1939120Y288700D01*
X1946459Y286860D01*
X1953959Y285740D01*
G37*
G36*
X1607360Y312320D02*
G01*
X1611120Y312820D01*
X1614740Y313920D01*
X1618140Y315640D01*
X1621200Y317900D01*
X1623820Y320640D01*
X1625940Y323780D01*
X1627520Y327239D01*
X1628460Y330920D01*
X1628800Y334700D01*
X1628460Y338480D01*
X1627520Y342160D01*
X1625940Y345620D01*
X1623820Y348760D01*
X1622720Y349920D01*
X1621879Y351200D01*
X1621600Y352700D01*
X1621600Y886400D01*
X1621279Y889560D01*
X1620420Y892400D01*
X1619019Y895040D01*
X1617000Y897480D01*
X1520500Y993980D01*
X1519700Y995140D01*
X1519340Y996480D01*
X1519060Y999780D01*
X1518120Y1003460D01*
X1516540Y1006919D01*
X1514420Y1010060D01*
X1511800Y1012800D01*
X1508740Y1015060D01*
X1505340Y1016780D01*
X1501720Y1017880D01*
X1497960Y1018379D01*
X1494160Y1018199D01*
X1490440Y1017400D01*
X1486920Y1016000D01*
X1483680Y1014000D01*
X1480840Y1011500D01*
X1478440Y1008540D01*
X1476600Y1005220D01*
X1475340Y1001640D01*
X1474700Y997900D01*
X1474700Y994100D01*
X1475340Y990360D01*
X1476600Y986780D01*
X1478440Y983460D01*
X1480840Y980500D01*
X1483680Y978000D01*
X1486920Y976000D01*
X1490440Y974599D01*
X1494160Y973800D01*
X1496320Y973700D01*
X1497760Y973360D01*
X1498980Y972540D01*
X1590020Y881480D01*
X1590900Y880180D01*
X1591200Y878640D01*
X1591200Y352800D01*
X1590980Y351460D01*
X1590320Y350280D01*
X1587840Y347239D01*
X1586000Y343920D01*
X1584740Y340340D01*
X1584100Y336599D01*
X1584100Y332800D01*
X1584740Y329060D01*
X1586000Y325480D01*
X1587840Y322160D01*
X1590240Y319200D01*
X1593080Y316700D01*
X1596320Y314700D01*
X1599840Y313300D01*
X1603560Y312500D01*
G37*
G36*
X690040Y338680D02*
G01*
X693800Y339180D01*
X697420Y340280D01*
X700819Y342000D01*
X703880Y344260D01*
X706500Y347000D01*
X708620Y350140D01*
X710200Y353600D01*
X711140Y357280D01*
X711480Y361060D01*
X711140Y364840D01*
X710200Y368519D01*
X708620Y371980D01*
X706500Y375120D01*
X705420Y376260D01*
X704580Y377540D01*
X704300Y379020D01*
X704300Y393140D01*
X704599Y394680D01*
X705480Y395980D01*
X816600Y507120D01*
X818620Y509560D01*
X820020Y512200D01*
X820879Y515040D01*
X821200Y518200D01*
X821200Y796040D01*
X821500Y797580D01*
X822380Y798880D01*
X867120Y843620D01*
X868420Y844500D01*
X869960Y844800D01*
X970800Y844800D01*
X973960Y845120D01*
X976800Y845980D01*
X979440Y847380D01*
X981880Y849400D01*
X1008600Y876120D01*
X1010620Y878560D01*
X1012020Y881200D01*
X1012880Y884040D01*
X1013199Y887200D01*
X1013199Y1130840D01*
X1013500Y1132380D01*
X1014380Y1133680D01*
X1015680Y1134540D01*
X1017200Y1134840D01*
X1018740Y1134540D01*
X1020040Y1133660D01*
X1039080Y1114500D01*
X1039940Y1113220D01*
X1040240Y1111680D01*
X1040240Y1110640D01*
X1040879Y1106900D01*
X1042140Y1103320D01*
X1044000Y1100000D01*
X1046380Y1097040D01*
X1049240Y1094540D01*
X1052460Y1092540D01*
X1056000Y1091140D01*
X1059700Y1090340D01*
X1063500Y1090160D01*
X1067260Y1090660D01*
X1070900Y1091760D01*
X1074280Y1093480D01*
X1077340Y1095740D01*
X1079980Y1098480D01*
X1082100Y1101620D01*
X1083660Y1105080D01*
X1084620Y1108760D01*
X1084940Y1112540D01*
X1084620Y1116320D01*
X1083660Y1120000D01*
X1082100Y1123460D01*
X1079980Y1126600D01*
X1077340Y1129340D01*
X1074280Y1131600D01*
X1070900Y1133320D01*
X1067260Y1134420D01*
X1061860Y1135180D01*
X1060480Y1136080D01*
X1014360Y1182500D01*
X1013500Y1183800D01*
X1013199Y1185320D01*
X1013199Y1879079D01*
X1013500Y1880600D01*
X1014380Y1881900D01*
X1015660Y1882780D01*
X1017200Y1883080D01*
X1018740Y1882780D01*
X1020020Y1881900D01*
X1039120Y1862820D01*
X1039840Y1861819D01*
X1040240Y1860660D01*
X1040879Y1856900D01*
X1042140Y1853320D01*
X1044000Y1850000D01*
X1046380Y1847040D01*
X1049240Y1844540D01*
X1052460Y1842540D01*
X1056000Y1841140D01*
X1059700Y1840340D01*
X1063500Y1840160D01*
X1067260Y1840660D01*
X1070900Y1841759D01*
X1074280Y1843480D01*
X1077340Y1845740D01*
X1079980Y1848480D01*
X1082100Y1851620D01*
X1083660Y1855080D01*
X1084620Y1858760D01*
X1084940Y1862540D01*
X1084620Y1866320D01*
X1083660Y1870000D01*
X1082100Y1873460D01*
X1079980Y1876600D01*
X1077340Y1879340D01*
X1074280Y1881600D01*
X1070900Y1883320D01*
X1067260Y1884420D01*
X1063500Y1884920D01*
X1061920Y1884840D01*
X1060300Y1885120D01*
X1058920Y1886020D01*
X1014380Y1930560D01*
X1013500Y1931860D01*
X1013199Y1933380D01*
X1013199Y2541040D01*
X1013500Y2542580D01*
X1014380Y2543880D01*
X1059540Y2589060D01*
X1060920Y2589960D01*
X1062540Y2590220D01*
X1063500Y2590179D01*
X1067260Y2590659D01*
X1070900Y2591780D01*
X1074280Y2593480D01*
X1077340Y2595740D01*
X1079980Y2598480D01*
X1082100Y2601640D01*
X1083660Y2605100D01*
X1084620Y2608759D01*
X1084900Y2612080D01*
X1085260Y2613420D01*
X1086060Y2614560D01*
X1210600Y2739120D01*
X1212620Y2741560D01*
X1214020Y2744200D01*
X1214880Y2747040D01*
X1215200Y2750200D01*
X1215200Y2779120D01*
X1215520Y2780700D01*
X1216440Y2782020D01*
X1217800Y2782880D01*
X1219380Y2783120D01*
X1220940Y2782740D01*
X1222220Y2781760D01*
X1223000Y2780360D01*
X1223420Y2779120D01*
X1226760Y2771259D01*
X1230820Y2763740D01*
X1235520Y2756600D01*
X1240840Y2749940D01*
X1246740Y2743759D01*
X1253180Y2738140D01*
X1260100Y2733120D01*
X1267420Y2728740D01*
X1275120Y2725020D01*
X1283120Y2722020D01*
X1291360Y2719760D01*
X1299760Y2718220D01*
X1308260Y2717460D01*
X1316800Y2717460D01*
X1325320Y2718220D01*
X1333720Y2719760D01*
X1341960Y2722020D01*
X1349960Y2725020D01*
X1357640Y2728740D01*
X1364980Y2733120D01*
X1371879Y2738140D01*
X1378320Y2743759D01*
X1384220Y2749940D01*
X1386840Y2753200D01*
X1388100Y2754260D01*
X1389700Y2754700D01*
X1391339Y2754460D01*
X1392740Y2753600D01*
X1393660Y2752220D01*
X1393959Y2750600D01*
X1393580Y2749000D01*
X1390300Y2742060D01*
X1387760Y2734940D01*
X1385920Y2727600D01*
X1384800Y2720120D01*
X1384420Y2712559D01*
X1384800Y2705000D01*
X1385920Y2697500D01*
X1387760Y2690160D01*
X1390300Y2683039D01*
X1393540Y2676200D01*
X1397420Y2669700D01*
X1401940Y2663620D01*
X1407020Y2658020D01*
X1412620Y2652940D01*
X1418700Y2648420D01*
X1425200Y2644540D01*
X1432040Y2641300D01*
X1439160Y2638759D01*
X1446500Y2636920D01*
X1454000Y2635800D01*
X1461560Y2635440D01*
X1469120Y2635800D01*
X1476600Y2636920D01*
X1483940Y2638759D01*
X1491060Y2641300D01*
X1497920Y2644540D01*
X1504400Y2648420D01*
X1510480Y2652940D01*
X1516080Y2658020D01*
X1521180Y2663620D01*
X1525680Y2669700D01*
X1529580Y2676200D01*
X1532800Y2683039D01*
X1535360Y2690160D01*
X1537200Y2697500D01*
X1538300Y2705000D01*
X1538680Y2712559D01*
X1538300Y2720120D01*
X1537200Y2727600D01*
X1535360Y2734940D01*
X1532800Y2742060D01*
X1529580Y2748920D01*
X1525680Y2755400D01*
X1522760Y2759340D01*
X1522100Y2760720D01*
X1522000Y2762220D01*
X1522480Y2763660D01*
X1523440Y2764820D01*
X1524780Y2765539D01*
X1530120Y2767220D01*
X1535580Y2769660D01*
X1540700Y2772760D01*
X1545420Y2776460D01*
X1549660Y2780680D01*
X1553340Y2785400D01*
X1556440Y2790520D01*
X1558899Y2795980D01*
X1560680Y2801700D01*
X1561759Y2807580D01*
X1562120Y2813560D01*
X1561759Y2819520D01*
X1560680Y2825419D01*
X1558899Y2831139D01*
X1556440Y2836580D01*
X1553340Y2841700D01*
X1549660Y2846420D01*
X1545420Y2850659D01*
X1540700Y2854340D01*
X1535580Y2857440D01*
X1530120Y2859900D01*
X1524420Y2861680D01*
X1518520Y2862760D01*
X1512560Y2863120D01*
X1506579Y2862760D01*
X1500700Y2861680D01*
X1494980Y2859900D01*
X1489520Y2857440D01*
X1484400Y2854340D01*
X1479680Y2850659D01*
X1475460Y2846420D01*
X1471759Y2841700D01*
X1468660Y2836580D01*
X1466220Y2831139D01*
X1464440Y2825419D01*
X1463360Y2819520D01*
X1463000Y2813560D01*
X1463360Y2807580D01*
X1464440Y2801700D01*
X1466220Y2795980D01*
X1466540Y2795260D01*
X1466879Y2793680D01*
X1466579Y2792080D01*
X1465660Y2790740D01*
X1464300Y2789880D01*
X1462700Y2789620D01*
X1461560Y2789680D01*
X1454000Y2789300D01*
X1446500Y2788200D01*
X1439160Y2786360D01*
X1432040Y2783800D01*
X1425200Y2780580D01*
X1418700Y2776680D01*
X1412620Y2772180D01*
X1407020Y2767080D01*
X1402080Y2761640D01*
X1400740Y2760680D01*
X1399139Y2760320D01*
X1397520Y2760659D01*
X1396180Y2761600D01*
X1395340Y2763020D01*
X1395120Y2764640D01*
X1395600Y2766220D01*
X1398300Y2771259D01*
X1401660Y2779120D01*
X1404300Y2787240D01*
X1406200Y2795560D01*
X1407340Y2804040D01*
X1407740Y2812559D01*
X1407340Y2821100D01*
X1406200Y2829560D01*
X1404300Y2837880D01*
X1401660Y2846019D01*
X1398300Y2853860D01*
X1394259Y2861380D01*
X1389560Y2868519D01*
X1384220Y2875200D01*
X1378320Y2881380D01*
X1371879Y2887000D01*
X1364980Y2892020D01*
X1357640Y2896400D01*
X1349960Y2900100D01*
X1341960Y2903100D01*
X1333720Y2905380D01*
X1325320Y2906900D01*
X1316800Y2907660D01*
X1308260Y2907660D01*
X1299760Y2906900D01*
X1291360Y2905380D01*
X1283120Y2903100D01*
X1275120Y2900100D01*
X1267420Y2896400D01*
X1260100Y2892020D01*
X1253180Y2887000D01*
X1246740Y2881380D01*
X1240840Y2875200D01*
X1235520Y2868519D01*
X1230820Y2861380D01*
X1226760Y2853860D01*
X1223420Y2846019D01*
X1223000Y2844760D01*
X1222220Y2843360D01*
X1220940Y2842400D01*
X1219380Y2842000D01*
X1217800Y2842260D01*
X1216440Y2843100D01*
X1215520Y2844420D01*
X1215200Y2846000D01*
X1215200Y3063039D01*
X1215500Y3064580D01*
X1216380Y3065880D01*
X1223440Y3072940D01*
X1224820Y3073840D01*
X1225260Y3074280D01*
X1226160Y3075680D01*
X1242120Y3091620D01*
X1243420Y3092500D01*
X1244960Y3092799D01*
X1318800Y3092799D01*
X1321960Y3093120D01*
X1324800Y3093980D01*
X1327440Y3095380D01*
X1329880Y3097400D01*
X1383600Y3151120D01*
X1385620Y3153560D01*
X1387020Y3156200D01*
X1387880Y3159040D01*
X1388200Y3162200D01*
X1388200Y3302040D01*
X1388500Y3303580D01*
X1389379Y3304880D01*
X1503220Y3418620D01*
X1504520Y3419500D01*
X1506040Y3419800D01*
X1574480Y3419800D01*
X1576020Y3419500D01*
X1577320Y3418620D01*
X1578180Y3417300D01*
X1578660Y3416100D01*
X1581420Y3411240D01*
X1584760Y3406760D01*
X1588640Y3402740D01*
X1593020Y3399240D01*
X1597800Y3396340D01*
X1602920Y3394080D01*
X1608280Y3392480D01*
X1613800Y3391600D01*
X1619400Y3391420D01*
X1624960Y3391960D01*
X1630420Y3393200D01*
X1635680Y3395140D01*
X1640640Y3397720D01*
X1645220Y3400920D01*
X1649360Y3404680D01*
X1652980Y3408940D01*
X1656040Y3413620D01*
X1658460Y3418660D01*
X1660220Y3423980D01*
X1661300Y3429460D01*
X1661660Y3435040D01*
X1661300Y3440640D01*
X1660220Y3446120D01*
X1658460Y3451440D01*
X1656040Y3456480D01*
X1652980Y3461160D01*
X1649360Y3465419D01*
X1645220Y3469180D01*
X1640640Y3472380D01*
X1635680Y3474960D01*
X1630420Y3476900D01*
X1624960Y3478140D01*
X1619400Y3478680D01*
X1613800Y3478500D01*
X1608280Y3477620D01*
X1602920Y3476019D01*
X1597800Y3473759D01*
X1593020Y3470860D01*
X1588640Y3467360D01*
X1584760Y3463340D01*
X1581420Y3458860D01*
X1578660Y3454000D01*
X1578140Y3452700D01*
X1577280Y3451380D01*
X1575980Y3450500D01*
X1574440Y3450200D01*
X1498300Y3450200D01*
X1495140Y3449900D01*
X1492300Y3449020D01*
X1489680Y3447620D01*
X1487220Y3445620D01*
X1362400Y3320899D01*
X1360380Y3318440D01*
X1358980Y3315820D01*
X1358120Y3312960D01*
X1357800Y3309820D01*
X1357800Y3169960D01*
X1357500Y3168420D01*
X1356620Y3167120D01*
X1313880Y3124380D01*
X1312580Y3123500D01*
X1311040Y3123200D01*
X1237200Y3123200D01*
X1234040Y3122880D01*
X1231200Y3122020D01*
X1228560Y3120620D01*
X1226120Y3118600D01*
X1189400Y3081880D01*
X1187380Y3079440D01*
X1185980Y3076800D01*
X1185120Y3073960D01*
X1184800Y3070800D01*
X1184800Y2757960D01*
X1184500Y2756420D01*
X1183620Y2755120D01*
X1064520Y2636019D01*
X1063300Y2635179D01*
X1061860Y2634860D01*
X1059700Y2634760D01*
X1056000Y2633960D01*
X1052460Y2632540D01*
X1049240Y2630560D01*
X1046380Y2628039D01*
X1044000Y2625080D01*
X1042140Y2621780D01*
X1040879Y2618200D01*
X1039940Y2612860D01*
X1039060Y2611560D01*
X991020Y2563519D01*
X989740Y2562660D01*
X988199Y2562360D01*
X986660Y2562660D01*
X985380Y2563519D01*
X984500Y2564820D01*
X984200Y2566360D01*
X984200Y2664040D01*
X984500Y2665580D01*
X985380Y2666880D01*
X1028600Y2710120D01*
X1030620Y2712559D01*
X1032020Y2715200D01*
X1032880Y2718039D01*
X1033199Y2721200D01*
X1033199Y2791440D01*
X1033460Y2792860D01*
X1034220Y2794100D01*
X1035360Y2794980D01*
X1040639Y2797720D01*
X1045220Y2800920D01*
X1049360Y2804680D01*
X1052980Y2808940D01*
X1055780Y2813240D01*
X1056960Y2814400D01*
X1058500Y2815000D01*
X1060160Y2814920D01*
X1061640Y2814180D01*
X1062680Y2812900D01*
X1063120Y2811300D01*
X1063360Y2807580D01*
X1064440Y2801700D01*
X1066220Y2795980D01*
X1068660Y2790520D01*
X1071760Y2785400D01*
X1075460Y2780680D01*
X1079680Y2776460D01*
X1084400Y2772760D01*
X1089520Y2769660D01*
X1094980Y2767220D01*
X1100700Y2765440D01*
X1106580Y2764360D01*
X1112560Y2764000D01*
X1118520Y2764360D01*
X1124420Y2765440D01*
X1130120Y2767220D01*
X1135580Y2769660D01*
X1140700Y2772760D01*
X1145420Y2776460D01*
X1149660Y2780680D01*
X1153340Y2785400D01*
X1156440Y2790520D01*
X1158900Y2795980D01*
X1160680Y2801700D01*
X1161760Y2807580D01*
X1162120Y2813560D01*
X1161760Y2819520D01*
X1160680Y2825419D01*
X1158900Y2831139D01*
X1156440Y2836580D01*
X1153340Y2841700D01*
X1149660Y2846420D01*
X1145420Y2850659D01*
X1140700Y2854340D01*
X1135580Y2857440D01*
X1130120Y2859900D01*
X1124420Y2861680D01*
X1118520Y2862760D01*
X1112560Y2863120D01*
X1106580Y2862760D01*
X1100700Y2861680D01*
X1094980Y2859900D01*
X1089520Y2857440D01*
X1084400Y2854340D01*
X1079680Y2850659D01*
X1075460Y2846420D01*
X1071760Y2841700D01*
X1068840Y2836860D01*
X1067680Y2835640D01*
X1066140Y2835000D01*
X1064460Y2835059D01*
X1062960Y2835779D01*
X1061880Y2837060D01*
X1061420Y2838680D01*
X1061300Y2840640D01*
X1060220Y2846120D01*
X1058460Y2851440D01*
X1056040Y2856480D01*
X1052980Y2861160D01*
X1049360Y2865419D01*
X1045220Y2869180D01*
X1040639Y2872380D01*
X1035680Y2874960D01*
X1030420Y2876900D01*
X1024960Y2878140D01*
X1019400Y2878680D01*
X1013800Y2878500D01*
X1008280Y2877620D01*
X1002920Y2876019D01*
X997800Y2873759D01*
X993020Y2870860D01*
X988640Y2867360D01*
X984760Y2863340D01*
X981420Y2858860D01*
X978660Y2854000D01*
X976560Y2848800D01*
X975140Y2843399D01*
X974440Y2837840D01*
X974440Y2832260D01*
X975140Y2826700D01*
X976560Y2821300D01*
X978660Y2816100D01*
X981420Y2811240D01*
X984760Y2806760D01*
X988640Y2802740D01*
X993020Y2799240D01*
X997800Y2796340D01*
X1000420Y2795179D01*
X1001680Y2794320D01*
X1002500Y2793039D01*
X1002800Y2791540D01*
X1002800Y2728960D01*
X1002500Y2727420D01*
X1001620Y2726120D01*
X966020Y2690520D01*
X964740Y2689660D01*
X963199Y2689360D01*
X961660Y2689660D01*
X960380Y2690520D01*
X959500Y2691820D01*
X959200Y2693360D01*
X959200Y2856040D01*
X959500Y2857580D01*
X960380Y2858880D01*
X995900Y2894400D01*
X997220Y2895280D01*
X998780Y2895560D01*
X1000340Y2895220D01*
X1002920Y2894080D01*
X1008280Y2892480D01*
X1013800Y2891600D01*
X1019400Y2891420D01*
X1024960Y2891960D01*
X1030420Y2893200D01*
X1035680Y2895140D01*
X1040639Y2897720D01*
X1045220Y2900920D01*
X1049360Y2904680D01*
X1052980Y2908940D01*
X1056040Y2913620D01*
X1058460Y2918660D01*
X1060220Y2923980D01*
X1061300Y2929460D01*
X1061660Y2935040D01*
X1061300Y2940640D01*
X1060220Y2946120D01*
X1058460Y2951440D01*
X1056040Y2956480D01*
X1052980Y2961160D01*
X1049360Y2965419D01*
X1045220Y2969180D01*
X1040639Y2972380D01*
X1035680Y2974960D01*
X1030420Y2976900D01*
X1024960Y2978140D01*
X1019400Y2978680D01*
X1013800Y2978500D01*
X1008280Y2977620D01*
X1002920Y2976019D01*
X997800Y2973759D01*
X993020Y2970860D01*
X988640Y2967360D01*
X984760Y2963340D01*
X981420Y2958860D01*
X978660Y2954000D01*
X976560Y2948800D01*
X975140Y2943399D01*
X974440Y2937840D01*
X974440Y2932260D01*
X975140Y2926700D01*
X976660Y2920980D01*
X976780Y2919600D01*
X976420Y2918260D01*
X975620Y2917120D01*
X938020Y2879520D01*
X936740Y2878660D01*
X935200Y2878360D01*
X933660Y2878660D01*
X932380Y2879520D01*
X931500Y2880820D01*
X931200Y2882360D01*
X931200Y2942040D01*
X931500Y2943580D01*
X932380Y2944880D01*
X987000Y2999500D01*
X988199Y3000320D01*
X989599Y3000659D01*
X991040Y3000480D01*
X992320Y2999800D01*
X993020Y2999240D01*
X997800Y2996340D01*
X1002920Y2994080D01*
X1008280Y2992480D01*
X1013800Y2991600D01*
X1019400Y2991420D01*
X1024960Y2991960D01*
X1030420Y2993200D01*
X1035680Y2995140D01*
X1040639Y2997720D01*
X1045220Y3000920D01*
X1049360Y3004680D01*
X1052980Y3008940D01*
X1056040Y3013620D01*
X1058460Y3018660D01*
X1060220Y3023980D01*
X1061300Y3029460D01*
X1061660Y3035040D01*
X1061300Y3040640D01*
X1060220Y3046120D01*
X1058460Y3051440D01*
X1056040Y3056480D01*
X1052980Y3061160D01*
X1049360Y3065419D01*
X1045220Y3069180D01*
X1040639Y3072380D01*
X1035680Y3074960D01*
X1030420Y3076900D01*
X1024960Y3078140D01*
X1019400Y3078680D01*
X1013800Y3078500D01*
X1008280Y3077620D01*
X1002920Y3076019D01*
X997800Y3073759D01*
X993020Y3070860D01*
X988640Y3067360D01*
X984760Y3063340D01*
X981420Y3058860D01*
X978660Y3054000D01*
X976560Y3048800D01*
X975140Y3043399D01*
X974440Y3037840D01*
X974419Y3030940D01*
X974020Y3029780D01*
X973300Y3028800D01*
X912620Y2968120D01*
X911340Y2967260D01*
X909800Y2966960D01*
X908259Y2967260D01*
X906979Y2968120D01*
X906100Y2969420D01*
X905800Y2970960D01*
X905800Y2999740D01*
X906100Y3001280D01*
X906979Y3002580D01*
X997960Y3093480D01*
X999280Y3094360D01*
X1000840Y3094660D01*
X1008280Y3092480D01*
X1013800Y3091600D01*
X1019400Y3091420D01*
X1024960Y3091960D01*
X1030420Y3093200D01*
X1035680Y3095140D01*
X1040639Y3097720D01*
X1045220Y3100920D01*
X1049360Y3104680D01*
X1052980Y3108940D01*
X1056040Y3113620D01*
X1058460Y3118660D01*
X1060220Y3123980D01*
X1061300Y3129460D01*
X1061660Y3135040D01*
X1061300Y3140640D01*
X1060220Y3146120D01*
X1058460Y3151440D01*
X1056040Y3156480D01*
X1052980Y3161160D01*
X1051240Y3163200D01*
X1050500Y3164520D01*
X1050300Y3166019D01*
X1050660Y3167480D01*
X1051540Y3168700D01*
X1052800Y3169520D01*
X1054300Y3169800D01*
X1264000Y3169800D01*
X1265400Y3169540D01*
X1266640Y3168800D01*
X1268680Y3167000D01*
X1271920Y3165000D01*
X1275440Y3163600D01*
X1279160Y3162799D01*
X1282960Y3162620D01*
X1286720Y3163120D01*
X1290340Y3164220D01*
X1293740Y3165940D01*
X1296800Y3168200D01*
X1299420Y3170940D01*
X1301540Y3174080D01*
X1303120Y3177540D01*
X1304060Y3181220D01*
X1304400Y3185000D01*
X1304060Y3188780D01*
X1303120Y3192460D01*
X1301540Y3195920D01*
X1299420Y3199060D01*
X1296800Y3201800D01*
X1293740Y3204060D01*
X1290340Y3205779D01*
X1286720Y3206880D01*
X1282960Y3207380D01*
X1279160Y3207200D01*
X1275440Y3206400D01*
X1271920Y3205000D01*
X1268680Y3203000D01*
X1266640Y3201200D01*
X1265400Y3200460D01*
X1264000Y3200200D01*
X1054200Y3200200D01*
X1052720Y3200480D01*
X1051460Y3201300D01*
X1050580Y3202520D01*
X1050220Y3203980D01*
X1050420Y3205480D01*
X1051160Y3206800D01*
X1052980Y3208940D01*
X1056040Y3213620D01*
X1058460Y3218660D01*
X1060220Y3223980D01*
X1061300Y3229460D01*
X1061660Y3235040D01*
X1061300Y3240640D01*
X1060220Y3246120D01*
X1058460Y3251440D01*
X1056040Y3256480D01*
X1052980Y3261160D01*
X1049360Y3265419D01*
X1045220Y3269180D01*
X1040639Y3272380D01*
X1035680Y3274960D01*
X1030420Y3276900D01*
X1024960Y3278140D01*
X1019400Y3278680D01*
X1013800Y3278500D01*
X1008280Y3277620D01*
X1002920Y3276019D01*
X997800Y3273759D01*
X993020Y3270860D01*
X988640Y3267360D01*
X984760Y3263340D01*
X981420Y3258860D01*
X978660Y3254000D01*
X976560Y3248800D01*
X975140Y3243399D01*
X974440Y3237840D01*
X974440Y3232260D01*
X975140Y3226700D01*
X976560Y3221300D01*
X978660Y3216100D01*
X981420Y3211240D01*
X984880Y3206600D01*
X985600Y3204980D01*
X985560Y3203240D01*
X984760Y3201660D01*
X983379Y3200580D01*
X981680Y3200200D01*
X959200Y3200200D01*
X956040Y3199880D01*
X953199Y3199020D01*
X950560Y3197620D01*
X948120Y3195600D01*
X905879Y3153380D01*
X904580Y3152500D01*
X903040Y3152200D01*
X342080Y3152200D01*
X340540Y3152520D01*
X339219Y3153399D01*
X338360Y3154740D01*
X338080Y3156300D01*
X338440Y3157840D01*
X340120Y3161540D01*
X341060Y3165220D01*
X341400Y3169000D01*
X341060Y3172780D01*
X340120Y3176460D01*
X338540Y3179920D01*
X336420Y3183060D01*
X335319Y3184220D01*
X334480Y3185500D01*
X334200Y3187000D01*
X334200Y3501800D01*
X333880Y3504960D01*
X333020Y3507799D01*
X331620Y3510440D01*
X329600Y3512880D01*
X304380Y3538120D01*
X303500Y3539420D01*
X303200Y3540960D01*
X303200Y3743039D01*
X303500Y3744580D01*
X304380Y3745880D01*
X424120Y3865620D01*
X425420Y3866500D01*
X426960Y3866800D01*
X595040Y3866800D01*
X596580Y3866500D01*
X597880Y3865620D01*
X634900Y3828600D01*
X635780Y3827300D01*
X636080Y3825779D01*
X635780Y3824240D01*
X634900Y3822940D01*
X633600Y3822080D01*
X632080Y3821780D01*
X487760Y3821780D01*
X485280Y3821500D01*
X483120Y3820740D01*
X481200Y3819520D01*
X479580Y3817919D01*
X478380Y3815980D01*
X477620Y3813840D01*
X477340Y3811340D01*
X477340Y3683800D01*
X477620Y3681300D01*
X478380Y3679160D01*
X479580Y3677220D01*
X481200Y3675620D01*
X483120Y3674400D01*
X485280Y3673660D01*
X487760Y3673380D01*
X633320Y3673380D01*
X635800Y3673660D01*
X637960Y3674400D01*
X639880Y3675620D01*
X641500Y3677220D01*
X642700Y3679160D01*
X643460Y3681300D01*
X643740Y3683800D01*
X643740Y3810100D01*
X644040Y3811640D01*
X644900Y3812940D01*
X646200Y3813800D01*
X647740Y3814100D01*
X649260Y3813800D01*
X650560Y3812940D01*
X660120Y3803380D01*
X661000Y3802080D01*
X661300Y3800539D01*
X661300Y3796620D01*
X661080Y3795280D01*
X660420Y3794100D01*
X657980Y3791100D01*
X656140Y3787799D01*
X654880Y3784220D01*
X654240Y3780460D01*
X654240Y3776680D01*
X654880Y3772919D01*
X656140Y3769340D01*
X657980Y3766040D01*
X660380Y3763080D01*
X663220Y3760560D01*
X666460Y3758580D01*
X669980Y3757160D01*
X673700Y3756360D01*
X677500Y3756200D01*
X681260Y3756680D01*
X684880Y3757799D01*
X688280Y3759500D01*
X691340Y3761760D01*
X693960Y3764500D01*
X696080Y3767660D01*
X697660Y3771120D01*
X698600Y3774780D01*
X698940Y3778560D01*
X698600Y3782360D01*
X697660Y3786019D01*
X696080Y3789480D01*
X693960Y3792640D01*
X692820Y3793840D01*
X691979Y3795120D01*
X691700Y3796600D01*
X691700Y3808300D01*
X691380Y3811460D01*
X690520Y3814300D01*
X689120Y3816940D01*
X687099Y3819380D01*
X669680Y3836800D01*
X668780Y3838180D01*
X668520Y3839820D01*
X668940Y3841420D01*
X669960Y3842700D01*
X671420Y3843480D01*
X673060Y3843600D01*
X674620Y3843039D01*
X677920Y3841000D01*
X681440Y3839600D01*
X685160Y3838800D01*
X688960Y3838620D01*
X692720Y3839120D01*
X696340Y3840220D01*
X699740Y3841940D01*
X704479Y3845480D01*
X706040Y3845800D01*
X762039Y3845800D01*
X763580Y3845500D01*
X764880Y3844620D01*
X873620Y3735880D01*
X874500Y3734580D01*
X874800Y3733039D01*
X874800Y3463240D01*
X875120Y3460080D01*
X875980Y3457240D01*
X877380Y3454620D01*
X879400Y3452160D01*
X976480Y3355080D01*
X977340Y3353800D01*
X977640Y3352280D01*
X977360Y3350740D01*
X976560Y3348800D01*
X975140Y3343399D01*
X974440Y3337840D01*
X974440Y3332260D01*
X975140Y3326700D01*
X976560Y3321300D01*
X978660Y3316100D01*
X981420Y3311240D01*
X984760Y3306760D01*
X988640Y3302740D01*
X993020Y3299240D01*
X997800Y3296340D01*
X1002920Y3294080D01*
X1008280Y3292480D01*
X1013800Y3291600D01*
X1019400Y3291420D01*
X1024960Y3291960D01*
X1030420Y3293200D01*
X1035680Y3295140D01*
X1040639Y3297720D01*
X1045220Y3300920D01*
X1049360Y3304680D01*
X1052980Y3308940D01*
X1056040Y3313620D01*
X1058460Y3318660D01*
X1060220Y3323980D01*
X1061300Y3329460D01*
X1061660Y3335040D01*
X1061300Y3340640D01*
X1060220Y3346120D01*
X1058460Y3351440D01*
X1056040Y3356480D01*
X1052980Y3361160D01*
X1049360Y3365419D01*
X1045220Y3369180D01*
X1040639Y3372380D01*
X1035680Y3374960D01*
X1030420Y3376900D01*
X1024960Y3378140D01*
X1019400Y3378680D01*
X1013800Y3378500D01*
X1008280Y3377620D01*
X1000819Y3375440D01*
X999260Y3375740D01*
X997940Y3376620D01*
X906380Y3468180D01*
X905500Y3469480D01*
X905200Y3471000D01*
X905200Y3740800D01*
X904880Y3743960D01*
X904020Y3746800D01*
X902620Y3749440D01*
X900600Y3751880D01*
X780879Y3871600D01*
X778439Y3873620D01*
X775800Y3875020D01*
X772960Y3875880D01*
X769800Y3876200D01*
X706040Y3876200D01*
X704479Y3876520D01*
X699740Y3880059D01*
X696340Y3881780D01*
X692720Y3882880D01*
X688960Y3883380D01*
X685160Y3883200D01*
X681440Y3882400D01*
X677920Y3881000D01*
X674680Y3879000D01*
X671840Y3876500D01*
X669440Y3873540D01*
X667600Y3870220D01*
X666340Y3866640D01*
X665699Y3862900D01*
X665699Y3859100D01*
X666340Y3855360D01*
X667600Y3851780D01*
X669440Y3848460D01*
X670000Y3847780D01*
X670780Y3846240D01*
X670819Y3844500D01*
X670140Y3842919D01*
X668860Y3841780D01*
X667220Y3841280D01*
X665520Y3841500D01*
X664060Y3842420D01*
X613880Y3892600D01*
X611440Y3894620D01*
X608800Y3896019D01*
X605960Y3896880D01*
X602800Y3897200D01*
X419200Y3897200D01*
X416040Y3896880D01*
X413200Y3896019D01*
X410560Y3894620D01*
X408120Y3892600D01*
X277400Y3761880D01*
X275380Y3759440D01*
X273980Y3756800D01*
X273120Y3753960D01*
X272800Y3750800D01*
X272800Y3533200D01*
X273120Y3530040D01*
X273980Y3527200D01*
X275380Y3524560D01*
X277400Y3522120D01*
X302620Y3496880D01*
X303500Y3495580D01*
X303800Y3494040D01*
X303800Y3187100D01*
X303580Y3185760D01*
X302920Y3184580D01*
X300440Y3181540D01*
X298600Y3178220D01*
X297340Y3174640D01*
X296700Y3170899D01*
X296700Y3167100D01*
X297340Y3163360D01*
X298600Y3159780D01*
X299500Y3158159D01*
X300000Y3156580D01*
X299800Y3154940D01*
X298980Y3153500D01*
X297640Y3152540D01*
X296020Y3152200D01*
X185960Y3152200D01*
X184420Y3152500D01*
X183120Y3153380D01*
X157000Y3179500D01*
X156140Y3180800D01*
X155840Y3182320D01*
X155840Y3223960D01*
X156120Y3225460D01*
X156940Y3226720D01*
X158060Y3227880D01*
X160180Y3231040D01*
X161740Y3234500D01*
X162700Y3238159D01*
X163020Y3241940D01*
X162700Y3245740D01*
X161740Y3249400D01*
X160180Y3252860D01*
X158060Y3256019D01*
X155420Y3258759D01*
X152360Y3261019D01*
X148980Y3262720D01*
X145340Y3263840D01*
X141580Y3264320D01*
X137780Y3264160D01*
X134080Y3263360D01*
X130540Y3261940D01*
X127320Y3259960D01*
X124460Y3257440D01*
X122080Y3254480D01*
X120220Y3251180D01*
X118960Y3247600D01*
X118320Y3243840D01*
X118320Y3240059D01*
X118960Y3236300D01*
X120220Y3232720D01*
X122080Y3229420D01*
X124540Y3226360D01*
X125200Y3225179D01*
X125440Y3223840D01*
X125440Y3174560D01*
X125740Y3171400D01*
X126600Y3168560D01*
X128000Y3165940D01*
X130020Y3163480D01*
X167120Y3126400D01*
X169560Y3124380D01*
X172200Y3122980D01*
X175040Y3122120D01*
X178200Y3121800D01*
X910800Y3121800D01*
X913960Y3122120D01*
X916800Y3122980D01*
X919440Y3124380D01*
X921880Y3126400D01*
X964120Y3168620D01*
X965420Y3169500D01*
X966960Y3169800D01*
X981600Y3169800D01*
X983300Y3169420D01*
X984700Y3168340D01*
X985480Y3166760D01*
X985520Y3165020D01*
X984800Y3163399D01*
X981420Y3158860D01*
X978660Y3154000D01*
X976560Y3148800D01*
X975140Y3143399D01*
X974440Y3137840D01*
X974440Y3132260D01*
X975140Y3126700D01*
X976560Y3121300D01*
X977360Y3119340D01*
X977660Y3117799D01*
X977340Y3116280D01*
X976480Y3115000D01*
X880000Y3018600D01*
X877980Y3016139D01*
X876580Y3013519D01*
X875720Y3010659D01*
X875400Y3007520D01*
X875400Y2488340D01*
X875180Y2487000D01*
X874520Y2485820D01*
X872080Y2482820D01*
X870240Y2479500D01*
X868980Y2475920D01*
X868340Y2472180D01*
X868340Y2468380D01*
X868980Y2464640D01*
X870240Y2461060D01*
X872080Y2457740D01*
X874479Y2454780D01*
X877320Y2452280D01*
X880560Y2450280D01*
X884080Y2448880D01*
X887800Y2448080D01*
X891600Y2447900D01*
X897099Y2448640D01*
X898540Y2448260D01*
X899740Y2447360D01*
X900520Y2446120D01*
X900800Y2444660D01*
X900800Y1753580D01*
X900500Y1752040D01*
X899620Y1750740D01*
X892580Y1743740D01*
X891360Y1742900D01*
X889940Y1742560D01*
X887800Y1742480D01*
X884080Y1741680D01*
X880560Y1740260D01*
X877320Y1738280D01*
X874479Y1735760D01*
X872080Y1732800D01*
X870240Y1729500D01*
X868980Y1725920D01*
X868340Y1722160D01*
X868340Y1718380D01*
X868980Y1714620D01*
X870240Y1711040D01*
X872080Y1707740D01*
X874479Y1704780D01*
X877320Y1702260D01*
X880560Y1700280D01*
X884080Y1698860D01*
X887800Y1698060D01*
X891600Y1697900D01*
X895360Y1698380D01*
X898980Y1699500D01*
X902380Y1701200D01*
X905440Y1703460D01*
X908060Y1706200D01*
X910180Y1709360D01*
X911760Y1712820D01*
X912700Y1716480D01*
X913000Y1719820D01*
X913360Y1721160D01*
X914160Y1722300D01*
X921979Y1730100D01*
X923280Y1730960D01*
X924800Y1731260D01*
X926340Y1730960D01*
X927640Y1730100D01*
X928500Y1728800D01*
X928800Y1727260D01*
X928800Y1031560D01*
X928500Y1030040D01*
X927620Y1028740D01*
X892620Y993720D01*
X891400Y992880D01*
X889960Y992560D01*
X887800Y992460D01*
X884080Y991660D01*
X880560Y990240D01*
X877320Y988259D01*
X874479Y985740D01*
X872080Y982780D01*
X870240Y979479D01*
X868980Y975900D01*
X868340Y972140D01*
X868340Y968360D01*
X868980Y964599D01*
X870240Y961020D01*
X872080Y957720D01*
X874479Y954760D01*
X877320Y952240D01*
X880560Y950260D01*
X884080Y948840D01*
X887800Y948040D01*
X891600Y947880D01*
X895360Y948360D01*
X898980Y949479D01*
X902380Y951180D01*
X905440Y953439D01*
X908060Y956180D01*
X910180Y959340D01*
X911760Y962800D01*
X912700Y966460D01*
X912980Y969780D01*
X913340Y971120D01*
X914140Y972260D01*
X954599Y1012720D01*
X956620Y1015180D01*
X958020Y1017800D01*
X958880Y1020639D01*
X959200Y1023800D01*
X959200Y1059340D01*
X959599Y1061060D01*
X960680Y1062440D01*
X962280Y1063220D01*
X964040Y1063240D01*
X966160Y1062800D01*
X969960Y1062620D01*
X973720Y1063120D01*
X977620Y1064300D01*
X979100Y1064480D01*
X980540Y1064080D01*
X981740Y1063200D01*
X982520Y1061940D01*
X982800Y1060480D01*
X982800Y894960D01*
X982500Y893420D01*
X981620Y892120D01*
X965879Y876380D01*
X964580Y875500D01*
X963040Y875200D01*
X862200Y875200D01*
X859040Y874880D01*
X856200Y874020D01*
X853560Y872620D01*
X851120Y870600D01*
X795400Y814880D01*
X793379Y812440D01*
X791979Y809800D01*
X791120Y806960D01*
X790800Y803800D01*
X790800Y586440D01*
X790500Y584920D01*
X789659Y583640D01*
X788379Y582760D01*
X786860Y582440D01*
X785340Y582700D01*
X784040Y583540D01*
X783000Y585120D01*
X779900Y590240D01*
X776220Y594960D01*
X771979Y599200D01*
X767280Y602880D01*
X762140Y605980D01*
X756700Y608440D01*
X750980Y610220D01*
X745100Y611300D01*
X739120Y611660D01*
X733139Y611300D01*
X727260Y610220D01*
X721540Y608440D01*
X716080Y605980D01*
X710960Y602880D01*
X706240Y599200D01*
X702020Y594960D01*
X698319Y590240D01*
X695240Y585120D01*
X692780Y579680D01*
X691000Y573960D01*
X689920Y568060D01*
X689560Y562100D01*
X689920Y556120D01*
X691000Y550240D01*
X692780Y544520D01*
X695240Y539060D01*
X698319Y533940D01*
X702020Y529220D01*
X706240Y525000D01*
X710960Y521300D01*
X716080Y518200D01*
X721540Y515760D01*
X727260Y513980D01*
X733139Y512900D01*
X739120Y512540D01*
X745100Y512900D01*
X750980Y513980D01*
X756700Y515760D01*
X762140Y518200D01*
X767280Y521300D01*
X771979Y525000D01*
X776220Y529220D01*
X779900Y533940D01*
X784040Y540660D01*
X785340Y541480D01*
X786860Y541760D01*
X788379Y541440D01*
X789659Y540560D01*
X790500Y539280D01*
X790800Y537760D01*
X790800Y525960D01*
X790500Y524420D01*
X789620Y523120D01*
X678500Y411980D01*
X676480Y409540D01*
X675080Y406900D01*
X674220Y404060D01*
X673900Y400900D01*
X673900Y379180D01*
X673680Y377860D01*
X673020Y376680D01*
X670520Y373600D01*
X668680Y370280D01*
X667420Y366700D01*
X666780Y362960D01*
X666780Y359159D01*
X667420Y355420D01*
X668680Y351840D01*
X670520Y348519D01*
X672920Y345560D01*
X675759Y343060D01*
X679000Y341060D01*
X682520Y339660D01*
X686240Y338860D01*
G37*
G36*
X1813500Y340160D02*
G01*
X1817260Y340660D01*
X1820900Y341760D01*
X1824280Y343480D01*
X1827340Y345740D01*
X1829980Y348480D01*
X1832100Y351620D01*
X1833660Y355080D01*
X1834620Y358760D01*
X1834940Y362540D01*
X1834620Y366320D01*
X1833660Y370000D01*
X1832100Y373459D01*
X1829980Y376599D01*
X1827340Y379340D01*
X1824280Y381599D01*
X1820900Y383320D01*
X1817260Y384420D01*
X1811879Y385180D01*
X1810500Y386079D01*
X1750380Y446220D01*
X1749500Y447520D01*
X1749199Y449040D01*
X1749199Y1147120D01*
X1749500Y1148640D01*
X1750380Y1149940D01*
X1751660Y1150800D01*
X1753200Y1151120D01*
X1754740Y1150800D01*
X1756020Y1149940D01*
X1789060Y1116900D01*
X1789940Y1115600D01*
X1790240Y1114060D01*
X1790240Y1110640D01*
X1790880Y1106900D01*
X1792140Y1103320D01*
X1794000Y1100000D01*
X1796380Y1097040D01*
X1799240Y1094540D01*
X1802460Y1092540D01*
X1806000Y1091140D01*
X1809700Y1090340D01*
X1813500Y1090160D01*
X1817260Y1090660D01*
X1820900Y1091760D01*
X1824280Y1093480D01*
X1827340Y1095740D01*
X1829980Y1098480D01*
X1832100Y1101620D01*
X1833660Y1105080D01*
X1834620Y1108760D01*
X1834940Y1112540D01*
X1834620Y1116320D01*
X1833660Y1120000D01*
X1832100Y1123460D01*
X1829980Y1126600D01*
X1827340Y1129340D01*
X1824280Y1131600D01*
X1820900Y1133320D01*
X1817260Y1134420D01*
X1815480Y1134660D01*
X1814220Y1135040D01*
X1813160Y1135800D01*
X1750380Y1198580D01*
X1749500Y1199880D01*
X1749199Y1201420D01*
X1749199Y1894420D01*
X1749500Y1895940D01*
X1750360Y1897240D01*
X1751660Y1898100D01*
X1753200Y1898420D01*
X1754720Y1898120D01*
X1756020Y1897240D01*
X1789060Y1864379D01*
X1789940Y1863080D01*
X1790240Y1861540D01*
X1790240Y1860640D01*
X1790880Y1856900D01*
X1792140Y1853320D01*
X1794000Y1850000D01*
X1796380Y1847040D01*
X1799240Y1844540D01*
X1802460Y1842540D01*
X1806000Y1841140D01*
X1809700Y1840340D01*
X1813500Y1840160D01*
X1817260Y1840660D01*
X1820900Y1841759D01*
X1824280Y1843480D01*
X1827340Y1845740D01*
X1829980Y1848480D01*
X1832100Y1851620D01*
X1833660Y1855080D01*
X1834620Y1858760D01*
X1834940Y1862540D01*
X1834620Y1866320D01*
X1833660Y1870000D01*
X1832100Y1873460D01*
X1829980Y1876600D01*
X1827340Y1879340D01*
X1824280Y1881600D01*
X1820900Y1883320D01*
X1817260Y1884420D01*
X1813360Y1884900D01*
X1811740Y1885180D01*
X1810360Y1886060D01*
X1750380Y1945740D01*
X1749500Y1947040D01*
X1749199Y1948580D01*
X1749199Y2644740D01*
X1749500Y2646280D01*
X1750380Y2647580D01*
X1751660Y2648440D01*
X1753200Y2648740D01*
X1754740Y2648440D01*
X1756020Y2647580D01*
X1789079Y2614520D01*
X1789960Y2613220D01*
X1790260Y2611680D01*
X1790260Y2610659D01*
X1790900Y2606900D01*
X1792160Y2603320D01*
X1794019Y2600020D01*
X1796399Y2597060D01*
X1799259Y2594540D01*
X1802480Y2592559D01*
X1806020Y2591139D01*
X1809720Y2590340D01*
X1813520Y2590179D01*
X1817280Y2590659D01*
X1820920Y2591780D01*
X1824300Y2593480D01*
X1827360Y2595740D01*
X1830000Y2598480D01*
X1832120Y2601640D01*
X1833680Y2605100D01*
X1834640Y2608759D01*
X1834960Y2612540D01*
X1834640Y2616340D01*
X1833680Y2620000D01*
X1832120Y2623460D01*
X1830000Y2626620D01*
X1827360Y2629360D01*
X1824300Y2631620D01*
X1820920Y2633320D01*
X1817280Y2634440D01*
X1811879Y2635179D01*
X1810500Y2636080D01*
X1750380Y2696220D01*
X1749500Y2697520D01*
X1749199Y2699060D01*
X1749199Y3305800D01*
X1748880Y3308960D01*
X1748020Y3311800D01*
X1746620Y3314440D01*
X1744600Y3316880D01*
X1715880Y3345600D01*
X1713440Y3347620D01*
X1710800Y3349020D01*
X1707960Y3349880D01*
X1704800Y3350200D01*
X1661579Y3350200D01*
X1660120Y3350480D01*
X1658860Y3351259D01*
X1657960Y3352460D01*
X1656040Y3356480D01*
X1652980Y3361160D01*
X1649360Y3365419D01*
X1645220Y3369180D01*
X1640640Y3372380D01*
X1635680Y3374960D01*
X1630420Y3376900D01*
X1624960Y3378140D01*
X1619400Y3378680D01*
X1613800Y3378500D01*
X1608280Y3377620D01*
X1602920Y3376019D01*
X1597800Y3373759D01*
X1593020Y3370860D01*
X1588640Y3367360D01*
X1584760Y3363340D01*
X1581420Y3358860D01*
X1578660Y3354000D01*
X1576560Y3348800D01*
X1575140Y3343399D01*
X1574440Y3337840D01*
X1574440Y3332260D01*
X1575140Y3326700D01*
X1576560Y3321300D01*
X1578660Y3316100D01*
X1581420Y3311240D01*
X1584760Y3306760D01*
X1588640Y3302740D01*
X1593020Y3299240D01*
X1597800Y3296340D01*
X1602920Y3294080D01*
X1608280Y3292480D01*
X1613800Y3291600D01*
X1619400Y3291420D01*
X1624960Y3291960D01*
X1630420Y3293200D01*
X1635680Y3295140D01*
X1640640Y3297720D01*
X1645220Y3300920D01*
X1649360Y3304680D01*
X1652980Y3308940D01*
X1656040Y3313620D01*
X1657920Y3317540D01*
X1658800Y3318740D01*
X1660060Y3319520D01*
X1661519Y3319800D01*
X1697040Y3319800D01*
X1698580Y3319500D01*
X1699880Y3318620D01*
X1717620Y3300880D01*
X1718500Y3299580D01*
X1718800Y3298039D01*
X1718800Y441280D01*
X1719120Y438120D01*
X1719980Y435280D01*
X1721380Y432660D01*
X1723400Y430200D01*
X1789060Y364520D01*
X1789940Y363220D01*
X1790240Y361700D01*
X1790240Y360640D01*
X1790880Y356900D01*
X1792140Y353320D01*
X1794000Y350000D01*
X1796380Y347040D01*
X1799240Y344540D01*
X1802460Y342540D01*
X1806000Y341140D01*
X1809700Y340340D01*
G37*
G36*
X3138519Y380340D02*
G01*
X3146680Y380720D01*
X3154780Y381840D01*
X3162740Y383720D01*
X3170500Y386320D01*
X3177980Y389620D01*
X3185120Y393600D01*
X3191880Y398220D01*
X3198159Y403440D01*
X3203940Y409219D01*
X3209180Y415520D01*
X3213800Y422260D01*
X3217780Y429420D01*
X3221080Y436900D01*
X3223680Y444640D01*
X3225539Y452600D01*
X3226680Y460700D01*
X3227060Y468880D01*
X3226680Y477040D01*
X3225539Y485160D01*
X3223680Y493120D01*
X3221080Y500860D01*
X3217780Y508340D01*
X3213800Y515500D01*
X3209180Y522239D01*
X3203940Y528540D01*
X3198159Y534320D01*
X3191880Y539540D01*
X3185120Y544160D01*
X3177980Y548140D01*
X3170500Y551440D01*
X3162740Y554040D01*
X3154780Y555920D01*
X3146680Y557040D01*
X3138519Y557420D01*
X3130340Y557040D01*
X3122240Y555920D01*
X3114280Y554040D01*
X3106520Y551440D01*
X3099040Y548140D01*
X3091900Y544160D01*
X3085140Y539540D01*
X3078860Y534320D01*
X3073080Y528540D01*
X3067840Y522239D01*
X3063220Y515500D01*
X3059240Y508340D01*
X3055940Y500860D01*
X3053340Y493120D01*
X3051480Y485160D01*
X3050340Y477040D01*
X3049960Y468880D01*
X3050340Y460700D01*
X3051480Y452600D01*
X3053340Y444640D01*
X3055940Y436900D01*
X3059240Y429420D01*
X3063220Y422260D01*
X3067840Y415520D01*
X3073080Y409219D01*
X3078860Y403440D01*
X3085140Y398220D01*
X3091900Y393600D01*
X3099040Y389620D01*
X3106520Y386320D01*
X3114280Y383720D01*
X3122240Y381840D01*
X3130340Y380720D01*
G37*
G36*
X1088120Y383980D02*
G01*
X1095680Y384340D01*
X1103160Y385460D01*
X1110500Y387299D01*
X1117640Y389840D01*
X1124480Y393080D01*
X1130960Y396960D01*
X1137040Y401480D01*
X1142660Y406560D01*
X1147740Y412160D01*
X1152240Y418240D01*
X1156140Y424739D01*
X1159360Y431580D01*
X1161920Y438700D01*
X1163760Y446040D01*
X1164860Y453540D01*
X1165240Y461100D01*
X1164860Y468660D01*
X1163760Y476140D01*
X1161920Y483480D01*
X1159360Y490600D01*
X1156140Y497460D01*
X1152240Y503940D01*
X1149320Y507879D01*
X1148660Y509260D01*
X1148560Y510760D01*
X1149040Y512200D01*
X1150000Y513360D01*
X1151340Y514080D01*
X1156700Y515760D01*
X1162140Y518200D01*
X1167280Y521300D01*
X1171980Y525000D01*
X1176220Y529220D01*
X1179900Y533940D01*
X1183000Y539060D01*
X1185460Y544520D01*
X1187240Y550240D01*
X1188320Y556120D01*
X1188680Y562100D01*
X1188320Y568060D01*
X1187240Y573960D01*
X1185460Y579680D01*
X1183000Y585120D01*
X1179900Y590240D01*
X1176220Y594960D01*
X1171980Y599200D01*
X1167280Y602880D01*
X1162140Y605980D01*
X1156700Y608440D01*
X1150980Y610220D01*
X1145100Y611300D01*
X1139120Y611660D01*
X1133140Y611300D01*
X1127260Y610220D01*
X1121540Y608440D01*
X1116080Y605980D01*
X1110960Y602880D01*
X1106240Y599200D01*
X1102020Y594960D01*
X1098320Y590240D01*
X1095240Y585120D01*
X1092780Y579680D01*
X1091000Y573960D01*
X1089920Y568060D01*
X1089560Y562100D01*
X1089920Y556120D01*
X1091000Y550240D01*
X1092780Y544520D01*
X1093100Y543800D01*
X1093460Y542220D01*
X1093140Y540620D01*
X1092220Y539280D01*
X1090860Y538420D01*
X1089260Y538160D01*
X1088120Y538220D01*
X1080560Y537840D01*
X1073060Y536740D01*
X1065720Y534900D01*
X1058600Y532340D01*
X1051760Y529120D01*
X1045260Y525220D01*
X1039180Y520720D01*
X1033580Y515620D01*
X1028640Y510180D01*
X1027320Y509219D01*
X1025699Y508860D01*
X1024100Y509200D01*
X1022740Y510140D01*
X1021900Y511560D01*
X1021700Y513180D01*
X1022159Y514760D01*
X1024860Y519799D01*
X1028220Y527660D01*
X1030860Y535780D01*
X1032760Y544100D01*
X1033920Y552580D01*
X1034300Y561100D01*
X1033920Y569640D01*
X1032760Y578100D01*
X1030860Y586420D01*
X1028220Y594560D01*
X1024860Y602400D01*
X1020819Y609920D01*
X1016120Y617060D01*
X1010780Y623740D01*
X1004880Y629920D01*
X998460Y635540D01*
X991540Y640560D01*
X984200Y644940D01*
X976520Y648640D01*
X968520Y651640D01*
X960280Y653920D01*
X951880Y655440D01*
X943360Y656200D01*
X934820Y656200D01*
X926320Y655440D01*
X917920Y653920D01*
X909680Y651640D01*
X901680Y648640D01*
X893980Y644940D01*
X886660Y640560D01*
X879740Y635540D01*
X873319Y629920D01*
X867400Y623740D01*
X862080Y617060D01*
X857380Y609920D01*
X853319Y602400D01*
X849980Y594560D01*
X847340Y586420D01*
X845440Y578100D01*
X844280Y569640D01*
X843900Y561100D01*
X844280Y552580D01*
X845440Y544100D01*
X847340Y535780D01*
X849980Y527660D01*
X853319Y519799D01*
X857380Y512280D01*
X862080Y505140D01*
X867400Y498480D01*
X873319Y492299D01*
X879740Y486680D01*
X886660Y481659D01*
X893980Y477280D01*
X901680Y473560D01*
X909680Y470560D01*
X917920Y468300D01*
X926320Y466760D01*
X934820Y466000D01*
X943360Y466000D01*
X951880Y466760D01*
X960280Y468300D01*
X968520Y470560D01*
X976520Y473560D01*
X984200Y477280D01*
X991540Y481659D01*
X998460Y486680D01*
X1004880Y492299D01*
X1010780Y498480D01*
X1013400Y501740D01*
X1014680Y502800D01*
X1016260Y503240D01*
X1017900Y503000D01*
X1019300Y502140D01*
X1020220Y500760D01*
X1020520Y499140D01*
X1020140Y497540D01*
X1016860Y490600D01*
X1014320Y483480D01*
X1012480Y476140D01*
X1011360Y468660D01*
X1011000Y461100D01*
X1011360Y453540D01*
X1012480Y446040D01*
X1014320Y438700D01*
X1016860Y431580D01*
X1020100Y424739D01*
X1023980Y418240D01*
X1028500Y412160D01*
X1033580Y406560D01*
X1039180Y401480D01*
X1045260Y396960D01*
X1051760Y393080D01*
X1058600Y389840D01*
X1065720Y387299D01*
X1073060Y385460D01*
X1080560Y384340D01*
G37*
G36*
X2211520Y385379D02*
G01*
X2219080Y385740D01*
X2226560Y386860D01*
X2233900Y388700D01*
X2241040Y391240D01*
X2247880Y394480D01*
X2254360Y398360D01*
X2260440Y402879D01*
X2266060Y407960D01*
X2271140Y413560D01*
X2275640Y419640D01*
X2279540Y426140D01*
X2282760Y432980D01*
X2285320Y440100D01*
X2287160Y447440D01*
X2288260Y454940D01*
X2288640Y462500D01*
X2288260Y470060D01*
X2287160Y477540D01*
X2285320Y484880D01*
X2282760Y492000D01*
X2279540Y498860D01*
X2275640Y505340D01*
X2272720Y509280D01*
X2272060Y510660D01*
X2271960Y512160D01*
X2272440Y513600D01*
X2273400Y514760D01*
X2274740Y515480D01*
X2280100Y517160D01*
X2285540Y519600D01*
X2290680Y522700D01*
X2295380Y526400D01*
X2299620Y530620D01*
X2303300Y535340D01*
X2306400Y540460D01*
X2308860Y545920D01*
X2310640Y551640D01*
X2311720Y557520D01*
X2312080Y563500D01*
X2311720Y569460D01*
X2310640Y575360D01*
X2308860Y581080D01*
X2306400Y586520D01*
X2303300Y591640D01*
X2299620Y596360D01*
X2295380Y600600D01*
X2290680Y604280D01*
X2285540Y607380D01*
X2280100Y609840D01*
X2274380Y611620D01*
X2268500Y612700D01*
X2262520Y613060D01*
X2256540Y612700D01*
X2250660Y611620D01*
X2244940Y609840D01*
X2239480Y607380D01*
X2234360Y604280D01*
X2229640Y600600D01*
X2225420Y596360D01*
X2221720Y591640D01*
X2218640Y586520D01*
X2216180Y581080D01*
X2214400Y575360D01*
X2213320Y569460D01*
X2212960Y563500D01*
X2213320Y557520D01*
X2214400Y551640D01*
X2216180Y545920D01*
X2216500Y545200D01*
X2216860Y543620D01*
X2216540Y542020D01*
X2215620Y540680D01*
X2214260Y539820D01*
X2212660Y539560D01*
X2211520Y539620D01*
X2203960Y539240D01*
X2196460Y538140D01*
X2189120Y536300D01*
X2182000Y533740D01*
X2175160Y530520D01*
X2168660Y526620D01*
X2162580Y522120D01*
X2156980Y517020D01*
X2152040Y511580D01*
X2150720Y510620D01*
X2149100Y510260D01*
X2147500Y510600D01*
X2146140Y511540D01*
X2145300Y512960D01*
X2145100Y514580D01*
X2145560Y516160D01*
X2148260Y521200D01*
X2151620Y529060D01*
X2154260Y537180D01*
X2156160Y545500D01*
X2157320Y553980D01*
X2157700Y562500D01*
X2157320Y571040D01*
X2156160Y579500D01*
X2154260Y587820D01*
X2151620Y595960D01*
X2148260Y603800D01*
X2144220Y611320D01*
X2139520Y618460D01*
X2134180Y625140D01*
X2128280Y631320D01*
X2121860Y636940D01*
X2114940Y641960D01*
X2107600Y646340D01*
X2099920Y650040D01*
X2091920Y653040D01*
X2083680Y655320D01*
X2075280Y656840D01*
X2066759Y657600D01*
X2058220Y657600D01*
X2049720Y656840D01*
X2041320Y655320D01*
X2033080Y653040D01*
X2025080Y650040D01*
X2017380Y646340D01*
X2010060Y641960D01*
X2003140Y636940D01*
X1996720Y631320D01*
X1990800Y625140D01*
X1985480Y618460D01*
X1980780Y611320D01*
X1976720Y603800D01*
X1973380Y595960D01*
X1970740Y587820D01*
X1968839Y579500D01*
X1967680Y571040D01*
X1967300Y562500D01*
X1967680Y553980D01*
X1968839Y545500D01*
X1970740Y537180D01*
X1973380Y529060D01*
X1976720Y521200D01*
X1980780Y513680D01*
X1985480Y506540D01*
X1990800Y499880D01*
X1996720Y493700D01*
X2003140Y488080D01*
X2010060Y483060D01*
X2017380Y478680D01*
X2025080Y474960D01*
X2033080Y471960D01*
X2041320Y469700D01*
X2049720Y468160D01*
X2058220Y467400D01*
X2066759Y467400D01*
X2075280Y468160D01*
X2083680Y469700D01*
X2091920Y471960D01*
X2099920Y474960D01*
X2107600Y478680D01*
X2114940Y483060D01*
X2121860Y488080D01*
X2128280Y493700D01*
X2134180Y499880D01*
X2136800Y503140D01*
X2138080Y504200D01*
X2139660Y504640D01*
X2141300Y504400D01*
X2142700Y503540D01*
X2143620Y502160D01*
X2143920Y500540D01*
X2143540Y498940D01*
X2140260Y492000D01*
X2137720Y484880D01*
X2135880Y477540D01*
X2134760Y470060D01*
X2134400Y462500D01*
X2134760Y454940D01*
X2135880Y447440D01*
X2137720Y440100D01*
X2140260Y432980D01*
X2143500Y426140D01*
X2147380Y419640D01*
X2151900Y413560D01*
X2156980Y407960D01*
X2162580Y402879D01*
X2168660Y398360D01*
X2175160Y394480D01*
X2182000Y391240D01*
X2189120Y388700D01*
X2196460Y386860D01*
X2203960Y385740D01*
G37*
G36*
X2540320Y398700D02*
G01*
X2547520Y399260D01*
X2554640Y400560D01*
X2561580Y402580D01*
X2568260Y405300D01*
X2574640Y408700D01*
X2580640Y412740D01*
X2586200Y417360D01*
X2591240Y422540D01*
X2595720Y428200D01*
X2599600Y434300D01*
X2602840Y440780D01*
X2605380Y447540D01*
X2607220Y454520D01*
X2608340Y461659D01*
X2608700Y468880D01*
X2608340Y476100D01*
X2607220Y483240D01*
X2605380Y490220D01*
X2602840Y496980D01*
X2599600Y503459D01*
X2595720Y509560D01*
X2591240Y515220D01*
X2586200Y520400D01*
X2580640Y525020D01*
X2574640Y529060D01*
X2568260Y532460D01*
X2561580Y535180D01*
X2554640Y537200D01*
X2547520Y538500D01*
X2540320Y539060D01*
X2533100Y538860D01*
X2525920Y537940D01*
X2518900Y536280D01*
X2512060Y533900D01*
X2505520Y530840D01*
X2499320Y527120D01*
X2493540Y522780D01*
X2488240Y517879D01*
X2483460Y512440D01*
X2479280Y506560D01*
X2475720Y500260D01*
X2472820Y493640D01*
X2470620Y486760D01*
X2469160Y479680D01*
X2468400Y472500D01*
X2468400Y465260D01*
X2469160Y458080D01*
X2470620Y451000D01*
X2472820Y444120D01*
X2475720Y437500D01*
X2479280Y431200D01*
X2483460Y425319D01*
X2488240Y419880D01*
X2493540Y414980D01*
X2499320Y410640D01*
X2505520Y406920D01*
X2512060Y403860D01*
X2518900Y401480D01*
X2525920Y399820D01*
X2533100Y398900D01*
G37*
G36*
X1862520Y513940D02*
G01*
X1868500Y514300D01*
X1874379Y515379D01*
X1880100Y517160D01*
X1885540Y519600D01*
X1890680Y522700D01*
X1895380Y526400D01*
X1899620Y530620D01*
X1903300Y535340D01*
X1906399Y540460D01*
X1908860Y545920D01*
X1910640Y551640D01*
X1911720Y557520D01*
X1912080Y563500D01*
X1911720Y569460D01*
X1910640Y575360D01*
X1908860Y581080D01*
X1906399Y586520D01*
X1903300Y591640D01*
X1899620Y596360D01*
X1895380Y600600D01*
X1890680Y604280D01*
X1885540Y607380D01*
X1880100Y609840D01*
X1874379Y611620D01*
X1868500Y612700D01*
X1862520Y613060D01*
X1856540Y612700D01*
X1850660Y611620D01*
X1844940Y609840D01*
X1839480Y607380D01*
X1834360Y604280D01*
X1829640Y600600D01*
X1825420Y596360D01*
X1821720Y591640D01*
X1818640Y586520D01*
X1816180Y581080D01*
X1814400Y575360D01*
X1813320Y569460D01*
X1812960Y563500D01*
X1813320Y557520D01*
X1814400Y551640D01*
X1816180Y545920D01*
X1818640Y540460D01*
X1821720Y535340D01*
X1825420Y530620D01*
X1829640Y526400D01*
X1834360Y522700D01*
X1839480Y519600D01*
X1844940Y517160D01*
X1850660Y515379D01*
X1856540Y514300D01*
G37*
G36*
X2648200Y666800D02*
G01*
X2886800Y666800D01*
X2889960Y667120D01*
X2892799Y667980D01*
X2895440Y669380D01*
X2897880Y671400D01*
X3026480Y799980D01*
X3027860Y800879D01*
X3033240Y801640D01*
X3036880Y802740D01*
X3040260Y804460D01*
X3043320Y806720D01*
X3045960Y809460D01*
X3048080Y812600D01*
X3049640Y816060D01*
X3050600Y819740D01*
X3050920Y823520D01*
X3050600Y827300D01*
X3049640Y830980D01*
X3048080Y834440D01*
X3045960Y837580D01*
X3043320Y840320D01*
X3040260Y842580D01*
X3036880Y844300D01*
X3033240Y845400D01*
X3029480Y845900D01*
X3025680Y845720D01*
X3021980Y844920D01*
X3018440Y843520D01*
X3015220Y841520D01*
X3012360Y839020D01*
X3009980Y836060D01*
X3008120Y832740D01*
X3006860Y829160D01*
X3006220Y825420D01*
X3006220Y824380D01*
X3005920Y822840D01*
X3005040Y821540D01*
X2881880Y698379D01*
X2880580Y697500D01*
X2879040Y697200D01*
X2852840Y697200D01*
X2851300Y697500D01*
X2850000Y698379D01*
X2849140Y699659D01*
X2848840Y701200D01*
X2849140Y702740D01*
X2850000Y704020D01*
X2850580Y704599D01*
X2854280Y709320D01*
X2857380Y714440D01*
X2859820Y719900D01*
X2861600Y725620D01*
X2862679Y731500D01*
X2863039Y737480D01*
X2862679Y743439D01*
X2861600Y749340D01*
X2859820Y755040D01*
X2857380Y760500D01*
X2854280Y765620D01*
X2850580Y770340D01*
X2846360Y774580D01*
X2841640Y778259D01*
X2836520Y781360D01*
X2831060Y783820D01*
X2825340Y785600D01*
X2819460Y786680D01*
X2813480Y787039D01*
X2807520Y786680D01*
X2801620Y785600D01*
X2795899Y783820D01*
X2795200Y783500D01*
X2793600Y783139D01*
X2792020Y783439D01*
X2790680Y784360D01*
X2789800Y785740D01*
X2789560Y787340D01*
X2789600Y788480D01*
X2789240Y796040D01*
X2788120Y803520D01*
X2786280Y810860D01*
X2783740Y817980D01*
X2780500Y824840D01*
X2776620Y831320D01*
X2772100Y837400D01*
X2767020Y843000D01*
X2761580Y847940D01*
X2760600Y849280D01*
X2760260Y850879D01*
X2760580Y852500D01*
X2761540Y853840D01*
X2762940Y854700D01*
X2764580Y854900D01*
X2766160Y854440D01*
X2771200Y851720D01*
X2779040Y848360D01*
X2787160Y845720D01*
X2795500Y843820D01*
X2803960Y842680D01*
X2812500Y842300D01*
X2821019Y842680D01*
X2829500Y843820D01*
X2837820Y845720D01*
X2845940Y848360D01*
X2853800Y851720D01*
X2861320Y855780D01*
X2868440Y860480D01*
X2875120Y865800D01*
X2881300Y871700D01*
X2886920Y878139D01*
X2891940Y885040D01*
X2896320Y892380D01*
X2900020Y900080D01*
X2903039Y908080D01*
X2905299Y916300D01*
X2906820Y924720D01*
X2907600Y933220D01*
X2907600Y941760D01*
X2906820Y950280D01*
X2905299Y958680D01*
X2903039Y966900D01*
X2900020Y974900D01*
X2896320Y982600D01*
X2891940Y989940D01*
X2886920Y996840D01*
X2881300Y1003280D01*
X2875120Y1009180D01*
X2868440Y1014500D01*
X2861320Y1019220D01*
X2853800Y1023259D01*
X2845940Y1026620D01*
X2837820Y1029260D01*
X2829500Y1031160D01*
X2821019Y1032300D01*
X2812500Y1032680D01*
X2803960Y1032300D01*
X2795500Y1031160D01*
X2787160Y1029260D01*
X2779040Y1026620D01*
X2771200Y1023259D01*
X2763660Y1019220D01*
X2756540Y1014500D01*
X2749860Y1009180D01*
X2743680Y1003280D01*
X2738060Y996840D01*
X2733039Y989940D01*
X2728660Y982600D01*
X2724960Y974900D01*
X2721960Y966900D01*
X2719680Y958680D01*
X2718159Y950280D01*
X2717400Y941760D01*
X2717400Y933220D01*
X2718159Y924720D01*
X2719680Y916300D01*
X2721960Y908080D01*
X2724960Y900080D01*
X2728660Y892380D01*
X2733039Y885040D01*
X2738060Y878139D01*
X2743680Y871700D01*
X2749860Y865800D01*
X2753140Y863199D01*
X2754180Y861919D01*
X2754640Y860340D01*
X2754400Y858700D01*
X2753519Y857300D01*
X2752160Y856360D01*
X2750539Y856060D01*
X2748920Y856440D01*
X2742000Y859720D01*
X2734880Y862280D01*
X2727540Y864120D01*
X2720040Y865220D01*
X2712480Y865600D01*
X2704920Y865220D01*
X2697440Y864120D01*
X2690100Y862280D01*
X2682980Y859720D01*
X2676120Y856500D01*
X2669640Y852600D01*
X2663560Y848100D01*
X2657960Y843000D01*
X2652860Y837400D01*
X2648360Y831320D01*
X2644460Y824840D01*
X2641240Y817980D01*
X2638680Y810860D01*
X2636840Y803520D01*
X2635740Y796040D01*
X2635360Y788480D01*
X2635740Y780920D01*
X2636840Y773420D01*
X2638680Y766080D01*
X2641240Y758960D01*
X2644460Y752120D01*
X2648360Y745620D01*
X2652860Y739539D01*
X2657960Y733940D01*
X2663560Y728860D01*
X2669640Y724340D01*
X2676120Y720460D01*
X2682980Y717220D01*
X2690100Y714680D01*
X2697440Y712840D01*
X2704920Y711720D01*
X2712480Y711340D01*
X2720040Y711720D01*
X2727540Y712840D01*
X2734880Y714680D01*
X2742000Y717220D01*
X2748840Y720460D01*
X2755340Y724340D01*
X2759280Y727280D01*
X2760640Y727920D01*
X2762160Y728020D01*
X2763600Y727560D01*
X2764760Y726580D01*
X2765480Y725240D01*
X2767140Y719900D01*
X2769600Y714440D01*
X2772700Y709320D01*
X2776380Y704599D01*
X2776960Y704020D01*
X2777840Y702740D01*
X2778140Y701200D01*
X2777840Y699659D01*
X2776960Y698379D01*
X2775659Y697500D01*
X2774140Y697200D01*
X2655960Y697200D01*
X2654420Y697500D01*
X2653120Y698379D01*
X2569880Y781600D01*
X2567440Y783620D01*
X2564800Y785020D01*
X2561960Y785879D01*
X2558800Y786200D01*
X2373040Y786200D01*
X2371480Y786520D01*
X2366740Y790060D01*
X2363340Y791780D01*
X2359720Y792880D01*
X2355960Y793379D01*
X2352160Y793199D01*
X2348440Y792400D01*
X2344920Y791000D01*
X2341680Y789000D01*
X2338840Y786500D01*
X2336440Y783540D01*
X2334600Y780220D01*
X2333340Y776640D01*
X2332700Y772900D01*
X2332700Y769100D01*
X2333340Y765360D01*
X2334600Y761780D01*
X2336440Y758460D01*
X2338840Y755500D01*
X2341680Y753000D01*
X2344920Y751000D01*
X2348440Y749599D01*
X2352160Y748800D01*
X2355960Y748620D01*
X2359720Y749120D01*
X2363340Y750220D01*
X2366740Y751940D01*
X2371480Y755480D01*
X2373040Y755800D01*
X2551040Y755800D01*
X2552580Y755500D01*
X2553880Y754620D01*
X2637120Y671400D01*
X2639560Y669380D01*
X2642200Y667980D01*
X2645040Y667120D01*
G37*
G36*
X864340Y671900D02*
G01*
X1009900Y671900D01*
X1012380Y672180D01*
X1014539Y672920D01*
X1016460Y674140D01*
X1018080Y675759D01*
X1019280Y677680D01*
X1020040Y679840D01*
X1020320Y682320D01*
X1020320Y809880D01*
X1020040Y812360D01*
X1019280Y814500D01*
X1018080Y816440D01*
X1016460Y818040D01*
X1014539Y819260D01*
X1012380Y820020D01*
X1009900Y820300D01*
X864340Y820300D01*
X861860Y820020D01*
X859700Y819260D01*
X857780Y818040D01*
X856160Y816440D01*
X854940Y814500D01*
X854200Y812360D01*
X853920Y809880D01*
X853920Y682320D01*
X854200Y679840D01*
X854940Y677680D01*
X856160Y675759D01*
X857780Y674140D01*
X859700Y672920D01*
X861860Y672180D01*
G37*
G36*
X1987740Y673300D02*
G01*
X2133300Y673300D01*
X2135780Y673580D01*
X2137940Y674320D01*
X2139860Y675540D01*
X2141480Y677159D01*
X2142680Y679080D01*
X2143440Y681240D01*
X2143720Y683720D01*
X2143720Y811280D01*
X2143440Y813760D01*
X2142680Y815900D01*
X2141480Y817840D01*
X2139860Y819440D01*
X2137940Y820660D01*
X2135780Y821420D01*
X2133300Y821700D01*
X1987740Y821700D01*
X1985260Y821420D01*
X1983100Y820660D01*
X1981180Y819440D01*
X1979560Y817840D01*
X1978340Y815900D01*
X1977600Y813760D01*
X1977320Y811280D01*
X1977320Y683720D01*
X1977600Y681240D01*
X1978340Y679080D01*
X1979560Y677159D01*
X1981180Y675540D01*
X1983100Y674320D01*
X1985260Y673580D01*
G37*
G36*
X1407980Y766360D02*
G01*
X1415200Y766919D01*
X1422300Y768220D01*
X1429240Y770240D01*
X1435940Y772960D01*
X1442320Y776360D01*
X1448320Y780380D01*
X1453860Y785020D01*
X1458899Y790200D01*
X1463400Y795860D01*
X1467260Y801960D01*
X1470500Y808420D01*
X1473040Y815180D01*
X1474900Y822180D01*
X1476000Y829320D01*
X1476380Y836520D01*
X1476000Y843740D01*
X1474900Y850879D01*
X1473040Y857880D01*
X1470500Y864640D01*
X1467260Y871100D01*
X1463400Y877200D01*
X1458899Y882860D01*
X1453860Y888040D01*
X1448320Y892680D01*
X1442320Y896700D01*
X1435940Y900100D01*
X1429240Y902820D01*
X1422300Y904840D01*
X1415200Y906140D01*
X1407980Y906700D01*
X1400760Y906520D01*
X1393600Y905580D01*
X1386560Y903920D01*
X1379740Y901560D01*
X1373200Y898480D01*
X1367000Y894760D01*
X1361220Y890440D01*
X1355900Y885520D01*
X1351140Y880100D01*
X1346960Y874200D01*
X1343400Y867920D01*
X1340500Y861300D01*
X1338300Y854400D01*
X1336819Y847340D01*
X1336080Y840140D01*
X1336080Y832920D01*
X1336819Y825720D01*
X1338300Y818660D01*
X1340500Y811760D01*
X1343400Y805140D01*
X1346960Y798860D01*
X1351140Y792960D01*
X1355900Y787540D01*
X1361220Y782620D01*
X1367000Y778300D01*
X1373200Y774580D01*
X1379740Y771500D01*
X1386560Y769140D01*
X1393600Y767480D01*
X1400760Y766540D01*
G37*
G36*
X470660Y766360D02*
G01*
X477879Y766919D01*
X484980Y768220D01*
X491920Y770240D01*
X498620Y772960D01*
X505000Y776360D01*
X511000Y780380D01*
X516540Y785020D01*
X521580Y790200D01*
X526080Y795860D01*
X529940Y801960D01*
X533180Y808420D01*
X535720Y815180D01*
X537580Y822180D01*
X538680Y829320D01*
X539060Y836520D01*
X538680Y843740D01*
X537580Y850879D01*
X535720Y857880D01*
X533180Y864640D01*
X529940Y871100D01*
X526080Y877200D01*
X521580Y882860D01*
X516540Y888040D01*
X511000Y892680D01*
X505000Y896700D01*
X498620Y900100D01*
X491920Y902820D01*
X484980Y904840D01*
X477879Y906140D01*
X470660Y906700D01*
X463440Y906520D01*
X456280Y905580D01*
X449240Y903920D01*
X442420Y901560D01*
X435880Y898480D01*
X429680Y894760D01*
X423900Y890440D01*
X418579Y885520D01*
X413820Y880100D01*
X409640Y874200D01*
X406079Y867920D01*
X403180Y861300D01*
X400980Y854400D01*
X399500Y847340D01*
X398760Y840140D01*
X398760Y832920D01*
X399500Y825720D01*
X400980Y818660D01*
X403180Y811760D01*
X406079Y805140D01*
X409640Y798860D01*
X413820Y792960D01*
X418579Y787540D01*
X423900Y782620D01*
X429680Y778300D01*
X435880Y774580D01*
X442420Y771500D01*
X449240Y769140D01*
X456280Y767480D01*
X463440Y766540D01*
G37*
G36*
X2933700Y856280D02*
G01*
X3061259Y856280D01*
X3063740Y856560D01*
X3065899Y857300D01*
X3067820Y858520D01*
X3069440Y860140D01*
X3070659Y862060D01*
X3071400Y864200D01*
X3071680Y866700D01*
X3071680Y1012240D01*
X3071400Y1014740D01*
X3070659Y1016880D01*
X3069440Y1018820D01*
X3067820Y1020420D01*
X3065899Y1021640D01*
X3063740Y1022400D01*
X3061259Y1022680D01*
X2933700Y1022680D01*
X2931220Y1022400D01*
X2929080Y1021640D01*
X2927140Y1020420D01*
X2925539Y1018820D01*
X2924320Y1016880D01*
X2923560Y1014740D01*
X2923279Y1012240D01*
X2923279Y866700D01*
X2923560Y864200D01*
X2924320Y862060D01*
X2925539Y860140D01*
X2927140Y858520D01*
X2929080Y857300D01*
X2931220Y856560D01*
G37*
G36*
X2612480Y961340D02*
G01*
X2620040Y961720D01*
X2627540Y962840D01*
X2634880Y964680D01*
X2642000Y967220D01*
X2648840Y970460D01*
X2655340Y974340D01*
X2661420Y978860D01*
X2667020Y983940D01*
X2672100Y989539D01*
X2676620Y995620D01*
X2680500Y1002120D01*
X2683740Y1008960D01*
X2686280Y1016080D01*
X2688120Y1023420D01*
X2689240Y1030920D01*
X2689600Y1038480D01*
X2689240Y1046040D01*
X2688120Y1053520D01*
X2686280Y1060860D01*
X2683740Y1067980D01*
X2680500Y1074840D01*
X2676620Y1081320D01*
X2672100Y1087400D01*
X2667020Y1093000D01*
X2661420Y1098100D01*
X2655340Y1102600D01*
X2648840Y1106500D01*
X2642000Y1109720D01*
X2634880Y1112280D01*
X2627540Y1114120D01*
X2620040Y1115220D01*
X2612480Y1115600D01*
X2604920Y1115220D01*
X2597440Y1114120D01*
X2590100Y1112280D01*
X2582980Y1109720D01*
X2576120Y1106500D01*
X2569640Y1102600D01*
X2563560Y1098100D01*
X2557960Y1093000D01*
X2552860Y1087400D01*
X2548360Y1081320D01*
X2544460Y1074840D01*
X2541240Y1067980D01*
X2538680Y1060860D01*
X2536840Y1053520D01*
X2535740Y1046040D01*
X2535360Y1038480D01*
X2535740Y1030920D01*
X2536840Y1023420D01*
X2538680Y1016080D01*
X2541240Y1008960D01*
X2544460Y1002120D01*
X2548360Y995620D01*
X2552860Y989539D01*
X2557960Y983940D01*
X2563560Y978860D01*
X2569640Y974340D01*
X2576120Y970460D01*
X2582980Y967220D01*
X2590100Y964680D01*
X2597440Y962840D01*
X2604920Y961720D01*
G37*
G36*
X461520Y1035380D02*
G01*
X469080Y1035740D01*
X476560Y1036860D01*
X483900Y1038700D01*
X491040Y1041240D01*
X497879Y1044479D01*
X504360Y1048360D01*
X510439Y1052880D01*
X516060Y1057960D01*
X521140Y1063560D01*
X525640Y1069640D01*
X529540Y1076140D01*
X532760Y1082980D01*
X535320Y1090100D01*
X537160Y1097440D01*
X538260Y1104940D01*
X538640Y1112500D01*
X538260Y1120060D01*
X537160Y1127540D01*
X535320Y1134880D01*
X532760Y1142000D01*
X529540Y1148860D01*
X525640Y1155340D01*
X521140Y1161420D01*
X516060Y1167020D01*
X510439Y1172120D01*
X504360Y1176620D01*
X497879Y1180520D01*
X491040Y1183740D01*
X483900Y1186300D01*
X476560Y1188140D01*
X469080Y1189240D01*
X461520Y1189620D01*
X453960Y1189240D01*
X446460Y1188140D01*
X439120Y1186300D01*
X432000Y1183740D01*
X425160Y1180520D01*
X418660Y1176620D01*
X412580Y1172120D01*
X406980Y1167020D01*
X401900Y1161420D01*
X397380Y1155340D01*
X393500Y1148860D01*
X390260Y1142000D01*
X387720Y1134880D01*
X385880Y1127540D01*
X384760Y1120060D01*
X384400Y1112500D01*
X384760Y1104940D01*
X385880Y1097440D01*
X387720Y1090100D01*
X390260Y1082980D01*
X393500Y1076140D01*
X397380Y1069640D01*
X401900Y1063560D01*
X406980Y1057960D01*
X412580Y1052880D01*
X418660Y1048360D01*
X425160Y1044479D01*
X432000Y1041240D01*
X439120Y1038700D01*
X446460Y1036860D01*
X453960Y1035740D01*
G37*
G36*
X1211520Y1035380D02*
G01*
X1219080Y1035740D01*
X1226560Y1036860D01*
X1233900Y1038700D01*
X1241040Y1041240D01*
X1247880Y1044479D01*
X1254360Y1048360D01*
X1260440Y1052880D01*
X1266060Y1057960D01*
X1271140Y1063560D01*
X1275640Y1069640D01*
X1279540Y1076140D01*
X1282760Y1082980D01*
X1285320Y1090100D01*
X1287160Y1097440D01*
X1288260Y1104940D01*
X1288640Y1112500D01*
X1288260Y1120060D01*
X1287160Y1127540D01*
X1285320Y1134880D01*
X1282760Y1142000D01*
X1279540Y1148860D01*
X1275640Y1155340D01*
X1271140Y1161420D01*
X1266060Y1167020D01*
X1260440Y1172120D01*
X1254360Y1176620D01*
X1247880Y1180520D01*
X1241040Y1183740D01*
X1233900Y1186300D01*
X1226560Y1188140D01*
X1219080Y1189240D01*
X1211520Y1189620D01*
X1203960Y1189240D01*
X1196460Y1188140D01*
X1189120Y1186300D01*
X1182000Y1183740D01*
X1175160Y1180520D01*
X1168660Y1176620D01*
X1162580Y1172120D01*
X1156980Y1167020D01*
X1151900Y1161420D01*
X1147380Y1155340D01*
X1143500Y1148860D01*
X1140260Y1142000D01*
X1137720Y1134880D01*
X1135880Y1127540D01*
X1134760Y1120060D01*
X1134400Y1112500D01*
X1134760Y1104940D01*
X1135880Y1097440D01*
X1137720Y1090100D01*
X1140260Y1082980D01*
X1143500Y1076140D01*
X1147380Y1069640D01*
X1151900Y1063560D01*
X1156980Y1057960D01*
X1162580Y1052880D01*
X1168660Y1048360D01*
X1175160Y1044479D01*
X1182000Y1041240D01*
X1189120Y1038700D01*
X1196460Y1036860D01*
X1203960Y1035740D01*
G37*
G36*
X1961519Y1035380D02*
G01*
X1969079Y1035740D01*
X1976560Y1036860D01*
X1983899Y1038700D01*
X1991040Y1041240D01*
X1997880Y1044479D01*
X2004360Y1048360D01*
X2010440Y1052880D01*
X2016060Y1057960D01*
X2021140Y1063560D01*
X2025640Y1069640D01*
X2029540Y1076140D01*
X2032760Y1082980D01*
X2035320Y1090100D01*
X2037160Y1097440D01*
X2038260Y1104940D01*
X2038640Y1112500D01*
X2038260Y1120060D01*
X2037160Y1127540D01*
X2035320Y1134880D01*
X2032760Y1142000D01*
X2029540Y1148860D01*
X2025640Y1155340D01*
X2021140Y1161420D01*
X2016060Y1167020D01*
X2010440Y1172120D01*
X2004360Y1176620D01*
X1997880Y1180520D01*
X1991040Y1183740D01*
X1983899Y1186300D01*
X1976560Y1188140D01*
X1969079Y1189240D01*
X1961519Y1189620D01*
X1953959Y1189240D01*
X1946459Y1188140D01*
X1939120Y1186300D01*
X1932000Y1183740D01*
X1925160Y1180520D01*
X1918660Y1176620D01*
X1912580Y1172120D01*
X1906980Y1167020D01*
X1901900Y1161420D01*
X1897380Y1155340D01*
X1893500Y1148860D01*
X1890260Y1142000D01*
X1887720Y1134880D01*
X1885880Y1127540D01*
X1884760Y1120060D01*
X1884400Y1112500D01*
X1884760Y1104940D01*
X1885880Y1097440D01*
X1887720Y1090100D01*
X1890260Y1082980D01*
X1893500Y1076140D01*
X1897380Y1069640D01*
X1901900Y1063560D01*
X1906980Y1057960D01*
X1912580Y1052880D01*
X1918660Y1048360D01*
X1925160Y1044479D01*
X1932000Y1041240D01*
X1939120Y1038700D01*
X1946459Y1036860D01*
X1953959Y1035740D01*
G37*
G36*
X2813480Y1087920D02*
G01*
X2819460Y1088280D01*
X2825340Y1089360D01*
X2831060Y1091140D01*
X2836520Y1093580D01*
X2841640Y1096680D01*
X2846360Y1100380D01*
X2850580Y1104600D01*
X2854280Y1109320D01*
X2857380Y1114440D01*
X2859820Y1119900D01*
X2861600Y1125620D01*
X2862679Y1131500D01*
X2863039Y1137480D01*
X2862679Y1143440D01*
X2861600Y1149340D01*
X2859820Y1155040D01*
X2857380Y1160500D01*
X2854280Y1165620D01*
X2850580Y1170340D01*
X2846360Y1174580D01*
X2841640Y1178260D01*
X2836520Y1181360D01*
X2831060Y1183820D01*
X2825340Y1185600D01*
X2819460Y1186680D01*
X2813480Y1187040D01*
X2807520Y1186680D01*
X2801620Y1185600D01*
X2795899Y1183820D01*
X2790460Y1181360D01*
X2785340Y1178260D01*
X2780620Y1174580D01*
X2776380Y1170340D01*
X2772700Y1165620D01*
X2769600Y1160500D01*
X2767140Y1155040D01*
X2765360Y1149340D01*
X2764280Y1143440D01*
X2763920Y1137480D01*
X2764280Y1131500D01*
X2765360Y1125620D01*
X2767140Y1119900D01*
X2769600Y1114440D01*
X2772700Y1109320D01*
X2776380Y1104600D01*
X2780620Y1100380D01*
X2785340Y1096680D01*
X2790460Y1093580D01*
X2795899Y1091140D01*
X2801620Y1089360D01*
X2807520Y1088280D01*
G37*
G36*
X313500Y1090160D02*
G01*
X317260Y1090660D01*
X320900Y1091760D01*
X324280Y1093480D01*
X327340Y1095740D01*
X329980Y1098480D01*
X332100Y1101620D01*
X333660Y1105080D01*
X334620Y1108760D01*
X334940Y1112540D01*
X334620Y1116320D01*
X333660Y1120000D01*
X332100Y1123460D01*
X329980Y1126600D01*
X327340Y1129340D01*
X324280Y1131600D01*
X320900Y1133320D01*
X317260Y1134420D01*
X311880Y1135180D01*
X310500Y1136080D01*
X288380Y1158220D01*
X287500Y1159520D01*
X287200Y1161040D01*
X287200Y1847100D01*
X287540Y1848700D01*
X288480Y1850020D01*
X289860Y1850880D01*
X291480Y1851100D01*
X293060Y1850640D01*
X294320Y1849620D01*
X296380Y1847040D01*
X299240Y1844540D01*
X302460Y1842540D01*
X306000Y1841140D01*
X309700Y1840340D01*
X313500Y1840160D01*
X317260Y1840660D01*
X320900Y1841759D01*
X324280Y1843480D01*
X327340Y1845740D01*
X329980Y1848480D01*
X332100Y1851620D01*
X333660Y1855080D01*
X334620Y1858760D01*
X334940Y1862540D01*
X334620Y1866320D01*
X333660Y1870000D01*
X332100Y1873460D01*
X329980Y1876600D01*
X327340Y1879340D01*
X324280Y1881600D01*
X321260Y1883140D01*
X320220Y1883880D01*
X288380Y1915740D01*
X287500Y1917040D01*
X287200Y1918560D01*
X287200Y2578039D01*
X287500Y2579580D01*
X288380Y2580880D01*
X298880Y2591380D01*
X300160Y2592240D01*
X301680Y2592540D01*
X303200Y2592260D01*
X305980Y2591139D01*
X309700Y2590340D01*
X313500Y2590179D01*
X317260Y2590659D01*
X320880Y2591780D01*
X324280Y2593480D01*
X327340Y2595740D01*
X329960Y2598480D01*
X332080Y2601640D01*
X333660Y2605100D01*
X334600Y2608759D01*
X334940Y2612540D01*
X334600Y2616340D01*
X333660Y2620000D01*
X332080Y2623460D01*
X329960Y2626620D01*
X327340Y2629360D01*
X324280Y2631620D01*
X320880Y2633320D01*
X317260Y2634440D01*
X313500Y2634920D01*
X309700Y2634760D01*
X305980Y2633960D01*
X302460Y2632540D01*
X299220Y2630560D01*
X296400Y2628060D01*
X294920Y2627240D01*
X292360Y2626460D01*
X290880Y2626300D01*
X289460Y2626680D01*
X288260Y2627580D01*
X287480Y2628820D01*
X287200Y2630280D01*
X287200Y3015000D01*
X287480Y3016500D01*
X288320Y3017780D01*
X289420Y3018940D01*
X291540Y3022080D01*
X293120Y3025539D01*
X294060Y3029220D01*
X294400Y3033000D01*
X294060Y3036780D01*
X293120Y3040460D01*
X291540Y3043920D01*
X289420Y3047060D01*
X286800Y3049800D01*
X283740Y3052060D01*
X280340Y3053780D01*
X276720Y3054880D01*
X272960Y3055380D01*
X269160Y3055200D01*
X265440Y3054400D01*
X261920Y3053000D01*
X258680Y3051000D01*
X255840Y3048500D01*
X253440Y3045539D01*
X251600Y3042220D01*
X250340Y3038639D01*
X249700Y3034900D01*
X249700Y3031100D01*
X250340Y3027360D01*
X251600Y3023780D01*
X253440Y3020460D01*
X255920Y3017420D01*
X256580Y3016240D01*
X256800Y3014900D01*
X256800Y1153280D01*
X257120Y1150120D01*
X257979Y1147280D01*
X259380Y1144660D01*
X261400Y1142200D01*
X289060Y1114520D01*
X289940Y1113220D01*
X290240Y1111700D01*
X290240Y1110640D01*
X290880Y1106900D01*
X292140Y1103320D01*
X294000Y1100000D01*
X296380Y1097040D01*
X299240Y1094540D01*
X302460Y1092540D01*
X306000Y1091140D01*
X309700Y1090340D01*
G37*
G36*
X711520Y1135380D02*
G01*
X719080Y1135740D01*
X726560Y1136860D01*
X733900Y1138700D01*
X741040Y1141240D01*
X747880Y1144480D01*
X754360Y1148360D01*
X760440Y1152880D01*
X766060Y1157960D01*
X771140Y1163560D01*
X775639Y1169640D01*
X779539Y1176140D01*
X782760Y1182980D01*
X785320Y1190100D01*
X787159Y1197440D01*
X788259Y1204940D01*
X788640Y1212500D01*
X788259Y1220060D01*
X787159Y1227540D01*
X785320Y1234880D01*
X782760Y1242000D01*
X779539Y1248860D01*
X775639Y1255340D01*
X772720Y1259280D01*
X772060Y1260660D01*
X771960Y1262160D01*
X772440Y1263600D01*
X773400Y1264760D01*
X774740Y1265480D01*
X780100Y1267160D01*
X785540Y1269600D01*
X790680Y1272700D01*
X795380Y1276400D01*
X799620Y1280620D01*
X803300Y1285340D01*
X806400Y1290460D01*
X808860Y1295920D01*
X810639Y1301639D01*
X811720Y1307520D01*
X812080Y1313500D01*
X811720Y1319460D01*
X810639Y1325360D01*
X808860Y1331080D01*
X806400Y1336519D01*
X803300Y1341639D01*
X799620Y1346360D01*
X795380Y1350600D01*
X790680Y1354280D01*
X785540Y1357380D01*
X780100Y1359840D01*
X774380Y1361620D01*
X768500Y1362700D01*
X762520Y1363060D01*
X756540Y1362700D01*
X750660Y1361620D01*
X744940Y1359840D01*
X739479Y1357380D01*
X734360Y1354280D01*
X729640Y1350600D01*
X725420Y1346360D01*
X721720Y1341639D01*
X718640Y1336519D01*
X716180Y1331080D01*
X714400Y1325360D01*
X713319Y1319460D01*
X712960Y1313500D01*
X713319Y1307520D01*
X714400Y1301639D01*
X716180Y1295920D01*
X716500Y1295200D01*
X716860Y1293620D01*
X716540Y1292020D01*
X715620Y1290680D01*
X714260Y1289820D01*
X712660Y1289560D01*
X711520Y1289620D01*
X703960Y1289240D01*
X696460Y1288140D01*
X689120Y1286300D01*
X682000Y1283740D01*
X675160Y1280520D01*
X668660Y1276620D01*
X662580Y1272120D01*
X656979Y1267020D01*
X652039Y1261580D01*
X650720Y1260620D01*
X649100Y1260260D01*
X647500Y1260600D01*
X646140Y1261540D01*
X645300Y1262960D01*
X645100Y1264580D01*
X645560Y1266160D01*
X648259Y1271200D01*
X651620Y1279060D01*
X654260Y1287180D01*
X656160Y1295500D01*
X657320Y1303980D01*
X657700Y1312500D01*
X657320Y1321040D01*
X656160Y1329500D01*
X654260Y1337820D01*
X651620Y1345960D01*
X648259Y1353800D01*
X644220Y1361320D01*
X639520Y1368460D01*
X634180Y1375140D01*
X628280Y1381320D01*
X621860Y1386940D01*
X614940Y1391960D01*
X607600Y1396339D01*
X599920Y1400040D01*
X591920Y1403040D01*
X583680Y1405320D01*
X575280Y1406840D01*
X566760Y1407600D01*
X558220Y1407600D01*
X549720Y1406840D01*
X541320Y1405320D01*
X533080Y1403040D01*
X525080Y1400040D01*
X517380Y1396339D01*
X510060Y1391960D01*
X503140Y1386940D01*
X496719Y1381320D01*
X490800Y1375140D01*
X485480Y1368460D01*
X480780Y1361320D01*
X476719Y1353800D01*
X473380Y1345960D01*
X470740Y1337820D01*
X468840Y1329500D01*
X467680Y1321040D01*
X467299Y1312500D01*
X467680Y1303980D01*
X468840Y1295500D01*
X470740Y1287180D01*
X473380Y1279060D01*
X476719Y1271200D01*
X480780Y1263680D01*
X485480Y1256540D01*
X490800Y1249880D01*
X496719Y1243700D01*
X503140Y1238080D01*
X510060Y1233060D01*
X517380Y1228680D01*
X525080Y1224960D01*
X533080Y1221960D01*
X541320Y1219700D01*
X549720Y1218160D01*
X558220Y1217400D01*
X566760Y1217400D01*
X575280Y1218160D01*
X583680Y1219700D01*
X591920Y1221960D01*
X599920Y1224960D01*
X607600Y1228680D01*
X614940Y1233060D01*
X621860Y1238080D01*
X628280Y1243700D01*
X634180Y1249880D01*
X636800Y1253140D01*
X638080Y1254200D01*
X639660Y1254640D01*
X641300Y1254400D01*
X642700Y1253540D01*
X643620Y1252160D01*
X643920Y1250540D01*
X643540Y1248940D01*
X640260Y1242000D01*
X637720Y1234880D01*
X635880Y1227540D01*
X634760Y1220060D01*
X634400Y1212500D01*
X634760Y1204940D01*
X635880Y1197440D01*
X637720Y1190100D01*
X640260Y1182980D01*
X643500Y1176140D01*
X647380Y1169640D01*
X651900Y1163560D01*
X656979Y1157960D01*
X662580Y1152880D01*
X668660Y1148360D01*
X675160Y1144480D01*
X682000Y1141240D01*
X689120Y1138700D01*
X696460Y1136860D01*
X703960Y1135740D01*
G37*
G36*
X1461519Y1135380D02*
G01*
X1469079Y1135740D01*
X1476560Y1136860D01*
X1483899Y1138700D01*
X1491040Y1141240D01*
X1497880Y1144480D01*
X1504360Y1148360D01*
X1510440Y1152880D01*
X1516060Y1157960D01*
X1521140Y1163560D01*
X1525640Y1169640D01*
X1529540Y1176140D01*
X1532760Y1182980D01*
X1535320Y1190100D01*
X1537160Y1197440D01*
X1538260Y1204940D01*
X1538640Y1212500D01*
X1538260Y1220060D01*
X1537160Y1227540D01*
X1535320Y1234880D01*
X1532760Y1242000D01*
X1529540Y1248860D01*
X1525640Y1255340D01*
X1522720Y1259280D01*
X1522060Y1260660D01*
X1521960Y1262160D01*
X1522440Y1263600D01*
X1523400Y1264760D01*
X1524740Y1265480D01*
X1530100Y1267160D01*
X1535540Y1269600D01*
X1540680Y1272700D01*
X1545380Y1276400D01*
X1549620Y1280620D01*
X1553300Y1285340D01*
X1556399Y1290460D01*
X1558860Y1295920D01*
X1560640Y1301639D01*
X1561720Y1307520D01*
X1562080Y1313500D01*
X1561720Y1319460D01*
X1560640Y1325360D01*
X1558860Y1331080D01*
X1556399Y1336519D01*
X1553300Y1341639D01*
X1549620Y1346360D01*
X1545380Y1350600D01*
X1540680Y1354280D01*
X1535540Y1357380D01*
X1530100Y1359840D01*
X1524379Y1361620D01*
X1518500Y1362700D01*
X1512520Y1363060D01*
X1506540Y1362700D01*
X1500660Y1361620D01*
X1494940Y1359840D01*
X1489480Y1357380D01*
X1484360Y1354280D01*
X1479640Y1350600D01*
X1475420Y1346360D01*
X1471720Y1341639D01*
X1468640Y1336519D01*
X1466180Y1331080D01*
X1464400Y1325360D01*
X1463320Y1319460D01*
X1462960Y1313500D01*
X1463320Y1307520D01*
X1464400Y1301639D01*
X1466180Y1295920D01*
X1466500Y1295200D01*
X1466860Y1293620D01*
X1466540Y1292020D01*
X1465620Y1290680D01*
X1464259Y1289820D01*
X1462660Y1289560D01*
X1461519Y1289620D01*
X1453959Y1289240D01*
X1446459Y1288140D01*
X1439120Y1286300D01*
X1432000Y1283740D01*
X1425160Y1280520D01*
X1418660Y1276620D01*
X1412580Y1272120D01*
X1406980Y1267020D01*
X1402040Y1261580D01*
X1400720Y1260620D01*
X1399100Y1260260D01*
X1397500Y1260600D01*
X1396140Y1261540D01*
X1395300Y1262960D01*
X1395100Y1264580D01*
X1395560Y1266160D01*
X1398260Y1271200D01*
X1401620Y1279060D01*
X1404259Y1287180D01*
X1406160Y1295500D01*
X1407320Y1303980D01*
X1407700Y1312500D01*
X1407320Y1321040D01*
X1406160Y1329500D01*
X1404259Y1337820D01*
X1401620Y1345960D01*
X1398260Y1353800D01*
X1394220Y1361320D01*
X1389520Y1368460D01*
X1384180Y1375140D01*
X1378280Y1381320D01*
X1371860Y1386940D01*
X1364940Y1391960D01*
X1357600Y1396339D01*
X1349920Y1400040D01*
X1341920Y1403040D01*
X1333680Y1405320D01*
X1325280Y1406840D01*
X1316759Y1407600D01*
X1308220Y1407600D01*
X1299720Y1406840D01*
X1291320Y1405320D01*
X1283080Y1403040D01*
X1275080Y1400040D01*
X1267380Y1396339D01*
X1260060Y1391960D01*
X1253140Y1386940D01*
X1246720Y1381320D01*
X1240800Y1375140D01*
X1235480Y1368460D01*
X1230780Y1361320D01*
X1226720Y1353800D01*
X1223380Y1345960D01*
X1220740Y1337820D01*
X1218840Y1329500D01*
X1217680Y1321040D01*
X1217300Y1312500D01*
X1217680Y1303980D01*
X1218840Y1295500D01*
X1220740Y1287180D01*
X1223380Y1279060D01*
X1226720Y1271200D01*
X1230780Y1263680D01*
X1235480Y1256540D01*
X1240800Y1249880D01*
X1246720Y1243700D01*
X1253140Y1238080D01*
X1260060Y1233060D01*
X1267380Y1228680D01*
X1275080Y1224960D01*
X1283080Y1221960D01*
X1291320Y1219700D01*
X1299720Y1218160D01*
X1308220Y1217400D01*
X1316759Y1217400D01*
X1325280Y1218160D01*
X1333680Y1219700D01*
X1341920Y1221960D01*
X1349920Y1224960D01*
X1357600Y1228680D01*
X1364940Y1233060D01*
X1371860Y1238080D01*
X1378280Y1243700D01*
X1384180Y1249880D01*
X1386800Y1253140D01*
X1388080Y1254200D01*
X1389660Y1254640D01*
X1391300Y1254400D01*
X1392700Y1253540D01*
X1393620Y1252160D01*
X1393920Y1250540D01*
X1393540Y1248940D01*
X1390260Y1242000D01*
X1387720Y1234880D01*
X1385880Y1227540D01*
X1384760Y1220060D01*
X1384400Y1212500D01*
X1384760Y1204940D01*
X1385880Y1197440D01*
X1387720Y1190100D01*
X1390260Y1182980D01*
X1393500Y1176140D01*
X1397380Y1169640D01*
X1401900Y1163560D01*
X1406980Y1157960D01*
X1412580Y1152880D01*
X1418660Y1148360D01*
X1425160Y1144480D01*
X1432000Y1141240D01*
X1439120Y1138700D01*
X1446459Y1136860D01*
X1453959Y1135740D01*
G37*
G36*
X2211520Y1135380D02*
G01*
X2219080Y1135740D01*
X2226560Y1136860D01*
X2233900Y1138700D01*
X2241040Y1141240D01*
X2247880Y1144480D01*
X2254360Y1148360D01*
X2260440Y1152880D01*
X2266060Y1157960D01*
X2271140Y1163560D01*
X2275640Y1169640D01*
X2279540Y1176140D01*
X2282760Y1182980D01*
X2285320Y1190100D01*
X2287160Y1197440D01*
X2288260Y1204940D01*
X2288640Y1212500D01*
X2288260Y1220060D01*
X2287160Y1227540D01*
X2285320Y1234880D01*
X2282760Y1242000D01*
X2279540Y1248860D01*
X2275640Y1255340D01*
X2272720Y1259280D01*
X2272060Y1260660D01*
X2271960Y1262160D01*
X2272440Y1263600D01*
X2273400Y1264760D01*
X2274740Y1265480D01*
X2280100Y1267160D01*
X2285540Y1269600D01*
X2290680Y1272700D01*
X2295380Y1276400D01*
X2299620Y1280620D01*
X2303300Y1285340D01*
X2306400Y1290460D01*
X2308860Y1295920D01*
X2310640Y1301639D01*
X2311720Y1307520D01*
X2312080Y1313500D01*
X2311720Y1319460D01*
X2310640Y1325360D01*
X2308860Y1331080D01*
X2306400Y1336519D01*
X2303300Y1341639D01*
X2299620Y1346360D01*
X2295380Y1350600D01*
X2290680Y1354280D01*
X2285540Y1357380D01*
X2280100Y1359840D01*
X2274380Y1361620D01*
X2268500Y1362700D01*
X2262520Y1363060D01*
X2256540Y1362700D01*
X2250660Y1361620D01*
X2244940Y1359840D01*
X2239480Y1357380D01*
X2234360Y1354280D01*
X2229640Y1350600D01*
X2225420Y1346360D01*
X2221720Y1341639D01*
X2218640Y1336519D01*
X2216180Y1331080D01*
X2214400Y1325360D01*
X2213320Y1319460D01*
X2212960Y1313500D01*
X2213320Y1307520D01*
X2214400Y1301639D01*
X2216180Y1295920D01*
X2216500Y1295200D01*
X2216860Y1293620D01*
X2216540Y1292020D01*
X2215620Y1290680D01*
X2214260Y1289820D01*
X2212660Y1289560D01*
X2211520Y1289620D01*
X2203960Y1289240D01*
X2196460Y1288140D01*
X2189120Y1286300D01*
X2182000Y1283740D01*
X2175160Y1280520D01*
X2168660Y1276620D01*
X2162580Y1272120D01*
X2156980Y1267020D01*
X2152040Y1261580D01*
X2150720Y1260620D01*
X2149100Y1260260D01*
X2147500Y1260600D01*
X2146140Y1261540D01*
X2145300Y1262960D01*
X2145100Y1264580D01*
X2145560Y1266160D01*
X2148260Y1271200D01*
X2151620Y1279060D01*
X2154260Y1287180D01*
X2156160Y1295500D01*
X2157320Y1303980D01*
X2157700Y1312500D01*
X2157320Y1321040D01*
X2156160Y1329500D01*
X2154260Y1337820D01*
X2151620Y1345960D01*
X2148260Y1353800D01*
X2144220Y1361320D01*
X2139520Y1368460D01*
X2134180Y1375140D01*
X2128280Y1381320D01*
X2121860Y1386940D01*
X2114940Y1391960D01*
X2107600Y1396339D01*
X2099920Y1400040D01*
X2091920Y1403040D01*
X2083680Y1405320D01*
X2075280Y1406840D01*
X2066759Y1407600D01*
X2058220Y1407600D01*
X2049720Y1406840D01*
X2041320Y1405320D01*
X2033080Y1403040D01*
X2025080Y1400040D01*
X2017380Y1396339D01*
X2010060Y1391960D01*
X2003140Y1386940D01*
X1996720Y1381320D01*
X1990800Y1375140D01*
X1985480Y1368460D01*
X1980780Y1361320D01*
X1976720Y1353800D01*
X1973380Y1345960D01*
X1970740Y1337820D01*
X1968839Y1329500D01*
X1967680Y1321040D01*
X1967300Y1312500D01*
X1967680Y1303980D01*
X1968839Y1295500D01*
X1970740Y1287180D01*
X1973380Y1279060D01*
X1976720Y1271200D01*
X1980780Y1263680D01*
X1985480Y1256540D01*
X1990800Y1249880D01*
X1996720Y1243700D01*
X2003140Y1238080D01*
X2010060Y1233060D01*
X2017380Y1228680D01*
X2025080Y1224960D01*
X2033080Y1221960D01*
X2041320Y1219700D01*
X2049720Y1218160D01*
X2058220Y1217400D01*
X2066759Y1217400D01*
X2075280Y1218160D01*
X2083680Y1219700D01*
X2091920Y1221960D01*
X2099920Y1224960D01*
X2107600Y1228680D01*
X2114940Y1233060D01*
X2121860Y1238080D01*
X2128280Y1243700D01*
X2134180Y1249880D01*
X2136800Y1253140D01*
X2138080Y1254200D01*
X2139660Y1254640D01*
X2141300Y1254400D01*
X2142700Y1253540D01*
X2143620Y1252160D01*
X2143920Y1250540D01*
X2143540Y1248940D01*
X2140260Y1242000D01*
X2137720Y1234880D01*
X2135880Y1227540D01*
X2134760Y1220060D01*
X2134400Y1212500D01*
X2134760Y1204940D01*
X2135880Y1197440D01*
X2137720Y1190100D01*
X2140260Y1182980D01*
X2143500Y1176140D01*
X2147380Y1169640D01*
X2151900Y1163560D01*
X2156980Y1157960D01*
X2162580Y1152880D01*
X2168660Y1148360D01*
X2175160Y1144480D01*
X2182000Y1141240D01*
X2189120Y1138700D01*
X2196460Y1136860D01*
X2203960Y1135740D01*
G37*
G36*
X2613480Y1165140D02*
G01*
X2617240Y1165640D01*
X2620860Y1166740D01*
X2624260Y1168460D01*
X2627320Y1170720D01*
X2629940Y1173460D01*
X2632060Y1176600D01*
X2633639Y1180060D01*
X2634580Y1183740D01*
X2634860Y1187040D01*
X2635220Y1188380D01*
X2636019Y1189540D01*
X2660600Y1214120D01*
X2662620Y1216560D01*
X2664020Y1219200D01*
X2664880Y1222040D01*
X2665200Y1225200D01*
X2665200Y1774800D01*
X2664900Y1777960D01*
X2664020Y1780800D01*
X2662620Y1783420D01*
X2660620Y1785880D01*
X2586100Y1860480D01*
X2585299Y1861620D01*
X2584940Y1862960D01*
X2584660Y1866320D01*
X2583700Y1870000D01*
X2582140Y1873460D01*
X2580020Y1876600D01*
X2577380Y1879340D01*
X2574320Y1881600D01*
X2570940Y1883320D01*
X2567300Y1884420D01*
X2561920Y1885180D01*
X2560539Y1886080D01*
X2533380Y1913260D01*
X2532500Y1914560D01*
X2532200Y1916080D01*
X2532200Y2620960D01*
X2532580Y2622660D01*
X2533640Y2624040D01*
X2535200Y2624840D01*
X2536940Y2624900D01*
X2538540Y2624200D01*
X2539700Y2622900D01*
X2540200Y2621220D01*
X2540260Y2620200D01*
X2540920Y2616320D01*
X2542180Y2612740D01*
X2544040Y2609420D01*
X2546420Y2606460D01*
X2549280Y2603960D01*
X2552500Y2601960D01*
X2556040Y2600560D01*
X2559740Y2599760D01*
X2563540Y2599600D01*
X2567300Y2600080D01*
X2570940Y2601180D01*
X2574320Y2602900D01*
X2577380Y2605160D01*
X2580020Y2607900D01*
X2582140Y2611040D01*
X2583700Y2614500D01*
X2584660Y2618180D01*
X2584980Y2621960D01*
X2584660Y2625740D01*
X2583700Y2629420D01*
X2582140Y2632880D01*
X2580020Y2636019D01*
X2577380Y2638759D01*
X2574320Y2641019D01*
X2570940Y2642740D01*
X2567300Y2643840D01*
X2561720Y2644580D01*
X2560360Y2645460D01*
X2533400Y2671820D01*
X2532520Y2673120D01*
X2532200Y2674680D01*
X2532200Y3002020D01*
X2532480Y3003519D01*
X2533320Y3004800D01*
X2534420Y3005960D01*
X2536540Y3009100D01*
X2538120Y3012559D01*
X2539060Y3016240D01*
X2539400Y3020020D01*
X2539060Y3023800D01*
X2538120Y3027480D01*
X2536540Y3030940D01*
X2534420Y3034080D01*
X2533320Y3035240D01*
X2532480Y3036520D01*
X2532200Y3038000D01*
X2532200Y3123039D01*
X2532500Y3124580D01*
X2533380Y3125880D01*
X2679740Y3272260D01*
X2681040Y3273120D01*
X2682820Y3273420D01*
X2684300Y3273140D01*
X2685560Y3272340D01*
X2686440Y3271120D01*
X2688980Y3265720D01*
X2692060Y3260880D01*
X2695700Y3256460D01*
X2699880Y3252540D01*
X2704520Y3249180D01*
X2709540Y3246420D01*
X2714880Y3244300D01*
X2720419Y3242880D01*
X2726100Y3242160D01*
X2731840Y3242160D01*
X2737520Y3242880D01*
X2743060Y3244300D01*
X2748399Y3246420D01*
X2753420Y3249180D01*
X2758060Y3252540D01*
X2762220Y3256460D01*
X2765880Y3260880D01*
X2768960Y3265720D01*
X2771400Y3270899D01*
X2773159Y3276340D01*
X2774240Y3281980D01*
X2774600Y3287700D01*
X2774240Y3293420D01*
X2773159Y3299040D01*
X2771400Y3304500D01*
X2768960Y3309680D01*
X2765880Y3314520D01*
X2762220Y3318920D01*
X2758060Y3322840D01*
X2753420Y3326220D01*
X2748399Y3328980D01*
X2743060Y3331080D01*
X2737520Y3332520D01*
X2731840Y3333240D01*
X2726100Y3333240D01*
X2720419Y3332520D01*
X2714880Y3331080D01*
X2709540Y3328980D01*
X2704520Y3326220D01*
X2699880Y3322840D01*
X2695700Y3318920D01*
X2692060Y3314520D01*
X2691580Y3313759D01*
X2690380Y3312540D01*
X2688780Y3311940D01*
X2687080Y3312060D01*
X2685580Y3312880D01*
X2684560Y3314240D01*
X2684200Y3315899D01*
X2684200Y3702040D01*
X2684500Y3703580D01*
X2685380Y3704880D01*
X2741600Y3761120D01*
X2743620Y3763560D01*
X2745020Y3766200D01*
X2745880Y3769040D01*
X2746200Y3772200D01*
X2746200Y3813700D01*
X2746460Y3815100D01*
X2747180Y3816320D01*
X2748279Y3817220D01*
X2753420Y3820040D01*
X2758060Y3823420D01*
X2762220Y3827340D01*
X2765880Y3831740D01*
X2768960Y3836580D01*
X2771400Y3841760D01*
X2773159Y3847220D01*
X2774240Y3852840D01*
X2774600Y3858560D01*
X2774240Y3864280D01*
X2773159Y3869920D01*
X2771400Y3875360D01*
X2768960Y3880539D01*
X2765880Y3885380D01*
X2762220Y3889800D01*
X2758060Y3893720D01*
X2753420Y3897080D01*
X2748399Y3899840D01*
X2743060Y3901960D01*
X2737520Y3903380D01*
X2731840Y3904100D01*
X2726100Y3904100D01*
X2720419Y3903380D01*
X2714880Y3901960D01*
X2709540Y3899840D01*
X2704520Y3897080D01*
X2699880Y3893720D01*
X2695700Y3889800D01*
X2692060Y3885380D01*
X2688980Y3880539D01*
X2686540Y3875360D01*
X2684780Y3869920D01*
X2683700Y3864280D01*
X2683340Y3858560D01*
X2683700Y3852840D01*
X2684780Y3847220D01*
X2686540Y3841760D01*
X2688980Y3836580D01*
X2692060Y3831740D01*
X2695700Y3827340D01*
X2699880Y3823420D01*
X2704520Y3820040D01*
X2709540Y3817280D01*
X2713279Y3815800D01*
X2714600Y3814940D01*
X2715480Y3813639D01*
X2715800Y3812080D01*
X2715800Y3779960D01*
X2715500Y3778420D01*
X2714620Y3777120D01*
X2658399Y3720880D01*
X2656380Y3718440D01*
X2654980Y3715800D01*
X2654120Y3712960D01*
X2653800Y3709800D01*
X2653800Y3662679D01*
X2653500Y3661180D01*
X2652679Y3659920D01*
X2651440Y3659040D01*
X2649940Y3658680D01*
X2648440Y3658920D01*
X2647020Y3659800D01*
X2641940Y3663399D01*
X2637580Y3665820D01*
X2637580Y3624840D01*
X2649800Y3624840D01*
X2651340Y3624540D01*
X2652620Y3623680D01*
X2653500Y3622380D01*
X2653800Y3620840D01*
X2653800Y3545100D01*
X2653500Y3543580D01*
X2652620Y3542280D01*
X2651340Y3541400D01*
X2649800Y3541100D01*
X2637580Y3541100D01*
X2637580Y3500120D01*
X2641940Y3502540D01*
X2647140Y3506240D01*
X2648440Y3507020D01*
X2649940Y3507260D01*
X2651440Y3506920D01*
X2652679Y3506040D01*
X2653500Y3504760D01*
X2653800Y3503260D01*
X2653800Y3290960D01*
X2653500Y3289420D01*
X2652620Y3288120D01*
X2506400Y3141880D01*
X2504380Y3139440D01*
X2502980Y3136800D01*
X2502120Y3133960D01*
X2501800Y3130800D01*
X2501800Y3038120D01*
X2501580Y3036780D01*
X2500920Y3035600D01*
X2498440Y3032559D01*
X2496600Y3029240D01*
X2495340Y3025659D01*
X2494700Y3021920D01*
X2494700Y3018120D01*
X2495340Y3014380D01*
X2496600Y3010800D01*
X2498440Y3007480D01*
X2500920Y3004420D01*
X2501580Y3003240D01*
X2501800Y3001920D01*
X2501800Y1908320D01*
X2502120Y1905160D01*
X2502980Y1902320D01*
X2504380Y1899700D01*
X2506400Y1897240D01*
X2539100Y1864520D01*
X2539980Y1863220D01*
X2540280Y1861699D01*
X2540280Y1860640D01*
X2540920Y1856900D01*
X2542180Y1853320D01*
X2544040Y1850000D01*
X2546420Y1847040D01*
X2549280Y1844540D01*
X2552500Y1842540D01*
X2556040Y1841140D01*
X2559740Y1840340D01*
X2561860Y1840240D01*
X2563300Y1839900D01*
X2564520Y1839079D01*
X2633639Y1769880D01*
X2634500Y1768580D01*
X2634800Y1767060D01*
X2634800Y1232960D01*
X2634500Y1231420D01*
X2633620Y1230120D01*
X2614500Y1210980D01*
X2613279Y1210160D01*
X2611840Y1209820D01*
X2609680Y1209720D01*
X2605960Y1208920D01*
X2602440Y1207520D01*
X2599200Y1205520D01*
X2596360Y1203020D01*
X2593960Y1200060D01*
X2592120Y1196740D01*
X2590860Y1193160D01*
X2590220Y1189420D01*
X2590220Y1185620D01*
X2590860Y1181880D01*
X2592120Y1178300D01*
X2593960Y1174980D01*
X2596360Y1172020D01*
X2599200Y1169520D01*
X2602440Y1167520D01*
X2605960Y1166120D01*
X2609680Y1165320D01*
G37*
G36*
X1862520Y1263940D02*
G01*
X1868500Y1264300D01*
X1874379Y1265380D01*
X1880100Y1267160D01*
X1885540Y1269600D01*
X1890680Y1272700D01*
X1895380Y1276400D01*
X1899620Y1280620D01*
X1903300Y1285340D01*
X1906399Y1290460D01*
X1908860Y1295920D01*
X1910640Y1301639D01*
X1911720Y1307520D01*
X1912080Y1313500D01*
X1911720Y1319460D01*
X1910640Y1325360D01*
X1908860Y1331080D01*
X1906399Y1336519D01*
X1903300Y1341639D01*
X1899620Y1346360D01*
X1895380Y1350600D01*
X1890680Y1354280D01*
X1885540Y1357380D01*
X1880100Y1359840D01*
X1874379Y1361620D01*
X1868500Y1362700D01*
X1862520Y1363060D01*
X1856540Y1362700D01*
X1850660Y1361620D01*
X1844940Y1359840D01*
X1839480Y1357380D01*
X1834360Y1354280D01*
X1829640Y1350600D01*
X1825420Y1346360D01*
X1821720Y1341639D01*
X1818640Y1336519D01*
X1816180Y1331080D01*
X1814400Y1325360D01*
X1813320Y1319460D01*
X1812960Y1313500D01*
X1813320Y1307520D01*
X1814400Y1301639D01*
X1816180Y1295920D01*
X1818640Y1290460D01*
X1821720Y1285340D01*
X1825420Y1280620D01*
X1829640Y1276400D01*
X1834360Y1272700D01*
X1839480Y1269600D01*
X1844940Y1267160D01*
X1850660Y1265380D01*
X1856540Y1264300D01*
G37*
G36*
X362520Y1263940D02*
G01*
X368500Y1264300D01*
X374380Y1265380D01*
X380100Y1267160D01*
X385540Y1269600D01*
X390680Y1272700D01*
X395379Y1276400D01*
X399620Y1280620D01*
X403300Y1285340D01*
X406400Y1290460D01*
X408860Y1295920D01*
X410640Y1301639D01*
X411719Y1307520D01*
X412080Y1313500D01*
X411719Y1319460D01*
X410640Y1325360D01*
X408860Y1331080D01*
X406400Y1336519D01*
X403300Y1341639D01*
X399620Y1346360D01*
X395379Y1350600D01*
X390680Y1354280D01*
X385540Y1357380D01*
X380100Y1359840D01*
X374380Y1361620D01*
X368500Y1362700D01*
X362520Y1363060D01*
X356540Y1362700D01*
X350660Y1361620D01*
X344940Y1359840D01*
X339480Y1357380D01*
X334360Y1354280D01*
X329640Y1350600D01*
X325420Y1346360D01*
X321719Y1341639D01*
X318640Y1336519D01*
X316180Y1331080D01*
X314400Y1325360D01*
X313320Y1319460D01*
X312960Y1313500D01*
X313320Y1307520D01*
X314400Y1301639D01*
X316180Y1295920D01*
X318640Y1290460D01*
X321719Y1285340D01*
X325420Y1280620D01*
X329640Y1276400D01*
X334360Y1272700D01*
X339480Y1269600D01*
X344940Y1267160D01*
X350660Y1265380D01*
X356540Y1264300D01*
G37*
G36*
X1112520Y1263940D02*
G01*
X1118500Y1264300D01*
X1124380Y1265380D01*
X1130100Y1267160D01*
X1135540Y1269600D01*
X1140680Y1272700D01*
X1145380Y1276400D01*
X1149620Y1280620D01*
X1153300Y1285340D01*
X1156400Y1290460D01*
X1158860Y1295920D01*
X1160640Y1301639D01*
X1161720Y1307520D01*
X1162080Y1313500D01*
X1161720Y1319460D01*
X1160640Y1325360D01*
X1158860Y1331080D01*
X1156400Y1336519D01*
X1153300Y1341639D01*
X1149620Y1346360D01*
X1145380Y1350600D01*
X1140680Y1354280D01*
X1135540Y1357380D01*
X1130100Y1359840D01*
X1124380Y1361620D01*
X1118500Y1362700D01*
X1112520Y1363060D01*
X1106540Y1362700D01*
X1100660Y1361620D01*
X1094940Y1359840D01*
X1089480Y1357380D01*
X1084360Y1354280D01*
X1079640Y1350600D01*
X1075420Y1346360D01*
X1071720Y1341639D01*
X1068640Y1336519D01*
X1066180Y1331080D01*
X1064400Y1325360D01*
X1063320Y1319460D01*
X1062960Y1313500D01*
X1063320Y1307520D01*
X1064400Y1301639D01*
X1066180Y1295920D01*
X1068640Y1290460D01*
X1071720Y1285340D01*
X1075420Y1280620D01*
X1079640Y1276400D01*
X1084360Y1272700D01*
X1089480Y1269600D01*
X1094940Y1267160D01*
X1100660Y1265380D01*
X1106540Y1264300D01*
G37*
G36*
X3138519Y1317660D02*
G01*
X3146680Y1318040D01*
X3154780Y1319160D01*
X3162740Y1321040D01*
X3170500Y1323640D01*
X3177980Y1326940D01*
X3185120Y1330920D01*
X3191880Y1335540D01*
X3198159Y1340760D01*
X3203940Y1346540D01*
X3209180Y1352840D01*
X3213800Y1359580D01*
X3217780Y1366740D01*
X3221080Y1374220D01*
X3223680Y1381960D01*
X3225539Y1389920D01*
X3226680Y1398020D01*
X3227060Y1406200D01*
X3226680Y1414360D01*
X3225539Y1422480D01*
X3223680Y1430440D01*
X3221080Y1438180D01*
X3217780Y1445660D01*
X3213800Y1452820D01*
X3209180Y1459560D01*
X3203940Y1465860D01*
X3198159Y1471639D01*
X3191880Y1476860D01*
X3185120Y1481480D01*
X3177980Y1485460D01*
X3170500Y1488760D01*
X3162740Y1491360D01*
X3154780Y1493240D01*
X3146680Y1494360D01*
X3138519Y1494740D01*
X3130340Y1494360D01*
X3122240Y1493240D01*
X3114280Y1491360D01*
X3106520Y1488760D01*
X3099040Y1485460D01*
X3091900Y1481480D01*
X3085140Y1476860D01*
X3078860Y1471639D01*
X3073080Y1465860D01*
X3067840Y1459560D01*
X3063220Y1452820D01*
X3059240Y1445660D01*
X3055940Y1438180D01*
X3053340Y1430440D01*
X3051480Y1422480D01*
X3050340Y1414360D01*
X3049960Y1406200D01*
X3050340Y1398020D01*
X3051480Y1389920D01*
X3053340Y1381960D01*
X3055940Y1374220D01*
X3059240Y1366740D01*
X3063220Y1359580D01*
X3067840Y1352840D01*
X3073080Y1346540D01*
X3078860Y1340760D01*
X3085140Y1335540D01*
X3091900Y1330920D01*
X3099040Y1326940D01*
X3106520Y1323640D01*
X3114280Y1321040D01*
X3122240Y1319160D01*
X3130340Y1318040D01*
G37*
G36*
X2540320Y1336020D02*
G01*
X2547520Y1336579D01*
X2554640Y1337880D01*
X2561580Y1339900D01*
X2568260Y1342620D01*
X2574640Y1346020D01*
X2580640Y1350060D01*
X2586200Y1354680D01*
X2591240Y1359860D01*
X2595720Y1365520D01*
X2599600Y1371620D01*
X2602840Y1378100D01*
X2605380Y1384860D01*
X2607220Y1391840D01*
X2608340Y1398980D01*
X2608700Y1406200D01*
X2608340Y1413420D01*
X2607220Y1420560D01*
X2605380Y1427540D01*
X2602840Y1434300D01*
X2599600Y1440780D01*
X2595720Y1446879D01*
X2591240Y1452540D01*
X2586200Y1457720D01*
X2580640Y1462340D01*
X2574640Y1466380D01*
X2568260Y1469780D01*
X2561580Y1472500D01*
X2554640Y1474520D01*
X2547520Y1475820D01*
X2540320Y1476380D01*
X2533100Y1476180D01*
X2525920Y1475260D01*
X2518900Y1473600D01*
X2512060Y1471220D01*
X2505520Y1468160D01*
X2499320Y1464440D01*
X2493540Y1460100D01*
X2488240Y1455200D01*
X2483460Y1449760D01*
X2479280Y1443880D01*
X2475720Y1437580D01*
X2472820Y1430960D01*
X2470620Y1424079D01*
X2469160Y1417000D01*
X2468400Y1409820D01*
X2468400Y1402580D01*
X2469160Y1395400D01*
X2470620Y1388320D01*
X2472820Y1381440D01*
X2475720Y1374820D01*
X2479280Y1368520D01*
X2483460Y1362640D01*
X2488240Y1357200D01*
X2493540Y1352300D01*
X2499320Y1347960D01*
X2505520Y1344240D01*
X2512060Y1341180D01*
X2518900Y1338800D01*
X2525920Y1337140D01*
X2533100Y1336220D01*
G37*
G36*
X487740Y1423300D02*
G01*
X633300Y1423300D01*
X635780Y1423580D01*
X637940Y1424319D01*
X639860Y1425540D01*
X641480Y1427160D01*
X642680Y1429079D01*
X643439Y1431240D01*
X643720Y1433720D01*
X643720Y1561279D01*
X643439Y1563760D01*
X642680Y1565900D01*
X641480Y1567840D01*
X639860Y1569440D01*
X637940Y1570660D01*
X635780Y1571420D01*
X633300Y1571699D01*
X487740Y1571699D01*
X485260Y1571420D01*
X483100Y1570660D01*
X481180Y1569440D01*
X479560Y1567840D01*
X478340Y1565900D01*
X477600Y1563760D01*
X477320Y1561279D01*
X477320Y1433720D01*
X477600Y1431240D01*
X478340Y1429079D01*
X479560Y1427160D01*
X481180Y1425540D01*
X483100Y1424319D01*
X485260Y1423580D01*
G37*
G36*
X1237740Y1423300D02*
G01*
X1383300Y1423300D01*
X1385780Y1423580D01*
X1387940Y1424319D01*
X1389860Y1425540D01*
X1391480Y1427160D01*
X1392680Y1429079D01*
X1393440Y1431240D01*
X1393720Y1433720D01*
X1393720Y1561279D01*
X1393440Y1563760D01*
X1392680Y1565900D01*
X1391480Y1567840D01*
X1389860Y1569440D01*
X1387940Y1570660D01*
X1385780Y1571420D01*
X1383300Y1571699D01*
X1237740Y1571699D01*
X1235260Y1571420D01*
X1233100Y1570660D01*
X1231180Y1569440D01*
X1229560Y1567840D01*
X1228340Y1565900D01*
X1227600Y1563760D01*
X1227320Y1561279D01*
X1227320Y1433720D01*
X1227600Y1431240D01*
X1228340Y1429079D01*
X1229560Y1427160D01*
X1231180Y1425540D01*
X1233100Y1424319D01*
X1235260Y1423580D01*
G37*
G36*
X1987740Y1423300D02*
G01*
X2133300Y1423300D01*
X2135780Y1423580D01*
X2137940Y1424319D01*
X2139860Y1425540D01*
X2141480Y1427160D01*
X2142680Y1429079D01*
X2143440Y1431240D01*
X2143720Y1433720D01*
X2143720Y1561279D01*
X2143440Y1563760D01*
X2142680Y1565900D01*
X2141480Y1567840D01*
X2139860Y1569440D01*
X2137940Y1570660D01*
X2135780Y1571420D01*
X2133300Y1571699D01*
X1987740Y1571699D01*
X1985260Y1571420D01*
X1983100Y1570660D01*
X1981180Y1569440D01*
X1979560Y1567840D01*
X1978340Y1565900D01*
X1977600Y1563760D01*
X1977320Y1561279D01*
X1977320Y1433720D01*
X1977600Y1431240D01*
X1978340Y1429079D01*
X1979560Y1427160D01*
X1981180Y1425540D01*
X1983100Y1424319D01*
X1985260Y1423580D01*
G37*
G36*
X461520Y1785380D02*
G01*
X469080Y1785740D01*
X476560Y1786860D01*
X483900Y1788700D01*
X491040Y1791240D01*
X497879Y1794480D01*
X504360Y1798360D01*
X510439Y1802880D01*
X516060Y1807960D01*
X521140Y1813560D01*
X525640Y1819640D01*
X529540Y1826140D01*
X532760Y1832980D01*
X535320Y1840100D01*
X537160Y1847440D01*
X538260Y1854940D01*
X538640Y1862500D01*
X538260Y1870060D01*
X537160Y1877540D01*
X535320Y1884880D01*
X532760Y1892000D01*
X529540Y1898860D01*
X525640Y1905340D01*
X521140Y1911420D01*
X516060Y1917020D01*
X510439Y1922120D01*
X504360Y1926620D01*
X497879Y1930520D01*
X491040Y1933740D01*
X483900Y1936300D01*
X476560Y1938140D01*
X469080Y1939240D01*
X461520Y1939620D01*
X453960Y1939240D01*
X446460Y1938140D01*
X439120Y1936300D01*
X432000Y1933740D01*
X425160Y1930520D01*
X418660Y1926620D01*
X412580Y1922120D01*
X406980Y1917020D01*
X401900Y1911420D01*
X397380Y1905340D01*
X393500Y1898860D01*
X390260Y1892000D01*
X387720Y1884880D01*
X385880Y1877540D01*
X384760Y1870060D01*
X384400Y1862500D01*
X384760Y1854940D01*
X385880Y1847440D01*
X387720Y1840100D01*
X390260Y1832980D01*
X393500Y1826140D01*
X397380Y1819640D01*
X401900Y1813560D01*
X406980Y1807960D01*
X412580Y1802880D01*
X418660Y1798360D01*
X425160Y1794480D01*
X432000Y1791240D01*
X439120Y1788700D01*
X446460Y1786860D01*
X453960Y1785740D01*
G37*
G36*
X2711620Y1785380D02*
G01*
X2719180Y1785740D01*
X2726660Y1786860D01*
X2734000Y1788700D01*
X2741139Y1791240D01*
X2747980Y1794480D01*
X2754460Y1798360D01*
X2760539Y1802880D01*
X2766160Y1807960D01*
X2771240Y1813560D01*
X2775740Y1819640D01*
X2779640Y1826140D01*
X2782860Y1832980D01*
X2785419Y1840100D01*
X2787260Y1847440D01*
X2788360Y1854940D01*
X2788740Y1862500D01*
X2788360Y1870060D01*
X2787260Y1877540D01*
X2785419Y1884880D01*
X2782860Y1892000D01*
X2779640Y1898860D01*
X2775740Y1905340D01*
X2771240Y1911420D01*
X2766160Y1917020D01*
X2760539Y1922120D01*
X2754460Y1926620D01*
X2747980Y1930520D01*
X2741139Y1933740D01*
X2734000Y1936300D01*
X2726660Y1938140D01*
X2719180Y1939240D01*
X2711620Y1939620D01*
X2704060Y1939240D01*
X2696560Y1938140D01*
X2689220Y1936300D01*
X2682100Y1933740D01*
X2675260Y1930520D01*
X2668759Y1926620D01*
X2662679Y1922120D01*
X2657080Y1917020D01*
X2652000Y1911420D01*
X2647480Y1905340D01*
X2643600Y1898860D01*
X2640360Y1892000D01*
X2637820Y1884880D01*
X2635980Y1877540D01*
X2634860Y1870060D01*
X2634500Y1862500D01*
X2634860Y1854940D01*
X2635980Y1847440D01*
X2637820Y1840100D01*
X2640360Y1832980D01*
X2643600Y1826140D01*
X2647480Y1819640D01*
X2652000Y1813560D01*
X2657080Y1807960D01*
X2662679Y1802880D01*
X2668759Y1798360D01*
X2675260Y1794480D01*
X2682100Y1791240D01*
X2689220Y1788700D01*
X2696560Y1786860D01*
X2704060Y1785740D01*
G37*
G36*
X1211520Y1785380D02*
G01*
X1219080Y1785740D01*
X1226560Y1786860D01*
X1233900Y1788700D01*
X1241040Y1791240D01*
X1247880Y1794480D01*
X1254360Y1798360D01*
X1260440Y1802880D01*
X1266060Y1807960D01*
X1271140Y1813560D01*
X1275640Y1819640D01*
X1279540Y1826140D01*
X1282760Y1832980D01*
X1285320Y1840100D01*
X1287160Y1847440D01*
X1288260Y1854940D01*
X1288640Y1862500D01*
X1288260Y1870060D01*
X1287160Y1877540D01*
X1285320Y1884880D01*
X1282760Y1892000D01*
X1279540Y1898860D01*
X1275640Y1905340D01*
X1271140Y1911420D01*
X1266060Y1917020D01*
X1260440Y1922120D01*
X1254360Y1926620D01*
X1247880Y1930520D01*
X1241040Y1933740D01*
X1233900Y1936300D01*
X1226560Y1938140D01*
X1219080Y1939240D01*
X1211520Y1939620D01*
X1203960Y1939240D01*
X1196460Y1938140D01*
X1189120Y1936300D01*
X1182000Y1933740D01*
X1175160Y1930520D01*
X1168660Y1926620D01*
X1162580Y1922120D01*
X1156980Y1917020D01*
X1151900Y1911420D01*
X1147380Y1905340D01*
X1143500Y1898860D01*
X1140260Y1892000D01*
X1137720Y1884880D01*
X1135880Y1877540D01*
X1134760Y1870060D01*
X1134400Y1862500D01*
X1134760Y1854940D01*
X1135880Y1847440D01*
X1137720Y1840100D01*
X1140260Y1832980D01*
X1143500Y1826140D01*
X1147380Y1819640D01*
X1151900Y1813560D01*
X1156980Y1807960D01*
X1162580Y1802880D01*
X1168660Y1798360D01*
X1175160Y1794480D01*
X1182000Y1791240D01*
X1189120Y1788700D01*
X1196460Y1786860D01*
X1203960Y1785740D01*
G37*
G36*
X1961519Y1785380D02*
G01*
X1969079Y1785740D01*
X1976560Y1786860D01*
X1983899Y1788700D01*
X1991040Y1791240D01*
X1997880Y1794480D01*
X2004360Y1798360D01*
X2010440Y1802880D01*
X2016060Y1807960D01*
X2021140Y1813560D01*
X2025640Y1819640D01*
X2029540Y1826140D01*
X2032760Y1832980D01*
X2035320Y1840100D01*
X2037160Y1847440D01*
X2038260Y1854940D01*
X2038640Y1862500D01*
X2038260Y1870060D01*
X2037160Y1877540D01*
X2035320Y1884880D01*
X2032760Y1892000D01*
X2029540Y1898860D01*
X2025640Y1905340D01*
X2021140Y1911420D01*
X2016060Y1917020D01*
X2010440Y1922120D01*
X2004360Y1926620D01*
X1997880Y1930520D01*
X1991040Y1933740D01*
X1983899Y1936300D01*
X1976560Y1938140D01*
X1969079Y1939240D01*
X1961519Y1939620D01*
X1953959Y1939240D01*
X1946459Y1938140D01*
X1939120Y1936300D01*
X1932000Y1933740D01*
X1925160Y1930520D01*
X1918660Y1926620D01*
X1912580Y1922120D01*
X1906980Y1917020D01*
X1901900Y1911420D01*
X1897380Y1905340D01*
X1893500Y1898860D01*
X1890260Y1892000D01*
X1887720Y1884880D01*
X1885880Y1877540D01*
X1884760Y1870060D01*
X1884400Y1862500D01*
X1884760Y1854940D01*
X1885880Y1847440D01*
X1887720Y1840100D01*
X1890260Y1832980D01*
X1893500Y1826140D01*
X1897380Y1819640D01*
X1901900Y1813560D01*
X1906980Y1807960D01*
X1912580Y1802880D01*
X1918660Y1798360D01*
X1925160Y1794480D01*
X1932000Y1791240D01*
X1939120Y1788700D01*
X1946459Y1786860D01*
X1953959Y1785740D01*
G37*
G36*
X711520Y1885380D02*
G01*
X719080Y1885740D01*
X726560Y1886860D01*
X733900Y1888700D01*
X741040Y1891240D01*
X747880Y1894480D01*
X754360Y1898360D01*
X760440Y1902880D01*
X766060Y1907960D01*
X771140Y1913560D01*
X775639Y1919640D01*
X779539Y1926140D01*
X782760Y1932980D01*
X785320Y1940100D01*
X787159Y1947440D01*
X788259Y1954940D01*
X788640Y1962500D01*
X788259Y1970060D01*
X787159Y1977540D01*
X785320Y1984880D01*
X782760Y1992000D01*
X779539Y1998860D01*
X775639Y2005340D01*
X772720Y2009280D01*
X772060Y2010660D01*
X771960Y2012160D01*
X772440Y2013600D01*
X773400Y2014760D01*
X774740Y2015480D01*
X780100Y2017160D01*
X785540Y2019600D01*
X790680Y2022700D01*
X795380Y2026399D01*
X799620Y2030620D01*
X803300Y2035340D01*
X806400Y2040460D01*
X808860Y2045920D01*
X810639Y2051639D01*
X811720Y2057520D01*
X812080Y2063500D01*
X811720Y2069460D01*
X810639Y2075360D01*
X808860Y2081080D01*
X806400Y2086519D01*
X803300Y2091639D01*
X799620Y2096360D01*
X795380Y2100600D01*
X790680Y2104280D01*
X785540Y2107380D01*
X780100Y2109840D01*
X774380Y2111620D01*
X768500Y2112700D01*
X762520Y2113060D01*
X756540Y2112700D01*
X750660Y2111620D01*
X744940Y2109840D01*
X739479Y2107380D01*
X734360Y2104280D01*
X729640Y2100600D01*
X725420Y2096360D01*
X721720Y2091639D01*
X718640Y2086519D01*
X716180Y2081080D01*
X714400Y2075360D01*
X713319Y2069460D01*
X712960Y2063500D01*
X713319Y2057520D01*
X714400Y2051639D01*
X716180Y2045920D01*
X716500Y2045200D01*
X716860Y2043620D01*
X716540Y2042020D01*
X715620Y2040680D01*
X714260Y2039820D01*
X712660Y2039560D01*
X711520Y2039620D01*
X703960Y2039240D01*
X696460Y2038140D01*
X689120Y2036300D01*
X682000Y2033740D01*
X675160Y2030520D01*
X668660Y2026620D01*
X662580Y2022120D01*
X656979Y2017020D01*
X652039Y2011579D01*
X650720Y2010620D01*
X649100Y2010260D01*
X647500Y2010600D01*
X646140Y2011540D01*
X645300Y2012960D01*
X645100Y2014580D01*
X645560Y2016160D01*
X648259Y2021200D01*
X651620Y2029060D01*
X654260Y2037180D01*
X656160Y2045500D01*
X657320Y2053980D01*
X657700Y2062500D01*
X657320Y2071040D01*
X656160Y2079500D01*
X654260Y2087820D01*
X651620Y2095960D01*
X648259Y2103800D01*
X644220Y2111320D01*
X639520Y2118460D01*
X634180Y2125140D01*
X628280Y2131320D01*
X621860Y2136940D01*
X614940Y2141960D01*
X607600Y2146340D01*
X599920Y2150040D01*
X591920Y2153040D01*
X583680Y2155320D01*
X575280Y2156840D01*
X566760Y2157600D01*
X558220Y2157600D01*
X549720Y2156840D01*
X541320Y2155320D01*
X533080Y2153040D01*
X525080Y2150040D01*
X517380Y2146340D01*
X510060Y2141960D01*
X503140Y2136940D01*
X496719Y2131320D01*
X490800Y2125140D01*
X485480Y2118460D01*
X480780Y2111320D01*
X476719Y2103800D01*
X473380Y2095960D01*
X470740Y2087820D01*
X468840Y2079500D01*
X467680Y2071040D01*
X467299Y2062500D01*
X467680Y2053980D01*
X468840Y2045500D01*
X470740Y2037180D01*
X473380Y2029060D01*
X476719Y2021200D01*
X480780Y2013680D01*
X485480Y2006540D01*
X490800Y1999880D01*
X496719Y1993700D01*
X503140Y1988080D01*
X510060Y1983060D01*
X517380Y1978680D01*
X525080Y1974960D01*
X533080Y1971960D01*
X541320Y1969700D01*
X549720Y1968160D01*
X558220Y1967400D01*
X566760Y1967400D01*
X575280Y1968160D01*
X583680Y1969700D01*
X591920Y1971960D01*
X599920Y1974960D01*
X607600Y1978680D01*
X614940Y1983060D01*
X621860Y1988080D01*
X628280Y1993700D01*
X634180Y1999880D01*
X636800Y2003140D01*
X638080Y2004199D01*
X639660Y2004640D01*
X641300Y2004400D01*
X642700Y2003540D01*
X643620Y2002160D01*
X643920Y2000540D01*
X643540Y1998940D01*
X640260Y1992000D01*
X637720Y1984880D01*
X635880Y1977540D01*
X634760Y1970060D01*
X634400Y1962500D01*
X634760Y1954940D01*
X635880Y1947440D01*
X637720Y1940100D01*
X640260Y1932980D01*
X643500Y1926140D01*
X647380Y1919640D01*
X651900Y1913560D01*
X656979Y1907960D01*
X662580Y1902880D01*
X668660Y1898360D01*
X675160Y1894480D01*
X682000Y1891240D01*
X689120Y1888700D01*
X696460Y1886860D01*
X703960Y1885740D01*
G37*
G36*
X1461519Y1885380D02*
G01*
X1469079Y1885740D01*
X1476560Y1886860D01*
X1483899Y1888700D01*
X1491040Y1891240D01*
X1497880Y1894480D01*
X1504360Y1898360D01*
X1510440Y1902880D01*
X1516060Y1907960D01*
X1521140Y1913560D01*
X1525640Y1919640D01*
X1529540Y1926140D01*
X1532760Y1932980D01*
X1535320Y1940100D01*
X1537160Y1947440D01*
X1538260Y1954940D01*
X1538640Y1962500D01*
X1538260Y1970060D01*
X1537160Y1977540D01*
X1535320Y1984880D01*
X1532760Y1992000D01*
X1529540Y1998860D01*
X1525640Y2005340D01*
X1522720Y2009280D01*
X1522060Y2010660D01*
X1521960Y2012160D01*
X1522440Y2013600D01*
X1523400Y2014760D01*
X1524740Y2015480D01*
X1530100Y2017160D01*
X1535540Y2019600D01*
X1540680Y2022700D01*
X1545380Y2026399D01*
X1549620Y2030620D01*
X1553300Y2035340D01*
X1556399Y2040460D01*
X1558860Y2045920D01*
X1560640Y2051639D01*
X1561720Y2057520D01*
X1562080Y2063500D01*
X1561720Y2069460D01*
X1560640Y2075360D01*
X1558860Y2081080D01*
X1556399Y2086519D01*
X1553300Y2091639D01*
X1549620Y2096360D01*
X1545380Y2100600D01*
X1540680Y2104280D01*
X1535540Y2107380D01*
X1530100Y2109840D01*
X1524379Y2111620D01*
X1518500Y2112700D01*
X1512520Y2113060D01*
X1506540Y2112700D01*
X1500660Y2111620D01*
X1494940Y2109840D01*
X1489480Y2107380D01*
X1484360Y2104280D01*
X1479640Y2100600D01*
X1475420Y2096360D01*
X1471720Y2091639D01*
X1468640Y2086519D01*
X1466180Y2081080D01*
X1464400Y2075360D01*
X1463320Y2069460D01*
X1462960Y2063500D01*
X1463320Y2057520D01*
X1464400Y2051639D01*
X1466180Y2045920D01*
X1466500Y2045200D01*
X1466860Y2043620D01*
X1466540Y2042020D01*
X1465620Y2040680D01*
X1464259Y2039820D01*
X1462660Y2039560D01*
X1461519Y2039620D01*
X1453959Y2039240D01*
X1446459Y2038140D01*
X1439120Y2036300D01*
X1432000Y2033740D01*
X1425160Y2030520D01*
X1418660Y2026620D01*
X1412580Y2022120D01*
X1406980Y2017020D01*
X1402040Y2011579D01*
X1400720Y2010620D01*
X1399100Y2010260D01*
X1397500Y2010600D01*
X1396140Y2011540D01*
X1395300Y2012960D01*
X1395100Y2014580D01*
X1395560Y2016160D01*
X1398260Y2021200D01*
X1401620Y2029060D01*
X1404259Y2037180D01*
X1406160Y2045500D01*
X1407320Y2053980D01*
X1407700Y2062500D01*
X1407320Y2071040D01*
X1406160Y2079500D01*
X1404259Y2087820D01*
X1401620Y2095960D01*
X1398260Y2103800D01*
X1394220Y2111320D01*
X1389520Y2118460D01*
X1384180Y2125140D01*
X1378280Y2131320D01*
X1371860Y2136940D01*
X1364940Y2141960D01*
X1357600Y2146340D01*
X1349920Y2150040D01*
X1341920Y2153040D01*
X1333680Y2155320D01*
X1325280Y2156840D01*
X1316759Y2157600D01*
X1308220Y2157600D01*
X1299720Y2156840D01*
X1291320Y2155320D01*
X1283080Y2153040D01*
X1275080Y2150040D01*
X1267380Y2146340D01*
X1260060Y2141960D01*
X1253140Y2136940D01*
X1246720Y2131320D01*
X1240800Y2125140D01*
X1235480Y2118460D01*
X1230780Y2111320D01*
X1226720Y2103800D01*
X1223380Y2095960D01*
X1220740Y2087820D01*
X1218840Y2079500D01*
X1217680Y2071040D01*
X1217300Y2062500D01*
X1217680Y2053980D01*
X1218840Y2045500D01*
X1220740Y2037180D01*
X1223380Y2029060D01*
X1226720Y2021200D01*
X1230780Y2013680D01*
X1235480Y2006540D01*
X1240800Y1999880D01*
X1246720Y1993700D01*
X1253140Y1988080D01*
X1260060Y1983060D01*
X1267380Y1978680D01*
X1275080Y1974960D01*
X1283080Y1971960D01*
X1291320Y1969700D01*
X1299720Y1968160D01*
X1308220Y1967400D01*
X1316759Y1967400D01*
X1325280Y1968160D01*
X1333680Y1969700D01*
X1341920Y1971960D01*
X1349920Y1974960D01*
X1357600Y1978680D01*
X1364940Y1983060D01*
X1371860Y1988080D01*
X1378280Y1993700D01*
X1384180Y1999880D01*
X1386800Y2003140D01*
X1388080Y2004199D01*
X1389660Y2004640D01*
X1391300Y2004400D01*
X1392700Y2003540D01*
X1393620Y2002160D01*
X1393920Y2000540D01*
X1393540Y1998940D01*
X1390260Y1992000D01*
X1387720Y1984880D01*
X1385880Y1977540D01*
X1384760Y1970060D01*
X1384400Y1962500D01*
X1384760Y1954940D01*
X1385880Y1947440D01*
X1387720Y1940100D01*
X1390260Y1932980D01*
X1393500Y1926140D01*
X1397380Y1919640D01*
X1401900Y1913560D01*
X1406980Y1907960D01*
X1412580Y1902880D01*
X1418660Y1898360D01*
X1425160Y1894480D01*
X1432000Y1891240D01*
X1439120Y1888700D01*
X1446459Y1886860D01*
X1453959Y1885740D01*
G37*
G36*
X2211520Y1885380D02*
G01*
X2219080Y1885740D01*
X2226560Y1886860D01*
X2233900Y1888700D01*
X2241040Y1891240D01*
X2247880Y1894480D01*
X2254360Y1898360D01*
X2260440Y1902880D01*
X2266060Y1907960D01*
X2271140Y1913560D01*
X2275640Y1919640D01*
X2279540Y1926140D01*
X2282760Y1932980D01*
X2285320Y1940100D01*
X2287160Y1947440D01*
X2288260Y1954940D01*
X2288640Y1962500D01*
X2288260Y1970060D01*
X2287160Y1977540D01*
X2285320Y1984880D01*
X2282760Y1992000D01*
X2279540Y1998860D01*
X2275640Y2005340D01*
X2272720Y2009280D01*
X2272060Y2010660D01*
X2271960Y2012160D01*
X2272440Y2013600D01*
X2273400Y2014760D01*
X2274740Y2015480D01*
X2280100Y2017160D01*
X2285540Y2019600D01*
X2290680Y2022700D01*
X2295380Y2026399D01*
X2299620Y2030620D01*
X2303300Y2035340D01*
X2306400Y2040460D01*
X2308860Y2045920D01*
X2310640Y2051639D01*
X2311720Y2057520D01*
X2312080Y2063500D01*
X2311720Y2069460D01*
X2310640Y2075360D01*
X2308860Y2081080D01*
X2306400Y2086519D01*
X2303300Y2091639D01*
X2299620Y2096360D01*
X2295380Y2100600D01*
X2290680Y2104280D01*
X2285540Y2107380D01*
X2280100Y2109840D01*
X2274380Y2111620D01*
X2268500Y2112700D01*
X2262520Y2113060D01*
X2256540Y2112700D01*
X2250660Y2111620D01*
X2244940Y2109840D01*
X2239480Y2107380D01*
X2234360Y2104280D01*
X2229640Y2100600D01*
X2225420Y2096360D01*
X2221720Y2091639D01*
X2218640Y2086519D01*
X2216180Y2081080D01*
X2214400Y2075360D01*
X2213320Y2069460D01*
X2212960Y2063500D01*
X2213320Y2057520D01*
X2214400Y2051639D01*
X2216180Y2045920D01*
X2216500Y2045200D01*
X2216860Y2043620D01*
X2216540Y2042020D01*
X2215620Y2040680D01*
X2214260Y2039820D01*
X2212660Y2039560D01*
X2211520Y2039620D01*
X2203960Y2039240D01*
X2196460Y2038140D01*
X2189120Y2036300D01*
X2182000Y2033740D01*
X2175160Y2030520D01*
X2168660Y2026620D01*
X2162580Y2022120D01*
X2156980Y2017020D01*
X2152040Y2011579D01*
X2150720Y2010620D01*
X2149100Y2010260D01*
X2147500Y2010600D01*
X2146140Y2011540D01*
X2145300Y2012960D01*
X2145100Y2014580D01*
X2145560Y2016160D01*
X2148260Y2021200D01*
X2151620Y2029060D01*
X2154260Y2037180D01*
X2156160Y2045500D01*
X2157320Y2053980D01*
X2157700Y2062500D01*
X2157320Y2071040D01*
X2156160Y2079500D01*
X2154260Y2087820D01*
X2151620Y2095960D01*
X2148260Y2103800D01*
X2144220Y2111320D01*
X2139520Y2118460D01*
X2134180Y2125140D01*
X2128280Y2131320D01*
X2121860Y2136940D01*
X2114940Y2141960D01*
X2107600Y2146340D01*
X2099920Y2150040D01*
X2091920Y2153040D01*
X2083680Y2155320D01*
X2075280Y2156840D01*
X2066759Y2157600D01*
X2058220Y2157600D01*
X2049720Y2156840D01*
X2041320Y2155320D01*
X2033080Y2153040D01*
X2025080Y2150040D01*
X2017380Y2146340D01*
X2010060Y2141960D01*
X2003140Y2136940D01*
X1996720Y2131320D01*
X1990800Y2125140D01*
X1985480Y2118460D01*
X1980780Y2111320D01*
X1976720Y2103800D01*
X1973380Y2095960D01*
X1970740Y2087820D01*
X1968839Y2079500D01*
X1967680Y2071040D01*
X1967300Y2062500D01*
X1967680Y2053980D01*
X1968839Y2045500D01*
X1970740Y2037180D01*
X1973380Y2029060D01*
X1976720Y2021200D01*
X1980780Y2013680D01*
X1985480Y2006540D01*
X1990800Y1999880D01*
X1996720Y1993700D01*
X2003140Y1988080D01*
X2010060Y1983060D01*
X2017380Y1978680D01*
X2025080Y1974960D01*
X2033080Y1971960D01*
X2041320Y1969700D01*
X2049720Y1968160D01*
X2058220Y1967400D01*
X2066759Y1967400D01*
X2075280Y1968160D01*
X2083680Y1969700D01*
X2091920Y1971960D01*
X2099920Y1974960D01*
X2107600Y1978680D01*
X2114940Y1983060D01*
X2121860Y1988080D01*
X2128280Y1993700D01*
X2134180Y1999880D01*
X2136800Y2003140D01*
X2138080Y2004199D01*
X2139660Y2004640D01*
X2141300Y2004400D01*
X2142700Y2003540D01*
X2143620Y2002160D01*
X2143920Y2000540D01*
X2143540Y1998940D01*
X2140260Y1992000D01*
X2137720Y1984880D01*
X2135880Y1977540D01*
X2134760Y1970060D01*
X2134400Y1962500D01*
X2134760Y1954940D01*
X2135880Y1947440D01*
X2137720Y1940100D01*
X2140260Y1932980D01*
X2143500Y1926140D01*
X2147380Y1919640D01*
X2151900Y1913560D01*
X2156980Y1907960D01*
X2162580Y1902880D01*
X2168660Y1898360D01*
X2175160Y1894480D01*
X2182000Y1891240D01*
X2189120Y1888700D01*
X2196460Y1886860D01*
X2203960Y1885740D01*
G37*
G36*
X2961620Y1885380D02*
G01*
X2969180Y1885740D01*
X2976660Y1886860D01*
X2984000Y1888700D01*
X2991139Y1891240D01*
X2997980Y1894480D01*
X3004460Y1898360D01*
X3010539Y1902880D01*
X3016160Y1907960D01*
X3021240Y1913560D01*
X3025740Y1919640D01*
X3029640Y1926140D01*
X3032860Y1932980D01*
X3035419Y1940100D01*
X3037260Y1947440D01*
X3038360Y1954940D01*
X3038740Y1962500D01*
X3038360Y1970060D01*
X3037260Y1977540D01*
X3035419Y1984880D01*
X3032860Y1992000D01*
X3029640Y1998860D01*
X3025740Y2005340D01*
X3022820Y2009280D01*
X3022160Y2010660D01*
X3022060Y2012160D01*
X3022540Y2013600D01*
X3023500Y2014760D01*
X3024840Y2015480D01*
X3030200Y2017160D01*
X3035640Y2019600D01*
X3040779Y2022700D01*
X3045480Y2026399D01*
X3049720Y2030620D01*
X3053399Y2035340D01*
X3056500Y2040460D01*
X3058960Y2045920D01*
X3060740Y2051639D01*
X3061820Y2057520D01*
X3062180Y2063500D01*
X3061820Y2069460D01*
X3060740Y2075360D01*
X3058960Y2081080D01*
X3056500Y2086519D01*
X3053399Y2091639D01*
X3049720Y2096360D01*
X3045480Y2100600D01*
X3040779Y2104280D01*
X3035640Y2107380D01*
X3030200Y2109840D01*
X3024480Y2111620D01*
X3018600Y2112700D01*
X3012620Y2113060D01*
X3006640Y2112700D01*
X3000760Y2111620D01*
X2995040Y2109840D01*
X2989580Y2107380D01*
X2984460Y2104280D01*
X2979740Y2100600D01*
X2975520Y2096360D01*
X2971820Y2091639D01*
X2968740Y2086519D01*
X2966280Y2081080D01*
X2964500Y2075360D01*
X2963420Y2069460D01*
X2963060Y2063500D01*
X2963420Y2057520D01*
X2964500Y2051639D01*
X2966280Y2045920D01*
X2966600Y2045200D01*
X2966960Y2043620D01*
X2966640Y2042020D01*
X2965720Y2040680D01*
X2964360Y2039820D01*
X2962760Y2039560D01*
X2961620Y2039620D01*
X2954060Y2039240D01*
X2946560Y2038140D01*
X2939220Y2036300D01*
X2932100Y2033740D01*
X2925260Y2030520D01*
X2918759Y2026620D01*
X2912679Y2022120D01*
X2907080Y2017020D01*
X2902140Y2011579D01*
X2900820Y2010620D01*
X2899200Y2010260D01*
X2897600Y2010600D01*
X2896240Y2011540D01*
X2895400Y2012960D01*
X2895200Y2014580D01*
X2895659Y2016160D01*
X2898360Y2021200D01*
X2901720Y2029060D01*
X2904360Y2037180D01*
X2906259Y2045500D01*
X2907420Y2053980D01*
X2907799Y2062500D01*
X2907420Y2071040D01*
X2906259Y2079500D01*
X2904360Y2087820D01*
X2901720Y2095960D01*
X2898360Y2103800D01*
X2894320Y2111320D01*
X2889620Y2118460D01*
X2884280Y2125140D01*
X2878380Y2131320D01*
X2871960Y2136940D01*
X2865040Y2141960D01*
X2857700Y2146340D01*
X2850020Y2150040D01*
X2842020Y2153040D01*
X2833780Y2155320D01*
X2825380Y2156840D01*
X2816860Y2157600D01*
X2808320Y2157600D01*
X2799820Y2156840D01*
X2791420Y2155320D01*
X2783180Y2153040D01*
X2775179Y2150040D01*
X2767480Y2146340D01*
X2760160Y2141960D01*
X2753240Y2136940D01*
X2746820Y2131320D01*
X2740899Y2125140D01*
X2735580Y2118460D01*
X2730880Y2111320D01*
X2726820Y2103800D01*
X2723480Y2095960D01*
X2720840Y2087820D01*
X2718940Y2079500D01*
X2717780Y2071040D01*
X2717400Y2062500D01*
X2717780Y2053980D01*
X2718940Y2045500D01*
X2720840Y2037180D01*
X2723480Y2029060D01*
X2726820Y2021200D01*
X2730880Y2013680D01*
X2735580Y2006540D01*
X2740899Y1999880D01*
X2746820Y1993700D01*
X2753240Y1988080D01*
X2760160Y1983060D01*
X2767480Y1978680D01*
X2775179Y1974960D01*
X2783180Y1971960D01*
X2791420Y1969700D01*
X2799820Y1968160D01*
X2808320Y1967400D01*
X2816860Y1967400D01*
X2825380Y1968160D01*
X2833780Y1969700D01*
X2842020Y1971960D01*
X2850020Y1974960D01*
X2857700Y1978680D01*
X2865040Y1983060D01*
X2871960Y1988080D01*
X2878380Y1993700D01*
X2884280Y1999880D01*
X2886900Y2003140D01*
X2888180Y2004199D01*
X2889760Y2004640D01*
X2891400Y2004400D01*
X2892799Y2003540D01*
X2893720Y2002160D01*
X2894020Y2000540D01*
X2893639Y1998940D01*
X2890360Y1992000D01*
X2887820Y1984880D01*
X2885980Y1977540D01*
X2884860Y1970060D01*
X2884500Y1962500D01*
X2884860Y1954940D01*
X2885980Y1947440D01*
X2887820Y1940100D01*
X2890360Y1932980D01*
X2893600Y1926140D01*
X2897480Y1919640D01*
X2902000Y1913560D01*
X2907080Y1907960D01*
X2912679Y1902880D01*
X2918759Y1898360D01*
X2925260Y1894480D01*
X2932100Y1891240D01*
X2939220Y1888700D01*
X2946560Y1886860D01*
X2954060Y1885740D01*
G37*
G36*
X2612620Y2013940D02*
G01*
X2618600Y2014300D01*
X2624480Y2015380D01*
X2630200Y2017160D01*
X2635640Y2019600D01*
X2640779Y2022700D01*
X2645480Y2026399D01*
X2649720Y2030620D01*
X2653399Y2035340D01*
X2656500Y2040460D01*
X2658960Y2045920D01*
X2660740Y2051639D01*
X2661820Y2057520D01*
X2662180Y2063500D01*
X2661820Y2069460D01*
X2660740Y2075360D01*
X2658960Y2081080D01*
X2656500Y2086519D01*
X2653399Y2091639D01*
X2649720Y2096360D01*
X2645480Y2100600D01*
X2640779Y2104280D01*
X2635640Y2107380D01*
X2630200Y2109840D01*
X2624480Y2111620D01*
X2618600Y2112700D01*
X2612620Y2113060D01*
X2606640Y2112700D01*
X2600760Y2111620D01*
X2595040Y2109840D01*
X2589580Y2107380D01*
X2584460Y2104280D01*
X2579740Y2100600D01*
X2575520Y2096360D01*
X2571820Y2091639D01*
X2568740Y2086519D01*
X2566280Y2081080D01*
X2564500Y2075360D01*
X2563420Y2069460D01*
X2563060Y2063500D01*
X2563420Y2057520D01*
X2564500Y2051639D01*
X2566280Y2045920D01*
X2568740Y2040460D01*
X2571820Y2035340D01*
X2575520Y2030620D01*
X2579740Y2026399D01*
X2584460Y2022700D01*
X2589580Y2019600D01*
X2595040Y2017160D01*
X2600760Y2015380D01*
X2606640Y2014300D01*
G37*
G36*
X362520Y2013940D02*
G01*
X368500Y2014300D01*
X374380Y2015380D01*
X380100Y2017160D01*
X385540Y2019600D01*
X390680Y2022700D01*
X395379Y2026399D01*
X399620Y2030620D01*
X403300Y2035340D01*
X406400Y2040460D01*
X408860Y2045920D01*
X410640Y2051639D01*
X411719Y2057520D01*
X412080Y2063500D01*
X411719Y2069460D01*
X410640Y2075360D01*
X408860Y2081080D01*
X406400Y2086519D01*
X403300Y2091639D01*
X399620Y2096360D01*
X395379Y2100600D01*
X390680Y2104280D01*
X385540Y2107380D01*
X380100Y2109840D01*
X374380Y2111620D01*
X368500Y2112700D01*
X362520Y2113060D01*
X356540Y2112700D01*
X350660Y2111620D01*
X344940Y2109840D01*
X339480Y2107380D01*
X334360Y2104280D01*
X329640Y2100600D01*
X325420Y2096360D01*
X321719Y2091639D01*
X318640Y2086519D01*
X316180Y2081080D01*
X314400Y2075360D01*
X313320Y2069460D01*
X312960Y2063500D01*
X313320Y2057520D01*
X314400Y2051639D01*
X316180Y2045920D01*
X318640Y2040460D01*
X321719Y2035340D01*
X325420Y2030620D01*
X329640Y2026399D01*
X334360Y2022700D01*
X339480Y2019600D01*
X344940Y2017160D01*
X350660Y2015380D01*
X356540Y2014300D01*
G37*
G36*
X1112520Y2013940D02*
G01*
X1118500Y2014300D01*
X1124380Y2015380D01*
X1130100Y2017160D01*
X1135540Y2019600D01*
X1140680Y2022700D01*
X1145380Y2026399D01*
X1149620Y2030620D01*
X1153300Y2035340D01*
X1156400Y2040460D01*
X1158860Y2045920D01*
X1160640Y2051639D01*
X1161720Y2057520D01*
X1162080Y2063500D01*
X1161720Y2069460D01*
X1160640Y2075360D01*
X1158860Y2081080D01*
X1156400Y2086519D01*
X1153300Y2091639D01*
X1149620Y2096360D01*
X1145380Y2100600D01*
X1140680Y2104280D01*
X1135540Y2107380D01*
X1130100Y2109840D01*
X1124380Y2111620D01*
X1118500Y2112700D01*
X1112520Y2113060D01*
X1106540Y2112700D01*
X1100660Y2111620D01*
X1094940Y2109840D01*
X1089480Y2107380D01*
X1084360Y2104280D01*
X1079640Y2100600D01*
X1075420Y2096360D01*
X1071720Y2091639D01*
X1068640Y2086519D01*
X1066180Y2081080D01*
X1064400Y2075360D01*
X1063320Y2069460D01*
X1062960Y2063500D01*
X1063320Y2057520D01*
X1064400Y2051639D01*
X1066180Y2045920D01*
X1068640Y2040460D01*
X1071720Y2035340D01*
X1075420Y2030620D01*
X1079640Y2026399D01*
X1084360Y2022700D01*
X1089480Y2019600D01*
X1094940Y2017160D01*
X1100660Y2015380D01*
X1106540Y2014300D01*
G37*
G36*
X1862520Y2013940D02*
G01*
X1868500Y2014300D01*
X1874379Y2015380D01*
X1880100Y2017160D01*
X1885540Y2019600D01*
X1890680Y2022700D01*
X1895380Y2026399D01*
X1899620Y2030620D01*
X1903300Y2035340D01*
X1906399Y2040460D01*
X1908860Y2045920D01*
X1910640Y2051639D01*
X1911720Y2057520D01*
X1912080Y2063500D01*
X1911720Y2069460D01*
X1910640Y2075360D01*
X1908860Y2081080D01*
X1906399Y2086519D01*
X1903300Y2091639D01*
X1899620Y2096360D01*
X1895380Y2100600D01*
X1890680Y2104280D01*
X1885540Y2107380D01*
X1880100Y2109840D01*
X1874379Y2111620D01*
X1868500Y2112700D01*
X1862520Y2113060D01*
X1856540Y2112700D01*
X1850660Y2111620D01*
X1844940Y2109840D01*
X1839480Y2107380D01*
X1834360Y2104280D01*
X1829640Y2100600D01*
X1825420Y2096360D01*
X1821720Y2091639D01*
X1818640Y2086519D01*
X1816180Y2081080D01*
X1814400Y2075360D01*
X1813320Y2069460D01*
X1812960Y2063500D01*
X1813320Y2057520D01*
X1814400Y2051639D01*
X1816180Y2045920D01*
X1818640Y2040460D01*
X1821720Y2035340D01*
X1825420Y2030620D01*
X1829640Y2026399D01*
X1834360Y2022700D01*
X1839480Y2019600D01*
X1844940Y2017160D01*
X1850660Y2015380D01*
X1856540Y2014300D01*
G37*
G36*
X1237740Y2173300D02*
G01*
X1383300Y2173300D01*
X1385780Y2173580D01*
X1387940Y2174320D01*
X1389860Y2175540D01*
X1391480Y2177160D01*
X1392680Y2179080D01*
X1393440Y2181240D01*
X1393720Y2183720D01*
X1393720Y2311280D01*
X1393440Y2313760D01*
X1392680Y2315900D01*
X1391480Y2317840D01*
X1389860Y2319440D01*
X1387940Y2320660D01*
X1385780Y2321420D01*
X1383300Y2321700D01*
X1237740Y2321700D01*
X1235260Y2321420D01*
X1233100Y2320660D01*
X1231180Y2319440D01*
X1229560Y2317840D01*
X1228340Y2315900D01*
X1227600Y2313760D01*
X1227320Y2311280D01*
X1227320Y2183720D01*
X1227600Y2181240D01*
X1228340Y2179080D01*
X1229560Y2177160D01*
X1231180Y2175540D01*
X1233100Y2174320D01*
X1235260Y2173580D01*
G37*
G36*
X487740Y2173300D02*
G01*
X633300Y2173300D01*
X635780Y2173580D01*
X637940Y2174320D01*
X639860Y2175540D01*
X641480Y2177160D01*
X642680Y2179080D01*
X643439Y2181240D01*
X643720Y2183720D01*
X643720Y2311280D01*
X643439Y2313760D01*
X642680Y2315900D01*
X641480Y2317840D01*
X639860Y2319440D01*
X637940Y2320660D01*
X635780Y2321420D01*
X633300Y2321700D01*
X487740Y2321700D01*
X485260Y2321420D01*
X483100Y2320660D01*
X481180Y2319440D01*
X479560Y2317840D01*
X478340Y2315900D01*
X477600Y2313760D01*
X477320Y2311280D01*
X477320Y2183720D01*
X477600Y2181240D01*
X478340Y2179080D01*
X479560Y2177160D01*
X481180Y2175540D01*
X483100Y2174320D01*
X485260Y2173580D01*
G37*
G36*
X1987740Y2173300D02*
G01*
X2133300Y2173300D01*
X2135780Y2173580D01*
X2137940Y2174320D01*
X2139860Y2175540D01*
X2141480Y2177160D01*
X2142680Y2179080D01*
X2143440Y2181240D01*
X2143720Y2183720D01*
X2143720Y2311280D01*
X2143440Y2313760D01*
X2142680Y2315900D01*
X2141480Y2317840D01*
X2139860Y2319440D01*
X2137940Y2320660D01*
X2135780Y2321420D01*
X2133300Y2321700D01*
X1987740Y2321700D01*
X1985260Y2321420D01*
X1983100Y2320660D01*
X1981180Y2319440D01*
X1979560Y2317840D01*
X1978340Y2315900D01*
X1977600Y2313760D01*
X1977320Y2311280D01*
X1977320Y2183720D01*
X1977600Y2181240D01*
X1978340Y2179080D01*
X1979560Y2177160D01*
X1981180Y2175540D01*
X1983100Y2174320D01*
X1985260Y2173580D01*
G37*
G36*
X2737840Y2173300D02*
G01*
X2883399Y2173300D01*
X2885880Y2173580D01*
X2888039Y2174320D01*
X2889960Y2175540D01*
X2891580Y2177160D01*
X2892780Y2179080D01*
X2893540Y2181240D01*
X2893820Y2183720D01*
X2893820Y2311280D01*
X2893540Y2313760D01*
X2892780Y2315900D01*
X2891580Y2317840D01*
X2889960Y2319440D01*
X2888039Y2320660D01*
X2885880Y2321420D01*
X2883399Y2321700D01*
X2737840Y2321700D01*
X2735360Y2321420D01*
X2733200Y2320660D01*
X2731280Y2319440D01*
X2729660Y2317840D01*
X2728440Y2315900D01*
X2727700Y2313760D01*
X2727420Y2311280D01*
X2727420Y2183720D01*
X2727700Y2181240D01*
X2728440Y2179080D01*
X2729660Y2177160D01*
X2731280Y2175540D01*
X2733200Y2174320D01*
X2735360Y2173580D01*
G37*
G36*
X461540Y2535440D02*
G01*
X469099Y2535800D01*
X476580Y2536920D01*
X483920Y2538760D01*
X491060Y2541300D01*
X497900Y2544540D01*
X504380Y2548420D01*
X510460Y2552940D01*
X516079Y2558020D01*
X521160Y2563620D01*
X525660Y2569700D01*
X529560Y2576200D01*
X532800Y2583039D01*
X535340Y2590160D01*
X537180Y2597500D01*
X538300Y2605000D01*
X538660Y2612559D01*
X538300Y2620120D01*
X537180Y2627600D01*
X535340Y2634940D01*
X532800Y2642060D01*
X529560Y2648920D01*
X525660Y2655400D01*
X521160Y2661480D01*
X516079Y2667080D01*
X510460Y2672180D01*
X504380Y2676680D01*
X497900Y2680580D01*
X491060Y2683800D01*
X483920Y2686360D01*
X476580Y2688200D01*
X469099Y2689300D01*
X461540Y2689680D01*
X453980Y2689300D01*
X446500Y2688200D01*
X439159Y2686360D01*
X432020Y2683800D01*
X425180Y2680580D01*
X418700Y2676680D01*
X412620Y2672180D01*
X407000Y2667080D01*
X401920Y2661480D01*
X397420Y2655400D01*
X393519Y2648920D01*
X390280Y2642060D01*
X387740Y2634940D01*
X385900Y2627600D01*
X384780Y2620120D01*
X384420Y2612559D01*
X384780Y2605000D01*
X385900Y2597500D01*
X387740Y2590160D01*
X390280Y2583039D01*
X393519Y2576200D01*
X397420Y2569700D01*
X401920Y2563620D01*
X407000Y2558020D01*
X412620Y2552940D01*
X418700Y2548420D01*
X425180Y2544540D01*
X432020Y2541300D01*
X439159Y2538760D01*
X446500Y2536920D01*
X453980Y2535800D01*
G37*
G36*
X2711580Y2535440D02*
G01*
X2719140Y2535800D01*
X2726640Y2536920D01*
X2733980Y2538760D01*
X2741100Y2541300D01*
X2747940Y2544540D01*
X2754440Y2548420D01*
X2760520Y2552940D01*
X2766120Y2558020D01*
X2771200Y2563620D01*
X2775720Y2569700D01*
X2779600Y2576200D01*
X2782840Y2583039D01*
X2785380Y2590160D01*
X2787220Y2597500D01*
X2788340Y2605000D01*
X2788720Y2612559D01*
X2788340Y2620120D01*
X2787220Y2627600D01*
X2785380Y2634940D01*
X2782840Y2642060D01*
X2779600Y2648920D01*
X2775720Y2655400D01*
X2771200Y2661480D01*
X2766120Y2667080D01*
X2760520Y2672180D01*
X2754440Y2676680D01*
X2747940Y2680580D01*
X2741100Y2683800D01*
X2733980Y2686360D01*
X2726640Y2688200D01*
X2719140Y2689300D01*
X2711580Y2689680D01*
X2704020Y2689300D01*
X2696540Y2688200D01*
X2689200Y2686360D01*
X2682080Y2683800D01*
X2675220Y2680580D01*
X2668740Y2676680D01*
X2662660Y2672180D01*
X2657060Y2667080D01*
X2651960Y2661480D01*
X2647460Y2655400D01*
X2643560Y2648920D01*
X2640340Y2642060D01*
X2637780Y2634940D01*
X2635940Y2627600D01*
X2634840Y2620120D01*
X2634460Y2612559D01*
X2634840Y2605000D01*
X2635940Y2597500D01*
X2637780Y2590160D01*
X2640340Y2583039D01*
X2643560Y2576200D01*
X2647460Y2569700D01*
X2651960Y2563620D01*
X2657060Y2558020D01*
X2662660Y2552940D01*
X2668740Y2548420D01*
X2675220Y2544540D01*
X2682080Y2541300D01*
X2689200Y2538760D01*
X2696540Y2536920D01*
X2704020Y2535800D01*
G37*
G36*
X1211560Y2535440D02*
G01*
X1219120Y2535800D01*
X1226600Y2536920D01*
X1233940Y2538760D01*
X1241060Y2541300D01*
X1247920Y2544540D01*
X1254400Y2548420D01*
X1260480Y2552940D01*
X1266080Y2558020D01*
X1271180Y2563620D01*
X1275680Y2569700D01*
X1279580Y2576200D01*
X1282800Y2583039D01*
X1285360Y2590160D01*
X1287200Y2597500D01*
X1288300Y2605000D01*
X1288680Y2612559D01*
X1288300Y2620120D01*
X1287200Y2627600D01*
X1285360Y2634940D01*
X1282800Y2642060D01*
X1279580Y2648920D01*
X1275680Y2655400D01*
X1271180Y2661480D01*
X1266080Y2667080D01*
X1260480Y2672180D01*
X1254400Y2676680D01*
X1247920Y2680580D01*
X1241060Y2683800D01*
X1233940Y2686360D01*
X1226600Y2688200D01*
X1219120Y2689300D01*
X1211560Y2689680D01*
X1204000Y2689300D01*
X1196500Y2688200D01*
X1189160Y2686360D01*
X1182040Y2683800D01*
X1175200Y2680580D01*
X1168700Y2676680D01*
X1162620Y2672180D01*
X1157020Y2667080D01*
X1151940Y2661480D01*
X1147420Y2655400D01*
X1143540Y2648920D01*
X1140300Y2642060D01*
X1137760Y2634940D01*
X1135920Y2627600D01*
X1134800Y2620120D01*
X1134420Y2612559D01*
X1134800Y2605000D01*
X1135920Y2597500D01*
X1137760Y2590160D01*
X1140300Y2583039D01*
X1143540Y2576200D01*
X1147420Y2569700D01*
X1151940Y2563620D01*
X1157020Y2558020D01*
X1162620Y2552940D01*
X1168700Y2548420D01*
X1175200Y2544540D01*
X1182040Y2541300D01*
X1189160Y2538760D01*
X1196500Y2536920D01*
X1204000Y2535800D01*
G37*
G36*
X1961579Y2535440D02*
G01*
X1969120Y2535800D01*
X1976620Y2536920D01*
X1983959Y2538760D01*
X1991080Y2541300D01*
X1997920Y2544540D01*
X2004420Y2548420D01*
X2010500Y2552940D01*
X2016100Y2558020D01*
X2021180Y2563620D01*
X2025700Y2569700D01*
X2029580Y2576200D01*
X2032820Y2583039D01*
X2035380Y2590160D01*
X2037220Y2597500D01*
X2038320Y2605000D01*
X2038700Y2612559D01*
X2038320Y2620120D01*
X2037220Y2627600D01*
X2035380Y2634940D01*
X2032820Y2642060D01*
X2029580Y2648920D01*
X2025700Y2655400D01*
X2021180Y2661480D01*
X2016100Y2667080D01*
X2010500Y2672180D01*
X2004420Y2676680D01*
X1997920Y2680580D01*
X1991080Y2683800D01*
X1983959Y2686360D01*
X1976620Y2688200D01*
X1969120Y2689300D01*
X1961579Y2689680D01*
X1954019Y2689300D01*
X1946519Y2688200D01*
X1939180Y2686360D01*
X1932060Y2683800D01*
X1925220Y2680580D01*
X1918720Y2676680D01*
X1912640Y2672180D01*
X1907040Y2667080D01*
X1901960Y2661480D01*
X1897440Y2655400D01*
X1893560Y2648920D01*
X1890320Y2642060D01*
X1887760Y2634940D01*
X1885920Y2627600D01*
X1884820Y2620120D01*
X1884440Y2612559D01*
X1884820Y2605000D01*
X1885920Y2597500D01*
X1887760Y2590160D01*
X1890320Y2583039D01*
X1893560Y2576200D01*
X1897440Y2569700D01*
X1901960Y2563620D01*
X1907040Y2558020D01*
X1912640Y2552940D01*
X1918720Y2548420D01*
X1925220Y2544540D01*
X1932060Y2541300D01*
X1939180Y2538760D01*
X1946519Y2536920D01*
X1954019Y2535800D01*
G37*
G36*
X2211580Y2635440D02*
G01*
X2219120Y2635800D01*
X2226620Y2636920D01*
X2233960Y2638759D01*
X2241080Y2641300D01*
X2247920Y2644540D01*
X2254420Y2648420D01*
X2260500Y2652940D01*
X2266100Y2658020D01*
X2271180Y2663620D01*
X2275700Y2669700D01*
X2279580Y2676200D01*
X2282820Y2683039D01*
X2285380Y2690160D01*
X2287220Y2697500D01*
X2288320Y2705000D01*
X2288700Y2712559D01*
X2288320Y2720120D01*
X2287220Y2727600D01*
X2285380Y2734940D01*
X2282820Y2742060D01*
X2279580Y2748920D01*
X2275700Y2755400D01*
X2272780Y2759340D01*
X2272120Y2760720D01*
X2272020Y2762220D01*
X2272480Y2763660D01*
X2273460Y2764820D01*
X2274800Y2765539D01*
X2280140Y2767220D01*
X2285600Y2769660D01*
X2290720Y2772760D01*
X2295440Y2776460D01*
X2299660Y2780680D01*
X2303360Y2785400D01*
X2306460Y2790520D01*
X2308920Y2795980D01*
X2310700Y2801700D01*
X2311780Y2807580D01*
X2312140Y2813560D01*
X2311780Y2819520D01*
X2310700Y2825419D01*
X2308920Y2831139D01*
X2306460Y2836580D01*
X2303360Y2841700D01*
X2299660Y2846420D01*
X2295440Y2850659D01*
X2290720Y2854340D01*
X2285600Y2857440D01*
X2280140Y2859900D01*
X2274440Y2861680D01*
X2268540Y2862760D01*
X2262580Y2863120D01*
X2256600Y2862760D01*
X2250700Y2861680D01*
X2245000Y2859900D01*
X2239540Y2857440D01*
X2234420Y2854340D01*
X2229700Y2850659D01*
X2225480Y2846420D01*
X2221780Y2841700D01*
X2218680Y2836580D01*
X2216220Y2831139D01*
X2214440Y2825419D01*
X2213360Y2819520D01*
X2213000Y2813560D01*
X2213360Y2807580D01*
X2214440Y2801700D01*
X2216220Y2795980D01*
X2216560Y2795260D01*
X2216900Y2793680D01*
X2216600Y2792080D01*
X2215680Y2790740D01*
X2214320Y2789880D01*
X2212700Y2789620D01*
X2211580Y2789680D01*
X2204020Y2789300D01*
X2196520Y2788200D01*
X2189180Y2786360D01*
X2182060Y2783800D01*
X2175220Y2780580D01*
X2168720Y2776680D01*
X2162640Y2772180D01*
X2157040Y2767080D01*
X2152100Y2761640D01*
X2150760Y2760680D01*
X2149160Y2760320D01*
X2147540Y2760659D01*
X2146200Y2761600D01*
X2145360Y2763020D01*
X2145140Y2764640D01*
X2145600Y2766220D01*
X2148320Y2771259D01*
X2151680Y2779120D01*
X2154320Y2787240D01*
X2156220Y2795560D01*
X2157360Y2804040D01*
X2157740Y2812559D01*
X2157360Y2821100D01*
X2156220Y2829560D01*
X2154320Y2837880D01*
X2151680Y2846019D01*
X2148320Y2853860D01*
X2144280Y2861380D01*
X2139560Y2868519D01*
X2134240Y2875200D01*
X2128340Y2881380D01*
X2121900Y2887000D01*
X2115000Y2892020D01*
X2107660Y2896400D01*
X2099960Y2900100D01*
X2091960Y2903100D01*
X2083740Y2905380D01*
X2075340Y2906900D01*
X2066819Y2907660D01*
X2058280Y2907660D01*
X2049780Y2906900D01*
X2041360Y2905380D01*
X2033140Y2903100D01*
X2025140Y2900100D01*
X2017440Y2896400D01*
X2010100Y2892020D01*
X2003200Y2887000D01*
X1996759Y2881380D01*
X1990860Y2875200D01*
X1985540Y2868519D01*
X1980840Y2861380D01*
X1976780Y2853860D01*
X1973420Y2846019D01*
X1970780Y2837880D01*
X1968880Y2829560D01*
X1967740Y2821100D01*
X1967360Y2812559D01*
X1967740Y2804040D01*
X1968880Y2795560D01*
X1970780Y2787240D01*
X1973420Y2779120D01*
X1976780Y2771259D01*
X1980840Y2763740D01*
X1985540Y2756600D01*
X1990860Y2749940D01*
X1996759Y2743759D01*
X2003200Y2738140D01*
X2010100Y2733120D01*
X2017440Y2728740D01*
X2025140Y2725020D01*
X2033140Y2722020D01*
X2041360Y2719760D01*
X2049780Y2718220D01*
X2058280Y2717460D01*
X2066819Y2717460D01*
X2075340Y2718220D01*
X2083740Y2719760D01*
X2091960Y2722020D01*
X2099960Y2725020D01*
X2107660Y2728740D01*
X2115000Y2733120D01*
X2121900Y2738140D01*
X2128340Y2743759D01*
X2134240Y2749940D01*
X2136860Y2753200D01*
X2138120Y2754260D01*
X2139720Y2754700D01*
X2141340Y2754460D01*
X2142740Y2753600D01*
X2143680Y2752220D01*
X2143980Y2750600D01*
X2143600Y2749000D01*
X2140320Y2742060D01*
X2137760Y2734940D01*
X2135920Y2727600D01*
X2134820Y2720120D01*
X2134440Y2712559D01*
X2134820Y2705000D01*
X2135920Y2697500D01*
X2137760Y2690160D01*
X2140320Y2683039D01*
X2143560Y2676200D01*
X2147440Y2669700D01*
X2151960Y2663620D01*
X2157040Y2658020D01*
X2162640Y2652940D01*
X2168720Y2648420D01*
X2175220Y2644540D01*
X2182060Y2641300D01*
X2189180Y2638759D01*
X2196520Y2636920D01*
X2204020Y2635800D01*
G37*
G36*
X2961580Y2635440D02*
G01*
X2969140Y2635800D01*
X2976640Y2636920D01*
X2983980Y2638759D01*
X2991100Y2641300D01*
X2997940Y2644540D01*
X3004440Y2648420D01*
X3010520Y2652940D01*
X3016120Y2658020D01*
X3021200Y2663620D01*
X3025720Y2669700D01*
X3029600Y2676200D01*
X3032840Y2683039D01*
X3035380Y2690160D01*
X3037220Y2697500D01*
X3038340Y2705000D01*
X3038720Y2712559D01*
X3038340Y2720120D01*
X3037220Y2727600D01*
X3035380Y2734940D01*
X3032840Y2742060D01*
X3029600Y2748920D01*
X3025720Y2755400D01*
X3022780Y2759340D01*
X3022140Y2760720D01*
X3022040Y2762220D01*
X3022500Y2763660D01*
X3023480Y2764820D01*
X3024820Y2765539D01*
X3030160Y2767220D01*
X3035620Y2769660D01*
X3040740Y2772760D01*
X3045460Y2776460D01*
X3049680Y2780680D01*
X3053380Y2785400D01*
X3056480Y2790520D01*
X3058920Y2795980D01*
X3060700Y2801700D01*
X3061780Y2807580D01*
X3062140Y2813560D01*
X3061780Y2819520D01*
X3060700Y2825419D01*
X3058920Y2831139D01*
X3056480Y2836580D01*
X3053380Y2841700D01*
X3049680Y2846420D01*
X3045460Y2850659D01*
X3040740Y2854340D01*
X3035620Y2857440D01*
X3030160Y2859900D01*
X3024440Y2861680D01*
X3018560Y2862760D01*
X3012580Y2863120D01*
X3006620Y2862760D01*
X3000720Y2861680D01*
X2995020Y2859900D01*
X2989560Y2857440D01*
X2984440Y2854340D01*
X2979720Y2850659D01*
X2975480Y2846420D01*
X2971800Y2841700D01*
X2968700Y2836580D01*
X2966240Y2831139D01*
X2964460Y2825419D01*
X2963380Y2819520D01*
X2963020Y2813560D01*
X2963380Y2807580D01*
X2964460Y2801700D01*
X2966240Y2795980D01*
X2966560Y2795260D01*
X2966920Y2793680D01*
X2966620Y2792080D01*
X2965700Y2790740D01*
X2964320Y2789880D01*
X2962720Y2789620D01*
X2961580Y2789680D01*
X2954020Y2789300D01*
X2946540Y2788200D01*
X2939200Y2786360D01*
X2932080Y2783800D01*
X2925220Y2780580D01*
X2918740Y2776680D01*
X2912660Y2772180D01*
X2907060Y2767080D01*
X2902120Y2761640D01*
X2900779Y2760680D01*
X2899180Y2760320D01*
X2897559Y2760659D01*
X2896220Y2761600D01*
X2895360Y2763020D01*
X2895160Y2764640D01*
X2895620Y2766220D01*
X2898340Y2771259D01*
X2901700Y2779120D01*
X2904340Y2787240D01*
X2906240Y2795560D01*
X2907380Y2804040D01*
X2907760Y2812559D01*
X2907380Y2821100D01*
X2906240Y2829560D01*
X2904340Y2837880D01*
X2901700Y2846019D01*
X2898340Y2853860D01*
X2894280Y2861380D01*
X2889580Y2868519D01*
X2884260Y2875200D01*
X2878360Y2881380D01*
X2871920Y2887000D01*
X2865020Y2892020D01*
X2857679Y2896400D01*
X2849980Y2900100D01*
X2841980Y2903100D01*
X2833759Y2905380D01*
X2825340Y2906900D01*
X2816840Y2907660D01*
X2808300Y2907660D01*
X2799780Y2906900D01*
X2791380Y2905380D01*
X2783159Y2903100D01*
X2775160Y2900100D01*
X2767460Y2896400D01*
X2760120Y2892020D01*
X2753220Y2887000D01*
X2746780Y2881380D01*
X2740880Y2875200D01*
X2735560Y2868519D01*
X2730840Y2861380D01*
X2726800Y2853860D01*
X2723440Y2846019D01*
X2720800Y2837880D01*
X2718900Y2829560D01*
X2717760Y2821100D01*
X2717380Y2812559D01*
X2717760Y2804040D01*
X2718900Y2795560D01*
X2720800Y2787240D01*
X2723440Y2779120D01*
X2726800Y2771259D01*
X2730840Y2763740D01*
X2735560Y2756600D01*
X2740880Y2749940D01*
X2746780Y2743759D01*
X2753220Y2738140D01*
X2760120Y2733120D01*
X2767460Y2728740D01*
X2775160Y2725020D01*
X2783159Y2722020D01*
X2791380Y2719760D01*
X2799780Y2718220D01*
X2808300Y2717460D01*
X2816840Y2717460D01*
X2825340Y2718220D01*
X2833759Y2719760D01*
X2841980Y2722020D01*
X2849980Y2725020D01*
X2857679Y2728740D01*
X2865020Y2733120D01*
X2871920Y2738140D01*
X2878360Y2743759D01*
X2884260Y2749940D01*
X2886860Y2753200D01*
X2888140Y2754260D01*
X2889720Y2754700D01*
X2891360Y2754460D01*
X2892760Y2753600D01*
X2893700Y2752220D01*
X2894000Y2750600D01*
X2893620Y2749000D01*
X2890340Y2742060D01*
X2887780Y2734940D01*
X2885940Y2727600D01*
X2884840Y2720120D01*
X2884460Y2712559D01*
X2884840Y2705000D01*
X2885940Y2697500D01*
X2887780Y2690160D01*
X2890340Y2683039D01*
X2893560Y2676200D01*
X2897460Y2669700D01*
X2901960Y2663620D01*
X2907060Y2658020D01*
X2912660Y2652940D01*
X2918740Y2648420D01*
X2925220Y2644540D01*
X2932080Y2641300D01*
X2939200Y2638759D01*
X2946540Y2636920D01*
X2954020Y2635800D01*
G37*
G36*
X711540Y2635440D02*
G01*
X719100Y2635800D01*
X726580Y2636920D01*
X733920Y2638759D01*
X741060Y2641300D01*
X747900Y2644540D01*
X754380Y2648420D01*
X760460Y2652940D01*
X766080Y2658020D01*
X771160Y2663620D01*
X775660Y2669700D01*
X779560Y2676200D01*
X782800Y2683039D01*
X785340Y2690160D01*
X787180Y2697500D01*
X788300Y2705000D01*
X788660Y2712559D01*
X788300Y2720120D01*
X787180Y2727600D01*
X785340Y2734940D01*
X782800Y2742060D01*
X779560Y2748920D01*
X775660Y2755400D01*
X772740Y2759340D01*
X772080Y2760720D01*
X771979Y2762220D01*
X772460Y2763660D01*
X773420Y2764820D01*
X774760Y2765539D01*
X780120Y2767220D01*
X785580Y2769660D01*
X790699Y2772760D01*
X795400Y2776460D01*
X799640Y2780680D01*
X803319Y2785400D01*
X806420Y2790520D01*
X808880Y2795980D01*
X810660Y2801700D01*
X811740Y2807580D01*
X812099Y2813560D01*
X811740Y2819520D01*
X810660Y2825419D01*
X808880Y2831139D01*
X806420Y2836580D01*
X803319Y2841700D01*
X799640Y2846420D01*
X795400Y2850659D01*
X790699Y2854340D01*
X785580Y2857440D01*
X780120Y2859900D01*
X774400Y2861680D01*
X768520Y2862760D01*
X762540Y2863120D01*
X756560Y2862760D01*
X750680Y2861680D01*
X744960Y2859900D01*
X739500Y2857440D01*
X734380Y2854340D01*
X729680Y2850659D01*
X725440Y2846420D01*
X721740Y2841700D01*
X718660Y2836580D01*
X716200Y2831139D01*
X714419Y2825419D01*
X713340Y2819520D01*
X712980Y2813560D01*
X713340Y2807580D01*
X714419Y2801700D01*
X716200Y2795980D01*
X716520Y2795260D01*
X716880Y2793680D01*
X716560Y2792080D01*
X715660Y2790740D01*
X714280Y2789880D01*
X712680Y2789620D01*
X711540Y2789680D01*
X703980Y2789300D01*
X696500Y2788200D01*
X689160Y2786360D01*
X682020Y2783800D01*
X675180Y2780580D01*
X668700Y2776680D01*
X662620Y2772180D01*
X657000Y2767080D01*
X652060Y2761640D01*
X650740Y2760680D01*
X649120Y2760320D01*
X647520Y2760659D01*
X646160Y2761600D01*
X645320Y2763020D01*
X645120Y2764640D01*
X645580Y2766220D01*
X648280Y2771259D01*
X651640Y2779120D01*
X654280Y2787240D01*
X656180Y2795560D01*
X657340Y2804040D01*
X657720Y2812559D01*
X657340Y2821100D01*
X656180Y2829560D01*
X654280Y2837880D01*
X651640Y2846019D01*
X648280Y2853860D01*
X644240Y2861380D01*
X639540Y2868519D01*
X634200Y2875200D01*
X628300Y2881380D01*
X621880Y2887000D01*
X614960Y2892020D01*
X607640Y2896400D01*
X599940Y2900100D01*
X591940Y2903100D01*
X583700Y2905380D01*
X575300Y2906900D01*
X566800Y2907660D01*
X558240Y2907660D01*
X549740Y2906900D01*
X541340Y2905380D01*
X533100Y2903100D01*
X525100Y2900100D01*
X517400Y2896400D01*
X510080Y2892020D01*
X503160Y2887000D01*
X496740Y2881380D01*
X490840Y2875200D01*
X485500Y2868519D01*
X480800Y2861380D01*
X476760Y2853860D01*
X473400Y2846019D01*
X470760Y2837880D01*
X468860Y2829560D01*
X467700Y2821100D01*
X467320Y2812559D01*
X467700Y2804040D01*
X468860Y2795560D01*
X470760Y2787240D01*
X473400Y2779120D01*
X476760Y2771259D01*
X480800Y2763740D01*
X485500Y2756600D01*
X490840Y2749940D01*
X496740Y2743759D01*
X503160Y2738140D01*
X510080Y2733120D01*
X517400Y2728740D01*
X525100Y2725020D01*
X533100Y2722020D01*
X541340Y2719760D01*
X549740Y2718220D01*
X558240Y2717460D01*
X566800Y2717460D01*
X575300Y2718220D01*
X583700Y2719760D01*
X591940Y2722020D01*
X599940Y2725020D01*
X607640Y2728740D01*
X614960Y2733120D01*
X621880Y2738140D01*
X628300Y2743759D01*
X634200Y2749940D01*
X636820Y2753200D01*
X638100Y2754260D01*
X639680Y2754700D01*
X641320Y2754460D01*
X642720Y2753600D01*
X643640Y2752220D01*
X643940Y2750600D01*
X643560Y2749000D01*
X640280Y2742060D01*
X637740Y2734940D01*
X635900Y2727600D01*
X634780Y2720120D01*
X634420Y2712559D01*
X634780Y2705000D01*
X635900Y2697500D01*
X637740Y2690160D01*
X640280Y2683039D01*
X643520Y2676200D01*
X647420Y2669700D01*
X651919Y2663620D01*
X657000Y2658020D01*
X662620Y2652940D01*
X668700Y2648420D01*
X675180Y2644540D01*
X682020Y2641300D01*
X689160Y2638759D01*
X696500Y2636920D01*
X703980Y2635800D01*
G37*
G36*
X2612580Y2764000D02*
G01*
X2618560Y2764360D01*
X2624440Y2765440D01*
X2630160Y2767220D01*
X2635620Y2769660D01*
X2640740Y2772760D01*
X2645460Y2776460D01*
X2649680Y2780680D01*
X2653380Y2785400D01*
X2656480Y2790520D01*
X2658920Y2795980D01*
X2660700Y2801700D01*
X2661780Y2807580D01*
X2662140Y2813560D01*
X2661780Y2819520D01*
X2660700Y2825419D01*
X2658920Y2831139D01*
X2656480Y2836580D01*
X2653380Y2841700D01*
X2649680Y2846420D01*
X2645460Y2850659D01*
X2640740Y2854340D01*
X2635620Y2857440D01*
X2630160Y2859900D01*
X2624440Y2861680D01*
X2618560Y2862760D01*
X2612580Y2863120D01*
X2606620Y2862760D01*
X2600720Y2861680D01*
X2595020Y2859900D01*
X2589560Y2857440D01*
X2584440Y2854340D01*
X2579720Y2850659D01*
X2575480Y2846420D01*
X2571800Y2841700D01*
X2568700Y2836580D01*
X2566240Y2831139D01*
X2564460Y2825419D01*
X2563380Y2819520D01*
X2563020Y2813560D01*
X2563380Y2807580D01*
X2564460Y2801700D01*
X2566240Y2795980D01*
X2568700Y2790520D01*
X2571800Y2785400D01*
X2575480Y2780680D01*
X2579720Y2776460D01*
X2584440Y2772760D01*
X2589560Y2769660D01*
X2595020Y2767220D01*
X2600720Y2765440D01*
X2606620Y2764360D01*
G37*
G36*
X1862580Y2764000D02*
G01*
X1868540Y2764360D01*
X1874440Y2765440D01*
X1880140Y2767220D01*
X1885600Y2769660D01*
X1890720Y2772760D01*
X1895440Y2776460D01*
X1899660Y2780680D01*
X1903360Y2785400D01*
X1906459Y2790520D01*
X1908920Y2795980D01*
X1910700Y2801700D01*
X1911780Y2807580D01*
X1912140Y2813560D01*
X1911780Y2819520D01*
X1910700Y2825419D01*
X1908920Y2831139D01*
X1906459Y2836580D01*
X1903360Y2841700D01*
X1899660Y2846420D01*
X1895440Y2850659D01*
X1890720Y2854340D01*
X1885600Y2857440D01*
X1880140Y2859900D01*
X1874440Y2861680D01*
X1868540Y2862760D01*
X1862580Y2863120D01*
X1856600Y2862760D01*
X1850700Y2861680D01*
X1845000Y2859900D01*
X1839540Y2857440D01*
X1834420Y2854340D01*
X1829700Y2850659D01*
X1825480Y2846420D01*
X1821780Y2841700D01*
X1818680Y2836580D01*
X1816220Y2831139D01*
X1814440Y2825419D01*
X1813360Y2819520D01*
X1813000Y2813560D01*
X1813360Y2807580D01*
X1814440Y2801700D01*
X1816220Y2795980D01*
X1818680Y2790520D01*
X1821780Y2785400D01*
X1825480Y2780680D01*
X1829700Y2776460D01*
X1834420Y2772760D01*
X1839540Y2769660D01*
X1845000Y2767220D01*
X1850700Y2765440D01*
X1856600Y2764360D01*
G37*
G36*
X362540Y2764000D02*
G01*
X368519Y2764360D01*
X374400Y2765440D01*
X380120Y2767220D01*
X385580Y2769660D01*
X390700Y2772760D01*
X395400Y2776460D01*
X399640Y2780680D01*
X403320Y2785400D01*
X406420Y2790520D01*
X408880Y2795980D01*
X410660Y2801700D01*
X411740Y2807580D01*
X412100Y2813560D01*
X411740Y2819520D01*
X410660Y2825419D01*
X408880Y2831139D01*
X406420Y2836580D01*
X403320Y2841700D01*
X399640Y2846420D01*
X395400Y2850659D01*
X390700Y2854340D01*
X385580Y2857440D01*
X380120Y2859900D01*
X374400Y2861680D01*
X368519Y2862760D01*
X362540Y2863120D01*
X356560Y2862760D01*
X350680Y2861680D01*
X344960Y2859900D01*
X339500Y2857440D01*
X334380Y2854340D01*
X329680Y2850659D01*
X325439Y2846420D01*
X321740Y2841700D01*
X318660Y2836580D01*
X316200Y2831139D01*
X314420Y2825419D01*
X313340Y2819520D01*
X312980Y2813560D01*
X313340Y2807580D01*
X314420Y2801700D01*
X316200Y2795980D01*
X318660Y2790520D01*
X321740Y2785400D01*
X325439Y2780680D01*
X329680Y2776460D01*
X334380Y2772760D01*
X339500Y2769660D01*
X344960Y2767220D01*
X350680Y2765440D01*
X356560Y2764360D01*
G37*
G36*
X1619400Y2791420D02*
G01*
X1624960Y2791960D01*
X1630420Y2793200D01*
X1635680Y2795140D01*
X1640640Y2797720D01*
X1645220Y2800920D01*
X1649360Y2804680D01*
X1652980Y2808940D01*
X1656040Y2813620D01*
X1658460Y2818660D01*
X1660220Y2823980D01*
X1661300Y2829460D01*
X1661660Y2835040D01*
X1661300Y2840640D01*
X1660220Y2846120D01*
X1658460Y2851440D01*
X1656040Y2856480D01*
X1652980Y2861160D01*
X1649360Y2865419D01*
X1645220Y2869180D01*
X1640640Y2872380D01*
X1635680Y2874960D01*
X1630420Y2876900D01*
X1624960Y2878140D01*
X1619400Y2878680D01*
X1613800Y2878500D01*
X1608280Y2877620D01*
X1600820Y2875440D01*
X1599259Y2875740D01*
X1597940Y2876620D01*
X1564379Y2910179D01*
X1563500Y2911480D01*
X1563200Y2913000D01*
X1563200Y3097000D01*
X1563480Y3098500D01*
X1564319Y3099780D01*
X1565420Y3100940D01*
X1567540Y3104080D01*
X1569120Y3107540D01*
X1570060Y3111220D01*
X1570400Y3115000D01*
X1570320Y3115899D01*
X1570500Y3117500D01*
X1571320Y3118900D01*
X1572600Y3119860D01*
X1574180Y3120240D01*
X1575760Y3119960D01*
X1577120Y3119080D01*
X1578000Y3117740D01*
X1578660Y3116100D01*
X1581420Y3111240D01*
X1584760Y3106760D01*
X1588640Y3102740D01*
X1593020Y3099240D01*
X1597800Y3096340D01*
X1602920Y3094080D01*
X1608280Y3092480D01*
X1613800Y3091600D01*
X1619400Y3091420D01*
X1624960Y3091960D01*
X1630420Y3093200D01*
X1635680Y3095140D01*
X1640640Y3097720D01*
X1645220Y3100920D01*
X1649360Y3104680D01*
X1652980Y3108940D01*
X1656040Y3113620D01*
X1658460Y3118660D01*
X1660220Y3123980D01*
X1661300Y3129460D01*
X1661660Y3135040D01*
X1661300Y3140640D01*
X1660220Y3146120D01*
X1658460Y3151440D01*
X1656040Y3156480D01*
X1652980Y3161160D01*
X1649360Y3165419D01*
X1645220Y3169180D01*
X1640640Y3172380D01*
X1635680Y3174960D01*
X1630420Y3176900D01*
X1624960Y3178140D01*
X1619400Y3178680D01*
X1613800Y3178500D01*
X1608280Y3177620D01*
X1602920Y3176019D01*
X1597800Y3173759D01*
X1593020Y3170860D01*
X1588640Y3167360D01*
X1584760Y3163340D01*
X1581420Y3158860D01*
X1578660Y3154000D01*
X1576560Y3148800D01*
X1575140Y3143399D01*
X1574440Y3137840D01*
X1574440Y3132260D01*
X1574920Y3128540D01*
X1574740Y3126780D01*
X1573839Y3125280D01*
X1572360Y3124300D01*
X1570600Y3124060D01*
X1568920Y3124580D01*
X1567620Y3125800D01*
X1565420Y3129060D01*
X1562800Y3131800D01*
X1559740Y3134060D01*
X1556339Y3135779D01*
X1552720Y3136880D01*
X1548959Y3137380D01*
X1545160Y3137200D01*
X1541440Y3136400D01*
X1537920Y3135000D01*
X1534680Y3133000D01*
X1531840Y3130500D01*
X1529440Y3127540D01*
X1527600Y3124220D01*
X1526339Y3120640D01*
X1525700Y3116900D01*
X1525700Y3113100D01*
X1526339Y3109360D01*
X1527600Y3105779D01*
X1529440Y3102460D01*
X1531920Y3099420D01*
X1532580Y3098240D01*
X1532800Y3096900D01*
X1532800Y2905240D01*
X1533120Y2902080D01*
X1533980Y2899240D01*
X1535380Y2896620D01*
X1537400Y2894160D01*
X1576480Y2855080D01*
X1577340Y2853800D01*
X1577640Y2852280D01*
X1577360Y2850740D01*
X1576560Y2848800D01*
X1575140Y2843399D01*
X1574440Y2837840D01*
X1574440Y2832260D01*
X1575140Y2826700D01*
X1576560Y2821300D01*
X1578660Y2816100D01*
X1581420Y2811240D01*
X1584760Y2806760D01*
X1588640Y2802740D01*
X1593020Y2799240D01*
X1597800Y2796340D01*
X1602920Y2794080D01*
X1608280Y2792480D01*
X1613800Y2791600D01*
G37*
G36*
X1619400Y2891420D02*
G01*
X1624960Y2891960D01*
X1630420Y2893200D01*
X1635680Y2895140D01*
X1640640Y2897720D01*
X1645220Y2900920D01*
X1649360Y2904680D01*
X1652980Y2908940D01*
X1656040Y2913620D01*
X1658460Y2918660D01*
X1660220Y2923980D01*
X1661300Y2929460D01*
X1661660Y2935040D01*
X1661300Y2940640D01*
X1660220Y2946120D01*
X1658460Y2951440D01*
X1656040Y2956480D01*
X1652980Y2961160D01*
X1649360Y2965419D01*
X1645220Y2969180D01*
X1640640Y2972380D01*
X1635680Y2974960D01*
X1630420Y2976900D01*
X1624960Y2978140D01*
X1619400Y2978680D01*
X1613800Y2978500D01*
X1608280Y2977620D01*
X1602920Y2976019D01*
X1597800Y2973759D01*
X1593020Y2970860D01*
X1588640Y2967360D01*
X1584760Y2963340D01*
X1581420Y2958860D01*
X1578660Y2954000D01*
X1576560Y2948800D01*
X1575140Y2943399D01*
X1574440Y2937840D01*
X1574440Y2932260D01*
X1575140Y2926700D01*
X1576560Y2921300D01*
X1578660Y2916100D01*
X1581420Y2911240D01*
X1584760Y2906760D01*
X1588640Y2902740D01*
X1593020Y2899240D01*
X1597800Y2896340D01*
X1602920Y2894080D01*
X1608280Y2892480D01*
X1613800Y2891600D01*
G37*
G36*
X2737820Y2923360D02*
G01*
X2883360Y2923360D01*
X2885860Y2923639D01*
X2888000Y2924380D01*
X2889920Y2925600D01*
X2891540Y2927220D01*
X2892760Y2929140D01*
X2893500Y2931300D01*
X2893780Y2933780D01*
X2893780Y3061340D01*
X2893500Y3063820D01*
X2892760Y3065960D01*
X2891540Y3067900D01*
X2889920Y3069500D01*
X2888000Y3070720D01*
X2885860Y3071480D01*
X2883360Y3071760D01*
X2737820Y3071760D01*
X2735320Y3071480D01*
X2733180Y3070720D01*
X2731240Y3069500D01*
X2729640Y3067900D01*
X2728420Y3065960D01*
X2727660Y3063820D01*
X2727380Y3061340D01*
X2727380Y2933780D01*
X2727660Y2931300D01*
X2728420Y2929140D01*
X2729640Y2927220D01*
X2731240Y2925600D01*
X2733180Y2924380D01*
X2735320Y2923639D01*
G37*
G36*
X487760Y2923360D02*
G01*
X633320Y2923360D01*
X635800Y2923639D01*
X637960Y2924380D01*
X639880Y2925600D01*
X641500Y2927220D01*
X642700Y2929140D01*
X643460Y2931300D01*
X643740Y2933780D01*
X643740Y3061340D01*
X643460Y3063820D01*
X642700Y3065960D01*
X641500Y3067900D01*
X639880Y3069500D01*
X637960Y3070720D01*
X635800Y3071480D01*
X633320Y3071760D01*
X487760Y3071760D01*
X485280Y3071480D01*
X483120Y3070720D01*
X481200Y3069500D01*
X479580Y3067900D01*
X478380Y3065960D01*
X477620Y3063820D01*
X477340Y3061340D01*
X477340Y2933780D01*
X477620Y2931300D01*
X478380Y2929140D01*
X479580Y2927220D01*
X481200Y2925600D01*
X483120Y2924380D01*
X485280Y2923639D01*
G37*
G36*
X1987800Y2923360D02*
G01*
X2133340Y2923360D01*
X2135840Y2923639D01*
X2137980Y2924380D01*
X2139920Y2925600D01*
X2141520Y2927220D01*
X2142740Y2929140D01*
X2143480Y2931300D01*
X2143780Y2933780D01*
X2143780Y3061340D01*
X2143480Y3063820D01*
X2142740Y3065960D01*
X2141520Y3067900D01*
X2139920Y3069500D01*
X2137980Y3070720D01*
X2135840Y3071480D01*
X2133340Y3071760D01*
X1987800Y3071760D01*
X1985300Y3071480D01*
X1983160Y3070720D01*
X1981220Y3069500D01*
X1979620Y3067900D01*
X1978400Y3065960D01*
X1977660Y3063820D01*
X1977380Y3061340D01*
X1977380Y2933780D01*
X1977660Y2931300D01*
X1978400Y2929140D01*
X1979620Y2927220D01*
X1981220Y2925600D01*
X1983160Y2924380D01*
X1985300Y2923639D01*
G37*
G36*
X1237780Y2923360D02*
G01*
X1383320Y2923360D01*
X1385820Y2923639D01*
X1387960Y2924380D01*
X1389900Y2925600D01*
X1391500Y2927220D01*
X1392720Y2929140D01*
X1393480Y2931300D01*
X1393760Y2933780D01*
X1393760Y3061340D01*
X1393480Y3063820D01*
X1392720Y3065960D01*
X1391500Y3067900D01*
X1389900Y3069500D01*
X1387960Y3070720D01*
X1385820Y3071480D01*
X1383320Y3071760D01*
X1237780Y3071760D01*
X1235280Y3071480D01*
X1233140Y3070720D01*
X1231120Y3069460D01*
X1230040Y3069060D01*
X1229660Y3067980D01*
X1228380Y3065960D01*
X1227640Y3063820D01*
X1227360Y3061340D01*
X1227360Y2933780D01*
X1227640Y2931300D01*
X1228380Y2929140D01*
X1229600Y2927220D01*
X1231220Y2925600D01*
X1233140Y2924380D01*
X1235280Y2923639D01*
G37*
G36*
X1619400Y2991420D02*
G01*
X1624960Y2991960D01*
X1630420Y2993200D01*
X1635680Y2995140D01*
X1640640Y2997720D01*
X1645220Y3000920D01*
X1649360Y3004680D01*
X1652980Y3008940D01*
X1656040Y3013620D01*
X1658460Y3018660D01*
X1660220Y3023980D01*
X1661300Y3029460D01*
X1661660Y3035040D01*
X1661300Y3040640D01*
X1660220Y3046120D01*
X1658460Y3051440D01*
X1656040Y3056480D01*
X1652980Y3061160D01*
X1649360Y3065419D01*
X1645220Y3069180D01*
X1640640Y3072380D01*
X1635680Y3074960D01*
X1630420Y3076900D01*
X1624960Y3078140D01*
X1619400Y3078680D01*
X1613800Y3078500D01*
X1608280Y3077620D01*
X1602920Y3076019D01*
X1597800Y3073759D01*
X1593020Y3070860D01*
X1588640Y3067360D01*
X1584760Y3063340D01*
X1581420Y3058860D01*
X1578660Y3054000D01*
X1576560Y3048800D01*
X1575140Y3043399D01*
X1574440Y3037840D01*
X1574440Y3032260D01*
X1575140Y3026700D01*
X1576560Y3021300D01*
X1578660Y3016100D01*
X1581420Y3011240D01*
X1584760Y3006760D01*
X1588640Y3002740D01*
X1593020Y2999240D01*
X1597800Y2996340D01*
X1602920Y2994080D01*
X1608280Y2992480D01*
X1613800Y2991600D01*
G37*
G36*
X1619400Y3191420D02*
G01*
X1624960Y3191960D01*
X1630420Y3193200D01*
X1635680Y3195140D01*
X1640640Y3197720D01*
X1645220Y3200920D01*
X1649360Y3204680D01*
X1652980Y3208940D01*
X1656040Y3213620D01*
X1658460Y3218660D01*
X1660220Y3223980D01*
X1661300Y3229460D01*
X1661660Y3235040D01*
X1661300Y3240640D01*
X1660220Y3246120D01*
X1658460Y3251440D01*
X1656040Y3256480D01*
X1652980Y3261160D01*
X1649360Y3265419D01*
X1645220Y3269180D01*
X1640640Y3272380D01*
X1635680Y3274960D01*
X1630420Y3276900D01*
X1624960Y3278140D01*
X1619400Y3278680D01*
X1613800Y3278500D01*
X1608280Y3277620D01*
X1602920Y3276019D01*
X1597800Y3273759D01*
X1593020Y3270860D01*
X1588640Y3267360D01*
X1584760Y3263340D01*
X1581420Y3258860D01*
X1578660Y3254000D01*
X1576560Y3248800D01*
X1575140Y3243399D01*
X1574440Y3237840D01*
X1574440Y3232260D01*
X1575140Y3226700D01*
X1576560Y3221300D01*
X1578660Y3216100D01*
X1581420Y3211240D01*
X1584760Y3206760D01*
X1588640Y3202740D01*
X1593020Y3199240D01*
X1597800Y3196340D01*
X1602920Y3194080D01*
X1608280Y3192480D01*
X1613800Y3191600D01*
G37*
G36*
X2926100Y3242160D02*
G01*
X2931840Y3242160D01*
X2937520Y3242880D01*
X2943060Y3244300D01*
X2948399Y3246420D01*
X2953420Y3249180D01*
X2958060Y3252540D01*
X2962220Y3256460D01*
X2965880Y3260880D01*
X2968960Y3265720D01*
X2971400Y3270899D01*
X2973159Y3276340D01*
X2974240Y3281980D01*
X2974600Y3287700D01*
X2974240Y3293420D01*
X2973159Y3299040D01*
X2971400Y3304500D01*
X2968960Y3309680D01*
X2965880Y3314520D01*
X2962220Y3318920D01*
X2958060Y3322840D01*
X2953420Y3326220D01*
X2948399Y3328980D01*
X2943060Y3331080D01*
X2937520Y3332520D01*
X2931840Y3333240D01*
X2926100Y3333240D01*
X2920419Y3332520D01*
X2914880Y3331080D01*
X2909540Y3328980D01*
X2904520Y3326220D01*
X2899880Y3322840D01*
X2895700Y3318920D01*
X2892060Y3314520D01*
X2888980Y3309680D01*
X2886540Y3304500D01*
X2884780Y3299040D01*
X2883700Y3293420D01*
X2883340Y3287700D01*
X2883700Y3281980D01*
X2884780Y3276340D01*
X2886540Y3270899D01*
X2888980Y3265720D01*
X2892060Y3260880D01*
X2895700Y3256460D01*
X2899880Y3252540D01*
X2904520Y3249180D01*
X2909540Y3246420D01*
X2914880Y3244300D01*
X2920419Y3242880D01*
G37*
G36*
X2808759Y3246840D02*
G01*
X2808759Y3267480D01*
X2788159Y3267480D01*
X2788980Y3265720D01*
X2792060Y3260880D01*
X2795700Y3256460D01*
X2799880Y3252540D01*
X2804520Y3249180D01*
G37*
G36*
X2849180Y3246840D02*
G01*
X2853420Y3249180D01*
X2858060Y3252540D01*
X2862220Y3256460D01*
X2865880Y3260880D01*
X2868960Y3265720D01*
X2869780Y3267480D01*
X2849180Y3267480D01*
G37*
G36*
X2025960Y3262620D02*
G01*
X2029720Y3263120D01*
X2033340Y3264220D01*
X2036740Y3265940D01*
X2041480Y3269480D01*
X2043040Y3269800D01*
X2187000Y3269800D01*
X2188400Y3269540D01*
X2189640Y3268800D01*
X2191680Y3267000D01*
X2194920Y3265000D01*
X2198440Y3263600D01*
X2202160Y3262799D01*
X2205960Y3262620D01*
X2209720Y3263120D01*
X2213340Y3264220D01*
X2216740Y3265940D01*
X2219800Y3268200D01*
X2222420Y3270940D01*
X2224540Y3274080D01*
X2226120Y3277540D01*
X2227060Y3281220D01*
X2227400Y3285000D01*
X2227060Y3288780D01*
X2226120Y3292460D01*
X2224540Y3295920D01*
X2222420Y3299060D01*
X2219800Y3301800D01*
X2216740Y3304060D01*
X2213340Y3305779D01*
X2209720Y3306880D01*
X2205960Y3307380D01*
X2202160Y3307200D01*
X2198440Y3306400D01*
X2194920Y3305000D01*
X2191680Y3303000D01*
X2189640Y3301200D01*
X2188400Y3300460D01*
X2187000Y3300200D01*
X2043040Y3300200D01*
X2041480Y3300520D01*
X2036740Y3304060D01*
X2033340Y3305779D01*
X2029720Y3306880D01*
X2025960Y3307380D01*
X2022160Y3307200D01*
X2018440Y3306400D01*
X2014920Y3305000D01*
X2011680Y3303000D01*
X2008839Y3300500D01*
X2006440Y3297540D01*
X2004600Y3294220D01*
X2003340Y3290640D01*
X2002700Y3286900D01*
X2002700Y3283100D01*
X2003340Y3279360D01*
X2004600Y3275779D01*
X2006440Y3272460D01*
X2008839Y3269500D01*
X2011680Y3267000D01*
X2014920Y3265000D01*
X2018440Y3263600D01*
X2022160Y3262799D01*
G37*
G36*
X461540Y3285440D02*
G01*
X469099Y3285820D01*
X476580Y3286920D01*
X483920Y3288759D01*
X491060Y3291320D01*
X497900Y3294560D01*
X504380Y3298440D01*
X510460Y3302960D01*
X516079Y3308039D01*
X521160Y3313639D01*
X525660Y3319720D01*
X529560Y3326220D01*
X532800Y3333060D01*
X535340Y3340179D01*
X537180Y3347520D01*
X538300Y3355020D01*
X538660Y3362580D01*
X538300Y3370140D01*
X537180Y3377620D01*
X535340Y3384960D01*
X532800Y3392080D01*
X529560Y3398920D01*
X525660Y3405419D01*
X521160Y3411500D01*
X516079Y3417100D01*
X510460Y3422180D01*
X504380Y3426700D01*
X497900Y3430580D01*
X491060Y3433820D01*
X483920Y3436380D01*
X476580Y3438220D01*
X469099Y3439320D01*
X461540Y3439700D01*
X453980Y3439320D01*
X446500Y3438220D01*
X439159Y3436380D01*
X432020Y3433820D01*
X425180Y3430580D01*
X418700Y3426700D01*
X412620Y3422180D01*
X407000Y3417100D01*
X401920Y3411500D01*
X397420Y3405419D01*
X393519Y3398920D01*
X390280Y3392080D01*
X387740Y3384960D01*
X385900Y3377620D01*
X384780Y3370140D01*
X384420Y3362580D01*
X384780Y3355020D01*
X385900Y3347520D01*
X387740Y3340179D01*
X390280Y3333060D01*
X393519Y3326220D01*
X397420Y3319720D01*
X401920Y3313639D01*
X407000Y3308039D01*
X412620Y3302960D01*
X418700Y3298440D01*
X425180Y3294560D01*
X432020Y3291320D01*
X439159Y3288759D01*
X446500Y3286920D01*
X453980Y3285820D01*
G37*
G36*
X2788159Y3307919D02*
G01*
X2808759Y3307919D01*
X2808759Y3328540D01*
X2804520Y3326220D01*
X2799880Y3322840D01*
X2795700Y3318920D01*
X2792060Y3314520D01*
X2788980Y3309680D01*
G37*
G36*
X2849180Y3307919D02*
G01*
X2869780Y3307919D01*
X2868960Y3309680D01*
X2865880Y3314520D01*
X2862220Y3318920D01*
X2858060Y3322840D01*
X2853420Y3326220D01*
X2849180Y3328540D01*
G37*
G36*
X640200Y3315800D02*
G01*
X772800Y3315800D01*
X775960Y3316120D01*
X778800Y3316980D01*
X781440Y3318380D01*
X783880Y3320400D01*
X840600Y3377120D01*
X842620Y3379560D01*
X844020Y3382200D01*
X844880Y3385040D01*
X845200Y3388200D01*
X845200Y3540000D01*
X845480Y3541500D01*
X846320Y3542780D01*
X847420Y3543940D01*
X849539Y3547080D01*
X851120Y3550539D01*
X852060Y3554220D01*
X852400Y3558000D01*
X852060Y3561780D01*
X851120Y3565460D01*
X849539Y3568920D01*
X847420Y3572060D01*
X844800Y3574800D01*
X841740Y3577060D01*
X838340Y3578780D01*
X834720Y3579880D01*
X830960Y3580380D01*
X827159Y3580200D01*
X823439Y3579400D01*
X819920Y3578000D01*
X815080Y3575000D01*
X813500Y3574800D01*
X811979Y3575240D01*
X810740Y3576220D01*
X809980Y3577600D01*
X808880Y3581139D01*
X806420Y3586600D01*
X803319Y3591720D01*
X799640Y3596440D01*
X795400Y3600659D01*
X790699Y3604360D01*
X785580Y3607460D01*
X780120Y3609920D01*
X774400Y3611700D01*
X768520Y3612780D01*
X762540Y3613140D01*
X756560Y3612780D01*
X750680Y3611700D01*
X744960Y3609920D01*
X739500Y3607460D01*
X734380Y3604360D01*
X729680Y3600659D01*
X725440Y3596440D01*
X721740Y3591720D01*
X718660Y3586600D01*
X716200Y3581139D01*
X714419Y3575440D01*
X713340Y3569540D01*
X712980Y3563580D01*
X713340Y3557600D01*
X714419Y3551700D01*
X716200Y3546000D01*
X716520Y3545280D01*
X716880Y3543700D01*
X716560Y3542100D01*
X715660Y3540760D01*
X714280Y3539900D01*
X712680Y3539640D01*
X711540Y3539700D01*
X703980Y3539320D01*
X696500Y3538220D01*
X689160Y3536380D01*
X682020Y3533820D01*
X675180Y3530580D01*
X668700Y3526700D01*
X662620Y3522180D01*
X657000Y3517100D01*
X652060Y3511660D01*
X650740Y3510700D01*
X649120Y3510340D01*
X647520Y3510680D01*
X646160Y3511620D01*
X645320Y3513020D01*
X645120Y3514660D01*
X645580Y3516240D01*
X648280Y3521280D01*
X651640Y3529140D01*
X654280Y3537260D01*
X656180Y3545580D01*
X657340Y3554040D01*
X657720Y3562580D01*
X657340Y3571120D01*
X656180Y3579580D01*
X654280Y3587900D01*
X651640Y3596019D01*
X648280Y3603880D01*
X644240Y3611400D01*
X639540Y3618540D01*
X634200Y3625220D01*
X628300Y3631380D01*
X621880Y3637000D01*
X614960Y3642020D01*
X607640Y3646400D01*
X599940Y3650120D01*
X591940Y3653120D01*
X583700Y3655380D01*
X575300Y3656920D01*
X566800Y3657679D01*
X558240Y3657679D01*
X549740Y3656920D01*
X541340Y3655380D01*
X533100Y3653120D01*
X525100Y3650120D01*
X517400Y3646400D01*
X510080Y3642020D01*
X503160Y3637000D01*
X496740Y3631380D01*
X490840Y3625220D01*
X485500Y3618540D01*
X480800Y3611400D01*
X476760Y3603880D01*
X473400Y3596019D01*
X470760Y3587900D01*
X468860Y3579580D01*
X467700Y3571120D01*
X467320Y3562580D01*
X467700Y3554040D01*
X468860Y3545580D01*
X470760Y3537260D01*
X473400Y3529140D01*
X476760Y3521280D01*
X480800Y3513759D01*
X485500Y3506620D01*
X490840Y3499940D01*
X496740Y3493780D01*
X503160Y3488159D01*
X510080Y3483140D01*
X517400Y3478759D01*
X525100Y3475040D01*
X533100Y3472040D01*
X541340Y3469780D01*
X549740Y3468240D01*
X558240Y3467480D01*
X566800Y3467480D01*
X575300Y3468240D01*
X583700Y3469780D01*
X591940Y3472040D01*
X599940Y3475040D01*
X607640Y3478759D01*
X614960Y3483140D01*
X621880Y3488159D01*
X628300Y3493780D01*
X634200Y3499940D01*
X636820Y3503220D01*
X638100Y3504260D01*
X639680Y3504720D01*
X641320Y3504480D01*
X642720Y3503600D01*
X643640Y3502240D01*
X643940Y3500620D01*
X643560Y3499020D01*
X640280Y3492080D01*
X637740Y3484960D01*
X635900Y3477620D01*
X634780Y3470140D01*
X634420Y3462580D01*
X634780Y3455020D01*
X635900Y3447520D01*
X637740Y3440179D01*
X640280Y3433060D01*
X643520Y3426220D01*
X647420Y3419720D01*
X651919Y3413639D01*
X657000Y3408039D01*
X662620Y3402960D01*
X668700Y3398440D01*
X675180Y3394560D01*
X682020Y3391320D01*
X689160Y3388759D01*
X696500Y3386920D01*
X703980Y3385820D01*
X711540Y3385440D01*
X719100Y3385820D01*
X726580Y3386920D01*
X733920Y3388759D01*
X741060Y3391320D01*
X747900Y3394560D01*
X754380Y3398440D01*
X760460Y3402960D01*
X766080Y3408039D01*
X771160Y3413639D01*
X775660Y3419720D01*
X779560Y3426220D01*
X782800Y3433060D01*
X785340Y3440179D01*
X787180Y3447520D01*
X788300Y3455020D01*
X788660Y3462580D01*
X788300Y3470140D01*
X787180Y3477620D01*
X785340Y3484960D01*
X782800Y3492080D01*
X779560Y3498920D01*
X775660Y3505419D01*
X772740Y3509360D01*
X772080Y3510720D01*
X771979Y3512240D01*
X772460Y3513680D01*
X773420Y3514840D01*
X774760Y3515560D01*
X780120Y3517220D01*
X785580Y3519680D01*
X790699Y3522780D01*
X795400Y3526480D01*
X799640Y3530700D01*
X803319Y3535419D01*
X806420Y3540539D01*
X806979Y3541760D01*
X807920Y3543080D01*
X809320Y3543900D01*
X810920Y3544100D01*
X812480Y3543660D01*
X813920Y3542420D01*
X814580Y3541240D01*
X814800Y3539900D01*
X814800Y3395960D01*
X814500Y3394420D01*
X813620Y3393120D01*
X767880Y3347380D01*
X766580Y3346500D01*
X765040Y3346200D01*
X647960Y3346200D01*
X646420Y3346500D01*
X645120Y3347380D01*
X616500Y3375980D01*
X615700Y3377140D01*
X615340Y3378480D01*
X615060Y3381780D01*
X614120Y3385460D01*
X612540Y3388920D01*
X610420Y3392060D01*
X607800Y3394800D01*
X604740Y3397060D01*
X601340Y3398780D01*
X597720Y3399880D01*
X593960Y3400380D01*
X590160Y3400200D01*
X586440Y3399400D01*
X582920Y3398000D01*
X579680Y3396000D01*
X576840Y3393500D01*
X574440Y3390539D01*
X572600Y3387220D01*
X571340Y3383639D01*
X570700Y3379900D01*
X570700Y3376100D01*
X571340Y3372360D01*
X572600Y3368780D01*
X574440Y3365460D01*
X576840Y3362500D01*
X579680Y3360000D01*
X582920Y3358000D01*
X586440Y3356600D01*
X590160Y3355800D01*
X592320Y3355700D01*
X593760Y3355360D01*
X594980Y3354540D01*
X629120Y3320400D01*
X631560Y3318380D01*
X634200Y3316980D01*
X637040Y3316120D01*
G37*
G36*
X2025960Y3365620D02*
G01*
X2029720Y3366120D01*
X2033340Y3367220D01*
X2036740Y3368940D01*
X2041480Y3372480D01*
X2043040Y3372799D01*
X2483860Y3372799D01*
X2484780Y3372700D01*
X2485660Y3372380D01*
X2489500Y3370440D01*
X2494500Y3368700D01*
X2499700Y3367640D01*
X2505000Y3367280D01*
X2510300Y3367640D01*
X2515500Y3368700D01*
X2520500Y3370440D01*
X2525240Y3372820D01*
X2529620Y3375820D01*
X2533560Y3379380D01*
X2536980Y3383440D01*
X2539840Y3387919D01*
X2542060Y3392720D01*
X2543640Y3397799D01*
X2544520Y3403020D01*
X2544700Y3408320D01*
X2544160Y3413600D01*
X2542940Y3418759D01*
X2541020Y3423720D01*
X2538480Y3428380D01*
X2535340Y3432640D01*
X2531640Y3436460D01*
X2527480Y3439740D01*
X2522920Y3442440D01*
X2518020Y3444520D01*
X2512920Y3445920D01*
X2507660Y3446620D01*
X2502340Y3446620D01*
X2497080Y3445920D01*
X2491980Y3444520D01*
X2487080Y3442440D01*
X2482520Y3439740D01*
X2478360Y3436460D01*
X2474660Y3432640D01*
X2471520Y3428380D01*
X2468980Y3423720D01*
X2467060Y3418759D01*
X2465840Y3413600D01*
X2465300Y3408320D01*
X2465340Y3407340D01*
X2465080Y3405760D01*
X2464220Y3404420D01*
X2462900Y3403519D01*
X2461340Y3403200D01*
X2043040Y3403200D01*
X2041480Y3403519D01*
X2036740Y3407060D01*
X2033340Y3408780D01*
X2029720Y3409880D01*
X2025960Y3410380D01*
X2022160Y3410200D01*
X2018440Y3409400D01*
X2014920Y3408000D01*
X2011680Y3406000D01*
X2008839Y3403500D01*
X2006440Y3400539D01*
X2004600Y3397220D01*
X2003340Y3393639D01*
X2002700Y3389900D01*
X2002700Y3386100D01*
X2003340Y3382360D01*
X2004600Y3378780D01*
X2006440Y3375460D01*
X2008839Y3372500D01*
X2011680Y3370000D01*
X2014920Y3368000D01*
X2018440Y3366600D01*
X2022160Y3365800D01*
G37*
G36*
X1019400Y3391420D02*
G01*
X1024960Y3391960D01*
X1030420Y3393200D01*
X1035680Y3395140D01*
X1040639Y3397720D01*
X1045220Y3400920D01*
X1049360Y3404680D01*
X1052980Y3408940D01*
X1056040Y3413620D01*
X1057940Y3417580D01*
X1058820Y3418780D01*
X1060080Y3419580D01*
X1061540Y3419840D01*
X1397860Y3419840D01*
X1401020Y3420160D01*
X1403860Y3421019D01*
X1406480Y3422420D01*
X1408940Y3424440D01*
X1553120Y3568620D01*
X1554420Y3569500D01*
X1555960Y3569800D01*
X1581600Y3569800D01*
X1583300Y3569420D01*
X1584700Y3568340D01*
X1585480Y3566760D01*
X1585520Y3565020D01*
X1584800Y3563399D01*
X1581420Y3558860D01*
X1578660Y3554000D01*
X1576560Y3548800D01*
X1575140Y3543399D01*
X1574440Y3537840D01*
X1574440Y3532260D01*
X1575140Y3526700D01*
X1576560Y3521300D01*
X1578660Y3516100D01*
X1581420Y3511240D01*
X1584760Y3506760D01*
X1588640Y3502740D01*
X1593020Y3499240D01*
X1597800Y3496340D01*
X1602920Y3494080D01*
X1608280Y3492480D01*
X1613800Y3491600D01*
X1619400Y3491420D01*
X1624960Y3491960D01*
X1630420Y3493200D01*
X1635680Y3495140D01*
X1640640Y3497720D01*
X1645220Y3500920D01*
X1649360Y3504680D01*
X1652980Y3508940D01*
X1656040Y3513620D01*
X1658460Y3518660D01*
X1660220Y3523980D01*
X1661300Y3529460D01*
X1661660Y3535040D01*
X1661300Y3540640D01*
X1660220Y3546120D01*
X1658460Y3551440D01*
X1656040Y3556480D01*
X1652980Y3561160D01*
X1651240Y3563200D01*
X1650500Y3564520D01*
X1650300Y3566019D01*
X1650660Y3567480D01*
X1651540Y3568700D01*
X1652800Y3569520D01*
X1654300Y3569800D01*
X1795040Y3569800D01*
X1796579Y3569500D01*
X1797880Y3568620D01*
X1870120Y3496400D01*
X1872560Y3494380D01*
X1875200Y3492980D01*
X1878040Y3492120D01*
X1881200Y3491800D01*
X2465820Y3491800D01*
X2467300Y3491520D01*
X2468560Y3490700D01*
X2469440Y3489480D01*
X2470160Y3487919D01*
X2473020Y3483440D01*
X2476440Y3479380D01*
X2480380Y3475820D01*
X2484760Y3472820D01*
X2489500Y3470440D01*
X2494500Y3468700D01*
X2499700Y3467640D01*
X2505000Y3467280D01*
X2510300Y3467640D01*
X2515500Y3468700D01*
X2520500Y3470440D01*
X2525240Y3472820D01*
X2529620Y3475820D01*
X2533560Y3479380D01*
X2536980Y3483440D01*
X2539840Y3487919D01*
X2542060Y3492720D01*
X2543640Y3497799D01*
X2544520Y3503020D01*
X2544700Y3508320D01*
X2544160Y3513600D01*
X2542940Y3518759D01*
X2541020Y3523720D01*
X2538480Y3528380D01*
X2535340Y3532640D01*
X2531640Y3536460D01*
X2527480Y3539740D01*
X2522920Y3542440D01*
X2518020Y3544520D01*
X2512920Y3545920D01*
X2507660Y3546620D01*
X2502340Y3546620D01*
X2497080Y3545920D01*
X2491980Y3544520D01*
X2487080Y3542440D01*
X2482520Y3539740D01*
X2478360Y3536460D01*
X2474660Y3532640D01*
X2471520Y3528380D01*
X2469280Y3524280D01*
X2468380Y3523180D01*
X2467160Y3522460D01*
X2465780Y3522200D01*
X1888959Y3522200D01*
X1887420Y3522500D01*
X1886120Y3523380D01*
X1813880Y3595600D01*
X1811440Y3597620D01*
X1808800Y3599020D01*
X1805960Y3599880D01*
X1802800Y3600200D01*
X1654199Y3600200D01*
X1652720Y3600480D01*
X1651459Y3601300D01*
X1650580Y3602520D01*
X1650220Y3603980D01*
X1650420Y3605480D01*
X1651160Y3606800D01*
X1652980Y3608940D01*
X1656040Y3613620D01*
X1658460Y3618660D01*
X1660220Y3623980D01*
X1661300Y3629460D01*
X1661660Y3635040D01*
X1661300Y3640640D01*
X1660220Y3646120D01*
X1658460Y3651440D01*
X1656040Y3656480D01*
X1652980Y3661160D01*
X1649360Y3665419D01*
X1645220Y3669180D01*
X1640640Y3672380D01*
X1635680Y3674960D01*
X1630420Y3676900D01*
X1624960Y3678140D01*
X1619400Y3678680D01*
X1613800Y3678500D01*
X1608280Y3677620D01*
X1602920Y3676019D01*
X1597800Y3673759D01*
X1593020Y3670860D01*
X1588640Y3667360D01*
X1584760Y3663340D01*
X1581420Y3658860D01*
X1578660Y3654000D01*
X1576560Y3648800D01*
X1575140Y3643399D01*
X1574440Y3637840D01*
X1574440Y3632260D01*
X1575140Y3626700D01*
X1576560Y3621300D01*
X1578660Y3616100D01*
X1581420Y3611240D01*
X1584880Y3606600D01*
X1585600Y3604980D01*
X1585560Y3603240D01*
X1584760Y3601660D01*
X1583380Y3600580D01*
X1581680Y3600200D01*
X1548200Y3600200D01*
X1545040Y3599880D01*
X1542200Y3599020D01*
X1539560Y3597620D01*
X1537120Y3595600D01*
X1392920Y3451420D01*
X1391620Y3450560D01*
X1390100Y3450240D01*
X1061540Y3450240D01*
X1060080Y3450520D01*
X1058820Y3451320D01*
X1057940Y3452520D01*
X1056040Y3456480D01*
X1052980Y3461160D01*
X1049360Y3465419D01*
X1045220Y3469180D01*
X1040639Y3472380D01*
X1035680Y3474960D01*
X1030420Y3476900D01*
X1024960Y3478140D01*
X1019400Y3478680D01*
X1013800Y3478500D01*
X1008280Y3477620D01*
X1002920Y3476019D01*
X997800Y3473759D01*
X993020Y3470860D01*
X988640Y3467360D01*
X984760Y3463340D01*
X981420Y3458860D01*
X978660Y3454000D01*
X976560Y3448800D01*
X975140Y3443399D01*
X974440Y3437840D01*
X974440Y3432260D01*
X975140Y3426700D01*
X976560Y3421300D01*
X978660Y3416100D01*
X981420Y3411240D01*
X984760Y3406760D01*
X988640Y3402740D01*
X993020Y3399240D01*
X997800Y3396340D01*
X1002920Y3394080D01*
X1008280Y3392480D01*
X1013800Y3391600D01*
G37*
G36*
X81760Y3478460D02*
G01*
X199480Y3478460D01*
X202640Y3478780D01*
X205479Y3479640D01*
X208120Y3481040D01*
X210420Y3482919D01*
X212300Y3485220D01*
X213700Y3487860D01*
X214560Y3490700D01*
X214880Y3493860D01*
X214880Y3631259D01*
X214560Y3634420D01*
X213700Y3637260D01*
X212300Y3639900D01*
X210420Y3642200D01*
X208120Y3644080D01*
X205479Y3645480D01*
X202640Y3646340D01*
X199480Y3646660D01*
X81760Y3646660D01*
X78600Y3646340D01*
X75760Y3645480D01*
X73140Y3644080D01*
X70840Y3642200D01*
X68940Y3639900D01*
X67540Y3637260D01*
X66680Y3634420D01*
X66380Y3631259D01*
X66380Y3493860D01*
X66680Y3490700D01*
X67540Y3487860D01*
X68940Y3485220D01*
X70840Y3482919D01*
X73140Y3481040D01*
X75760Y3479640D01*
X78600Y3478780D01*
G37*
G36*
X1019400Y3491420D02*
G01*
X1024960Y3491960D01*
X1030420Y3493200D01*
X1035680Y3495140D01*
X1040639Y3497720D01*
X1045220Y3500920D01*
X1049360Y3504680D01*
X1052980Y3508940D01*
X1056040Y3513620D01*
X1058460Y3518660D01*
X1060220Y3523980D01*
X1061300Y3529460D01*
X1061660Y3535040D01*
X1061300Y3540640D01*
X1060220Y3546120D01*
X1058460Y3551440D01*
X1056040Y3556480D01*
X1052980Y3561160D01*
X1049360Y3565419D01*
X1045220Y3569180D01*
X1040639Y3572380D01*
X1035680Y3574960D01*
X1030420Y3576900D01*
X1024960Y3578140D01*
X1019400Y3578680D01*
X1013800Y3578500D01*
X1008280Y3577620D01*
X1002920Y3576019D01*
X997800Y3573759D01*
X993020Y3570860D01*
X988640Y3567360D01*
X984760Y3563340D01*
X981420Y3558860D01*
X978660Y3554000D01*
X976560Y3548800D01*
X975140Y3543399D01*
X974440Y3537840D01*
X974440Y3532260D01*
X975140Y3526700D01*
X976560Y3521300D01*
X978660Y3516100D01*
X981420Y3511240D01*
X984760Y3506760D01*
X988640Y3502740D01*
X993020Y3499240D01*
X997800Y3496340D01*
X1002920Y3494080D01*
X1008280Y3492480D01*
X1013800Y3491600D01*
G37*
G36*
X3020360Y3500120D02*
G01*
X3020360Y3541100D01*
X2990760Y3541100D01*
X2991420Y3537160D01*
X2993140Y3531200D01*
X2995520Y3525440D01*
X2998540Y3520000D01*
X3002140Y3514920D01*
X3006280Y3510280D01*
X3010920Y3506139D01*
X3016000Y3502540D01*
G37*
G36*
X2587300Y3500120D02*
G01*
X2587300Y3541100D01*
X2557680Y3541100D01*
X2558360Y3537160D01*
X2560080Y3531200D01*
X2562460Y3525440D01*
X2565460Y3520000D01*
X2569060Y3514920D01*
X2573220Y3510280D01*
X2577840Y3506139D01*
X2582919Y3502540D01*
G37*
G36*
X3070640Y3500120D02*
G01*
X3075020Y3502540D01*
X3080080Y3506139D01*
X3084720Y3510280D01*
X3088880Y3514920D01*
X3092480Y3520000D01*
X3095480Y3525440D01*
X3097860Y3531200D01*
X3099580Y3537160D01*
X3100260Y3541100D01*
X3070640Y3541100D01*
G37*
G36*
X362540Y3514000D02*
G01*
X368519Y3514360D01*
X374400Y3515440D01*
X380120Y3517220D01*
X385580Y3519680D01*
X390700Y3522780D01*
X395400Y3526480D01*
X399640Y3530700D01*
X403320Y3535419D01*
X406420Y3540539D01*
X408880Y3546000D01*
X410660Y3551700D01*
X411740Y3557600D01*
X412100Y3563580D01*
X411740Y3569540D01*
X410660Y3575440D01*
X408880Y3581139D01*
X406420Y3586600D01*
X403320Y3591720D01*
X399640Y3596440D01*
X395400Y3600659D01*
X390700Y3604360D01*
X385580Y3607460D01*
X380120Y3609920D01*
X374400Y3611700D01*
X368519Y3612780D01*
X362540Y3613140D01*
X356560Y3612780D01*
X350680Y3611700D01*
X344960Y3609920D01*
X339500Y3607460D01*
X334380Y3604360D01*
X329680Y3600659D01*
X325439Y3596440D01*
X321740Y3591720D01*
X318660Y3586600D01*
X316200Y3581139D01*
X314420Y3575440D01*
X313340Y3569540D01*
X312980Y3563580D01*
X313340Y3557600D01*
X314420Y3551700D01*
X316200Y3546000D01*
X318660Y3540539D01*
X321740Y3535419D01*
X325439Y3530700D01*
X329680Y3526480D01*
X334380Y3522780D01*
X339500Y3519680D01*
X344960Y3517220D01*
X350680Y3515440D01*
X356560Y3514360D01*
G37*
G36*
X2169320Y3546620D02*
G01*
X2173080Y3547120D01*
X2176720Y3548220D01*
X2180120Y3549940D01*
X2183160Y3552200D01*
X2185800Y3554940D01*
X2187920Y3558080D01*
X2189480Y3561540D01*
X2190440Y3565220D01*
X2190760Y3569000D01*
X2190440Y3572780D01*
X2189480Y3576460D01*
X2187920Y3579920D01*
X2185800Y3583060D01*
X2184720Y3584200D01*
X2183880Y3585460D01*
X2183600Y3586960D01*
X2183600Y3607400D01*
X2183280Y3610560D01*
X2182420Y3613399D01*
X2181020Y3616040D01*
X2179000Y3618480D01*
X2051879Y3745600D01*
X2049440Y3747620D01*
X2046800Y3749020D01*
X2043959Y3749880D01*
X2040800Y3750200D01*
X1661579Y3750200D01*
X1660120Y3750480D01*
X1658860Y3751259D01*
X1657960Y3752460D01*
X1656040Y3756480D01*
X1652980Y3761160D01*
X1649360Y3765419D01*
X1645220Y3769180D01*
X1640640Y3772380D01*
X1635680Y3774960D01*
X1630420Y3776900D01*
X1624960Y3778140D01*
X1619400Y3778680D01*
X1613800Y3778500D01*
X1608280Y3777620D01*
X1602920Y3776019D01*
X1597800Y3773759D01*
X1593020Y3770860D01*
X1588640Y3767360D01*
X1584760Y3763340D01*
X1581420Y3758860D01*
X1578660Y3754000D01*
X1576560Y3748800D01*
X1575140Y3743399D01*
X1574440Y3737840D01*
X1574440Y3732260D01*
X1575140Y3726700D01*
X1576560Y3721300D01*
X1578660Y3716100D01*
X1581420Y3711240D01*
X1584760Y3706760D01*
X1588640Y3702740D01*
X1593020Y3699240D01*
X1597800Y3696340D01*
X1602920Y3694080D01*
X1608280Y3692480D01*
X1613800Y3691600D01*
X1619400Y3691420D01*
X1624960Y3691960D01*
X1630420Y3693200D01*
X1635680Y3695140D01*
X1640640Y3697720D01*
X1645220Y3700920D01*
X1649360Y3704680D01*
X1652980Y3708940D01*
X1656040Y3713620D01*
X1657920Y3717540D01*
X1658800Y3718740D01*
X1660060Y3719520D01*
X1661519Y3719800D01*
X2033040Y3719800D01*
X2034580Y3719500D01*
X2035880Y3718620D01*
X2152020Y3602480D01*
X2152900Y3601180D01*
X2153200Y3599640D01*
X2153200Y3587140D01*
X2152980Y3585800D01*
X2152320Y3584620D01*
X2149820Y3581540D01*
X2147960Y3578220D01*
X2146700Y3574640D01*
X2146060Y3570899D01*
X2146060Y3567100D01*
X2146700Y3563360D01*
X2147960Y3559780D01*
X2149820Y3556460D01*
X2152200Y3553500D01*
X2155060Y3551000D01*
X2158300Y3549000D01*
X2161820Y3547600D01*
X2165520Y3546800D01*
G37*
G36*
X2505000Y3567280D02*
G01*
X2510300Y3567640D01*
X2515500Y3568700D01*
X2520500Y3570440D01*
X2525240Y3572820D01*
X2529620Y3575820D01*
X2533560Y3579380D01*
X2536980Y3583440D01*
X2539840Y3587919D01*
X2542060Y3592720D01*
X2543640Y3597799D01*
X2544520Y3603020D01*
X2544700Y3608320D01*
X2544160Y3613600D01*
X2542940Y3618759D01*
X2541020Y3623720D01*
X2538480Y3628380D01*
X2535340Y3632640D01*
X2531640Y3636460D01*
X2527480Y3639740D01*
X2522920Y3642440D01*
X2518020Y3644520D01*
X2512920Y3645920D01*
X2507660Y3646620D01*
X2502340Y3646620D01*
X2497080Y3645920D01*
X2491980Y3644520D01*
X2487080Y3642440D01*
X2482520Y3639740D01*
X2478360Y3636460D01*
X2474660Y3632640D01*
X2471520Y3628380D01*
X2468980Y3623720D01*
X2467060Y3618759D01*
X2465840Y3613600D01*
X2465300Y3608320D01*
X2465480Y3603020D01*
X2466360Y3597799D01*
X2467940Y3592720D01*
X2470160Y3587919D01*
X2473020Y3583440D01*
X2476440Y3579380D01*
X2480380Y3575820D01*
X2484760Y3572820D01*
X2489500Y3570440D01*
X2494500Y3568700D01*
X2499700Y3567640D01*
G37*
G36*
X998760Y3595920D02*
G01*
X998760Y3615820D01*
X978840Y3615820D01*
X981420Y3611240D01*
X984760Y3606760D01*
X988640Y3602740D01*
X993020Y3599240D01*
X997800Y3596340D01*
G37*
G36*
X1037240Y3595940D02*
G01*
X1040639Y3597720D01*
X1045220Y3600920D01*
X1049360Y3604680D01*
X1052980Y3608940D01*
X1056040Y3613620D01*
X1057100Y3615820D01*
X1037240Y3615820D01*
G37*
G36*
X3070640Y3624840D02*
G01*
X3100260Y3624840D01*
X3099580Y3628780D01*
X3097860Y3634760D01*
X3095480Y3640500D01*
X3092480Y3645960D01*
X3088880Y3651019D01*
X3084720Y3655659D01*
X3080080Y3659800D01*
X3075020Y3663399D01*
X3070640Y3665820D01*
G37*
G36*
X2990760Y3624840D02*
G01*
X3020360Y3624840D01*
X3020360Y3665820D01*
X3016000Y3663399D01*
X3010920Y3659800D01*
X3006280Y3655659D01*
X3002140Y3651019D01*
X2998540Y3645960D01*
X2995520Y3640500D01*
X2993140Y3634760D01*
X2991420Y3628780D01*
G37*
G36*
X2557680Y3624840D02*
G01*
X2587300Y3624840D01*
X2587300Y3665820D01*
X2582919Y3663399D01*
X2577840Y3659800D01*
X2573220Y3655659D01*
X2569060Y3651019D01*
X2565460Y3645960D01*
X2562460Y3640500D01*
X2560080Y3634760D01*
X2558360Y3628780D01*
G37*
G36*
X1037240Y3654280D02*
G01*
X1057100Y3654280D01*
X1056040Y3656480D01*
X1052980Y3661160D01*
X1049360Y3665419D01*
X1045220Y3669180D01*
X1040639Y3672380D01*
X1037240Y3674160D01*
G37*
G36*
X978840Y3654280D02*
G01*
X998760Y3654280D01*
X998760Y3674180D01*
X997800Y3673759D01*
X993020Y3670860D01*
X988640Y3667360D01*
X984760Y3663340D01*
X981420Y3658860D01*
G37*
G36*
X2522260Y3667280D02*
G01*
X2534300Y3667280D01*
X2536800Y3667559D01*
X2538940Y3668300D01*
X2540880Y3669520D01*
X2542480Y3671120D01*
X2543700Y3673060D01*
X2544440Y3675200D01*
X2544720Y3677700D01*
X2544720Y3689740D01*
X2522260Y3689740D01*
G37*
G36*
X2475700Y3667280D02*
G01*
X2487740Y3667280D01*
X2487740Y3689740D01*
X2465280Y3689740D01*
X2465280Y3677700D01*
X2465560Y3675200D01*
X2466300Y3673060D01*
X2467520Y3671120D01*
X2469120Y3669520D01*
X2471060Y3668300D01*
X2473200Y3667559D01*
G37*
G36*
X998760Y3695920D02*
G01*
X998760Y3715820D01*
X978840Y3715820D01*
X981420Y3711240D01*
X984760Y3706760D01*
X988640Y3702740D01*
X993020Y3699240D01*
X997800Y3696340D01*
G37*
G36*
X1037240Y3695940D02*
G01*
X1040639Y3697720D01*
X1045220Y3700920D01*
X1049360Y3704680D01*
X1052980Y3708940D01*
X1056040Y3713620D01*
X1057100Y3715820D01*
X1037240Y3715820D01*
G37*
G36*
X2465280Y3724260D02*
G01*
X2487740Y3724260D01*
X2487740Y3746720D01*
X2475700Y3746720D01*
X2473200Y3746440D01*
X2471060Y3745700D01*
X2469120Y3744480D01*
X2467520Y3742880D01*
X2466300Y3740940D01*
X2465560Y3738800D01*
X2465280Y3736300D01*
G37*
G36*
X2522260Y3724260D02*
G01*
X2544720Y3724260D01*
X2544720Y3736300D01*
X2544440Y3738800D01*
X2543700Y3740940D01*
X2542480Y3742880D01*
X2540880Y3744480D01*
X2538940Y3745700D01*
X2536800Y3746440D01*
X2534300Y3746720D01*
X2522260Y3746720D01*
G37*
G36*
X1037240Y3754280D02*
G01*
X1057100Y3754280D01*
X1056040Y3756480D01*
X1052980Y3761160D01*
X1049360Y3765419D01*
X1045220Y3769180D01*
X1040639Y3772380D01*
X1037240Y3774160D01*
G37*
G36*
X978840Y3754280D02*
G01*
X998760Y3754280D01*
X998760Y3774180D01*
X997800Y3773759D01*
X993020Y3770860D01*
X988640Y3767360D01*
X984760Y3763340D01*
X981420Y3758860D01*
G37*
G36*
X1019400Y3791420D02*
G01*
X1024960Y3791960D01*
X1030420Y3793200D01*
X1035680Y3795140D01*
X1040639Y3797720D01*
X1045220Y3800920D01*
X1049360Y3804680D01*
X1052980Y3808940D01*
X1056040Y3813620D01*
X1058460Y3818660D01*
X1060220Y3823980D01*
X1061300Y3829460D01*
X1061660Y3835040D01*
X1061300Y3840640D01*
X1060220Y3846120D01*
X1058460Y3851440D01*
X1056040Y3856480D01*
X1052980Y3861160D01*
X1049360Y3865419D01*
X1045220Y3869180D01*
X1040639Y3872380D01*
X1035680Y3874960D01*
X1030420Y3876900D01*
X1024960Y3878140D01*
X1019400Y3878680D01*
X1013800Y3878500D01*
X1008280Y3877620D01*
X1002920Y3876019D01*
X997800Y3873759D01*
X993020Y3870860D01*
X988640Y3867360D01*
X984760Y3863340D01*
X981420Y3858860D01*
X978660Y3854000D01*
X976560Y3848800D01*
X975140Y3843399D01*
X974440Y3837840D01*
X974440Y3832260D01*
X975140Y3826700D01*
X976560Y3821300D01*
X978660Y3816100D01*
X981420Y3811240D01*
X984760Y3806760D01*
X988640Y3802740D01*
X993020Y3799240D01*
X997800Y3796340D01*
X1002920Y3794080D01*
X1008280Y3792480D01*
X1013800Y3791600D01*
G37*
G36*
X1598760Y3795920D02*
G01*
X1598760Y3815820D01*
X1578839Y3815820D01*
X1581420Y3811240D01*
X1584760Y3806760D01*
X1588640Y3802740D01*
X1593020Y3799240D01*
X1597800Y3796340D01*
G37*
G36*
X1637240Y3795940D02*
G01*
X1640640Y3797720D01*
X1645220Y3800920D01*
X1649360Y3804680D01*
X1652980Y3808940D01*
X1656040Y3813620D01*
X1657100Y3815820D01*
X1637240Y3815820D01*
G37*
G36*
X2926100Y3813020D02*
G01*
X2931840Y3813020D01*
X2937520Y3813740D01*
X2943060Y3815179D01*
X2948399Y3817280D01*
X2953420Y3820040D01*
X2958060Y3823420D01*
X2962220Y3827340D01*
X2965880Y3831740D01*
X2968960Y3836580D01*
X2971400Y3841760D01*
X2973159Y3847220D01*
X2974240Y3852840D01*
X2974600Y3858560D01*
X2974240Y3864280D01*
X2973159Y3869920D01*
X2971400Y3875360D01*
X2968960Y3880539D01*
X2965880Y3885380D01*
X2962220Y3889800D01*
X2958060Y3893720D01*
X2953420Y3897080D01*
X2948399Y3899840D01*
X2943060Y3901960D01*
X2937520Y3903380D01*
X2931840Y3904100D01*
X2926100Y3904100D01*
X2920419Y3903380D01*
X2914880Y3901960D01*
X2909540Y3899840D01*
X2904520Y3897080D01*
X2899880Y3893720D01*
X2895700Y3889800D01*
X2892060Y3885380D01*
X2888980Y3880539D01*
X2886540Y3875360D01*
X2884780Y3869920D01*
X2883700Y3864280D01*
X2883340Y3858560D01*
X2883700Y3852840D01*
X2884780Y3847220D01*
X2886540Y3841760D01*
X2888980Y3836580D01*
X2892060Y3831740D01*
X2895700Y3827340D01*
X2899880Y3823420D01*
X2904520Y3820040D01*
X2909540Y3817280D01*
X2914880Y3815179D01*
X2920419Y3813740D01*
G37*
G36*
X1637240Y3854280D02*
G01*
X1657100Y3854280D01*
X1656040Y3856480D01*
X1652980Y3861160D01*
X1649360Y3865419D01*
X1645220Y3869180D01*
X1640640Y3872380D01*
X1637240Y3874160D01*
G37*
G36*
X1578839Y3854280D02*
G01*
X1598760Y3854280D01*
X1598760Y3874180D01*
X1597800Y3873759D01*
X1593020Y3870860D01*
X1588640Y3867360D01*
X1584760Y3863340D01*
X1581420Y3858860D01*
G37*
G36*
X1584760Y3894840D02*
G01*
X1651240Y3894840D01*
X1653720Y3895140D01*
X1655880Y3895880D01*
X1657800Y3897100D01*
X1659420Y3898700D01*
X1660640Y3900640D01*
X1661380Y3902780D01*
X1661660Y3905280D01*
X1661660Y3964820D01*
X1661380Y3967320D01*
X1660640Y3969460D01*
X1659420Y3971400D01*
X1657800Y3973000D01*
X1655880Y3974220D01*
X1653720Y3974960D01*
X1651240Y3975240D01*
X1584760Y3975240D01*
X1582280Y3974960D01*
X1580120Y3974220D01*
X1578200Y3973000D01*
X1576579Y3971400D01*
X1575360Y3969460D01*
X1574620Y3967320D01*
X1574340Y3964820D01*
X1574340Y3905280D01*
X1574620Y3902780D01*
X1575360Y3900640D01*
X1576579Y3898700D01*
X1578200Y3897100D01*
X1580120Y3895880D01*
X1582280Y3895140D01*
G37*
G36*
X984760Y3894840D02*
G01*
X1051240Y3894840D01*
X1053720Y3895140D01*
X1055880Y3895880D01*
X1057800Y3897100D01*
X1059420Y3898700D01*
X1060640Y3900640D01*
X1061380Y3902780D01*
X1061660Y3905280D01*
X1061660Y3964820D01*
X1061380Y3967320D01*
X1060640Y3969460D01*
X1059420Y3971400D01*
X1057800Y3973000D01*
X1055880Y3974220D01*
X1053720Y3974960D01*
X1051240Y3975240D01*
X984760Y3975240D01*
X982280Y3974960D01*
X980120Y3974220D01*
X978199Y3973000D01*
X976580Y3971400D01*
X975360Y3969460D01*
X974620Y3967320D01*
X974340Y3964820D01*
X974340Y3905280D01*
X974620Y3902780D01*
X975360Y3900640D01*
X976580Y3898700D01*
X978199Y3897100D01*
X980120Y3895880D01*
X982280Y3895140D01*
G37*

%LPD*%
D10*
X2355000Y770999D02*
G01*
X2558999Y770999D01*
X2648000Y681999D01*
X2886999Y681999D01*
X3028500Y823499D01*
X2025000Y3388000D02*
G01*
X2486000Y3388000D01*
X2505000Y3406999D01*
X319000Y3169000D02*
G01*
X319000Y3501999D01*
X288000Y3533000D01*
X288000Y3750999D01*
X419000Y3881999D01*
X603000Y3881999D01*
X676499Y3808499D01*
X676499Y3778600D01*
X2025000Y3285000D02*
G01*
X2205000Y3285000D01*
X1062550Y1862539D02*
G01*
X1060892Y1862539D01*
X998000Y1925432D01*
X1062500Y1112500D02*
G01*
X998000Y1177399D01*
X1062500Y2612500D02*
G01*
X1061499Y2612500D01*
X998000Y2549000D01*
X998000Y886999D01*
X971000Y860000D01*
X861999Y860000D01*
X806000Y804000D01*
X806000Y518000D01*
X689099Y401100D01*
X689099Y361100D01*
X312539Y2612550D02*
G01*
X298550Y2612550D01*
X271999Y2585999D01*
X271999Y1153090D01*
X312550Y1112539D01*
X312550Y1862539D02*
G01*
X312550Y1870061D01*
X271999Y1910610D01*
X1812550Y1112539D02*
G01*
X1812550Y1114913D01*
X1733999Y1193463D01*
X1812500Y1862500D02*
G01*
X1733999Y1940599D01*
X1812600Y2612500D02*
G01*
X1733999Y2691100D01*
X1733999Y3305999D01*
X1705000Y3335000D01*
X1618000Y3335000D01*
X1733999Y2691100D02*
G01*
X1733999Y441089D01*
X1812550Y362539D01*
X2516999Y3020016D02*
G01*
X2516999Y1908130D01*
X2562590Y1862539D01*
X2728969Y3858560D02*
G01*
X2731000Y3856529D01*
X2731000Y3771999D01*
X2668999Y3710000D01*
X2668999Y3283000D01*
X2516999Y3130999D01*
X2516999Y3020016D01*
X2562600Y1862500D02*
G01*
X2650000Y1775000D01*
X2650000Y1225000D01*
X2612500Y1187500D01*
X2562600Y2621999D02*
G01*
X2516999Y2666599D01*
X688000Y3860999D02*
G01*
X770000Y3860999D01*
X890000Y3740999D01*
X890000Y3463049D01*
X1018000Y3335050D01*
X830000Y3558000D02*
G01*
X830000Y3388000D01*
X773000Y3330999D01*
X640000Y3330999D01*
X593000Y3378000D01*
X140630Y3241950D02*
G01*
X140630Y3174369D01*
X178000Y3136999D01*
X911000Y3136999D01*
X958999Y3185000D01*
X1281999Y3185000D01*
X1548000Y3115000D02*
G01*
X1548000Y2905050D01*
X1618000Y2835050D01*
X2168400Y3569000D02*
G01*
X2168400Y3607600D01*
X2041000Y3735000D01*
X1618000Y3735000D01*
X1018000Y3435050D02*
G01*
X1398050Y3435050D01*
X1548000Y3585000D01*
X1803000Y3585000D01*
X1881000Y3506999D01*
X2505000Y3506999D01*
X890600Y2470300D02*
G01*
X890600Y3007700D01*
X1018000Y3135000D01*
X1018000Y3035000D02*
G01*
X1001000Y3035000D01*
X916000Y2950000D01*
X916000Y1745599D01*
X890600Y1720300D01*
X1018000Y2935050D02*
G01*
X1015050Y2935050D01*
X943999Y2864000D01*
X943999Y1023609D01*
X890640Y970250D01*
X1018000Y2835050D02*
G01*
X1018000Y2720999D01*
X968999Y2671999D01*
X968999Y1085000D01*
X1606400Y334699D02*
G01*
X1606400Y886599D01*
X1496999Y995999D01*
X2176549Y778539D02*
G01*
X2198459Y778539D01*
X2371999Y605000D01*
X2371999Y500000D01*
X2558999Y313000D01*
X2780820Y313000D01*
X2859440Y234380D01*
X271999Y2474481D02*
G01*
X271999Y3033000D01*
X1618000Y3435000D02*
G01*
X1498100Y3435000D01*
X1373000Y3310000D01*
X1373000Y3161999D01*
X1318999Y3108000D01*
X1236999Y3108000D01*
X1200000Y3070999D01*
X1200000Y2750000D01*
X1062500Y2612500D01*
X1944549Y2278530D02*
G01*
X1944549Y2012449D01*
X2043000Y1914000D01*
X2043000Y1708000D01*
X1948999Y1614000D01*
X1948999Y1532979D01*
X1944549Y1528530D01*
X1944549Y1528530D02*
G01*
X1944549Y1267449D01*
X2056999Y1155000D01*
X2056999Y1010000D01*
X1946000Y899000D01*
X1946000Y779980D01*
X1944549Y778530D01*
X1944600Y3028499D02*
G01*
X1944600Y2763400D01*
X2061999Y2645999D01*
X2061999Y2499000D01*
X1944600Y2381500D01*
X1944600Y2278499D01*
X1194600Y1528499D02*
G01*
X1193999Y1660999D01*
X1194551Y2278530D02*
G01*
X1194551Y2415448D01*
X1193999Y2415999D01*
D11*
G01*
X2959436Y234379D03*
D12*
G01*
X2859440Y234380D03*
G01*
X2759440Y234380D03*
D13*
G01*
X461509Y1862489D03*
G01*
X711509Y1962489D03*
D14*
G01*
X562489Y2062500D03*
D15*
G01*
X762510Y2063490D03*
G01*
X362510Y2063490D03*
D13*
G01*
X1211509Y1862489D03*
G01*
X1461509Y1962489D03*
D14*
G01*
X1312489Y2062500D03*
D15*
G01*
X1512510Y2063490D03*
G01*
X1112510Y2063490D03*
D13*
G01*
X1961509Y1862489D03*
G01*
X2211509Y1962489D03*
D14*
G01*
X2062489Y2062500D03*
D15*
G01*
X2262510Y2063490D03*
G01*
X1862510Y2063490D03*
D13*
G01*
X2711610Y1862489D03*
G01*
X2961610Y1962489D03*
D14*
G01*
X2812590Y2062500D03*
D15*
G01*
X3012610Y2063490D03*
G01*
X2612610Y2063490D03*
D13*
G01*
X461509Y1112489D03*
G01*
X711509Y1212489D03*
D14*
G01*
X562489Y1312500D03*
D15*
G01*
X762510Y1313490D03*
G01*
X362510Y1313490D03*
D13*
G01*
X1211509Y1112489D03*
G01*
X1461509Y1212489D03*
D14*
G01*
X1312489Y1312500D03*
D15*
G01*
X1512510Y1313490D03*
G01*
X1112510Y1313490D03*
D13*
G01*
X1961509Y1112489D03*
G01*
X2211509Y1212489D03*
D14*
G01*
X2062489Y1312500D03*
D15*
G01*
X2262510Y1313490D03*
G01*
X1862510Y1313490D03*
D13*
G01*
X2612479Y1038479D03*
G01*
X2712479Y788479D03*
D14*
G01*
X2812489Y937500D03*
D15*
G01*
X2813479Y737480D03*
G01*
X2813479Y1137480D03*
D13*
G01*
X838109Y361089D03*
G01*
X1088109Y461089D03*
D14*
G01*
X939089Y561100D03*
D15*
G01*
X1139110Y562089D03*
G01*
X739110Y562089D03*
D13*
G01*
X1961509Y362489D03*
G01*
X2211509Y462489D03*
D14*
G01*
X2062489Y562500D03*
D15*
G01*
X2262510Y563490D03*
G01*
X1862510Y563490D03*
D16*
G01*
X2505000Y3706999D03*
D17*
G01*
X2505000Y3606999D03*
G01*
X2505000Y3506999D03*
G01*
X2505000Y3406999D03*
D18*
G01*
X1618000Y3935050D03*
D19*
G01*
X1618000Y3835050D03*
G01*
X1618000Y3735050D03*
G01*
X1618000Y3635050D03*
G01*
X1618000Y3535050D03*
G01*
X1618000Y3435050D03*
G01*
X1618000Y3335050D03*
G01*
X1618000Y3235050D03*
G01*
X1618000Y3135050D03*
G01*
X1618000Y3035050D03*
G01*
X1618000Y2935050D03*
G01*
X1618000Y2835050D03*
D18*
G01*
X1018000Y3935050D03*
D19*
G01*
X1018000Y3835050D03*
G01*
X1018000Y3735050D03*
G01*
X1018000Y3635050D03*
G01*
X1018000Y3535050D03*
G01*
X1018000Y3435050D03*
G01*
X1018000Y3335050D03*
G01*
X1018000Y3235050D03*
G01*
X1018000Y3135050D03*
G01*
X1018000Y3035050D03*
G01*
X1018000Y2935050D03*
G01*
X1018000Y2835050D03*
D13*
G01*
X461530Y3362570D03*
G01*
X711530Y3462570D03*
D14*
G01*
X562510Y3562579D03*
D15*
G01*
X762529Y3563569D03*
G01*
X362530Y3563569D03*
D13*
G01*
X461530Y2612550D03*
G01*
X711530Y2712550D03*
D14*
G01*
X562510Y2812559D03*
D15*
G01*
X762529Y2813550D03*
G01*
X362530Y2813550D03*
D13*
G01*
X1211549Y2612550D03*
G01*
X1461549Y2712550D03*
D14*
G01*
X1312529Y2812559D03*
D15*
G01*
X1512550Y2813550D03*
G01*
X1112550Y2813550D03*
D13*
G01*
X1961559Y2612550D03*
G01*
X2211559Y2712550D03*
D14*
G01*
X2062539Y2812559D03*
D15*
G01*
X2262560Y2813550D03*
G01*
X1862560Y2813550D03*
D13*
G01*
X2711580Y2612550D03*
G01*
X2961580Y2712550D03*
D14*
G01*
X2812560Y2812559D03*
D15*
G01*
X3012579Y2813550D03*
G01*
X2612579Y2813550D03*
D20*
G01*
X2728969Y3287689D03*
G01*
X2828969Y3287689D03*
G01*
X2928969Y3287689D03*
G01*
X2728969Y3858560D03*
G01*
X2928969Y3858560D03*
D21*
G01*
X3045510Y3582970D03*
G01*
X2612439Y3582970D03*
D22*
G01*
X3028530Y823519D03*
G01*
X2355000Y770999D03*
G01*
X319000Y3169000D03*
G01*
X676540Y3778569D03*
G01*
X2025000Y3388000D03*
G01*
X2025000Y3285000D03*
G01*
X2205000Y3285000D03*
G01*
X1062550Y2612550D03*
G01*
X1062550Y1862539D03*
G01*
X312550Y1862539D03*
G01*
X312539Y2612550D03*
G01*
X1812569Y2612550D03*
G01*
X1812550Y1862539D03*
G01*
X2562590Y1862539D03*
G01*
X2562590Y2621959D03*
G01*
X312550Y1112539D03*
G01*
X1062550Y1112539D03*
G01*
X1812550Y1112539D03*
G01*
X689080Y361060D03*
G01*
X1812550Y362539D03*
G01*
X2612520Y1187519D03*
G01*
X2516999Y3020019D03*
G01*
X688000Y3860999D03*
G01*
X830000Y3558000D03*
G01*
X593000Y3378000D03*
G01*
X890640Y2470279D03*
G01*
X890640Y1720270D03*
G01*
X140630Y3241950D03*
G01*
X1281999Y3185000D03*
G01*
X1548000Y3115000D03*
G01*
X2168370Y3569000D03*
G01*
X890640Y970250D03*
G01*
X968999Y1085000D03*
G01*
X1496999Y995999D03*
G01*
X1606400Y334699D03*
G01*
X2176549Y778539D03*
G01*
X271999Y3033000D03*
G01*
X1944549Y1528530D03*
G01*
X1944549Y778530D03*
G01*
X1944549Y2278530D03*
G01*
X1944570Y3028550D03*
G01*
X1194549Y1528530D03*
G01*
X1193999Y1660999D03*
G01*
X1194549Y2278530D03*
G01*
X1193999Y2415999D03*
M02*
