G04 Layer: BottomSilkscreenLayer*
G04 EasyEDA v6.5.48, 2025-01-23 00:24:19*
G04 679677d7e51945128001c62092012e12,98668e1c1e3843b3a942620e40044077,10*
G04 Gerber Generator version 0.2*
G04 Scale: 100 percent, Rotated: No, Reflected: No *
G04 Dimensions in inches *
G04 leading zeros omitted , absolute positions ,3 integer and 6 decimal *
%FSLAX36Y36*%
%MOIN*%

%ADD10C,0.0060*%
%ADD11C,0.0020*%
%ADD12C,0.0098*%
%ADD13C,0.0100*%
%ADD14C,0.0079*%
%ADD15C,0.0139*%

%LPD*%
D10*
X2569499Y3302190D02*
G01*
X2569499Y3259236D01*
X2540864Y3302190D02*
G01*
X2569499Y3273555D01*
X2559273Y3283782D02*
G01*
X2540864Y3259236D01*
X2527363Y3302190D02*
G01*
X2527363Y3259236D01*
X2527363Y3302190D02*
G01*
X2500772Y3302190D01*
X2527363Y3281736D02*
G01*
X2511000Y3281736D01*
X2527363Y3259236D02*
G01*
X2500772Y3259236D01*
X2487272Y3302190D02*
G01*
X2470909Y3281736D01*
X2470909Y3259236D01*
X2454544Y3302190D02*
G01*
X2470909Y3281736D01*
X2416499Y3296055D02*
G01*
X2418545Y3300145D01*
X2424682Y3302190D01*
X2428773Y3302190D01*
X2434908Y3300145D01*
X2438999Y3294009D01*
X2441045Y3283782D01*
X2441045Y3273555D01*
X2438999Y3265372D01*
X2434908Y3261282D01*
X2428773Y3259236D01*
X2426727Y3259236D01*
X2420591Y3261282D01*
X2416499Y3265372D01*
X2414454Y3271509D01*
X2414454Y3273555D01*
X2416499Y3279690D01*
X2420591Y3283782D01*
X2426727Y3285826D01*
X2428773Y3285826D01*
X2434908Y3283782D01*
X2438999Y3279690D01*
X2441045Y3273555D01*
X2283062Y3199919D02*
G01*
X2283062Y3156965D01*
X2283062Y3199919D02*
G01*
X2264652Y3199919D01*
X2258517Y3197874D01*
X2256471Y3195828D01*
X2254426Y3191736D01*
X2254426Y3187645D01*
X2256471Y3183555D01*
X2258517Y3181509D01*
X2264652Y3179465D01*
X2283062Y3179465D01*
X2268743Y3179465D02*
G01*
X2254426Y3156965D01*
X2240925Y3191736D02*
G01*
X2236835Y3193782D01*
X2230698Y3199919D01*
X2230698Y3156965D01*
X187500Y3186098D02*
G01*
X187500Y3143144D01*
X187500Y3186098D02*
G01*
X169090Y3186098D01*
X162955Y3184054D01*
X160909Y3182008D01*
X158863Y3177917D01*
X158863Y3173825D01*
X160909Y3169735D01*
X162955Y3167689D01*
X169090Y3165644D01*
X187500Y3165644D01*
X173182Y3165644D02*
G01*
X158863Y3143144D01*
X143317Y3175871D02*
G01*
X143317Y3177917D01*
X141273Y3182008D01*
X139227Y3184054D01*
X135136Y3186098D01*
X126954Y3186098D01*
X122863Y3184054D01*
X120817Y3182008D01*
X118773Y3177917D01*
X118773Y3173825D01*
X120817Y3169735D01*
X124908Y3163598D01*
X145363Y3143144D01*
X116727Y3143144D01*
X937520Y3186091D02*
G01*
X937520Y3143191D01*
X937520Y3186091D02*
G01*
X923220Y3186091D01*
X917020Y3184092D01*
X913019Y3179992D01*
X910919Y3175891D01*
X908919Y3169692D01*
X908919Y3159492D01*
X910919Y3153391D01*
X913019Y3149292D01*
X917020Y3145192D01*
X923220Y3143191D01*
X937520Y3143191D01*
X895420Y3177892D02*
G01*
X891319Y3179992D01*
X885119Y3186091D01*
X885119Y3143191D01*
X3187568Y3186091D02*
G01*
X3187568Y3143191D01*
X3187568Y3186091D02*
G01*
X3173267Y3186091D01*
X3167067Y3184092D01*
X3163068Y3179992D01*
X3160968Y3175891D01*
X3158968Y3169692D01*
X3158968Y3159492D01*
X3160968Y3153391D01*
X3163068Y3149292D01*
X3167067Y3145192D01*
X3173267Y3143191D01*
X3187568Y3143191D01*
X3143368Y3175891D02*
G01*
X3143368Y3177892D01*
X3141368Y3181992D01*
X3139268Y3184092D01*
X3135168Y3186091D01*
X3127067Y3186091D01*
X3122968Y3184092D01*
X3120868Y3181992D01*
X3118868Y3177892D01*
X3118868Y3173791D01*
X3120868Y3169692D01*
X3124967Y3163591D01*
X3145468Y3143191D01*
X3116768Y3143191D01*
X927614Y2431424D02*
G01*
X927614Y2388524D01*
X927614Y2431424D02*
G01*
X913314Y2431424D01*
X907114Y2429423D01*
X903113Y2425324D01*
X901013Y2421224D01*
X899013Y2415023D01*
X899013Y2404823D01*
X901013Y2398724D01*
X903113Y2394623D01*
X907114Y2390524D01*
X913314Y2388524D01*
X927614Y2388524D01*
X881414Y2431424D02*
G01*
X858914Y2431424D01*
X871113Y2415023D01*
X865014Y2415023D01*
X860914Y2413024D01*
X858914Y2411024D01*
X856814Y2404823D01*
X856814Y2400724D01*
X858914Y2394623D01*
X863014Y2390524D01*
X869113Y2388524D01*
X875213Y2388524D01*
X881414Y2390524D01*
X883414Y2392523D01*
X885514Y2396624D01*
X1677676Y2425518D02*
G01*
X1677676Y2382618D01*
X1677676Y2425518D02*
G01*
X1663375Y2425518D01*
X1657175Y2423517D01*
X1653176Y2419418D01*
X1651076Y2415318D01*
X1649075Y2409117D01*
X1649075Y2398917D01*
X1651076Y2392818D01*
X1653176Y2388717D01*
X1657175Y2384618D01*
X1663375Y2382618D01*
X1677676Y2382618D01*
X1615075Y2425518D02*
G01*
X1635576Y2396918D01*
X1604876Y2396918D01*
X1615075Y2425518D02*
G01*
X1615075Y2382618D01*
X2437551Y2436075D02*
G01*
X2437551Y2393175D01*
X2437551Y2436075D02*
G01*
X2423252Y2436075D01*
X2417052Y2434076D01*
X2413051Y2429976D01*
X2410951Y2425875D01*
X2408951Y2419675D01*
X2408951Y2409475D01*
X2410951Y2403375D01*
X2413051Y2399276D01*
X2417052Y2395176D01*
X2423252Y2393175D01*
X2437551Y2393175D01*
X2370852Y2436075D02*
G01*
X2391351Y2436075D01*
X2393352Y2417676D01*
X2391351Y2419675D01*
X2385151Y2421776D01*
X2379052Y2421776D01*
X2372951Y2419675D01*
X2368851Y2415675D01*
X2366751Y2409475D01*
X2366751Y2405376D01*
X2368851Y2399276D01*
X2372951Y2395176D01*
X2379052Y2393175D01*
X2385151Y2393175D01*
X2391351Y2395176D01*
X2393352Y2397175D01*
X2395451Y2401275D01*
X3187568Y2436075D02*
G01*
X3187568Y2393175D01*
X3187568Y2436075D02*
G01*
X3173267Y2436075D01*
X3167067Y2434076D01*
X3163068Y2429976D01*
X3160968Y2425875D01*
X3158968Y2419675D01*
X3158968Y2409475D01*
X3160968Y2403375D01*
X3163068Y2399276D01*
X3167067Y2395176D01*
X3173267Y2393175D01*
X3187568Y2393175D01*
X3120868Y2429976D02*
G01*
X3122968Y2434076D01*
X3129067Y2436075D01*
X3133167Y2436075D01*
X3139268Y2434076D01*
X3143368Y2427876D01*
X3145468Y2417676D01*
X3145468Y2407476D01*
X3143368Y2399276D01*
X3139268Y2395176D01*
X3133167Y2393175D01*
X3131067Y2393175D01*
X3124967Y2395176D01*
X3120868Y2399276D01*
X3118868Y2405376D01*
X3118868Y2407476D01*
X3120868Y2413575D01*
X3124967Y2417676D01*
X3131067Y2419675D01*
X3133167Y2419675D01*
X3139268Y2417676D01*
X3143368Y2413575D01*
X3145468Y2407476D01*
X937520Y1686060D02*
G01*
X937520Y1643159D01*
X937520Y1686060D02*
G01*
X923220Y1686060D01*
X917020Y1684059D01*
X913019Y1679960D01*
X910919Y1675859D01*
X908919Y1669659D01*
X908919Y1659459D01*
X910919Y1653359D01*
X913019Y1649259D01*
X917020Y1645160D01*
X923220Y1643159D01*
X937520Y1643159D01*
X866719Y1686060D02*
G01*
X887219Y1643159D01*
X895420Y1686060D02*
G01*
X866719Y1686060D01*
X1687536Y1686060D02*
G01*
X1687536Y1643159D01*
X1687536Y1686060D02*
G01*
X1673235Y1686060D01*
X1667035Y1684059D01*
X1663036Y1679960D01*
X1660936Y1675859D01*
X1658936Y1669659D01*
X1658936Y1659459D01*
X1660936Y1653359D01*
X1663036Y1649259D01*
X1667035Y1645160D01*
X1673235Y1643159D01*
X1687536Y1643159D01*
X1635136Y1686060D02*
G01*
X1641336Y1684059D01*
X1643335Y1679960D01*
X1643335Y1675859D01*
X1641336Y1671759D01*
X1637236Y1669659D01*
X1629035Y1667660D01*
X1622935Y1665659D01*
X1618836Y1661559D01*
X1616736Y1657460D01*
X1616736Y1651260D01*
X1618836Y1647159D01*
X1620835Y1645160D01*
X1627035Y1643159D01*
X1635136Y1643159D01*
X1641336Y1645160D01*
X1643335Y1647159D01*
X1645435Y1651260D01*
X1645435Y1657460D01*
X1643335Y1661559D01*
X1639236Y1665659D01*
X1633136Y1667660D01*
X1624935Y1669659D01*
X1620835Y1671759D01*
X1618836Y1675859D01*
X1618836Y1679960D01*
X1620835Y1684059D01*
X1627035Y1686060D01*
X1635136Y1686060D01*
X2437551Y1686060D02*
G01*
X2437551Y1643159D01*
X2437551Y1686060D02*
G01*
X2423252Y1686060D01*
X2417052Y1684059D01*
X2413051Y1679960D01*
X2410951Y1675859D01*
X2408951Y1669659D01*
X2408951Y1659459D01*
X2410951Y1653359D01*
X2413051Y1649259D01*
X2417052Y1645160D01*
X2423252Y1643159D01*
X2437551Y1643159D01*
X2368851Y1671759D02*
G01*
X2370852Y1665659D01*
X2374952Y1661559D01*
X2381051Y1659459D01*
X2383152Y1659459D01*
X2389251Y1661559D01*
X2393352Y1665659D01*
X2395451Y1671759D01*
X2395451Y1673760D01*
X2393352Y1679960D01*
X2389251Y1684059D01*
X2383152Y1686060D01*
X2381051Y1686060D01*
X2374952Y1684059D01*
X2370852Y1679960D01*
X2368851Y1671759D01*
X2368851Y1661559D01*
X2370852Y1651260D01*
X2374952Y1645160D01*
X2381051Y1643159D01*
X2385151Y1643159D01*
X2391351Y1645160D01*
X2393352Y1649259D01*
X3187568Y1686060D02*
G01*
X3187568Y1643159D01*
X3187568Y1686060D02*
G01*
X3173267Y1686060D01*
X3167067Y1684059D01*
X3163068Y1679960D01*
X3160968Y1675859D01*
X3158968Y1669659D01*
X3158968Y1659459D01*
X3160968Y1653359D01*
X3163068Y1649259D01*
X3167067Y1645160D01*
X3173267Y1643159D01*
X3187568Y1643159D01*
X3145468Y1677860D02*
G01*
X3141368Y1679960D01*
X3135168Y1686060D01*
X3135168Y1643159D01*
X3109467Y1686060D02*
G01*
X3115568Y1684059D01*
X3119668Y1677860D01*
X3121667Y1667660D01*
X3121667Y1661559D01*
X3119668Y1651260D01*
X3115568Y1645160D01*
X3109467Y1643159D01*
X3105367Y1643159D01*
X3099167Y1645160D01*
X3095068Y1651260D01*
X3093068Y1661559D01*
X3093068Y1667660D01*
X3095068Y1677860D01*
X3099167Y1684059D01*
X3105367Y1686060D01*
X3109467Y1686060D01*
X937520Y936044D02*
G01*
X937520Y893144D01*
X937520Y936044D02*
G01*
X923220Y936044D01*
X917020Y934043D01*
X913019Y929944D01*
X910919Y925844D01*
X908919Y919643D01*
X908919Y909443D01*
X910919Y903344D01*
X913019Y899243D01*
X917020Y895144D01*
X923220Y893144D01*
X937520Y893144D01*
X895420Y927844D02*
G01*
X891319Y929944D01*
X885119Y936044D01*
X885119Y893144D01*
X871620Y927844D02*
G01*
X867520Y929944D01*
X861419Y936044D01*
X861419Y893144D01*
X1687536Y936044D02*
G01*
X1687536Y893144D01*
X1687536Y936044D02*
G01*
X1673235Y936044D01*
X1667035Y934043D01*
X1663036Y929944D01*
X1660936Y925844D01*
X1658936Y919643D01*
X1658936Y909443D01*
X1660936Y903344D01*
X1663036Y899243D01*
X1667035Y895144D01*
X1673235Y893144D01*
X1687536Y893144D01*
X1645435Y927844D02*
G01*
X1641336Y929944D01*
X1635136Y936044D01*
X1635136Y893144D01*
X1619636Y925844D02*
G01*
X1619636Y927844D01*
X1617536Y931943D01*
X1615536Y934043D01*
X1611436Y936044D01*
X1603235Y936044D01*
X1599135Y934043D01*
X1597136Y931943D01*
X1595036Y927844D01*
X1595036Y923744D01*
X1597136Y919643D01*
X1601235Y913544D01*
X1621635Y893144D01*
X1593036Y893144D01*
X2437551Y936044D02*
G01*
X2437551Y893144D01*
X2437551Y936044D02*
G01*
X2423252Y936044D01*
X2417052Y934043D01*
X2413051Y929944D01*
X2410951Y925844D01*
X2408951Y919643D01*
X2408951Y909443D01*
X2410951Y903344D01*
X2413051Y899243D01*
X2417052Y895144D01*
X2423252Y893144D01*
X2437551Y893144D01*
X2395451Y927844D02*
G01*
X2391351Y929944D01*
X2385151Y936044D01*
X2385151Y893144D01*
X2367551Y936044D02*
G01*
X2345051Y936044D01*
X2357352Y919643D01*
X2351252Y919643D01*
X2347151Y917644D01*
X2345051Y915644D01*
X2343051Y909443D01*
X2343051Y905344D01*
X2345051Y899243D01*
X2349152Y895144D01*
X2355352Y893144D01*
X2361451Y893144D01*
X2367551Y895144D01*
X2369651Y897143D01*
X2371652Y901244D01*
X2521862Y842710D02*
G01*
X2521862Y799810D01*
X2521862Y842710D02*
G01*
X2507561Y842710D01*
X2501361Y840709D01*
X2497362Y836610D01*
X2495262Y832510D01*
X2493262Y826309D01*
X2493262Y816109D01*
X2495262Y810010D01*
X2497362Y805909D01*
X2501361Y801810D01*
X2507561Y799810D01*
X2521862Y799810D01*
X2479762Y834510D02*
G01*
X2475662Y836610D01*
X2469462Y842710D01*
X2469462Y799810D01*
X2435562Y842710D02*
G01*
X2455961Y814110D01*
X2425361Y814110D01*
X2435562Y842710D02*
G01*
X2435562Y799810D01*
X1647773Y305264D02*
G01*
X1647773Y262363D01*
X1647773Y305264D02*
G01*
X1633473Y305264D01*
X1627273Y303263D01*
X1623274Y299164D01*
X1621174Y295064D01*
X1619174Y288863D01*
X1619174Y278663D01*
X1621174Y272564D01*
X1623274Y268463D01*
X1627273Y264364D01*
X1633473Y262363D01*
X1647773Y262363D01*
X1605673Y297064D02*
G01*
X1601574Y299164D01*
X1595374Y305264D01*
X1595374Y262363D01*
X1557373Y305264D02*
G01*
X1577773Y305264D01*
X1579873Y286864D01*
X1577773Y288863D01*
X1571674Y290963D01*
X1565573Y290963D01*
X1559373Y288863D01*
X1555273Y284863D01*
X1553274Y278663D01*
X1553274Y274564D01*
X1555273Y268463D01*
X1559373Y264364D01*
X1565573Y262363D01*
X1571674Y262363D01*
X1577773Y264364D01*
X1579873Y266363D01*
X1581873Y270464D01*
X2436000Y190399D02*
G01*
X2436000Y147500D01*
X2436000Y190399D02*
G01*
X2421700Y190399D01*
X2415500Y188400D01*
X2411499Y184299D01*
X2409399Y180199D01*
X2407399Y174000D01*
X2407399Y163800D01*
X2409399Y157699D01*
X2411499Y153600D01*
X2415500Y149499D01*
X2421700Y147500D01*
X2436000Y147500D01*
X2393900Y182199D02*
G01*
X2389799Y184299D01*
X2383599Y190399D01*
X2383599Y147500D01*
X2345600Y184299D02*
G01*
X2347600Y188400D01*
X2353800Y190399D01*
X2357899Y190399D01*
X2363999Y188400D01*
X2368100Y182199D01*
X2370100Y171999D01*
X2370100Y161799D01*
X2368100Y153600D01*
X2363999Y149499D01*
X2357899Y147500D01*
X2355799Y147500D01*
X2349700Y149499D01*
X2345600Y153600D01*
X2343500Y159699D01*
X2343500Y161799D01*
X2345600Y167899D01*
X2349700Y171999D01*
X2355799Y174000D01*
X2357899Y174000D01*
X2363999Y171999D01*
X2368100Y167899D01*
X2370100Y161799D01*
X2683000Y256399D02*
G01*
X2683000Y213499D01*
X2683000Y256399D02*
G01*
X2664600Y256399D01*
X2658500Y254400D01*
X2656400Y252300D01*
X2654399Y248200D01*
X2654399Y242100D01*
X2656400Y238000D01*
X2658500Y235999D01*
X2664600Y233899D01*
X2683000Y233899D01*
X2638800Y246199D02*
G01*
X2638800Y248200D01*
X2636800Y252300D01*
X2634700Y254400D01*
X2630600Y256399D01*
X2622500Y256399D01*
X2618400Y254400D01*
X2616300Y252300D01*
X2614300Y248200D01*
X2614300Y244099D01*
X2616300Y240000D01*
X2620399Y233899D01*
X2640900Y213499D01*
X2612200Y213499D01*
D11*
X436352Y2307689D02*
G01*
X435457Y2305900D01*
X433667Y2304110D01*
X431878Y2303216D01*
X428299Y2303216D01*
X426509Y2304110D01*
X424720Y2305900D01*
X423825Y2307689D01*
X422930Y2310374D01*
X422930Y2314848D01*
X423825Y2317532D01*
X424720Y2319322D01*
X426509Y2321111D01*
X428299Y2322006D01*
X431878Y2322006D01*
X433667Y2321111D01*
X435457Y2319322D01*
X436352Y2317532D01*
X436352Y2314848D01*
X431878Y2314848D02*
G01*
X436352Y2314848D01*
X442256Y2303216D02*
G01*
X442256Y2322006D01*
X442256Y2303216D02*
G01*
X454783Y2322006D01*
X454783Y2303216D02*
G01*
X454783Y2322006D01*
X460689Y2303216D02*
G01*
X460689Y2322006D01*
X460689Y2303216D02*
G01*
X466953Y2303216D01*
X469637Y2304110D01*
X471427Y2305900D01*
X472321Y2307689D01*
X473216Y2310374D01*
X473216Y2314848D01*
X472321Y2317532D01*
X471427Y2319322D01*
X469637Y2321111D01*
X466953Y2322006D01*
X460689Y2322006D01*
X649926Y2167217D02*
G01*
X657084Y2186006D01*
X664242Y2167217D02*
G01*
X657084Y2186006D01*
X670149Y2167217D02*
G01*
X670149Y2186006D01*
X670149Y2167217D02*
G01*
X676412Y2167217D01*
X679097Y2168112D01*
X680886Y2169901D01*
X681781Y2171691D01*
X682676Y2174375D01*
X682676Y2178849D01*
X681781Y2181532D01*
X680886Y2183323D01*
X679097Y2185111D01*
X676412Y2186006D01*
X670149Y2186006D01*
X688581Y2167217D02*
G01*
X688581Y2186006D01*
X688581Y2167217D02*
G01*
X694844Y2167217D01*
X697529Y2168112D01*
X699318Y2169901D01*
X700213Y2171691D01*
X701108Y2174375D01*
X701108Y2178849D01*
X700213Y2181532D01*
X699318Y2183323D01*
X697529Y2185111D01*
X694844Y2186006D01*
X688581Y2186006D01*
X643927Y2302217D02*
G01*
X643927Y2321006D01*
X643927Y2302217D02*
G01*
X650190Y2302217D01*
X652875Y2303112D01*
X654664Y2304901D01*
X655559Y2306691D01*
X656454Y2309375D01*
X656454Y2313849D01*
X655559Y2316532D01*
X654664Y2318323D01*
X652875Y2320111D01*
X650190Y2321006D01*
X643927Y2321006D01*
X667727Y2302217D02*
G01*
X665937Y2303112D01*
X664148Y2304901D01*
X663253Y2306691D01*
X662358Y2309375D01*
X662358Y2313849D01*
X663253Y2316532D01*
X664148Y2318323D01*
X665937Y2320111D01*
X667727Y2321006D01*
X671306Y2321006D01*
X673096Y2320111D01*
X674885Y2318323D01*
X675780Y2316532D01*
X676675Y2313849D01*
X676675Y2309375D01*
X675780Y2306691D01*
X674885Y2304901D01*
X673096Y2303112D01*
X671306Y2302217D01*
X667727Y2302217D01*
X682581Y2302217D02*
G01*
X682581Y2315639D01*
X683476Y2318323D01*
X685266Y2320111D01*
X687950Y2321006D01*
X689738Y2321006D01*
X692424Y2320111D01*
X694212Y2318323D01*
X695108Y2315639D01*
X695108Y2302217D01*
X707277Y2302217D02*
G01*
X707277Y2321006D01*
X701013Y2302217D02*
G01*
X713540Y2302217D01*
X424926Y2169216D02*
G01*
X424926Y2188006D01*
X424926Y2169216D02*
G01*
X431190Y2169216D01*
X433874Y2170111D01*
X435664Y2171900D01*
X436559Y2173690D01*
X437453Y2176374D01*
X437453Y2180848D01*
X436559Y2183533D01*
X435664Y2185322D01*
X433874Y2187112D01*
X431190Y2188006D01*
X424926Y2188006D01*
X443359Y2169216D02*
G01*
X443359Y2188006D01*
X449264Y2169216D02*
G01*
X449264Y2188006D01*
X449264Y2169216D02*
G01*
X461791Y2188006D01*
X461791Y2169216D02*
G01*
X461791Y2188006D01*
X1186351Y2307689D02*
G01*
X1185456Y2305900D01*
X1183666Y2304110D01*
X1181877Y2303216D01*
X1178298Y2303216D01*
X1176508Y2304110D01*
X1174719Y2305900D01*
X1173824Y2307689D01*
X1172929Y2310374D01*
X1172929Y2314848D01*
X1173824Y2317532D01*
X1174719Y2319322D01*
X1176508Y2321111D01*
X1178298Y2322006D01*
X1181877Y2322006D01*
X1183666Y2321111D01*
X1185456Y2319322D01*
X1186351Y2317532D01*
X1186351Y2314848D01*
X1181877Y2314848D02*
G01*
X1186351Y2314848D01*
X1192256Y2303216D02*
G01*
X1192256Y2322006D01*
X1192256Y2303216D02*
G01*
X1204783Y2322006D01*
X1204783Y2303216D02*
G01*
X1204783Y2322006D01*
X1210689Y2303216D02*
G01*
X1210689Y2322006D01*
X1210689Y2303216D02*
G01*
X1216953Y2303216D01*
X1219637Y2304110D01*
X1221427Y2305900D01*
X1222321Y2307689D01*
X1223216Y2310374D01*
X1223216Y2314848D01*
X1222321Y2317532D01*
X1221427Y2319322D01*
X1219637Y2321111D01*
X1216953Y2322006D01*
X1210689Y2322006D01*
X1399926Y2167217D02*
G01*
X1407084Y2186006D01*
X1414242Y2167217D02*
G01*
X1407084Y2186006D01*
X1420149Y2167217D02*
G01*
X1420149Y2186006D01*
X1420149Y2167217D02*
G01*
X1426412Y2167217D01*
X1429097Y2168112D01*
X1430886Y2169901D01*
X1431781Y2171691D01*
X1432676Y2174375D01*
X1432676Y2178849D01*
X1431781Y2181532D01*
X1430886Y2183323D01*
X1429097Y2185111D01*
X1426412Y2186006D01*
X1420149Y2186006D01*
X1438581Y2167217D02*
G01*
X1438581Y2186006D01*
X1438581Y2167217D02*
G01*
X1444844Y2167217D01*
X1447529Y2168112D01*
X1449318Y2169901D01*
X1450213Y2171691D01*
X1451108Y2174375D01*
X1451108Y2178849D01*
X1450213Y2181532D01*
X1449318Y2183323D01*
X1447529Y2185111D01*
X1444844Y2186006D01*
X1438581Y2186006D01*
X1393927Y2302217D02*
G01*
X1393927Y2321006D01*
X1393927Y2302217D02*
G01*
X1400190Y2302217D01*
X1402875Y2303112D01*
X1404664Y2304901D01*
X1405559Y2306691D01*
X1406454Y2309375D01*
X1406454Y2313849D01*
X1405559Y2316532D01*
X1404664Y2318323D01*
X1402875Y2320111D01*
X1400190Y2321006D01*
X1393927Y2321006D01*
X1417727Y2302217D02*
G01*
X1415937Y2303112D01*
X1414148Y2304901D01*
X1413253Y2306691D01*
X1412358Y2309375D01*
X1412358Y2313849D01*
X1413253Y2316532D01*
X1414148Y2318323D01*
X1415937Y2320111D01*
X1417727Y2321006D01*
X1421306Y2321006D01*
X1423096Y2320111D01*
X1424885Y2318323D01*
X1425780Y2316532D01*
X1426675Y2313849D01*
X1426675Y2309375D01*
X1425780Y2306691D01*
X1424885Y2304901D01*
X1423096Y2303112D01*
X1421306Y2302217D01*
X1417727Y2302217D01*
X1432581Y2302217D02*
G01*
X1432581Y2315639D01*
X1433476Y2318323D01*
X1435266Y2320111D01*
X1437950Y2321006D01*
X1439738Y2321006D01*
X1442424Y2320111D01*
X1444212Y2318323D01*
X1445108Y2315639D01*
X1445108Y2302217D01*
X1457277Y2302217D02*
G01*
X1457277Y2321006D01*
X1451013Y2302217D02*
G01*
X1463540Y2302217D01*
X1174926Y2169216D02*
G01*
X1174926Y2188006D01*
X1174926Y2169216D02*
G01*
X1181189Y2169216D01*
X1183874Y2170111D01*
X1185663Y2171900D01*
X1186558Y2173690D01*
X1187453Y2176374D01*
X1187453Y2180848D01*
X1186558Y2183533D01*
X1185663Y2185322D01*
X1183874Y2187112D01*
X1181189Y2188006D01*
X1174926Y2188006D01*
X1193359Y2169216D02*
G01*
X1193359Y2188006D01*
X1199264Y2169216D02*
G01*
X1199264Y2188006D01*
X1199264Y2169216D02*
G01*
X1211791Y2188006D01*
X1211791Y2169216D02*
G01*
X1211791Y2188006D01*
X1936351Y2307689D02*
G01*
X1935456Y2305900D01*
X1933666Y2304110D01*
X1931877Y2303216D01*
X1928298Y2303216D01*
X1926508Y2304110D01*
X1924719Y2305900D01*
X1923824Y2307689D01*
X1922929Y2310374D01*
X1922929Y2314848D01*
X1923824Y2317532D01*
X1924719Y2319322D01*
X1926508Y2321111D01*
X1928298Y2322006D01*
X1931877Y2322006D01*
X1933666Y2321111D01*
X1935456Y2319322D01*
X1936351Y2317532D01*
X1936351Y2314848D01*
X1931877Y2314848D02*
G01*
X1936351Y2314848D01*
X1942256Y2303216D02*
G01*
X1942256Y2322006D01*
X1942256Y2303216D02*
G01*
X1954783Y2322006D01*
X1954783Y2303216D02*
G01*
X1954783Y2322006D01*
X1960689Y2303216D02*
G01*
X1960689Y2322006D01*
X1960689Y2303216D02*
G01*
X1966953Y2303216D01*
X1969637Y2304110D01*
X1971427Y2305900D01*
X1972321Y2307689D01*
X1973216Y2310374D01*
X1973216Y2314848D01*
X1972321Y2317532D01*
X1971427Y2319322D01*
X1969637Y2321111D01*
X1966953Y2322006D01*
X1960689Y2322006D01*
X2149926Y2167217D02*
G01*
X2157084Y2186006D01*
X2164242Y2167217D02*
G01*
X2157084Y2186006D01*
X2170149Y2167217D02*
G01*
X2170149Y2186006D01*
X2170149Y2167217D02*
G01*
X2176412Y2167217D01*
X2179097Y2168112D01*
X2180886Y2169901D01*
X2181781Y2171691D01*
X2182676Y2174375D01*
X2182676Y2178849D01*
X2181781Y2181532D01*
X2180886Y2183323D01*
X2179097Y2185111D01*
X2176412Y2186006D01*
X2170149Y2186006D01*
X2188581Y2167217D02*
G01*
X2188581Y2186006D01*
X2188581Y2167217D02*
G01*
X2194844Y2167217D01*
X2197529Y2168112D01*
X2199318Y2169901D01*
X2200213Y2171691D01*
X2201108Y2174375D01*
X2201108Y2178849D01*
X2200213Y2181532D01*
X2199318Y2183323D01*
X2197529Y2185111D01*
X2194844Y2186006D01*
X2188581Y2186006D01*
X2143927Y2302217D02*
G01*
X2143927Y2321006D01*
X2143927Y2302217D02*
G01*
X2150190Y2302217D01*
X2152875Y2303112D01*
X2154664Y2304901D01*
X2155559Y2306691D01*
X2156454Y2309375D01*
X2156454Y2313849D01*
X2155559Y2316532D01*
X2154664Y2318323D01*
X2152875Y2320111D01*
X2150190Y2321006D01*
X2143927Y2321006D01*
X2167727Y2302217D02*
G01*
X2165937Y2303112D01*
X2164148Y2304901D01*
X2163253Y2306691D01*
X2162358Y2309375D01*
X2162358Y2313849D01*
X2163253Y2316532D01*
X2164148Y2318323D01*
X2165937Y2320111D01*
X2167727Y2321006D01*
X2171306Y2321006D01*
X2173096Y2320111D01*
X2174885Y2318323D01*
X2175780Y2316532D01*
X2176675Y2313849D01*
X2176675Y2309375D01*
X2175780Y2306691D01*
X2174885Y2304901D01*
X2173096Y2303112D01*
X2171306Y2302217D01*
X2167727Y2302217D01*
X2182581Y2302217D02*
G01*
X2182581Y2315639D01*
X2183476Y2318323D01*
X2185266Y2320111D01*
X2187950Y2321006D01*
X2189738Y2321006D01*
X2192424Y2320111D01*
X2194212Y2318323D01*
X2195108Y2315639D01*
X2195108Y2302217D01*
X2207277Y2302217D02*
G01*
X2207277Y2321006D01*
X2201013Y2302217D02*
G01*
X2213540Y2302217D01*
X1924926Y2169216D02*
G01*
X1924926Y2188006D01*
X1924926Y2169216D02*
G01*
X1931189Y2169216D01*
X1933874Y2170111D01*
X1935663Y2171900D01*
X1936558Y2173690D01*
X1937453Y2176374D01*
X1937453Y2180848D01*
X1936558Y2183533D01*
X1935663Y2185322D01*
X1933874Y2187112D01*
X1931189Y2188006D01*
X1924926Y2188006D01*
X1943359Y2169216D02*
G01*
X1943359Y2188006D01*
X1949264Y2169216D02*
G01*
X1949264Y2188006D01*
X1949264Y2169216D02*
G01*
X1961791Y2188006D01*
X1961791Y2169216D02*
G01*
X1961791Y2188006D01*
X2686451Y2307689D02*
G01*
X2685556Y2305900D01*
X2683766Y2304110D01*
X2681977Y2303216D01*
X2678398Y2303216D01*
X2676608Y2304110D01*
X2674819Y2305900D01*
X2673924Y2307689D01*
X2673029Y2310374D01*
X2673029Y2314848D01*
X2673924Y2317532D01*
X2674819Y2319322D01*
X2676608Y2321111D01*
X2678398Y2322006D01*
X2681977Y2322006D01*
X2683766Y2321111D01*
X2685556Y2319322D01*
X2686451Y2317532D01*
X2686451Y2314848D01*
X2681977Y2314848D02*
G01*
X2686451Y2314848D01*
X2692357Y2303216D02*
G01*
X2692357Y2322006D01*
X2692357Y2303216D02*
G01*
X2704884Y2322006D01*
X2704884Y2303216D02*
G01*
X2704884Y2322006D01*
X2710789Y2303216D02*
G01*
X2710789Y2322006D01*
X2710789Y2303216D02*
G01*
X2717052Y2303216D01*
X2719736Y2304110D01*
X2721526Y2305900D01*
X2722421Y2307689D01*
X2723316Y2310374D01*
X2723316Y2314848D01*
X2722421Y2317532D01*
X2721526Y2319322D01*
X2719736Y2321111D01*
X2717052Y2322006D01*
X2710789Y2322006D01*
X2900027Y2167217D02*
G01*
X2907184Y2186006D01*
X2914342Y2167217D02*
G01*
X2907184Y2186006D01*
X2920249Y2167217D02*
G01*
X2920249Y2186006D01*
X2920249Y2167217D02*
G01*
X2926512Y2167217D01*
X2929197Y2168112D01*
X2930986Y2169901D01*
X2931881Y2171691D01*
X2932776Y2174375D01*
X2932776Y2178849D01*
X2931881Y2181532D01*
X2930986Y2183323D01*
X2929197Y2185111D01*
X2926512Y2186006D01*
X2920249Y2186006D01*
X2938680Y2167217D02*
G01*
X2938680Y2186006D01*
X2938680Y2167217D02*
G01*
X2944944Y2167217D01*
X2947628Y2168112D01*
X2949417Y2169901D01*
X2950312Y2171691D01*
X2951207Y2174375D01*
X2951207Y2178849D01*
X2950312Y2181532D01*
X2949417Y2183323D01*
X2947628Y2185111D01*
X2944944Y2186006D01*
X2938680Y2186006D01*
X2894026Y2302217D02*
G01*
X2894026Y2321006D01*
X2894026Y2302217D02*
G01*
X2900290Y2302217D01*
X2902974Y2303112D01*
X2904763Y2304901D01*
X2905658Y2306691D01*
X2906553Y2309375D01*
X2906553Y2313849D01*
X2905658Y2316532D01*
X2904763Y2318323D01*
X2902974Y2320111D01*
X2900290Y2321006D01*
X2894026Y2321006D01*
X2917827Y2302217D02*
G01*
X2916037Y2303112D01*
X2914249Y2304901D01*
X2913353Y2306691D01*
X2912458Y2309375D01*
X2912458Y2313849D01*
X2913353Y2316532D01*
X2914249Y2318323D01*
X2916037Y2320111D01*
X2917827Y2321006D01*
X2921406Y2321006D01*
X2923197Y2320111D01*
X2924985Y2318323D01*
X2925880Y2316532D01*
X2926776Y2313849D01*
X2926776Y2309375D01*
X2925880Y2306691D01*
X2924985Y2304901D01*
X2923197Y2303112D01*
X2921406Y2302217D01*
X2917827Y2302217D01*
X2932681Y2302217D02*
G01*
X2932681Y2315639D01*
X2933576Y2318323D01*
X2935366Y2320111D01*
X2938050Y2321006D01*
X2939839Y2321006D01*
X2942524Y2320111D01*
X2944313Y2318323D01*
X2945208Y2315639D01*
X2945208Y2302217D01*
X2957376Y2302217D02*
G01*
X2957376Y2321006D01*
X2951113Y2302217D02*
G01*
X2963639Y2302217D01*
X2675027Y2169216D02*
G01*
X2675027Y2188006D01*
X2675027Y2169216D02*
G01*
X2681289Y2169216D01*
X2683975Y2170111D01*
X2685763Y2171900D01*
X2686658Y2173690D01*
X2687554Y2176374D01*
X2687554Y2180848D01*
X2686658Y2183533D01*
X2685763Y2185322D01*
X2683975Y2187112D01*
X2681289Y2188006D01*
X2675027Y2188006D01*
X2693459Y2169216D02*
G01*
X2693459Y2188006D01*
X2699364Y2169216D02*
G01*
X2699364Y2188006D01*
X2699364Y2169216D02*
G01*
X2711891Y2188006D01*
X2711891Y2169216D02*
G01*
X2711891Y2188006D01*
X436352Y1557689D02*
G01*
X435457Y1555900D01*
X433667Y1554110D01*
X431878Y1553216D01*
X428299Y1553216D01*
X426509Y1554110D01*
X424720Y1555900D01*
X423825Y1557689D01*
X422930Y1560374D01*
X422930Y1564848D01*
X423825Y1567532D01*
X424720Y1569322D01*
X426509Y1571111D01*
X428299Y1572006D01*
X431878Y1572006D01*
X433667Y1571111D01*
X435457Y1569322D01*
X436352Y1567532D01*
X436352Y1564848D01*
X431878Y1564848D02*
G01*
X436352Y1564848D01*
X442256Y1553216D02*
G01*
X442256Y1572006D01*
X442256Y1553216D02*
G01*
X454783Y1572006D01*
X454783Y1553216D02*
G01*
X454783Y1572006D01*
X460689Y1553216D02*
G01*
X460689Y1572006D01*
X460689Y1553216D02*
G01*
X466953Y1553216D01*
X469637Y1554110D01*
X471427Y1555900D01*
X472321Y1557689D01*
X473216Y1560374D01*
X473216Y1564848D01*
X472321Y1567532D01*
X471427Y1569322D01*
X469637Y1571111D01*
X466953Y1572006D01*
X460689Y1572006D01*
X649926Y1417217D02*
G01*
X657084Y1436006D01*
X664242Y1417217D02*
G01*
X657084Y1436006D01*
X670149Y1417217D02*
G01*
X670149Y1436006D01*
X670149Y1417217D02*
G01*
X676412Y1417217D01*
X679097Y1418112D01*
X680886Y1419900D01*
X681781Y1421691D01*
X682676Y1424375D01*
X682676Y1428849D01*
X681781Y1431532D01*
X680886Y1433323D01*
X679097Y1435111D01*
X676412Y1436006D01*
X670149Y1436006D01*
X688581Y1417217D02*
G01*
X688581Y1436006D01*
X688581Y1417217D02*
G01*
X694844Y1417217D01*
X697529Y1418112D01*
X699318Y1419900D01*
X700213Y1421691D01*
X701108Y1424375D01*
X701108Y1428849D01*
X700213Y1431532D01*
X699318Y1433323D01*
X697529Y1435111D01*
X694844Y1436006D01*
X688581Y1436006D01*
X643927Y1552217D02*
G01*
X643927Y1571006D01*
X643927Y1552217D02*
G01*
X650190Y1552217D01*
X652875Y1553112D01*
X654664Y1554900D01*
X655559Y1556691D01*
X656454Y1559375D01*
X656454Y1563849D01*
X655559Y1566532D01*
X654664Y1568323D01*
X652875Y1570111D01*
X650190Y1571006D01*
X643927Y1571006D01*
X667727Y1552217D02*
G01*
X665937Y1553112D01*
X664148Y1554900D01*
X663253Y1556691D01*
X662358Y1559375D01*
X662358Y1563849D01*
X663253Y1566532D01*
X664148Y1568323D01*
X665937Y1570111D01*
X667727Y1571006D01*
X671306Y1571006D01*
X673096Y1570111D01*
X674885Y1568323D01*
X675780Y1566532D01*
X676675Y1563849D01*
X676675Y1559375D01*
X675780Y1556691D01*
X674885Y1554900D01*
X673096Y1553112D01*
X671306Y1552217D01*
X667727Y1552217D01*
X682581Y1552217D02*
G01*
X682581Y1565639D01*
X683476Y1568323D01*
X685266Y1570111D01*
X687950Y1571006D01*
X689738Y1571006D01*
X692424Y1570111D01*
X694212Y1568323D01*
X695108Y1565639D01*
X695108Y1552217D01*
X707277Y1552217D02*
G01*
X707277Y1571006D01*
X701013Y1552217D02*
G01*
X713540Y1552217D01*
X424926Y1419216D02*
G01*
X424926Y1438006D01*
X424926Y1419216D02*
G01*
X431190Y1419216D01*
X433874Y1420111D01*
X435664Y1421900D01*
X436559Y1423690D01*
X437453Y1426374D01*
X437453Y1430848D01*
X436559Y1433533D01*
X435664Y1435322D01*
X433874Y1437112D01*
X431190Y1438006D01*
X424926Y1438006D01*
X443359Y1419216D02*
G01*
X443359Y1438006D01*
X449264Y1419216D02*
G01*
X449264Y1438006D01*
X449264Y1419216D02*
G01*
X461791Y1438006D01*
X461791Y1419216D02*
G01*
X461791Y1438006D01*
X1186351Y1557689D02*
G01*
X1185456Y1555900D01*
X1183666Y1554110D01*
X1181877Y1553216D01*
X1178298Y1553216D01*
X1176508Y1554110D01*
X1174719Y1555900D01*
X1173824Y1557689D01*
X1172929Y1560374D01*
X1172929Y1564848D01*
X1173824Y1567532D01*
X1174719Y1569322D01*
X1176508Y1571111D01*
X1178298Y1572006D01*
X1181877Y1572006D01*
X1183666Y1571111D01*
X1185456Y1569322D01*
X1186351Y1567532D01*
X1186351Y1564848D01*
X1181877Y1564848D02*
G01*
X1186351Y1564848D01*
X1192256Y1553216D02*
G01*
X1192256Y1572006D01*
X1192256Y1553216D02*
G01*
X1204783Y1572006D01*
X1204783Y1553216D02*
G01*
X1204783Y1572006D01*
X1210689Y1553216D02*
G01*
X1210689Y1572006D01*
X1210689Y1553216D02*
G01*
X1216953Y1553216D01*
X1219637Y1554110D01*
X1221427Y1555900D01*
X1222321Y1557689D01*
X1223216Y1560374D01*
X1223216Y1564848D01*
X1222321Y1567532D01*
X1221427Y1569322D01*
X1219637Y1571111D01*
X1216953Y1572006D01*
X1210689Y1572006D01*
X1399926Y1417217D02*
G01*
X1407084Y1436006D01*
X1414242Y1417217D02*
G01*
X1407084Y1436006D01*
X1420149Y1417217D02*
G01*
X1420149Y1436006D01*
X1420149Y1417217D02*
G01*
X1426412Y1417217D01*
X1429097Y1418112D01*
X1430886Y1419900D01*
X1431781Y1421691D01*
X1432676Y1424375D01*
X1432676Y1428849D01*
X1431781Y1431532D01*
X1430886Y1433323D01*
X1429097Y1435111D01*
X1426412Y1436006D01*
X1420149Y1436006D01*
X1438581Y1417217D02*
G01*
X1438581Y1436006D01*
X1438581Y1417217D02*
G01*
X1444844Y1417217D01*
X1447529Y1418112D01*
X1449318Y1419900D01*
X1450213Y1421691D01*
X1451108Y1424375D01*
X1451108Y1428849D01*
X1450213Y1431532D01*
X1449318Y1433323D01*
X1447529Y1435111D01*
X1444844Y1436006D01*
X1438581Y1436006D01*
X1393927Y1552217D02*
G01*
X1393927Y1571006D01*
X1393927Y1552217D02*
G01*
X1400190Y1552217D01*
X1402875Y1553112D01*
X1404664Y1554900D01*
X1405559Y1556691D01*
X1406454Y1559375D01*
X1406454Y1563849D01*
X1405559Y1566532D01*
X1404664Y1568323D01*
X1402875Y1570111D01*
X1400190Y1571006D01*
X1393927Y1571006D01*
X1417727Y1552217D02*
G01*
X1415937Y1553112D01*
X1414148Y1554900D01*
X1413253Y1556691D01*
X1412358Y1559375D01*
X1412358Y1563849D01*
X1413253Y1566532D01*
X1414148Y1568323D01*
X1415937Y1570111D01*
X1417727Y1571006D01*
X1421306Y1571006D01*
X1423096Y1570111D01*
X1424885Y1568323D01*
X1425780Y1566532D01*
X1426675Y1563849D01*
X1426675Y1559375D01*
X1425780Y1556691D01*
X1424885Y1554900D01*
X1423096Y1553112D01*
X1421306Y1552217D01*
X1417727Y1552217D01*
X1432581Y1552217D02*
G01*
X1432581Y1565639D01*
X1433476Y1568323D01*
X1435266Y1570111D01*
X1437950Y1571006D01*
X1439738Y1571006D01*
X1442424Y1570111D01*
X1444212Y1568323D01*
X1445108Y1565639D01*
X1445108Y1552217D01*
X1457277Y1552217D02*
G01*
X1457277Y1571006D01*
X1451013Y1552217D02*
G01*
X1463540Y1552217D01*
X1174926Y1419216D02*
G01*
X1174926Y1438006D01*
X1174926Y1419216D02*
G01*
X1181189Y1419216D01*
X1183874Y1420111D01*
X1185663Y1421900D01*
X1186558Y1423690D01*
X1187453Y1426374D01*
X1187453Y1430848D01*
X1186558Y1433533D01*
X1185663Y1435322D01*
X1183874Y1437112D01*
X1181189Y1438006D01*
X1174926Y1438006D01*
X1193359Y1419216D02*
G01*
X1193359Y1438006D01*
X1199264Y1419216D02*
G01*
X1199264Y1438006D01*
X1199264Y1419216D02*
G01*
X1211791Y1438006D01*
X1211791Y1419216D02*
G01*
X1211791Y1438006D01*
X1936351Y1557689D02*
G01*
X1935456Y1555900D01*
X1933666Y1554110D01*
X1931877Y1553216D01*
X1928298Y1553216D01*
X1926508Y1554110D01*
X1924719Y1555900D01*
X1923824Y1557689D01*
X1922929Y1560374D01*
X1922929Y1564848D01*
X1923824Y1567532D01*
X1924719Y1569322D01*
X1926508Y1571111D01*
X1928298Y1572006D01*
X1931877Y1572006D01*
X1933666Y1571111D01*
X1935456Y1569322D01*
X1936351Y1567532D01*
X1936351Y1564848D01*
X1931877Y1564848D02*
G01*
X1936351Y1564848D01*
X1942256Y1553216D02*
G01*
X1942256Y1572006D01*
X1942256Y1553216D02*
G01*
X1954783Y1572006D01*
X1954783Y1553216D02*
G01*
X1954783Y1572006D01*
X1960689Y1553216D02*
G01*
X1960689Y1572006D01*
X1960689Y1553216D02*
G01*
X1966953Y1553216D01*
X1969637Y1554110D01*
X1971427Y1555900D01*
X1972321Y1557689D01*
X1973216Y1560374D01*
X1973216Y1564848D01*
X1972321Y1567532D01*
X1971427Y1569322D01*
X1969637Y1571111D01*
X1966953Y1572006D01*
X1960689Y1572006D01*
X2149926Y1417217D02*
G01*
X2157084Y1436006D01*
X2164242Y1417217D02*
G01*
X2157084Y1436006D01*
X2170149Y1417217D02*
G01*
X2170149Y1436006D01*
X2170149Y1417217D02*
G01*
X2176412Y1417217D01*
X2179097Y1418112D01*
X2180886Y1419900D01*
X2181781Y1421691D01*
X2182676Y1424375D01*
X2182676Y1428849D01*
X2181781Y1431532D01*
X2180886Y1433323D01*
X2179097Y1435111D01*
X2176412Y1436006D01*
X2170149Y1436006D01*
X2188581Y1417217D02*
G01*
X2188581Y1436006D01*
X2188581Y1417217D02*
G01*
X2194844Y1417217D01*
X2197529Y1418112D01*
X2199318Y1419900D01*
X2200213Y1421691D01*
X2201108Y1424375D01*
X2201108Y1428849D01*
X2200213Y1431532D01*
X2199318Y1433323D01*
X2197529Y1435111D01*
X2194844Y1436006D01*
X2188581Y1436006D01*
X2143927Y1552217D02*
G01*
X2143927Y1571006D01*
X2143927Y1552217D02*
G01*
X2150190Y1552217D01*
X2152875Y1553112D01*
X2154664Y1554900D01*
X2155559Y1556691D01*
X2156454Y1559375D01*
X2156454Y1563849D01*
X2155559Y1566532D01*
X2154664Y1568323D01*
X2152875Y1570111D01*
X2150190Y1571006D01*
X2143927Y1571006D01*
X2167727Y1552217D02*
G01*
X2165937Y1553112D01*
X2164148Y1554900D01*
X2163253Y1556691D01*
X2162358Y1559375D01*
X2162358Y1563849D01*
X2163253Y1566532D01*
X2164148Y1568323D01*
X2165937Y1570111D01*
X2167727Y1571006D01*
X2171306Y1571006D01*
X2173096Y1570111D01*
X2174885Y1568323D01*
X2175780Y1566532D01*
X2176675Y1563849D01*
X2176675Y1559375D01*
X2175780Y1556691D01*
X2174885Y1554900D01*
X2173096Y1553112D01*
X2171306Y1552217D01*
X2167727Y1552217D01*
X2182581Y1552217D02*
G01*
X2182581Y1565639D01*
X2183476Y1568323D01*
X2185266Y1570111D01*
X2187950Y1571006D01*
X2189738Y1571006D01*
X2192424Y1570111D01*
X2194212Y1568323D01*
X2195108Y1565639D01*
X2195108Y1552217D01*
X2207277Y1552217D02*
G01*
X2207277Y1571006D01*
X2201013Y1552217D02*
G01*
X2213540Y1552217D01*
X1924926Y1419216D02*
G01*
X1924926Y1438006D01*
X1924926Y1419216D02*
G01*
X1931189Y1419216D01*
X1933874Y1420111D01*
X1935663Y1421900D01*
X1936558Y1423690D01*
X1937453Y1426374D01*
X1937453Y1430848D01*
X1936558Y1433533D01*
X1935663Y1435322D01*
X1933874Y1437112D01*
X1931189Y1438006D01*
X1924926Y1438006D01*
X1943359Y1419216D02*
G01*
X1943359Y1438006D01*
X1949264Y1419216D02*
G01*
X1949264Y1438006D01*
X1949264Y1419216D02*
G01*
X1961791Y1438006D01*
X1961791Y1419216D02*
G01*
X1961791Y1438006D01*
X3057680Y1063638D02*
G01*
X3055889Y1064533D01*
X3054101Y1066323D01*
X3053206Y1068112D01*
X3053206Y1071691D01*
X3054101Y1073481D01*
X3055889Y1075270D01*
X3057680Y1076165D01*
X3060363Y1077060D01*
X3064837Y1077060D01*
X3067521Y1076165D01*
X3069312Y1075270D01*
X3071102Y1073481D01*
X3071995Y1071691D01*
X3071995Y1068112D01*
X3071102Y1066323D01*
X3069312Y1064533D01*
X3067521Y1063638D01*
X3064837Y1063638D01*
X3064837Y1068112D02*
G01*
X3064837Y1063638D01*
X3053206Y1057732D02*
G01*
X3071995Y1057732D01*
X3053206Y1057732D02*
G01*
X3071995Y1045205D01*
X3053206Y1045205D02*
G01*
X3071995Y1045205D01*
X3053206Y1039301D02*
G01*
X3071995Y1039301D01*
X3053206Y1039301D02*
G01*
X3053206Y1033036D01*
X3054101Y1030353D01*
X3055889Y1028562D01*
X3057680Y1027669D01*
X3060363Y1026774D01*
X3064837Y1026774D01*
X3067521Y1027669D01*
X3069312Y1028562D01*
X3071102Y1030353D01*
X3071995Y1033036D01*
X3071995Y1039301D01*
X2917206Y850063D02*
G01*
X2935996Y842905D01*
X2917206Y835747D02*
G01*
X2935996Y842905D01*
X2917206Y829841D02*
G01*
X2935996Y829841D01*
X2917206Y829841D02*
G01*
X2917206Y823578D01*
X2918101Y820893D01*
X2919890Y819104D01*
X2921680Y818209D01*
X2924364Y817314D01*
X2928838Y817314D01*
X2931522Y818209D01*
X2933312Y819104D01*
X2935101Y820893D01*
X2935996Y823578D01*
X2935996Y829841D01*
X2917206Y811408D02*
G01*
X2935996Y811408D01*
X2917206Y811408D02*
G01*
X2917206Y805145D01*
X2918101Y802460D01*
X2919890Y800671D01*
X2921680Y799776D01*
X2924364Y798881D01*
X2928838Y798881D01*
X2931522Y799776D01*
X2933312Y800671D01*
X2935101Y802460D01*
X2935996Y805145D01*
X2935996Y811408D01*
X3052206Y856062D02*
G01*
X3070996Y856062D01*
X3052206Y856062D02*
G01*
X3052206Y849800D01*
X3053101Y847114D01*
X3054890Y845326D01*
X3056680Y844430D01*
X3059364Y843535D01*
X3063838Y843535D01*
X3066522Y844430D01*
X3068312Y845326D01*
X3070101Y847114D01*
X3070996Y849800D01*
X3070996Y856062D01*
X3052206Y832262D02*
G01*
X3053101Y834052D01*
X3054890Y835841D01*
X3056680Y836736D01*
X3059364Y837631D01*
X3063838Y837631D01*
X3066522Y836736D01*
X3068312Y835841D01*
X3070101Y834052D01*
X3070996Y832262D01*
X3070996Y828683D01*
X3070101Y826893D01*
X3068312Y825104D01*
X3066522Y824209D01*
X3063838Y823314D01*
X3059364Y823314D01*
X3056680Y824209D01*
X3054890Y825104D01*
X3053101Y826893D01*
X3052206Y828683D01*
X3052206Y832262D01*
X3052206Y817408D02*
G01*
X3065628Y817408D01*
X3068312Y816514D01*
X3070101Y814724D01*
X3070996Y812040D01*
X3070996Y810250D01*
X3070101Y807566D01*
X3068312Y805776D01*
X3065628Y804881D01*
X3052206Y804881D01*
X3052206Y792712D02*
G01*
X3070996Y792712D01*
X3052206Y798975D02*
G01*
X3052206Y786449D01*
X2919206Y1075063D02*
G01*
X2937996Y1075063D01*
X2919206Y1075063D02*
G01*
X2919206Y1068800D01*
X2920101Y1066114D01*
X2921890Y1064326D01*
X2923680Y1063431D01*
X2926364Y1062536D01*
X2930838Y1062536D01*
X2933522Y1063431D01*
X2935312Y1064326D01*
X2937102Y1066114D01*
X2937996Y1068800D01*
X2937996Y1075063D01*
X2919206Y1056631D02*
G01*
X2937996Y1056631D01*
X2919206Y1050725D02*
G01*
X2937996Y1050725D01*
X2919206Y1050725D02*
G01*
X2937996Y1038198D01*
X2919206Y1038198D02*
G01*
X2937996Y1038198D01*
X812951Y806289D02*
G01*
X812057Y804499D01*
X810267Y802710D01*
X808477Y801815D01*
X804898Y801815D01*
X803109Y802710D01*
X801319Y804499D01*
X800424Y806289D01*
X799530Y808973D01*
X799530Y813447D01*
X800424Y816131D01*
X801319Y817921D01*
X803109Y819711D01*
X804898Y820605D01*
X808477Y820605D01*
X810267Y819711D01*
X812057Y817921D01*
X812951Y816131D01*
X812951Y813447D01*
X808477Y813447D02*
G01*
X812951Y813447D01*
X818856Y801815D02*
G01*
X818856Y820605D01*
X818856Y801815D02*
G01*
X831383Y820605D01*
X831383Y801815D02*
G01*
X831383Y820605D01*
X837289Y801815D02*
G01*
X837289Y820605D01*
X837289Y801815D02*
G01*
X843553Y801815D01*
X846237Y802710D01*
X848027Y804499D01*
X848921Y806289D01*
X849816Y808973D01*
X849816Y813447D01*
X848921Y816131D01*
X848027Y817921D01*
X846237Y819711D01*
X843553Y820605D01*
X837289Y820605D01*
X1026526Y665817D02*
G01*
X1033684Y684607D01*
X1040843Y665817D02*
G01*
X1033684Y684607D01*
X1046748Y665817D02*
G01*
X1046748Y684607D01*
X1046748Y665817D02*
G01*
X1053011Y665817D01*
X1055697Y666712D01*
X1057485Y668501D01*
X1058380Y670291D01*
X1059275Y672975D01*
X1059275Y677449D01*
X1058380Y680133D01*
X1057485Y681923D01*
X1055697Y683712D01*
X1053011Y684607D01*
X1046748Y684607D01*
X1065181Y665817D02*
G01*
X1065181Y684607D01*
X1065181Y665817D02*
G01*
X1071445Y665817D01*
X1074129Y666712D01*
X1075918Y668501D01*
X1076813Y670291D01*
X1077708Y672975D01*
X1077708Y677449D01*
X1076813Y680133D01*
X1075918Y681923D01*
X1074129Y683712D01*
X1071445Y684607D01*
X1065181Y684607D01*
X1020527Y800817D02*
G01*
X1020527Y819607D01*
X1020527Y800817D02*
G01*
X1026790Y800817D01*
X1029475Y801712D01*
X1031264Y803501D01*
X1032159Y805291D01*
X1033054Y807975D01*
X1033054Y812449D01*
X1032159Y815133D01*
X1031264Y816923D01*
X1029475Y818712D01*
X1026790Y819607D01*
X1020527Y819607D01*
X1044327Y800817D02*
G01*
X1042538Y801712D01*
X1040748Y803501D01*
X1039853Y805291D01*
X1038959Y807975D01*
X1038959Y812449D01*
X1039853Y815133D01*
X1040748Y816923D01*
X1042538Y818712D01*
X1044327Y819607D01*
X1047906Y819607D01*
X1049696Y818712D01*
X1051486Y816923D01*
X1052380Y815133D01*
X1053275Y812449D01*
X1053275Y807975D01*
X1052380Y805291D01*
X1051486Y803501D01*
X1049696Y801712D01*
X1047906Y800817D01*
X1044327Y800817D01*
X1059180Y800817D02*
G01*
X1059180Y814238D01*
X1060075Y816923D01*
X1061866Y818712D01*
X1064549Y819607D01*
X1066338Y819607D01*
X1069023Y818712D01*
X1070812Y816923D01*
X1071707Y814238D01*
X1071707Y800817D01*
X1083877Y800817D02*
G01*
X1083877Y819607D01*
X1077614Y800817D02*
G01*
X1090140Y800817D01*
X801526Y667817D02*
G01*
X801526Y686606D01*
X801526Y667817D02*
G01*
X807790Y667817D01*
X810474Y668712D01*
X812263Y670500D01*
X813158Y672291D01*
X814053Y674974D01*
X814053Y679448D01*
X813158Y682132D01*
X812263Y683922D01*
X810474Y685713D01*
X807790Y686606D01*
X801526Y686606D01*
X819958Y667817D02*
G01*
X819958Y686606D01*
X825865Y667817D02*
G01*
X825865Y686606D01*
X825865Y667817D02*
G01*
X838392Y686606D01*
X838392Y667817D02*
G01*
X838392Y686606D01*
X1936351Y807689D02*
G01*
X1935456Y805900D01*
X1933666Y804110D01*
X1931877Y803216D01*
X1928298Y803216D01*
X1926508Y804110D01*
X1924719Y805900D01*
X1923824Y807689D01*
X1922929Y810374D01*
X1922929Y814848D01*
X1923824Y817532D01*
X1924719Y819322D01*
X1926508Y821111D01*
X1928298Y822006D01*
X1931877Y822006D01*
X1933666Y821111D01*
X1935456Y819322D01*
X1936351Y817532D01*
X1936351Y814848D01*
X1931877Y814848D02*
G01*
X1936351Y814848D01*
X1942256Y803216D02*
G01*
X1942256Y822006D01*
X1942256Y803216D02*
G01*
X1954783Y822006D01*
X1954783Y803216D02*
G01*
X1954783Y822006D01*
X1960689Y803216D02*
G01*
X1960689Y822006D01*
X1960689Y803216D02*
G01*
X1966953Y803216D01*
X1969637Y804110D01*
X1971427Y805900D01*
X1972321Y807689D01*
X1973216Y810374D01*
X1973216Y814848D01*
X1972321Y817532D01*
X1971427Y819322D01*
X1969637Y821111D01*
X1966953Y822006D01*
X1960689Y822006D01*
X2149926Y667217D02*
G01*
X2157084Y686006D01*
X2164242Y667217D02*
G01*
X2157084Y686006D01*
X2170149Y667217D02*
G01*
X2170149Y686006D01*
X2170149Y667217D02*
G01*
X2176412Y667217D01*
X2179097Y668112D01*
X2180886Y669900D01*
X2181781Y671691D01*
X2182676Y674375D01*
X2182676Y678849D01*
X2181781Y681532D01*
X2180886Y683323D01*
X2179097Y685111D01*
X2176412Y686006D01*
X2170149Y686006D01*
X2188581Y667217D02*
G01*
X2188581Y686006D01*
X2188581Y667217D02*
G01*
X2194844Y667217D01*
X2197529Y668112D01*
X2199318Y669900D01*
X2200213Y671691D01*
X2201108Y674375D01*
X2201108Y678849D01*
X2200213Y681532D01*
X2199318Y683323D01*
X2197529Y685111D01*
X2194844Y686006D01*
X2188581Y686006D01*
X2143927Y802217D02*
G01*
X2143927Y821006D01*
X2143927Y802217D02*
G01*
X2150190Y802217D01*
X2152875Y803112D01*
X2154664Y804900D01*
X2155559Y806691D01*
X2156454Y809375D01*
X2156454Y813849D01*
X2155559Y816532D01*
X2154664Y818323D01*
X2152875Y820111D01*
X2150190Y821006D01*
X2143927Y821006D01*
X2167727Y802217D02*
G01*
X2165937Y803112D01*
X2164148Y804900D01*
X2163253Y806691D01*
X2162358Y809375D01*
X2162358Y813849D01*
X2163253Y816532D01*
X2164148Y818323D01*
X2165937Y820111D01*
X2167727Y821006D01*
X2171306Y821006D01*
X2173096Y820111D01*
X2174885Y818323D01*
X2175780Y816532D01*
X2176675Y813849D01*
X2176675Y809375D01*
X2175780Y806691D01*
X2174885Y804900D01*
X2173096Y803112D01*
X2171306Y802217D01*
X2167727Y802217D01*
X2182581Y802217D02*
G01*
X2182581Y815639D01*
X2183476Y818323D01*
X2185266Y820111D01*
X2187950Y821006D01*
X2189738Y821006D01*
X2192424Y820111D01*
X2194212Y818323D01*
X2195108Y815639D01*
X2195108Y802217D01*
X2207277Y802217D02*
G01*
X2207277Y821006D01*
X2201013Y802217D02*
G01*
X2213540Y802217D01*
X1924926Y669216D02*
G01*
X1924926Y688006D01*
X1924926Y669216D02*
G01*
X1931189Y669216D01*
X1933874Y670111D01*
X1935663Y671900D01*
X1936558Y673690D01*
X1937453Y676374D01*
X1937453Y680848D01*
X1936558Y683533D01*
X1935663Y685322D01*
X1933874Y687112D01*
X1931189Y688006D01*
X1924926Y688006D01*
X1943359Y669216D02*
G01*
X1943359Y688006D01*
X1949264Y669216D02*
G01*
X1949264Y688006D01*
X1949264Y669216D02*
G01*
X1961791Y688006D01*
X1961791Y669216D02*
G01*
X1961791Y688006D01*
D10*
X2619408Y3358000D02*
G01*
X2576454Y3358000D01*
X2619408Y3358000D02*
G01*
X2619408Y3376408D01*
X2617363Y3382545D01*
X2615317Y3384591D01*
X2611226Y3386635D01*
X2605091Y3386635D01*
X2601000Y3384591D01*
X2598954Y3382545D01*
X2596908Y3376408D01*
X2596908Y3358000D01*
X2611226Y3400136D02*
G01*
X2613272Y3404227D01*
X2619408Y3410363D01*
X2576454Y3410363D01*
D11*
X436374Y3807766D02*
G01*
X435479Y3805976D01*
X433688Y3804187D01*
X431900Y3803292D01*
X428321Y3803292D01*
X426530Y3804187D01*
X424742Y3805976D01*
X423847Y3807766D01*
X422952Y3810450D01*
X422952Y3814924D01*
X423847Y3817608D01*
X424742Y3819398D01*
X426530Y3821187D01*
X428321Y3822082D01*
X431900Y3822082D01*
X433688Y3821187D01*
X435479Y3819398D01*
X436374Y3817608D01*
X436374Y3814924D01*
X431900Y3814924D02*
G01*
X436374Y3814924D01*
X442278Y3803292D02*
G01*
X442278Y3822082D01*
X442278Y3803292D02*
G01*
X454805Y3822082D01*
X454805Y3803292D02*
G01*
X454805Y3822082D01*
X460711Y3803292D02*
G01*
X460711Y3822082D01*
X460711Y3803292D02*
G01*
X466975Y3803292D01*
X469659Y3804187D01*
X471449Y3805976D01*
X472343Y3807766D01*
X473238Y3810450D01*
X473238Y3814924D01*
X472343Y3817608D01*
X471449Y3819398D01*
X469659Y3821187D01*
X466975Y3822082D01*
X460711Y3822082D01*
X649948Y3667292D02*
G01*
X657106Y3686082D01*
X664264Y3667292D02*
G01*
X657106Y3686082D01*
X670171Y3667292D02*
G01*
X670171Y3686082D01*
X670171Y3667292D02*
G01*
X676433Y3667292D01*
X679119Y3668188D01*
X680907Y3669976D01*
X681802Y3671767D01*
X682698Y3674450D01*
X682698Y3678924D01*
X681802Y3681608D01*
X680907Y3683398D01*
X679119Y3685187D01*
X676433Y3686082D01*
X670171Y3686082D01*
X688603Y3667292D02*
G01*
X688603Y3686082D01*
X688603Y3667292D02*
G01*
X694867Y3667292D01*
X697551Y3668188D01*
X699340Y3669976D01*
X700235Y3671767D01*
X701130Y3674450D01*
X701130Y3678924D01*
X700235Y3681608D01*
X699340Y3683398D01*
X697551Y3685187D01*
X694867Y3686082D01*
X688603Y3686082D01*
X643949Y3802292D02*
G01*
X643949Y3821082D01*
X643949Y3802292D02*
G01*
X650212Y3802292D01*
X652897Y3803188D01*
X654686Y3804976D01*
X655581Y3806767D01*
X656476Y3809450D01*
X656476Y3813924D01*
X655581Y3816608D01*
X654686Y3818398D01*
X652897Y3820187D01*
X650212Y3821082D01*
X643949Y3821082D01*
X667749Y3802292D02*
G01*
X665959Y3803188D01*
X664170Y3804976D01*
X663275Y3806767D01*
X662380Y3809450D01*
X662380Y3813924D01*
X663275Y3816608D01*
X664170Y3818398D01*
X665959Y3820187D01*
X667749Y3821082D01*
X671328Y3821082D01*
X673118Y3820187D01*
X674907Y3818398D01*
X675802Y3816608D01*
X676697Y3813924D01*
X676697Y3809450D01*
X675802Y3806767D01*
X674907Y3804976D01*
X673118Y3803188D01*
X671328Y3802292D01*
X667749Y3802292D01*
X682602Y3802292D02*
G01*
X682602Y3815715D01*
X683497Y3818398D01*
X685288Y3820187D01*
X687971Y3821082D01*
X689760Y3821082D01*
X692445Y3820187D01*
X694234Y3818398D01*
X695129Y3815715D01*
X695129Y3802292D01*
X707299Y3802292D02*
G01*
X707299Y3821082D01*
X701036Y3802292D02*
G01*
X713562Y3802292D01*
X424949Y3669292D02*
G01*
X424949Y3688083D01*
X424949Y3669292D02*
G01*
X431212Y3669292D01*
X433897Y3670187D01*
X435686Y3671977D01*
X436581Y3673766D01*
X437476Y3676451D01*
X437476Y3680925D01*
X436581Y3683609D01*
X435686Y3685399D01*
X433897Y3687188D01*
X431212Y3688083D01*
X424949Y3688083D01*
X443380Y3669292D02*
G01*
X443380Y3688083D01*
X449287Y3669292D02*
G01*
X449287Y3688083D01*
X449287Y3669292D02*
G01*
X461814Y3688083D01*
X461814Y3669292D02*
G01*
X461814Y3688083D01*
X436374Y3057750D02*
G01*
X435479Y3055960D01*
X433688Y3054171D01*
X431900Y3053276D01*
X428321Y3053276D01*
X426530Y3054171D01*
X424742Y3055960D01*
X423847Y3057750D01*
X422952Y3060434D01*
X422952Y3064908D01*
X423847Y3067591D01*
X424742Y3069382D01*
X426530Y3071170D01*
X428321Y3072066D01*
X431900Y3072066D01*
X433688Y3071170D01*
X435479Y3069382D01*
X436374Y3067591D01*
X436374Y3064908D01*
X431900Y3064908D02*
G01*
X436374Y3064908D01*
X442278Y3053276D02*
G01*
X442278Y3072066D01*
X442278Y3053276D02*
G01*
X454805Y3072066D01*
X454805Y3053276D02*
G01*
X454805Y3072066D01*
X460711Y3053276D02*
G01*
X460711Y3072066D01*
X460711Y3053276D02*
G01*
X466975Y3053276D01*
X469659Y3054171D01*
X471449Y3055960D01*
X472343Y3057750D01*
X473238Y3060434D01*
X473238Y3064908D01*
X472343Y3067591D01*
X471449Y3069382D01*
X469659Y3071170D01*
X466975Y3072066D01*
X460711Y3072066D01*
X649948Y2917276D02*
G01*
X657106Y2936066D01*
X664264Y2917276D02*
G01*
X657106Y2936066D01*
X670171Y2917276D02*
G01*
X670171Y2936066D01*
X670171Y2917276D02*
G01*
X676433Y2917276D01*
X679119Y2918171D01*
X680907Y2919960D01*
X681802Y2921750D01*
X682698Y2924434D01*
X682698Y2928908D01*
X681802Y2931592D01*
X680907Y2933382D01*
X679119Y2935171D01*
X676433Y2936066D01*
X670171Y2936066D01*
X688603Y2917276D02*
G01*
X688603Y2936066D01*
X688603Y2917276D02*
G01*
X694867Y2917276D01*
X697551Y2918171D01*
X699340Y2919960D01*
X700235Y2921750D01*
X701130Y2924434D01*
X701130Y2928908D01*
X700235Y2931592D01*
X699340Y2933382D01*
X697551Y2935171D01*
X694867Y2936066D01*
X688603Y2936066D01*
X643949Y3052276D02*
G01*
X643949Y3071066D01*
X643949Y3052276D02*
G01*
X650212Y3052276D01*
X652897Y3053171D01*
X654686Y3054960D01*
X655581Y3056750D01*
X656476Y3059434D01*
X656476Y3063908D01*
X655581Y3066592D01*
X654686Y3068382D01*
X652897Y3070171D01*
X650212Y3071066D01*
X643949Y3071066D01*
X667749Y3052276D02*
G01*
X665959Y3053171D01*
X664170Y3054960D01*
X663275Y3056750D01*
X662380Y3059434D01*
X662380Y3063908D01*
X663275Y3066592D01*
X664170Y3068382D01*
X665959Y3070171D01*
X667749Y3071066D01*
X671328Y3071066D01*
X673118Y3070171D01*
X674907Y3068382D01*
X675802Y3066592D01*
X676697Y3063908D01*
X676697Y3059434D01*
X675802Y3056750D01*
X674907Y3054960D01*
X673118Y3053171D01*
X671328Y3052276D01*
X667749Y3052276D01*
X682602Y3052276D02*
G01*
X682602Y3065698D01*
X683497Y3068382D01*
X685288Y3070171D01*
X687971Y3071066D01*
X689760Y3071066D01*
X692445Y3070171D01*
X694234Y3068382D01*
X695129Y3065698D01*
X695129Y3052276D01*
X707299Y3052276D02*
G01*
X707299Y3071066D01*
X701036Y3052276D02*
G01*
X713562Y3052276D01*
X424949Y2919277D02*
G01*
X424949Y2938067D01*
X424949Y2919277D02*
G01*
X431212Y2919277D01*
X433897Y2920171D01*
X435686Y2921961D01*
X436581Y2923751D01*
X437476Y2926435D01*
X437476Y2930909D01*
X436581Y2933593D01*
X435686Y2935383D01*
X433897Y2937172D01*
X431212Y2938067D01*
X424949Y2938067D01*
X443380Y2919277D02*
G01*
X443380Y2938067D01*
X449287Y2919277D02*
G01*
X449287Y2938067D01*
X449287Y2919277D02*
G01*
X461814Y2938067D01*
X461814Y2919277D02*
G01*
X461814Y2938067D01*
X1186390Y3057750D02*
G01*
X1185495Y3055960D01*
X1183705Y3054171D01*
X1181916Y3053276D01*
X1178337Y3053276D01*
X1176547Y3054171D01*
X1174758Y3055960D01*
X1173863Y3057750D01*
X1172968Y3060434D01*
X1172968Y3064908D01*
X1173863Y3067591D01*
X1174758Y3069382D01*
X1176547Y3071170D01*
X1178337Y3072066D01*
X1181916Y3072066D01*
X1183705Y3071170D01*
X1185495Y3069382D01*
X1186390Y3067591D01*
X1186390Y3064908D01*
X1181916Y3064908D02*
G01*
X1186390Y3064908D01*
X1192295Y3053276D02*
G01*
X1192295Y3072066D01*
X1192295Y3053276D02*
G01*
X1204822Y3072066D01*
X1204822Y3053276D02*
G01*
X1204822Y3072066D01*
X1210726Y3053276D02*
G01*
X1210726Y3072066D01*
X1210726Y3053276D02*
G01*
X1216990Y3053276D01*
X1219674Y3054171D01*
X1221464Y3055960D01*
X1222358Y3057750D01*
X1223253Y3060434D01*
X1223253Y3064908D01*
X1222358Y3067591D01*
X1221464Y3069382D01*
X1219674Y3071170D01*
X1216990Y3072066D01*
X1210726Y3072066D01*
X1399965Y2917276D02*
G01*
X1407123Y2936066D01*
X1414281Y2917276D02*
G01*
X1407123Y2936066D01*
X1420186Y2917276D02*
G01*
X1420186Y2936066D01*
X1420186Y2917276D02*
G01*
X1426450Y2917276D01*
X1429134Y2918171D01*
X1430924Y2919960D01*
X1431818Y2921750D01*
X1432713Y2924434D01*
X1432713Y2928908D01*
X1431818Y2931592D01*
X1430924Y2933382D01*
X1429134Y2935171D01*
X1426450Y2936066D01*
X1420186Y2936066D01*
X1438618Y2917276D02*
G01*
X1438618Y2936066D01*
X1438618Y2917276D02*
G01*
X1444882Y2917276D01*
X1447566Y2918171D01*
X1449355Y2919960D01*
X1450250Y2921750D01*
X1451145Y2924434D01*
X1451145Y2928908D01*
X1450250Y2931592D01*
X1449355Y2933382D01*
X1447566Y2935171D01*
X1444882Y2936066D01*
X1438618Y2936066D01*
X1393964Y3052276D02*
G01*
X1393964Y3071066D01*
X1393964Y3052276D02*
G01*
X1400227Y3052276D01*
X1402912Y3053171D01*
X1404701Y3054960D01*
X1405596Y3056750D01*
X1406491Y3059434D01*
X1406491Y3063908D01*
X1405596Y3066592D01*
X1404701Y3068382D01*
X1402912Y3070171D01*
X1400227Y3071066D01*
X1393964Y3071066D01*
X1417766Y3052276D02*
G01*
X1415976Y3053171D01*
X1414187Y3054960D01*
X1413292Y3056750D01*
X1412397Y3059434D01*
X1412397Y3063908D01*
X1413292Y3066592D01*
X1414187Y3068382D01*
X1415976Y3070171D01*
X1417766Y3071066D01*
X1421345Y3071066D01*
X1423135Y3070171D01*
X1424924Y3068382D01*
X1425819Y3066592D01*
X1426714Y3063908D01*
X1426714Y3059434D01*
X1425819Y3056750D01*
X1424924Y3054960D01*
X1423135Y3053171D01*
X1421345Y3052276D01*
X1417766Y3052276D01*
X1432619Y3052276D02*
G01*
X1432619Y3065698D01*
X1433513Y3068382D01*
X1435303Y3070171D01*
X1437987Y3071066D01*
X1439777Y3071066D01*
X1442461Y3070171D01*
X1444251Y3068382D01*
X1445146Y3065698D01*
X1445146Y3052276D01*
X1457314Y3052276D02*
G01*
X1457314Y3071066D01*
X1451051Y3052276D02*
G01*
X1463577Y3052276D01*
X1174965Y2919277D02*
G01*
X1174965Y2938067D01*
X1174965Y2919277D02*
G01*
X1181228Y2919277D01*
X1183913Y2920171D01*
X1185702Y2921961D01*
X1186597Y2923751D01*
X1187492Y2926435D01*
X1187492Y2930909D01*
X1186597Y2933593D01*
X1185702Y2935383D01*
X1183913Y2937172D01*
X1181228Y2938067D01*
X1174965Y2938067D01*
X1193397Y2919277D02*
G01*
X1193397Y2938067D01*
X1199303Y2919277D02*
G01*
X1199303Y2938067D01*
X1199303Y2919277D02*
G01*
X1211830Y2938067D01*
X1211830Y2919277D02*
G01*
X1211830Y2938067D01*
X1936405Y3057750D02*
G01*
X1935510Y3055960D01*
X1933720Y3054171D01*
X1931931Y3053276D01*
X1928352Y3053276D01*
X1926562Y3054171D01*
X1924773Y3055960D01*
X1923878Y3057750D01*
X1922983Y3060434D01*
X1922983Y3064908D01*
X1923878Y3067591D01*
X1924773Y3069382D01*
X1926562Y3071170D01*
X1928352Y3072066D01*
X1931931Y3072066D01*
X1933720Y3071170D01*
X1935510Y3069382D01*
X1936405Y3067591D01*
X1936405Y3064908D01*
X1931931Y3064908D02*
G01*
X1936405Y3064908D01*
X1942310Y3053276D02*
G01*
X1942310Y3072066D01*
X1942310Y3053276D02*
G01*
X1954837Y3072066D01*
X1954837Y3053276D02*
G01*
X1954837Y3072066D01*
X1960743Y3053276D02*
G01*
X1960743Y3072066D01*
X1960743Y3053276D02*
G01*
X1967007Y3053276D01*
X1969691Y3054171D01*
X1971481Y3055960D01*
X1972375Y3057750D01*
X1973270Y3060434D01*
X1973270Y3064908D01*
X1972375Y3067591D01*
X1971481Y3069382D01*
X1969691Y3071170D01*
X1967007Y3072066D01*
X1960743Y3072066D01*
X2149980Y2917276D02*
G01*
X2157138Y2936066D01*
X2164296Y2917276D02*
G01*
X2157138Y2936066D01*
X2170203Y2917276D02*
G01*
X2170203Y2936066D01*
X2170203Y2917276D02*
G01*
X2176466Y2917276D01*
X2179151Y2918171D01*
X2180940Y2919960D01*
X2181835Y2921750D01*
X2182730Y2924434D01*
X2182730Y2928908D01*
X2181835Y2931592D01*
X2180940Y2933382D01*
X2179151Y2935171D01*
X2176466Y2936066D01*
X2170203Y2936066D01*
X2188635Y2917276D02*
G01*
X2188635Y2936066D01*
X2188635Y2917276D02*
G01*
X2194898Y2917276D01*
X2197583Y2918171D01*
X2199372Y2919960D01*
X2200267Y2921750D01*
X2201162Y2924434D01*
X2201162Y2928908D01*
X2200267Y2931592D01*
X2199372Y2933382D01*
X2197583Y2935171D01*
X2194898Y2936066D01*
X2188635Y2936066D01*
X2143981Y3052276D02*
G01*
X2143981Y3071066D01*
X2143981Y3052276D02*
G01*
X2150244Y3052276D01*
X2152929Y3053171D01*
X2154718Y3054960D01*
X2155613Y3056750D01*
X2156508Y3059434D01*
X2156508Y3063908D01*
X2155613Y3066592D01*
X2154718Y3068382D01*
X2152929Y3070171D01*
X2150244Y3071066D01*
X2143981Y3071066D01*
X2167781Y3052276D02*
G01*
X2165991Y3053171D01*
X2164202Y3054960D01*
X2163307Y3056750D01*
X2162412Y3059434D01*
X2162412Y3063908D01*
X2163307Y3066592D01*
X2164202Y3068382D01*
X2165991Y3070171D01*
X2167781Y3071066D01*
X2171360Y3071066D01*
X2173150Y3070171D01*
X2174939Y3068382D01*
X2175834Y3066592D01*
X2176729Y3063908D01*
X2176729Y3059434D01*
X2175834Y3056750D01*
X2174939Y3054960D01*
X2173150Y3053171D01*
X2171360Y3052276D01*
X2167781Y3052276D01*
X2182635Y3052276D02*
G01*
X2182635Y3065698D01*
X2183530Y3068382D01*
X2185320Y3070171D01*
X2188004Y3071066D01*
X2189792Y3071066D01*
X2192478Y3070171D01*
X2194267Y3068382D01*
X2195162Y3065698D01*
X2195162Y3052276D01*
X2207331Y3052276D02*
G01*
X2207331Y3071066D01*
X2201067Y3052276D02*
G01*
X2213594Y3052276D01*
X1924980Y2919277D02*
G01*
X1924980Y2938067D01*
X1924980Y2919277D02*
G01*
X1931243Y2919277D01*
X1933928Y2920171D01*
X1935717Y2921961D01*
X1936612Y2923751D01*
X1937507Y2926435D01*
X1937507Y2930909D01*
X1936612Y2933593D01*
X1935717Y2935383D01*
X1933928Y2937172D01*
X1931243Y2938067D01*
X1924980Y2938067D01*
X1943413Y2919277D02*
G01*
X1943413Y2938067D01*
X1949318Y2919277D02*
G01*
X1949318Y2938067D01*
X1949318Y2919277D02*
G01*
X1961845Y2938067D01*
X1961845Y2919277D02*
G01*
X1961845Y2938067D01*
X2686422Y3057750D02*
G01*
X2685527Y3055960D01*
X2683737Y3054171D01*
X2681948Y3053276D01*
X2678369Y3053276D01*
X2676579Y3054171D01*
X2674790Y3055960D01*
X2673895Y3057750D01*
X2673000Y3060434D01*
X2673000Y3064908D01*
X2673895Y3067591D01*
X2674790Y3069382D01*
X2676579Y3071170D01*
X2678369Y3072066D01*
X2681948Y3072066D01*
X2683737Y3071170D01*
X2685527Y3069382D01*
X2686422Y3067591D01*
X2686422Y3064908D01*
X2681948Y3064908D02*
G01*
X2686422Y3064908D01*
X2692326Y3053276D02*
G01*
X2692326Y3072066D01*
X2692326Y3053276D02*
G01*
X2704853Y3072066D01*
X2704853Y3053276D02*
G01*
X2704853Y3072066D01*
X2710758Y3053276D02*
G01*
X2710758Y3072066D01*
X2710758Y3053276D02*
G01*
X2717022Y3053276D01*
X2719706Y3054171D01*
X2721496Y3055960D01*
X2722390Y3057750D01*
X2723285Y3060434D01*
X2723285Y3064908D01*
X2722390Y3067591D01*
X2721496Y3069382D01*
X2719706Y3071170D01*
X2717022Y3072066D01*
X2710758Y3072066D01*
X2899997Y2917276D02*
G01*
X2907155Y2936066D01*
X2914313Y2917276D02*
G01*
X2907155Y2936066D01*
X2920218Y2917276D02*
G01*
X2920218Y2936066D01*
X2920218Y2917276D02*
G01*
X2926481Y2917276D01*
X2929166Y2918171D01*
X2930955Y2919960D01*
X2931850Y2921750D01*
X2932745Y2924434D01*
X2932745Y2928908D01*
X2931850Y2931592D01*
X2930955Y2933382D01*
X2929166Y2935171D01*
X2926481Y2936066D01*
X2920218Y2936066D01*
X2938651Y2917276D02*
G01*
X2938651Y2936066D01*
X2938651Y2917276D02*
G01*
X2944915Y2917276D01*
X2947599Y2918171D01*
X2949387Y2919960D01*
X2950282Y2921750D01*
X2951178Y2924434D01*
X2951178Y2928908D01*
X2950282Y2931592D01*
X2949387Y2933382D01*
X2947599Y2935171D01*
X2944915Y2936066D01*
X2938651Y2936066D01*
X2893996Y3052276D02*
G01*
X2893996Y3071066D01*
X2893996Y3052276D02*
G01*
X2900259Y3052276D01*
X2902944Y3053171D01*
X2904733Y3054960D01*
X2905628Y3056750D01*
X2906523Y3059434D01*
X2906523Y3063908D01*
X2905628Y3066592D01*
X2904733Y3068382D01*
X2902944Y3070171D01*
X2900259Y3071066D01*
X2893996Y3071066D01*
X2917798Y3052276D02*
G01*
X2916008Y3053171D01*
X2914219Y3054960D01*
X2913324Y3056750D01*
X2912429Y3059434D01*
X2912429Y3063908D01*
X2913324Y3066592D01*
X2914219Y3068382D01*
X2916008Y3070171D01*
X2917798Y3071066D01*
X2921377Y3071066D01*
X2923167Y3070171D01*
X2924956Y3068382D01*
X2925851Y3066592D01*
X2926746Y3063908D01*
X2926746Y3059434D01*
X2925851Y3056750D01*
X2924956Y3054960D01*
X2923167Y3053171D01*
X2921377Y3052276D01*
X2917798Y3052276D01*
X2932650Y3052276D02*
G01*
X2932650Y3065698D01*
X2933545Y3068382D01*
X2935335Y3070171D01*
X2938019Y3071066D01*
X2939808Y3071066D01*
X2942493Y3070171D01*
X2944282Y3068382D01*
X2945177Y3065698D01*
X2945177Y3052276D01*
X2957346Y3052276D02*
G01*
X2957346Y3071066D01*
X2951084Y3052276D02*
G01*
X2963609Y3052276D01*
X2674997Y2919277D02*
G01*
X2674997Y2938067D01*
X2674997Y2919277D02*
G01*
X2681260Y2919277D01*
X2683945Y2920171D01*
X2685734Y2921961D01*
X2686629Y2923751D01*
X2687524Y2926435D01*
X2687524Y2930909D01*
X2686629Y2933593D01*
X2685734Y2935383D01*
X2683945Y2937172D01*
X2681260Y2938067D01*
X2674997Y2938067D01*
X2693428Y2919277D02*
G01*
X2693428Y2938067D01*
X2699335Y2919277D02*
G01*
X2699335Y2938067D01*
X2699335Y2919277D02*
G01*
X2711862Y2938067D01*
X2711862Y2919277D02*
G01*
X2711862Y2938067D01*
D10*
X275398Y3495003D02*
G01*
X232498Y3495003D01*
X232498Y3495003D02*
G01*
X232498Y3519504D01*
X275398Y3533004D02*
G01*
X232498Y3533004D01*
X275398Y3533004D02*
G01*
X275398Y3559603D01*
X254998Y3533004D02*
G01*
X254998Y3549403D01*
X232498Y3533004D02*
G01*
X232498Y3559603D01*
X275398Y3573103D02*
G01*
X232498Y3573103D01*
X275398Y3573103D02*
G01*
X275398Y3587503D01*
X273398Y3593604D01*
X269297Y3597703D01*
X265198Y3599704D01*
X258998Y3601804D01*
X248798Y3601804D01*
X242698Y3599704D01*
X238598Y3597703D01*
X234497Y3593604D01*
X232498Y3587503D01*
X232498Y3573103D01*
X267197Y3615304D02*
G01*
X269297Y3619403D01*
X275398Y3625504D01*
X232498Y3625504D01*
X2858401Y3227305D02*
G01*
X2862501Y3231404D01*
X2868600Y3233404D01*
X2876800Y3233404D01*
X2882901Y3231404D01*
X2887001Y3227305D01*
X2887001Y3223204D01*
X2885001Y3219104D01*
X2882901Y3217004D01*
X2878801Y3215005D01*
X2866500Y3210904D01*
X2862501Y3208904D01*
X2860401Y3206804D01*
X2858401Y3202705D01*
X2858401Y3196604D01*
X2862501Y3192505D01*
X2868600Y3190504D01*
X2876800Y3190504D01*
X2882901Y3192505D01*
X2887001Y3196604D01*
X2844901Y3233404D02*
G01*
X2834601Y3190504D01*
X2824400Y3233404D02*
G01*
X2834601Y3190504D01*
X2824400Y3233404D02*
G01*
X2814201Y3190504D01*
X2804000Y3233404D02*
G01*
X2814201Y3190504D01*
X2790501Y3225205D02*
G01*
X2786400Y3227305D01*
X2780200Y3233404D01*
X2780200Y3190504D01*
G36*
X394420Y2310080D02*
G01*
X394420Y2290080D01*
X413420Y2310080D01*
G37*
G36*
X1144420Y2310080D02*
G01*
X1144420Y2290080D01*
X1163420Y2310080D01*
G37*
G36*
X1894420Y2310080D02*
G01*
X1894420Y2290080D01*
X1913420Y2310080D01*
G37*
G36*
X2644520Y2310080D02*
G01*
X2644520Y2290080D01*
X2663519Y2310080D01*
G37*
G36*
X394420Y1560080D02*
G01*
X394420Y1540080D01*
X413420Y1560080D01*
G37*
G36*
X1144420Y1560080D02*
G01*
X1144420Y1540080D01*
X1163420Y1560080D01*
G37*
G36*
X1894420Y1560080D02*
G01*
X1894420Y1540080D01*
X1913420Y1560080D01*
G37*
G36*
X3040059Y1105560D02*
G01*
X3060059Y1086560D01*
X3060059Y1105560D01*
G37*
G36*
X771020Y808680D02*
G01*
X771020Y788680D01*
X790020Y808680D01*
G37*
G36*
X1894420Y810080D02*
G01*
X1894420Y790080D01*
X1913420Y810080D01*
G37*
G36*
X394440Y3810160D02*
G01*
X394440Y3790160D01*
X413440Y3810160D01*
G37*
G36*
X394440Y3060140D02*
G01*
X394440Y3040140D01*
X413440Y3060140D01*
G37*
G36*
X1144460Y3060140D02*
G01*
X1144460Y3040140D01*
X1163460Y3060140D01*
G37*
G36*
X1894480Y3060140D02*
G01*
X1894480Y3040140D01*
X1913480Y3060140D01*
G37*
G36*
X2644500Y3060140D02*
G01*
X2644500Y3040140D01*
X2663500Y3060140D01*
G37*
D12*
X2396000Y3120970D02*
G01*
X2553479Y3120970D01*
X2553479Y3239079D01*
X2396000Y3239079D01*
X2396000Y3120970D01*
X2416350Y3140569D02*
G01*
X2534459Y3140569D01*
X2534459Y3219310D01*
X2416350Y3219310D01*
X2416350Y3140569D01*
D10*
X2147748Y3215106D02*
G01*
X2198335Y3215106D01*
X2198335Y3142894D01*
X2147748Y3142894D01*
X2110252Y3215106D02*
G01*
X2059664Y3215106D01*
X2059664Y3142894D01*
X2110252Y3142894D01*
X176705Y3262552D02*
G01*
X176705Y3211963D01*
X104493Y3211963D01*
X104493Y3262552D01*
X176705Y3300048D02*
G01*
X176705Y3350635D01*
X104493Y3350635D01*
X104493Y3300048D01*
D13*
X927908Y3221475D02*
G01*
X927908Y3339585D01*
X853905Y3222002D02*
G01*
X853905Y3340111D01*
X890644Y3251320D02*
G01*
X890644Y3311320D01*
X910644Y3261320D02*
G01*
X870644Y3261320D01*
X874643Y3301320D02*
G01*
X890644Y3261320D01*
X906643Y3301320D02*
G01*
X874643Y3301320D01*
X890644Y3261320D02*
G01*
X906643Y3301320D01*
X3177956Y3221475D02*
G01*
X3177956Y3339585D01*
X3103954Y3222002D02*
G01*
X3103954Y3340111D01*
X3140691Y3251320D02*
G01*
X3140691Y3311320D01*
X3160691Y3261320D02*
G01*
X3120691Y3261320D01*
X3124691Y3301320D02*
G01*
X3140691Y3261320D01*
X3156692Y3301320D02*
G01*
X3124691Y3301320D01*
X3140691Y3261320D02*
G01*
X3156692Y3301320D01*
X927908Y2471460D02*
G01*
X927908Y2589569D01*
X853905Y2471986D02*
G01*
X853905Y2590095D01*
X890644Y2501304D02*
G01*
X890644Y2561304D01*
X910644Y2511304D02*
G01*
X870644Y2511304D01*
X874643Y2551304D02*
G01*
X890644Y2511304D01*
X906643Y2551304D02*
G01*
X874643Y2551304D01*
X890644Y2511304D02*
G01*
X906643Y2551304D01*
X1677924Y2471460D02*
G01*
X1677924Y2589569D01*
X1603922Y2471986D02*
G01*
X1603922Y2590095D01*
X1640659Y2501304D02*
G01*
X1640659Y2561304D01*
X1660659Y2511304D02*
G01*
X1620659Y2511304D01*
X1624660Y2551304D02*
G01*
X1640659Y2511304D01*
X1656660Y2551304D02*
G01*
X1624660Y2551304D01*
X1640659Y2511304D02*
G01*
X1656660Y2551304D01*
X2427941Y2471460D02*
G01*
X2427941Y2589569D01*
X2353937Y2471986D02*
G01*
X2353937Y2590095D01*
X2390676Y2501304D02*
G01*
X2390676Y2561304D01*
X2410676Y2511304D02*
G01*
X2370676Y2511304D01*
X2374675Y2551304D02*
G01*
X2390676Y2511304D01*
X2406675Y2551304D02*
G01*
X2374675Y2551304D01*
X2390676Y2511304D02*
G01*
X2406675Y2551304D01*
X3177956Y2471460D02*
G01*
X3177956Y2589569D01*
X3103954Y2471986D02*
G01*
X3103954Y2590095D01*
X3140691Y2501304D02*
G01*
X3140691Y2561304D01*
X3160691Y2511304D02*
G01*
X3120691Y2511304D01*
X3124691Y2551304D02*
G01*
X3140691Y2511304D01*
X3156692Y2551304D02*
G01*
X3124691Y2551304D01*
X3140691Y2511304D02*
G01*
X3156692Y2551304D01*
X927908Y1721444D02*
G01*
X927908Y1839553D01*
X853905Y1721970D02*
G01*
X853905Y1840079D01*
X890644Y1751287D02*
G01*
X890644Y1811287D01*
X910644Y1761287D02*
G01*
X870644Y1761287D01*
X874643Y1801287D02*
G01*
X890644Y1761287D01*
X906643Y1801287D02*
G01*
X874643Y1801287D01*
X890644Y1761287D02*
G01*
X906643Y1801287D01*
X1677924Y1721444D02*
G01*
X1677924Y1839553D01*
X1603922Y1721970D02*
G01*
X1603922Y1840079D01*
X1640659Y1751287D02*
G01*
X1640659Y1811287D01*
X1660659Y1761287D02*
G01*
X1620659Y1761287D01*
X1624660Y1801287D02*
G01*
X1640659Y1761287D01*
X1656660Y1801287D02*
G01*
X1624660Y1801287D01*
X1640659Y1761287D02*
G01*
X1656660Y1801287D01*
X2427941Y1721444D02*
G01*
X2427941Y1839553D01*
X2353937Y1721970D02*
G01*
X2353937Y1840079D01*
X2390676Y1751287D02*
G01*
X2390676Y1811287D01*
X2410676Y1761287D02*
G01*
X2370676Y1761287D01*
X2374675Y1801287D02*
G01*
X2390676Y1761287D01*
X2406675Y1801287D02*
G01*
X2374675Y1801287D01*
X2390676Y1761287D02*
G01*
X2406675Y1801287D01*
X3177956Y1721444D02*
G01*
X3177956Y1839553D01*
X3103954Y1721970D02*
G01*
X3103954Y1840079D01*
X3140691Y1751287D02*
G01*
X3140691Y1811287D01*
X3160691Y1761287D02*
G01*
X3120691Y1761287D01*
X3124691Y1801287D02*
G01*
X3140691Y1761287D01*
X3156692Y1801287D02*
G01*
X3124691Y1801287D01*
X3140691Y1761287D02*
G01*
X3156692Y1801287D01*
X927908Y971428D02*
G01*
X927908Y1089537D01*
X853905Y971954D02*
G01*
X853905Y1090064D01*
X890644Y1001271D02*
G01*
X890644Y1061271D01*
X910644Y1011271D02*
G01*
X870644Y1011271D01*
X874643Y1051271D02*
G01*
X890644Y1011271D01*
X906643Y1051271D02*
G01*
X874643Y1051271D01*
X890644Y1011271D02*
G01*
X906643Y1051271D01*
X1677924Y971428D02*
G01*
X1677924Y1089537D01*
X1603922Y971954D02*
G01*
X1603922Y1090064D01*
X1640659Y1001271D02*
G01*
X1640659Y1061271D01*
X1660659Y1011271D02*
G01*
X1620659Y1011271D01*
X1624660Y1051271D02*
G01*
X1640659Y1011271D01*
X1656660Y1051271D02*
G01*
X1624660Y1051271D01*
X1640659Y1011271D02*
G01*
X1656660Y1051271D01*
X2427941Y971428D02*
G01*
X2427941Y1089537D01*
X2353937Y971954D02*
G01*
X2353937Y1090064D01*
X2390676Y1001271D02*
G01*
X2390676Y1061271D01*
X2410676Y1011271D02*
G01*
X2370676Y1011271D01*
X2374675Y1051271D02*
G01*
X2390676Y1011271D01*
X2406675Y1051271D02*
G01*
X2374675Y1051271D01*
X2390676Y1011271D02*
G01*
X2406675Y1051271D01*
X2447163Y762984D02*
G01*
X2447163Y644873D01*
X2521166Y762458D02*
G01*
X2521166Y644348D01*
X2484427Y733139D02*
G01*
X2484427Y673139D01*
X2464427Y723139D02*
G01*
X2504427Y723139D01*
X2500428Y683139D02*
G01*
X2484427Y723139D01*
X2468428Y683139D02*
G01*
X2500428Y683139D01*
X2484427Y723139D02*
G01*
X2468428Y683139D01*
X1643697Y335857D02*
G01*
X1643697Y453967D01*
X1569693Y336383D02*
G01*
X1569693Y454493D01*
X1606432Y365702D02*
G01*
X1606432Y425702D01*
X1626432Y375702D02*
G01*
X1586432Y375702D01*
X1590432Y415702D02*
G01*
X1606432Y375702D01*
X1622431Y415702D02*
G01*
X1590432Y415702D01*
X1606432Y375702D02*
G01*
X1622431Y415702D01*
X2427941Y221412D02*
G01*
X2427941Y339522D01*
X2353937Y221938D02*
G01*
X2353937Y340048D01*
X2390676Y251255D02*
G01*
X2390676Y311255D01*
X2410676Y261255D02*
G01*
X2370676Y261255D01*
X2374675Y301255D02*
G01*
X2390676Y261255D01*
X2406675Y301255D02*
G01*
X2374675Y301255D01*
X2390676Y261255D02*
G01*
X2406675Y301255D01*
D14*
X3009435Y184380D02*
G01*
X2709435Y184380D01*
X2709435Y184380D02*
G01*
X2709435Y284380D01*
X3009435Y284380D02*
G01*
X2709435Y284380D01*
X3009435Y184380D02*
G01*
X3009435Y284380D01*
D13*
X731514Y1793492D02*
G01*
X371516Y1793492D01*
X371516Y1953492D02*
G01*
X371516Y1793492D01*
X371516Y1953492D02*
G01*
X577515Y1953492D01*
X659517Y2030493D02*
G01*
X801514Y2030493D01*
X801514Y1863492D01*
X1481514Y1793492D02*
G01*
X1121517Y1793492D01*
X1121517Y1953492D02*
G01*
X1121517Y1793492D01*
X1121517Y1953492D02*
G01*
X1327515Y1953492D01*
X1409517Y2030493D02*
G01*
X1551514Y2030493D01*
X1551514Y1863492D01*
X2231514Y1793492D02*
G01*
X1871517Y1793492D01*
X1871517Y1953492D02*
G01*
X1871517Y1793492D01*
X1871517Y1953492D02*
G01*
X2077515Y1953492D01*
X2159517Y2030493D02*
G01*
X2301514Y2030493D01*
X2301514Y1863492D01*
X2981615Y1793492D02*
G01*
X2621616Y1793492D01*
X2621616Y1953492D02*
G01*
X2621616Y1793492D01*
X2621616Y1953492D02*
G01*
X2827615Y1953492D01*
X2909618Y2030493D02*
G01*
X3051615Y2030493D01*
X3051615Y1863492D01*
X731514Y1043492D02*
G01*
X371516Y1043492D01*
X371516Y1203492D02*
G01*
X371516Y1043492D01*
X371516Y1203492D02*
G01*
X577515Y1203492D01*
X659517Y1280493D02*
G01*
X801514Y1280493D01*
X801514Y1113492D01*
X1481514Y1043492D02*
G01*
X1121517Y1043492D01*
X1121517Y1203492D02*
G01*
X1121517Y1043492D01*
X1121517Y1203492D02*
G01*
X1327515Y1203492D01*
X1409517Y1280493D02*
G01*
X1551514Y1280493D01*
X1551514Y1113492D01*
X2231514Y1043492D02*
G01*
X1871517Y1043492D01*
X1871517Y1203492D02*
G01*
X1871517Y1043492D01*
X1871517Y1203492D02*
G01*
X2077515Y1203492D01*
X2159517Y1280493D02*
G01*
X2301514Y1280493D01*
X2301514Y1113492D01*
X2543482Y768474D02*
G01*
X2543482Y1128472D01*
X2703482Y1128472D02*
G01*
X2543482Y1128472D01*
X2703482Y1128472D02*
G01*
X2703482Y922474D01*
X2780483Y840471D02*
G01*
X2780483Y698474D01*
X2613482Y698474D01*
X1108114Y292091D02*
G01*
X748117Y292091D01*
X748117Y452091D02*
G01*
X748117Y292091D01*
X748117Y452091D02*
G01*
X954116Y452091D01*
X1036117Y529094D02*
G01*
X1178114Y529094D01*
X1178114Y362091D01*
X2231514Y293492D02*
G01*
X1871517Y293492D01*
X1871517Y453492D02*
G01*
X1871517Y293492D01*
X1871517Y453492D02*
G01*
X2077515Y453492D01*
X2159517Y530493D02*
G01*
X2301514Y530493D01*
X2301514Y363492D01*
X731536Y3293568D02*
G01*
X371538Y3293568D01*
X371538Y3453568D02*
G01*
X371538Y3293568D01*
X371538Y3453568D02*
G01*
X577538Y3453568D01*
X659539Y3530569D02*
G01*
X801536Y3530569D01*
X801536Y3363568D01*
X731536Y2543551D02*
G01*
X371538Y2543551D01*
X371538Y2703551D02*
G01*
X371538Y2543551D01*
X371538Y2703551D02*
G01*
X577538Y2703551D01*
X659539Y2780554D02*
G01*
X801536Y2780554D01*
X801536Y2613551D01*
X1481553Y2543551D02*
G01*
X1121554Y2543551D01*
X1121554Y2703551D02*
G01*
X1121554Y2543551D01*
X1121554Y2703551D02*
G01*
X1327554Y2703551D01*
X1409556Y2780554D02*
G01*
X1551553Y2780554D01*
X1551553Y2613551D01*
X2231568Y2543551D02*
G01*
X1871571Y2543551D01*
X1871571Y2703551D02*
G01*
X1871571Y2543551D01*
X1871571Y2703551D02*
G01*
X2077569Y2703551D01*
X2159571Y2780554D02*
G01*
X2301568Y2780554D01*
X2301568Y2613551D01*
X2981584Y2543551D02*
G01*
X2621586Y2543551D01*
X2621586Y2703551D02*
G01*
X2621586Y2543551D01*
X2621586Y2703551D02*
G01*
X2827586Y2703551D01*
X2909588Y2780554D02*
G01*
X3051584Y2780554D01*
X3051584Y2613551D01*
X211493Y3475961D02*
G01*
X211493Y3420844D01*
X211493Y3416907D01*
X195745Y3401158D01*
X97321Y3401158D01*
X85509Y3401158D01*
X73699Y3412970D01*
X73699Y3472024D01*
G75*
G01*
X731516Y1793495D02*
G03*
X801516Y1863495I339J69661D01*
G75*
G01*
X577516Y1953495D02*
G03*
X659516Y2030495I-4757J87228D01*
G75*
G01*
X1481516Y1793495D02*
G03*
X1551516Y1863495I339J69661D01*
G75*
G01*
X1327516Y1953495D02*
G03*
X1409516Y2030495I-4757J87228D01*
G75*
G01*
X2231516Y1793495D02*
G03*
X2301516Y1863495I339J69661D01*
G75*
G01*
X2077516Y1953495D02*
G03*
X2159516Y2030495I-4757J87228D01*
G75*
G01*
X2981616Y1793495D02*
G03*
X3051616Y1863495I339J69661D01*
G75*
G01*
X2827616Y1953495D02*
G03*
X2909616Y2030495I-4757J87228D01*
G75*
G01*
X731516Y1043495D02*
G03*
X801516Y1113495I339J69661D01*
G75*
G01*
X577516Y1203495D02*
G03*
X659516Y1280495I-4757J87228D01*
G75*
G01*
X1481516Y1043495D02*
G03*
X1551516Y1113495I339J69661D01*
G75*
G01*
X1327516Y1203495D02*
G03*
X1409516Y1280495I-4757J87228D01*
G75*
G01*
X2231516Y1043495D02*
G03*
X2301516Y1113495I339J69661D01*
G75*
G01*
X2077516Y1203495D02*
G03*
X2159516Y1280495I-4757J87228D01*
G75*
G01*
X2543485Y768474D02*
G03*
X2613485Y698474I69661J-339D01*
G75*
G01*
X2703485Y922474D02*
G03*
X2780485Y840474I87228J4757D01*
G75*
G01*
X1108116Y292095D02*
G03*
X1178116Y362095I339J69661D01*
G75*
G01*
X954116Y452095D02*
G03*
X1036116Y529095I-4757J87228D01*
G75*
G01*
X2231516Y293495D02*
G03*
X2301516Y363495I339J69661D01*
G75*
G01*
X2077516Y453495D02*
G03*
X2159516Y530495I-4757J87228D01*
G75*
G01*
X731538Y3293571D02*
G03*
X801538Y3363571I339J69661D01*
G75*
G01*
X577538Y3453571D02*
G03*
X659538Y3530571I-4757J87228D01*
G75*
G01*
X731538Y2543555D02*
G03*
X801538Y2613555I339J69661D01*
G75*
G01*
X577538Y2703555D02*
G03*
X659538Y2780555I-4757J87228D01*
G75*
G01*
X1481554Y2543555D02*
G03*
X1551554Y2613555I339J69661D01*
G75*
G01*
X1327554Y2703555D02*
G03*
X1409554Y2780555I-4757J87228D01*
G75*
G01*
X2231570Y2543555D02*
G03*
X2301570Y2613555I339J69661D01*
G75*
G01*
X2077570Y2703555D02*
G03*
X2159570Y2780555I-4757J87228D01*
G75*
G01*
X2981586Y2543555D02*
G03*
X3051586Y2613555I339J69661D01*
G75*
G01*
X2827586Y2703555D02*
G03*
X2909586Y2780555I-4757J87228D01*
G75*
G01
X2499360Y3180040D02*
G03X2499360Y3180040I-24600J0D01*
M02*
