G04 Layer: TopSilkscreenLayer*
G04 EasyEDA v6.5.48, 2025-01-23 00:24:19*
G04 679677d7e51945128001c62092012e12,98668e1c1e3843b3a942620e40044077,10*
G04 Gerber Generator version 0.2*
G04 Scale: 100 percent, Rotated: No, Reflected: No *
G04 Dimensions in inches *
G04 leading zeros omitted , absolute positions ,3 integer and 6 decimal *
%FSLAX36Y36*%
%MOIN*%

%ADD10C,0.0080*%
%ADD11C,0.0060*%
%ADD12C,0.0079*%
%ADD13C,0.0100*%
%ADD14C,0.0039*%
%ADD15C,0.0039*%
%ADD16C,0.0059*%
%ADD17C,0.0128*%

%LPD*%
D10*
X1881999Y3942399D02*
G01*
X1881999Y3904200D01*
X1881999Y3942399D02*
G01*
X1896499Y3904200D01*
X1911099Y3942399D02*
G01*
X1896499Y3904200D01*
X1911099Y3942399D02*
G01*
X1911099Y3904200D01*
X1944899Y3929600D02*
G01*
X1944899Y3904200D01*
X1944899Y3924200D02*
G01*
X1941300Y3927800D01*
X1937600Y3929600D01*
X1932200Y3929600D01*
X1928500Y3927800D01*
X1924899Y3924200D01*
X1923100Y3918699D01*
X1923100Y3915100D01*
X1924899Y3909600D01*
X1928500Y3905999D01*
X1932200Y3904200D01*
X1937600Y3904200D01*
X1941300Y3905999D01*
X1944899Y3909600D01*
X1978699Y3942399D02*
G01*
X1978699Y3904200D01*
X1978699Y3924200D02*
G01*
X1975100Y3927800D01*
X1971499Y3929600D01*
X1966000Y3929600D01*
X1962399Y3927800D01*
X1958699Y3924200D01*
X1956899Y3918699D01*
X1956899Y3915100D01*
X1958699Y3909600D01*
X1962399Y3905999D01*
X1966000Y3904200D01*
X1971499Y3904200D01*
X1975100Y3905999D01*
X1978699Y3909600D01*
X1990699Y3918699D02*
G01*
X2012500Y3918699D01*
X2012500Y3922399D01*
X2010699Y3925999D01*
X2008900Y3927800D01*
X2005299Y3929600D01*
X1999799Y3929600D01*
X1996199Y3927800D01*
X1992500Y3924200D01*
X1990699Y3918699D01*
X1990699Y3915100D01*
X1992500Y3909600D01*
X1996199Y3905999D01*
X1999799Y3904200D01*
X2005299Y3904200D01*
X2008900Y3905999D01*
X2012500Y3909600D01*
X2052500Y3942399D02*
G01*
X2052500Y3904200D01*
X2052500Y3924200D02*
G01*
X2056199Y3927800D01*
X2059799Y3929600D01*
X2065299Y3929600D01*
X2068900Y3927800D01*
X2072500Y3924200D01*
X2074399Y3918699D01*
X2074399Y3915100D01*
X2072500Y3909600D01*
X2068900Y3905999D01*
X2065299Y3904200D01*
X2059799Y3904200D01*
X2056199Y3905999D01*
X2052500Y3909600D01*
X2088199Y3929600D02*
G01*
X2099099Y3904200D01*
X2110000Y3929600D02*
G01*
X2099099Y3904200D01*
X2095500Y3896900D01*
X2091800Y3893299D01*
X2088199Y3891500D01*
X2086400Y3891500D01*
X2123800Y3925999D02*
G01*
X2121999Y3924200D01*
X2123800Y3922399D01*
X2125600Y3924200D01*
X2123800Y3925999D01*
X2123800Y3913299D02*
G01*
X2121999Y3911500D01*
X2123800Y3909600D01*
X2125600Y3911500D01*
X2123800Y3913299D01*
X2165600Y3942399D02*
G01*
X2165600Y3904200D01*
X2165600Y3942399D02*
G01*
X2191099Y3904200D01*
X2191099Y3942399D02*
G01*
X2191099Y3904200D01*
X2213999Y3942399D02*
G01*
X2210399Y3940500D01*
X2206700Y3936900D01*
X2204899Y3933299D01*
X2203100Y3927800D01*
X2203100Y3918699D01*
X2204899Y3913299D01*
X2206700Y3909600D01*
X2210399Y3905999D01*
X2213999Y3904200D01*
X2221300Y3904200D01*
X2224899Y3905999D01*
X2228500Y3909600D01*
X2230399Y3913299D01*
X2232200Y3918699D01*
X2232200Y3927800D01*
X2230399Y3933299D01*
X2228500Y3936900D01*
X2224899Y3940500D01*
X2221300Y3942399D01*
X2213999Y3942399D01*
X2256899Y3942399D02*
G01*
X2256899Y3904200D01*
X2244200Y3942399D02*
G01*
X2269600Y3942399D01*
X2281599Y3942399D02*
G01*
X2281599Y3904200D01*
X2281599Y3942399D02*
G01*
X2305299Y3942399D01*
X2281599Y3924200D02*
G01*
X2296199Y3924200D01*
X2317299Y3942399D02*
G01*
X2317299Y3904200D01*
X2329300Y3942399D02*
G01*
X2329300Y3904200D01*
X2329300Y3942399D02*
G01*
X2354700Y3904200D01*
X2354700Y3942399D02*
G01*
X2354700Y3904200D01*
X2366700Y3942399D02*
G01*
X2366700Y3904200D01*
X2366700Y3942399D02*
G01*
X2379499Y3942399D01*
X2384899Y3940500D01*
X2388500Y3936900D01*
X2390399Y3933299D01*
X2392200Y3927800D01*
X2392200Y3918699D01*
X2390399Y3913299D01*
X2388500Y3909600D01*
X2384899Y3905999D01*
X2379499Y3904200D01*
X2366700Y3904200D01*
X1883800Y3853299D02*
G01*
X1883800Y3855100D01*
X1885600Y3858699D01*
X1887500Y3860500D01*
X1891099Y3862399D01*
X1898400Y3862399D01*
X1901999Y3860500D01*
X1903800Y3858699D01*
X1905600Y3855100D01*
X1905600Y3851500D01*
X1903800Y3847800D01*
X1900200Y3842399D01*
X1881999Y3824200D01*
X1907500Y3824200D01*
X1930399Y3862399D02*
G01*
X1924899Y3860500D01*
X1921300Y3855100D01*
X1919499Y3845999D01*
X1919499Y3840500D01*
X1921300Y3831500D01*
X1924899Y3825999D01*
X1930399Y3824200D01*
X1933999Y3824200D01*
X1939499Y3825999D01*
X1943100Y3831500D01*
X1944899Y3840500D01*
X1944899Y3845999D01*
X1943100Y3855100D01*
X1939499Y3860500D01*
X1933999Y3862399D01*
X1930399Y3862399D01*
X1958699Y3853299D02*
G01*
X1958699Y3855100D01*
X1960500Y3858699D01*
X1962399Y3860500D01*
X1966000Y3862399D01*
X1973299Y3862399D01*
X1976899Y3860500D01*
X1978699Y3858699D01*
X1980500Y3855100D01*
X1980500Y3851500D01*
X1978699Y3847800D01*
X1975100Y3842399D01*
X1956899Y3824200D01*
X1982399Y3824200D01*
X2012500Y3862399D02*
G01*
X1994399Y3836900D01*
X2021599Y3836900D01*
X2012500Y3862399D02*
G01*
X2012500Y3824200D01*
X2066400Y3869600D02*
G01*
X2033599Y3811500D01*
X2078400Y3855100D02*
G01*
X2081999Y3856900D01*
X2087500Y3862399D01*
X2087500Y3824200D01*
X2101300Y3853299D02*
G01*
X2101300Y3855100D01*
X2103100Y3858699D01*
X2104899Y3860500D01*
X2108500Y3862399D01*
X2115799Y3862399D01*
X2119499Y3860500D01*
X2121300Y3858699D01*
X2123100Y3855100D01*
X2123100Y3851500D01*
X2121300Y3847800D01*
X2117600Y3842399D01*
X2099499Y3824200D01*
X2124899Y3824200D01*
X2169600Y3869600D02*
G01*
X2136899Y3811500D01*
X2183500Y3853299D02*
G01*
X2183500Y3855100D01*
X2185299Y3858699D01*
X2187100Y3860500D01*
X2190699Y3862399D01*
X2198000Y3862399D01*
X2201599Y3860500D01*
X2203500Y3858699D01*
X2205299Y3855100D01*
X2205299Y3851500D01*
X2203500Y3847800D01*
X2199799Y3842399D01*
X2181599Y3824200D01*
X2207100Y3824200D01*
D11*
X1728400Y3583000D02*
G01*
X1697700Y3583000D01*
X1691599Y3580999D01*
X1687500Y3576900D01*
X1685500Y3570700D01*
X1685500Y3566599D01*
X1687500Y3560500D01*
X1691599Y3556399D01*
X1697700Y3554400D01*
X1728400Y3554400D01*
X1720200Y3540900D02*
G01*
X1722299Y3536799D01*
X1728400Y3530599D01*
X1685500Y3530599D01*
D12*
X2455000Y3756999D02*
G01*
X2555000Y3756999D01*
X2555000Y3356999D01*
X2455000Y3356999D01*
X2455000Y3756999D01*
D13*
X1148000Y4168000D02*
G01*
X1147899Y4168000D01*
X1488100Y4168000D01*
X1488100Y3928000D01*
X1147899Y3928000D01*
X1148000Y4168000D01*
X968000Y4108000D02*
G01*
X1668000Y4108000D01*
X1668000Y2785050D01*
X968000Y2785050D01*
X968000Y4108000D01*
X3061252Y3346754D02*
G01*
X2596685Y3346754D01*
X2718968Y3622975D02*
G01*
X2938968Y3622975D01*
X2596685Y3346754D02*
G01*
X2596685Y3497471D01*
X2596685Y3668479D02*
G01*
X2596685Y3819196D01*
X2604969Y3819196D02*
G01*
X2708269Y3819196D01*
X2749669Y3819196D02*
G01*
X2908269Y3819196D01*
X2949669Y3819196D02*
G01*
X3061252Y3819196D01*
X3061252Y3819196D02*
G01*
X3061252Y3668481D01*
X3061252Y3497467D02*
G01*
X3061252Y3346754D01*
D14*
X687454Y412130D02*
G01*
X687454Y312130D01*
X787454Y312130D01*
D15*
X562520Y187510D02*
G01*
X879185Y504176D01*
X995856Y620850D02*
G01*
X1312520Y937510D01*
X661930Y838103D02*
G01*
X1213112Y838103D01*
X1315474Y184562D02*
G01*
X559566Y184562D01*
X1315474Y940464D02*
G01*
X559566Y940464D01*
X1213155Y838130D02*
G01*
X1213155Y740731D01*
X1213155Y286930D01*
X661954Y286930D01*
X661930Y286920D02*
G01*
X937520Y562510D01*
X627520Y872510D02*
G01*
X879185Y620850D01*
X1247520Y252510D02*
G01*
X1312520Y187510D01*
X995856Y504176D02*
G01*
X1045348Y454124D01*
X661930Y838103D02*
G01*
X937520Y562510D01*
X879185Y620850D02*
G01*
X937520Y562510D01*
X1079129Y420338D02*
G01*
X1247520Y252510D01*
X879185Y504176D02*
G01*
X937520Y562510D01*
X995856Y504176D01*
X937520Y562510D02*
G01*
X995856Y620850D01*
X937520Y562510D02*
G01*
X1213112Y838103D01*
X661930Y286920D02*
G01*
X661930Y838103D01*
X1315474Y940464D02*
G01*
X1315474Y184562D01*
X937520Y562510D02*
G01*
X1213112Y286920D01*
X687520Y252510D02*
G01*
X627520Y252510D01*
X627520Y312510D01*
X1247520Y252510D02*
G01*
X1187520Y252510D01*
X1247520Y252510D02*
G01*
X1247520Y312510D01*
X627520Y812510D02*
G01*
X627520Y872510D01*
X687520Y872510D01*
X559566Y940464D02*
G01*
X559566Y184562D01*
X562520Y937510D02*
G01*
X627520Y872510D01*
X1187520Y872510D02*
G01*
X1247520Y872510D01*
X1247520Y812510D01*
D14*
X1187455Y712130D02*
G01*
X1187455Y812130D01*
X1087455Y812130D01*
X787454Y812130D02*
G01*
X687454Y812130D01*
X687454Y712130D01*
X1187455Y412130D02*
G01*
X1187455Y312130D01*
X1087455Y312130D01*
X2962910Y687478D02*
G01*
X3062910Y687478D01*
X3062910Y787478D01*
D15*
X3187529Y562545D02*
G01*
X2870864Y879209D01*
X2754188Y995880D02*
G01*
X2437529Y1312545D01*
X2536935Y661954D02*
G01*
X2536935Y1213135D01*
X3190478Y1315498D02*
G01*
X3190478Y559591D01*
X2434575Y1315498D02*
G01*
X2434575Y559591D01*
X2536908Y1213180D02*
G01*
X2634309Y1213180D01*
X3088109Y1213180D01*
X3088109Y661979D01*
X3088119Y661954D02*
G01*
X2812529Y937545D01*
X2502529Y627545D02*
G01*
X2754188Y879209D01*
X3122529Y1247545D02*
G01*
X3187529Y1312545D01*
X2870864Y995880D02*
G01*
X2920915Y1045372D01*
X2536935Y661954D02*
G01*
X2812529Y937545D01*
X2754188Y879209D02*
G01*
X2812529Y937545D01*
X2954701Y1079153D02*
G01*
X3122529Y1247545D01*
X2870864Y879209D02*
G01*
X2812529Y937545D01*
X2870864Y995880D01*
X2812529Y937545D02*
G01*
X2754188Y995880D01*
X2812529Y937545D02*
G01*
X2536935Y1213135D01*
X3088119Y661954D02*
G01*
X2536935Y661954D01*
X2434575Y1315498D02*
G01*
X3190478Y1315498D01*
X2812529Y937545D02*
G01*
X3088119Y1213135D01*
X3122529Y687545D02*
G01*
X3122529Y627545D01*
X3062529Y627545D01*
X3122529Y1247545D02*
G01*
X3122529Y1187545D01*
X3122529Y1247545D02*
G01*
X3062529Y1247545D01*
X2562529Y627545D02*
G01*
X2502529Y627545D01*
X2502529Y687545D01*
X2434575Y559591D02*
G01*
X3190478Y559591D01*
X2437529Y562545D02*
G01*
X2502529Y627545D01*
X2502529Y1187545D02*
G01*
X2502529Y1247545D01*
X2562529Y1247545D01*
D14*
X2662910Y1187478D02*
G01*
X2562910Y1187478D01*
X2562910Y1087478D01*
X2562910Y787478D02*
G01*
X2562910Y687478D01*
X2662910Y687478D01*
X2962910Y1187478D02*
G01*
X3062910Y1187478D01*
X3062910Y1087478D01*
D13*
G75*
G01*
X2898969Y3622975D02*
G02*
X2758969Y3622975I-70000J-39135D01*
D15*
G75*
G01*
X879184Y504175D02*
G03*
X995856Y504175I58336J58337D01*
G75*
G01*
X995855Y620849D02*
G03*
X879183Y620849I-58336J-58337D01*
G75*
G01*
X879183Y620849D02*
G03*
X879183Y504176I58336J-58336D01*
G75*
G01*
X995855Y504176D02*
G03*
X995855Y620849I-58336J58337D01*
G75*
G01*
X2870865Y879208D02*
G03*
X2870865Y995880I-58337J58336D01*
G75*
G01*
X2754191Y995879D02*
G03*
X2754191Y879207I58337J-58336D01*
G75*
G01*
X2754191Y879207D02*
G03*
X2870864Y879207I58336J58336D01*
G75*
G01*
X2870864Y995879D02*
G03*
X2754191Y995879I-58337J-58336D01*
D13*
G75*
G01
X2983970Y3582970D02*
G03X2983970Y3582970I-155000J0D01*
G75*
G01
X2960970Y3582970D02*
G03X2960970Y3582970I-132000J0D01*
G75*
G01
X2948970Y3582970D02*
G03X2948970Y3582970I-120000J0D01*
D16*
G75*
G01
X567490Y934870D02*
G03X567490Y934870I-3000J0D01*
G75*
G01
X2443170Y564510D02*
G03X2443170Y564510I-3000J0D01*
M02*
